<svg xmlns="http://www.w3.org/2000/svg" viewBox="0 0 188.81 211.71"><defs><style>.cls-1{fill:#8d7759;}.cls-2{fill:#f5efd7;}.cls-3{fill:#786040;}.cls-4{fill:#e3ddcf;}.cls-5{fill:#635036;}.cls-6{fill:#bfb793;}.cls-7{fill:#c7bea5;}.cls-8{fill:#695438;}</style></defs><g id="レイヤー_2" data-name="レイヤー 2"><g id="eri塗"><path class="cls-1" d="M51.33,59.92S23.89,34.53,17.92,30.64C13,27.46,15.66,14.12,25.8,11.49s32.66-9.38,38.29-9,93.1,19.15,107,44.3,15,32.66,15,34.54-5.25,10.51-10.89,9.76-35.28.47-42.42,0S51.33,59.92,51.33,59.92Z"/><path class="cls-2" d="M51.23,35.9s9.63,53-8.16,70.57C26.63,122.75,2.15,162.41,2.15,168.42s4.88,22.15,9.76,27a13.37,13.37,0,0,1,3.63,11.26s9.13,6.38,16.27-3,14.64-16.52,24.4-17.27,33-37.54,37.16-49.56,47.31-59.69,55.19-60.81c0,0-26.28-11.64-37.17-21S69.72,39.65,67.1,39.28,61.75,39.28,51.23,35.9Z"/><path class="cls-3" d="M53.86,56.12S32.75,38.81,33,34.58s19,1.69,19,1.69S54.36,51.47,53.86,56.12Z"/><path class="cls-3" d="M148.56,76.07s23,7.93,25.53,7.93-24.88,7-41,4.22C133.13,88.22,145.28,76.44,148.56,76.07Z"/><path class="cls-4" d="M51.84,36.27s1.83,22.86,1.88,25.16c0,0,53.94,18.37,58.45,23.43s6.71,19.39,6.71,19.39,21.52-25.7,29.45-28.18c0,0-31.35-14.79-36.35-20.58-6.18-7.17-42.81-16.93-47.37-16.68C60.53,39,51.84,36.27,51.84,36.27Z"/></g><g id="えり線"><path class="cls-5" d="M142.06,94.36c-6.46,0-12.22-.53-13.77-1l4.05-3.59c2.61.85,21.79-.51,32.43-.79,7.38-.19,11.29-.28,12.53-.18a5.23,5.23,0,0,0,3-1.59c2-1.74,3.46-4.24,3.53-5.93.2-4.48-3.81-26.43-26-44.14C136.11,19.73,72.71,6.4,63.9,5,60.8,4.61,38.5,10.72,29,13.32L26.66,14A10.75,10.75,0,0,0,18.9,22c-.85,3.37-.15,5.87.3,6.39,2.5,1.17,9.78,8,24,21.76,3.68,3.56,7.49,7.25,8.13,7.74a4.5,4.5,0,0,0,2.27.94L54,64a12.46,12.46,0,0,1-5.63-2c-.74-.51-2.85-2.55-8.72-8.23C32.59,46.9,19.39,34.1,17.12,33c-3-1.25-3.81-5.45-3.58-9,.38-5.75,3.69-12.68,11.8-14.89l2.32-.63c21.53-5.87,33.81-9,37-8.43.68.11,71.47,13.32,96.28,33.15C185,52.4,189,76.16,188.8,81.47c-.16,3.72-2.91,7.42-5.22,9.46s-4.61,3-6.68,2.82c-1-.08-6.36.06-12,.2C155.24,94.2,147.68,94.36,142.06,94.36Z"/><path class="cls-6" d="M22.88,211.71a11.56,11.56,0,0,1-8.33-2.88,4.09,4.09,0,0,1-1.16-2c0-2.55-5.62-13.56-9-19.43C-1.33,177.29-1.14,175.77,3.08,159c3.42-13.58,25.24-39.47,37-53.38,2.79-3.3,5-5.9,5.93-7.17,3.23-4.32,3.7-24.85,4.1-35.44l4,.94c-.11,3,1.15,30.51-4.07,37.49-1,1.39-3.17,3.91-6.11,7.41-10.65,12.62-32.81,38.9-35.94,51.37-4,16-4,16.21.83,24.7,6.53,11.43,6.6,17.24,8.23,21,1.84.6,7.05,1.34,9.87.21a3.46,3.46,0,0,0,2.48-2.78c1-5.66,7.4-10.56,12.61-13.66,4.69-2.8,11.15-5.68,14.17-5.68h0c3.52-1,22.23-18.13,28.69-35.2,4.38-11.59,16.84-28.35,22-35,3.85-5,17.26-19.74,21.25-20.43l4.55.66c.21,0-3.29,3.74-3.29,3.74-3.8,2.36-33.08,34.95-39.83,52.81-4.21,11.13-12.62,21.19-17.26,26.19-1.93,2.08-11.82,12.48-16.18,12.24h0c-1.1,0-6.24,1.79-11.71,5.07-5.82,3.5-9.6,7.29-10.09,10.13-.66,3.82-3.49,6.4-8,7.27A17.78,17.78,0,0,1,22.88,211.71Zm33.46-27.77Z"/><path class="cls-7" d="M66.65,63.83l-2.8-1.06c1.2-3.16-1.2-14.93-3-21.6l2.9-.78C64.26,42.25,68.59,58.74,66.65,63.83Z"/><path class="cls-7" d="M76.71,65.83,74,64.53c1.8-3.74,2.06-15.65,2-19.92l3,0C79,46.21,79.13,60.78,76.71,65.83Z"/><path class="cls-7" d="M90.52,68.4l-2.93-.63c.88-4.09,8.12-15.29,8.94-16.55L99,52.86C96.89,56.16,91.17,65.39,90.52,68.4Z"/><path class="cls-7" d="M101.61,75.05,99,73.51c4.42-7.36,13.25-11.41,13.62-11.58l1.24,2.74C113.81,64.71,105.53,68.51,101.61,75.05Z"/><path class="cls-7" d="M114.45,80l-2.36-1.86c5.71-7.2,15.41-7.86,15.82-7.89l.18,3C128,73.25,119.3,73.87,114.45,80Z"/><path class="cls-7" d="M121.77,85.68l-2.27-2c5.35-6.16,18.52-9,19.08-9.12l.62,2.93C139.08,77.56,126.45,80.29,121.77,85.68Z"/><path class="cls-8" d="M141.92,89.28a31,31,0,0,1-8.44-.92l2.14-2.15c9.56,1,24.16-.37,32.87-2.38l-20.57-6.41c-3.45-1.64-33.8-16.19-37-21.12-2.35-3.67-37.1-16-43.75-15.53s-15.32-3-15.69-3.11c-7.78-2.72-15.93-4.22-17-3.14.19,2.73,8.86,11.24,18.7,19.13l.26,3.5c-3.52-2.82-21.62-17-21.92-22.48a2.92,2.92,0,0,1,1.16-2.56c3.55-2.66,16.12,1.43,19.88,2.75.16.06,8.38,3.36,14.42,2.92,3.76-.27,15,2.94,24.45,6.24,5.89,2.06,19.82,7.21,22,10.66,2,3.16,22.89,13.92,35.63,20l30.34,9.42-5,1.35C173.53,85.7,155.65,89.27,141.92,89.28Z"/></g></g></svg>