<svg xmlns="http://www.w3.org/2000/svg" viewBox="0 0 221.99 225.7"><defs><style>.cls-1{fill:#71a82e;}.cls-2{fill:#ade36b;}.cls-3{fill:#568023;}.cls-4{fill:#8eba58;}</style></defs><g id="レイヤー_2" data-name="レイヤー 2"><g id="大葉塗り"><path class="cls-1" d="M86.14,164s-20.27,0-38.67-9c0,0,19.15-.38,24.78-2.63,0,0-30.41-.75-39-10.14s-15-42.42-21.78-42.8c0,0,14.65,1.13,18.4,6.76a25.52,25.52,0,0,1-.75-20.65c4.5-11.26,1.12-15.94,1.12-15.94s10.89,9.56,14.65,18.2c0,0-1.13-27.25-7.14-32,0,0,14.27-2.9,23.65,5.36,0,0-1.5-16.14,8.26-24.78s9-19.14,9-19.14,18,11.64,20.28,19.14c0,0,11.63-23.65,39.41-22.52,0,0-8.63,15-4.13,23.28,0,0,7.51-16.9,21.4-19.15,0,0-.37,9.38,4.88,10.51,0,0,20.28-31.91,50.68-24.78,0,0-20.27,8.26-24,36.79,0,0,8.63,4.51,17.27,1.88,0,0-4.51,20.66-13.52,27.23,0,0,0,13.32,18,15.57,0,0-10.14,14.26-22.9,16.52,0,0,19.15,5.63,30.78,20.64,0,0-6.75-1.5-10.51,1.88s-16.14,7.51-19.14,7.51c0,0,11.26,12,20.64,11.64,0,0-6.38.66-9.76,3.52s-12,10-24,9.62c0,0,16.52,4.88,25.9,11.26,0,0-20.27-2.36-31.16,5.39s-33.41,13.76-49.55-5.39c0,0-3.76,6.79-1.13,12.78,0,0-12.76-4.15-21.77-13.91Z"/><path class="cls-2" d="M44.09,218.17l11.64,4.51s78.09-102.68,87.85-160C143.58,62.66,117.86,140.23,44.09,218.17Z"/><path class="cls-2" d="M110.92,110.67s-4.13-37.08,0-48c0,0-10.14,38.3-5.63,51.6Z"/><path class="cls-2" d="M97.4,136S80.89,108,82.39,75.38c0,0-7.14,46.55,11.45,62.32Z"/><path class="cls-2" d="M63.62,124.56s8,16.8,25.6,22.29l-2.33,3.61S67.75,137.7,63.62,124.56Z"/><path class="cls-2" d="M172.53,111.55s-24.77,12.7-43.55,13.67l4.88-6.84S139.87,120.93,172.53,111.55Z"/><path class="cls-2" d="M166.85,139.53s-18.37,8.05-46.55,5.91v-5.91S122.18,144.12,166.85,139.53Z"/><path class="cls-2" d="M153,164.35s-24.4-.27-38.85-5.39l2.44-4S117.3,158.34,153,164.35Z"/><path class="cls-3" d="M123.12,184.82l-5.85-1.93c-.77-.26-17.79-4.86-24.29-14l2.89-4.38c3.86,5.42,13.38,9.86,18.87,12.08a28.49,28.49,0,0,1,2.13-9.84l1.47-3.5L121,166c20.17,20.93,39.57,9.26,48.89,3.65l1.39-.83c4.73-2.78,16.94-2.78,23.19-3-6-2.66-17.07-8.34-20.46-9.38h0c2.36.7,15.84-6,19.36-9s8.1-3,10.11-4a185.17,185.17,0,0,1-18.21-10.17l-3.58-4,5.41-.11c3.88-.08,14.2-4.75,17.83-7.11A16.32,16.32,0,0,1,211.5,120c-10.13-10.26-26.14-15.94-26.32-16l-10.78-3.77,11.36-1.08c7.36-.7,14.68-7.9,18.46-12.23a20.4,20.4,0,0,1-15.83-17.16l-.16-1.86,1.73-.68c4.58-1.81,8.84-12.95,11.08-21.57-7.31.75-14.65-2.78-15-3l-1.69-.83.32-1.85c3.54-20.15,12.68-30.24,19.05-35-23.09-.91-41,24.53-41.18,24.81l-.86,1.24-1.5-.18c-1-.12-5.89-1.19-6.9-10.12-6.81,2.14-14.34,13-16.9,17.52L134,42.46l-2.06-4.29c-3.36-7,0-16.64,2.34-21.87-21.86,1.08-33.07,21-33.18,21.24l-3.67,6.67-1-7.54C96,33.2,87.86,26.44,80.75,21.57a26.5,26.5,0,0,1-9.59,16.74c-8.22,6.41-7.31,22.48-7.3,22.64l.43,6.85-4.74-5c-4.41-4.63-12.63-5.12-17.51-5C47.37,68.44,47.36,86,47.35,87.7a.91.91,0,0,1,0,.17l-5-.13v-.09c-.16-1.49-3.88-6.18-8.87-11.35a26.8,26.8,0,0,1-2.1,10.2c-3.05,7.09.78,18.75.82,18.87l4.15,12.43-8.43-10c-2-2.36-5.94-3.86-9.63-4.75,2.78,4.46,4.91,10.6,7.12,17,2.77,8,5.63,16.2,9.63,20.52,7.09,7.66,29.27,9.34,37.21,9.34l.26,5-15.24,1.62c13.57,4.4,34.2,5.82,32.66,5.73L86.84,167c-1.17-.09-27.05-2-40.62-9.91l-6.61-3.84,9.48-1c-7-1.59-13.83-4.18-17.72-8.38-4.71-5.09-7.75-13.83-10.68-22.28-3-8.73-6.17-17.75-10.43-20L0,96.18l11.59.73a44.17,44.17,0,0,1,14.26,3.4c-.8-4.65-1.19-10.86.93-15.78a23.46,23.46,0,0,0,1-14.26l-2.55-8.75,6.65,6.22A125.4,125.4,0,0,1,41.86,78c-.73-7.38-2.44-16.29-6.08-20.69L33,54l4.34-.67c.6-.1,12.82-1.92,21.59,2.88.38-6.15,2.14-16.31,9.17-21.8,8.22-6.41,8-17,8-17.1L76,12.61,80,15.07c2.75,1.72,14.38,9.24,19.28,16.19,5.14-7,18.08-21.07,39.22-20l4.06.22-2,3.53c-1.58,2.75-4.68,9.49-5,15.34,4.32-6.1,12-15,20-15h.1l2.43,0,0,2.43c.06,2.72.75,5.84,1.7,7.28,5.43-7,26.06-30.87,52-23.91l8,2.14L212,6c-.68.24-16.6,6.08-22,32.9,2.89,1.1,8.87,2.88,13.53,1.07l4.29-1.66-.94,4.5c-.5,2.41-4.87,22.32-13.18,28,.84,3.31,4,10.86,15.44,11.76l4.43.34-2.6,3.61c-.39.54-7.89,10.84-17.5,15.44,7.18,3.32,18.51,9.62,25.36,18.77l3.2,4.28-5.34-.29c-2.41-.12-7,.17-9,1.48a74.94,74.94,0,0,1-15.36,6.93c3.57,3.12,9.5,10,15.5,10.12h0c-2.22.31-8.18,4.24-10.45,7.21-2.15,2.79-7.54,5.33-12.79,6.9,6.13,2.29,13.49,5.43,17,8.38l6,5.07-7.81-.67c-5.09-.43-19.67-.76-25.88,2.9l-1.35.81c-8.41,5.06-30.16,18.14-52.13-1.62-.62,2.56-.9,5.41,0,7Z"/></g><g id="大葉線"><path class="cls-4" d="M56.61,225.7l-16.73-6.48,2.33-2.69c.37-.43,36.37-43.09,41.23-49.84l3.4.35C82.53,173,55,207.34,46.7,217l8.23,3.37L93,168.9l3,3.34Z"/></g></g></svg>