<svg xmlns="http://www.w3.org/2000/svg" viewBox="0 0 212.59 218.57"><defs><style>.cls-1{fill:#70872a;}.cls-2{fill:#566a1c;}.cls-3{fill:#45572b;}.cls-4{fill:#4f611f;}.cls-5{fill:#b7b166;}.cls-6{fill:#425224;}.cls-7{fill:#edebc9;}.cls-8{fill:#465b25;}.cls-9{fill:#2d3d18;}.cls-10{fill:#5a6918;}</style></defs><g id="レイヤー_2" data-name="レイヤー 2"><g id="オクラ塗り"><path class="cls-1" d="M164.16,16l16.94,7.31a2.09,2.09,0,0,0,1,.16l14.5-.95a2.07,2.07,0,0,1,2.17,2.42l-1,5.68a2.06,2.06,0,0,0,1.21,2.26l10.88,4.75a2.07,2.07,0,0,1-.57,3.95L187.46,44.3c-.39.05-20.67,16.73-20.67,16.73a2.07,2.07,0,0,1-3.28-.94l-4.94-14.82a2.1,2.1,0,0,0-.91-1.14l-17.12-10a2.06,2.06,0,0,1,.85-3.84l13.55-1.11a2.06,2.06,0,0,0,1.84-1.68l4.53-10A2.08,2.08,0,0,1,164.16,16Z"/><path class="cls-1" d="M139.8,31.28S114.92,125,110,133.63s-3,25.39-8.17,42.24c-4.87,15.94-15,31.81-17.26,33.31s8.34,7.89,18.11,7.89c0,0,51.71-51.43,57.72-58.94S209.53,62,211,39.64l-33-12.16-14.64,3.38Z"/><path class="cls-1" d="M177.05,1.86s-.35,20.53-3.38,23.94L184.92,30s5.47-24.49,5-27A78.28,78.28,0,0,1,177.05,1.86Z"/><path class="cls-2" d="M139.8,31.28s16.34,9.81,18.77,14-32.76,88.36-32.76,88.36-37.47,72.54-39.16,75.43c0,0,20-68.11,21.7-71.77s29.47-98.62,29.47-98.62S138.21,32.28,139.8,31.28Z"/><path class="cls-2" d="M187.07,44.35l-39.4,105.52S100.26,217.12,98,216.62a17.8,17.8,0,0,0,4.73.45l57.72-58.94S209.08,71.32,211,39.64Z"/><path class="cls-3" d="M194.56,89.9l-46.89,57.92L97.22,216.47a19.57,19.57,0,0,0,5.5.6l57.72-57.53S181.74,120.4,194.56,89.9Z"/><polygon class="cls-4" points="102.64 75.94 82.88 88.34 68.62 107.7 58.77 90.3 37.67 84.67 53.07 72.45 48.83 54.43 70.44 60.12 85.2 51.45 87.52 69.18 102.64 75.94"/><path class="cls-1" d="M92.36,76.75,79.07,85.1a.4.4,0,0,0-.15.14l-9.73,13.2a.56.56,0,0,1-.93-.06L61.69,86.77a.57.57,0,0,0-.34-.27l-14-3.73a.56.56,0,0,1-.22-1l9.5-8.26a.54.54,0,0,0,.18-.52L54.7,61.33a.56.56,0,0,1,.7-.64l14.37,4a.55.55,0,0,0,.43-.06L79.93,59a.55.55,0,0,1,.83.4L82.28,71a.58.58,0,0,0,.33.44l9.68,4.33A.55.55,0,0,1,92.36,76.75Z"/><path class="cls-5" d="M81.24,77,74.5,81.19a.63.63,0,0,0-.22.21l-5,6.85a.81.81,0,0,1-1.36-.08l-3.28-5.8a.83.83,0,0,0-.5-.38l-6.9-1.84a.81.81,0,0,1-.32-1.4l4.52-3.93a.81.81,0,0,0,.26-.75l-1-5.64a.8.8,0,0,1,1-.92l7.25,2a.77.77,0,0,0,.63-.09l4.74-2.78a.81.81,0,0,1,1.21.6l.74,5.65a.8.8,0,0,0,.48.63l4.44,2A.81.81,0,0,1,81.24,77Z"/><polygon class="cls-6" points="37.67 84.67 40.87 91.92 55.49 96.63 71.17 114.22 68.62 107.7 58.77 90.3 37.67 84.67"/><polygon class="cls-6" points="102.64 75.94 105.55 82.53 87.49 91.95 71.17 114.22 68.62 107.7 82.88 88.34 102.64 75.94"/><path class="cls-7" d="M64.33,76.73c.56.68.22,1.88-.76,2.67s-2.22.88-2.78.2-.21-1.89.77-2.68S63.78,76,64.33,76.73Z"/><path class="cls-7" d="M70.39,81.37c.59.65.31,1.87-.62,2.71s-2.16,1-2.76.36-.32-1.87.62-2.72S69.79,80.72,70.39,81.37Z"/><path class="cls-7" d="M65.82,69.62c.55.68.21,1.88-.77,2.67s-2.22.88-2.78.2-.21-1.88.77-2.68S65.26,68.93,65.82,69.62Z"/><path class="cls-7" d="M78,75.64c.5.72.07,1.89-1,2.61s-2.28.72-2.78,0-.08-1.89,1-2.61S77.48,74.92,78,75.64Z"/><path class="cls-7" d="M74.4,69.38c.51.73.08,1.89-1,2.61s-2.28.72-2.78,0-.07-1.9,1-2.62S73.9,68.66,74.4,69.38Z"/><polygon class="cls-4" points="102.64 75.94 82.88 88.34 68.62 107.7 58.77 90.3 37.67 84.67 53.07 72.45 48.83 54.43 70.44 60.12 85.2 51.45 87.52 69.18 102.64 75.94"/><path class="cls-1" d="M92.36,76.75,79.07,85.1a.4.4,0,0,0-.15.14l-9.73,13.2a.56.56,0,0,1-.93-.06L61.69,86.77a.57.57,0,0,0-.34-.27l-14-3.73a.56.56,0,0,1-.22-1l9.5-8.26a.54.54,0,0,0,.18-.52L54.7,61.33a.56.56,0,0,1,.7-.64l14.37,4a.55.55,0,0,0,.43-.06L79.93,59a.55.55,0,0,1,.83.4L82.28,71a.58.58,0,0,0,.33.44l9.68,4.33A.55.55,0,0,1,92.36,76.75Z"/><path class="cls-5" d="M81.24,77,74.5,81.19a.63.63,0,0,0-.22.21l-5,6.85a.81.81,0,0,1-1.36-.08l-3.28-5.8a.83.83,0,0,0-.5-.38l-6.9-1.84a.81.81,0,0,1-.32-1.4l4.52-3.93a.81.81,0,0,0,.26-.75l-1-5.64a.8.8,0,0,1,1-.92l7.25,2a.77.77,0,0,0,.63-.09l4.74-2.78a.81.81,0,0,1,1.21.6l.74,5.65a.8.8,0,0,0,.48.63l4.44,2A.81.81,0,0,1,81.24,77Z"/><polygon class="cls-6" points="37.67 84.67 40.87 91.92 55.49 96.63 71.17 114.22 68.62 107.7 58.77 90.3 37.67 84.67"/><polygon class="cls-6" points="102.64 75.94 105.55 82.53 87.49 91.95 71.17 114.22 68.62 107.7 82.88 88.34 102.64 75.94"/><path class="cls-7" d="M64.33,76.73c.56.68.22,1.88-.76,2.67s-2.22.88-2.78.2-.21-1.89.77-2.68S63.78,76,64.33,76.73Z"/><path class="cls-7" d="M70.39,81.37c.59.65.31,1.87-.62,2.71s-2.16,1-2.76.36-.32-1.87.62-2.72S69.79,80.72,70.39,81.37Z"/><path class="cls-7" d="M65.82,69.62c.55.68.21,1.88-.77,2.67s-2.22.88-2.78.2-.21-1.88.77-2.68S65.26,68.93,65.82,69.62Z"/><path class="cls-7" d="M78,75.64c.5.72.07,1.89-1,2.61s-2.28.72-2.78,0-.08-1.89,1-2.61S77.48,74.92,78,75.64Z"/><path class="cls-7" d="M74.4,69.38c.51.73.08,1.89-1,2.61s-2.28.72-2.78,0-.07-1.9,1-2.62S73.9,68.66,74.4,69.38Z"/><polygon class="cls-4" points="73.01 158.29 46.25 162.2 22.05 176.06 19.76 152.99 0 137.15 22.05 131.39 25.98 110.29 46.25 126.44 65.96 124.14 60.13 144.03 73.01 158.29"/><path class="cls-1" d="M61.72,154.34l-18,2.63a.63.63,0,0,0-.23.08L27,166.5A.63.63,0,0,1,26,166l-1.54-15.4a.65.65,0,0,0-.24-.44l-13.1-10.51a.64.64,0,0,1,.21-1.11l14-4.33a.64.64,0,0,0,.43-.46L29,120.35a.64.64,0,0,1,1-.34l13.37,11a.63.63,0,0,0,.48.14l13-1.51a.65.65,0,0,1,.7.82l-3.84,13.08a.64.64,0,0,0,.14.61l8.25,9.13A.65.65,0,0,1,61.72,154.34Z"/><path class="cls-5" d="M49.82,149.36l-9.12,1.33a.92.92,0,0,0-.33.11l-8.57,4.91a.94.94,0,0,1-1.4-.72l-.77-7.68a1,1,0,0,0-.34-.64l-6.47-5.18a.94.94,0,0,1,.31-1.63l6.64-2.06a1,1,0,0,0,.63-.68L32,130.66a.94.94,0,0,1,1.51-.5l6.75,5.55a1,1,0,0,0,.7.21l6.33-.74a.94.94,0,0,1,1,1.2l-1.86,6.34a1,1,0,0,0,.2.89l3.79,4.19A.94.94,0,0,1,49.82,149.36Z"/><polygon class="cls-6" points="0 137.15 0 146.33 13.31 158.17 21.72 184.17 22.05 176.06 19.76 152.99 0 137.15"/><polygon class="cls-6" points="73.01 158.29 73.01 166.64 49.44 168.18 21.72 184.17 22.05 176.06 46.25 162.2 73.01 158.29"/><path class="cls-7" d="M32,141.2c.27,1-.65,2.09-2.06,2.48s-2.77-.11-3-1.1.66-2.09,2.07-2.48S31.74,140.21,32,141.2Z"/><path class="cls-7" d="M36.25,149c.33,1-.53,2.13-1.92,2.6s-2.77,0-3.09-.92.53-2.13,1.92-2.59S35.93,148,36.25,149Z"/><path class="cls-7" d="M36.9,134.35c.27,1-.65,2.1-2.06,2.48s-2.77-.11-3-1.09.66-2.1,2.07-2.48S36.63,133.36,36.9,134.35Z"/><path class="cls-7" d="M47,146.43c.19,1-.81,2-2.24,2.32s-2.75-.31-3-1.31.81-2,2.24-2.32S46.79,145.42,47,146.43Z"/><path class="cls-7" d="M46.12,138.12c.2,1-.81,2-2.24,2.32s-2.75-.31-3-1.31.81-2,2.24-2.32S45.93,137.11,46.12,138.12Z"/><polygon class="cls-4" points="73.01 158.29 46.25 162.2 22.05 176.06 19.76 152.99 0 137.15 22.05 131.39 25.98 110.29 46.25 126.44 65.96 124.14 60.13 144.03 73.01 158.29"/><path class="cls-1" d="M61.72,154.34l-18,2.63a.63.63,0,0,0-.23.08L27,166.5A.63.63,0,0,1,26,166l-1.54-15.4a.65.65,0,0,0-.24-.44l-13.1-10.51a.64.64,0,0,1,.21-1.11l14-4.33a.64.64,0,0,0,.43-.46L29,120.35a.64.64,0,0,1,1-.34l13.37,11a.63.63,0,0,0,.48.14l13-1.51a.65.65,0,0,1,.7.82l-3.84,13.08a.64.64,0,0,0,.14.61l8.25,9.13A.65.65,0,0,1,61.72,154.34Z"/><path class="cls-5" d="M49.82,149.36l-9.12,1.33a.92.92,0,0,0-.33.11l-8.57,4.91a.94.94,0,0,1-1.4-.72l-.77-7.68a1,1,0,0,0-.34-.64l-6.47-5.18a.94.94,0,0,1,.31-1.63l6.64-2.06a1,1,0,0,0,.63-.68L32,130.66a.94.94,0,0,1,1.51-.5l6.75,5.55a1,1,0,0,0,.7.21l6.33-.74a.94.94,0,0,1,1,1.2l-1.86,6.34a1,1,0,0,0,.2.89l3.79,4.19A.94.94,0,0,1,49.82,149.36Z"/><polygon class="cls-6" points="0 137.15 0 146.33 13.31 158.17 21.72 184.17 22.05 176.06 19.76 152.99 0 137.15"/><polygon class="cls-6" points="73.01 158.29 73.01 166.64 49.44 168.18 21.72 184.17 22.05 176.06 46.25 162.2 73.01 158.29"/><path class="cls-7" d="M32,141.2c.27,1-.65,2.09-2.06,2.48s-2.77-.11-3-1.1.66-2.09,2.07-2.48S31.74,140.21,32,141.2Z"/><path class="cls-7" d="M36.25,149c.33,1-.53,2.13-1.92,2.6s-2.77,0-3.09-.92.53-2.13,1.92-2.59S35.93,148,36.25,149Z"/><path class="cls-7" d="M36.9,134.35c.27,1-.65,2.1-2.06,2.48s-2.77-.11-3-1.09.66-2.1,2.07-2.48S36.63,133.36,36.9,134.35Z"/><path class="cls-7" d="M47,146.43c.19,1-.81,2-2.24,2.32s-2.75-.31-3-1.31.81-2,2.24-2.32S46.79,145.42,47,146.43Z"/><path class="cls-7" d="M46.12,138.12c.2,1-.81,2-2.24,2.32s-2.75-.31-3-1.31.81-2,2.24-2.32S45.93,137.11,46.12,138.12Z"/></g><g id="オクラ線"><path class="cls-8" d="M168.91,62.14a4.23,4.23,0,0,1-1.08-.14,5.2,5.2,0,0,1-3.1-2.59l-7.2-12.78L139.28,32.46l1.84-2.37,18.73,14.54L167.38,58a2.26,2.26,0,0,0,1.23,1.1,2.23,2.23,0,0,0,1.7-.48C173,56.85,182.52,47,186,43.32l.39-.42.58,0c9.89-.79,21.41-2.51,22.78-3.91a.72.72,0,0,0-.12.23l2.86.92c-.37,1.14-1.22,3.78-24.71,5.7C185.55,48.12,175.14,59,172,61.11A5.45,5.45,0,0,1,168.91,62.14Z"/><path class="cls-9" d="M102.72,218.57A26.11,26.11,0,0,1,84.3,211l-1.78-1.86,1-1c5.72-5.6,17.57-49.38,21.66-65.78C116.12,105.2,136.85,34.59,137.3,32.69c.62-2.68,3.43-3.77,5-4,.2,0,11.24-.92,13.09-1.18,1.17-.17,2.24-3.34,3.59-8.41.72-2.71,2-4.33,3.75-4.8,2.51-.68,4.79,1.35,5.26,1.8,2.51,2,5.57,3.71,6.5,3.56.92-1.62,1.46-10.38,1.45-17.79V0l1.82.4a53.74,53.74,0,0,0,12.11,1.09l1.86-.08-3.49,20c7.51-.95,11-1,11.9,2.14.53,1.82-.13,5.43-.56,7.38,2.11,1.1,6.92,3.59,9.42,4.68,2,.86,3.1,1.83,3.48,3a2.35,2.35,0,0,1,0,1.38c-1.73,15.5-11.09,40.55-27.81,74.44-12.46,25.26-24.59,46.28-24.71,46.49l-.23.3-56.41,57.37Zm-16.07-9.51c2.15,1.92,7.86,6.27,15.45,6.5l55.39-56.33c2.4-4.18,48.2-84.32,52.06-119.75v0a5.41,5.41,0,0,0-1.77-1.08c-3.34-1.46-10.35-5.16-10.64-5.31l-1-.55.29-1.15c.53-2.14,1.18-5.83.85-7s-5.21-.46-10.65.26l-2,.27,3.56-20.43a56,56,0,0,1-9.21-.83c0,7.91-.57,16.83-2.58,18.37-2.68,2.06-8.1-1.88-10.3-3.67l-.12-.1c-.45-.44-1.64-1.3-2.43-1.08-.62.17-1.21,1.14-1.62,2.67-1.84,6.88-3,10.17-6.07,10.61-1.93.28-12.69,1.15-13.17,1.19h0s-2.1.38-2.41,1.7c-.56,2.42-30.83,105.37-32.12,109.75C106.66,148.91,94.17,198.45,86.65,209.06Z"/><path class="cls-10" d="M172.72,32.37c3.57-1.48,9.3-3.35,11.85-7.43l4.8-.62c-4.85,7.76-20.74,12.25-21.24,12.38h0c1-.7,3.42-9.24,4.89-14.27a4.06,4.06,0,0,0,3.32-.38"/><polygon class="cls-8" points="150.57 144.53 144.2 152.53 186.36 45.25 189.75 44.84 150.57 144.53"/><polygon class="cls-8" points="88.97 204.69 88.97 204.69 124.89 133.03 156.5 44.84 159.41 47.14 127.65 134.24 127.6 134.32 88.97 204.69"/></g></g></svg>