<svg xmlns="http://www.w3.org/2000/svg" viewBox="0 0 87.44 208.19"><defs><style>.cls-1{fill:#f3f1db;}.cls-2{fill:#d8d4b0;}.cls-3{fill:#ccdb9c;}.cls-4{fill:#99bd7c;}.cls-5{fill:#9bbf7d;}.cls-6{fill:#b79e6b;}.cls-7{fill:#a18b5e;}.cls-8{fill:#e5f0c5;}</style></defs><g id="レイヤー_2" data-name="レイヤー 2"><g id="kaiware"><path class="cls-1" d="M60.44,36.75s27,73.72,7.88,112,13.52,54.88,13.52,54.88-18-22.2-10.7-38.53,14.08-53.49,10.7-70.38S68,36.52,65.06,29.88,60.44,27.18,60.44,36.75Z"/><path class="cls-2" d="M87.44,208.19,81.16,205a41.51,41.51,0,0,1-14.52-13.59c-9.92-15.35-5.29-32,.34-43.29C85.62,110.81,59.3,38,59,37.27L58.94,37v-.27c0-9.66,1.58-11.3,3.12-11.62,2.08-.44,3.42,2,4.37,4.14,3.09,7,13.71,49.33,16.88,65.19,3.36,16.82-3.24,54.42-10.8,71.3-6.87,15.31,10.32,36.75,10.49,37ZM61.94,36.49A298.67,298.67,0,0,1,73,78.12c5.85,31.15,4.71,55.15-3.37,71.34-12.82,25.66-1.89,41,6.17,48.15-4.93-8.1-11.15-21.74-6.07-33.08,7.4-16.49,13.86-53.15,10.6-69.48C76.91,77.77,66.53,36.93,63.69,30.48a12.54,12.54,0,0,0-1-1.88C62.39,29.56,62,31.75,61.94,36.49Z"/><path class="cls-3" d="M51.73,35.63s-21.53-9-20.2-19.69S41.86,4.7,45.8,6.08s9,.16,14.64-3.73S87.35,8.1,76.21,19,67,35.63,67,35.63Z"/><path class="cls-4" d="M67,37.13H51.43L51.15,37c-.92-.38-22.56-9.54-21.11-21.26.71-5.74,3.48-8.57,5.68-9.94A13,13,0,0,1,46.3,4.67c3.53,1.24,8.12,0,13.29-3.55,4.19-2.9,14.48.14,19,5.61,3.5,4.24,3,9.1-1.32,13.33-10.09,9.87-8.8,15.07-8.79,15.12l.52,1.9Zm-15-3H65.39c.1-2.75,1.61-8.24,9.77-16.21,3.21-3.14,3.58-6.27,1.1-9.29-3.75-4.54-12.24-6.92-15-5-6,4.13-11.52,5.48-16,3.91a9.94,9.94,0,0,0-8,.86c-2.39,1.49-3.83,4.1-4.29,7.76C32.06,23.86,46.16,31.62,52,34.13Z"/><path class="cls-1" d="M75.84,94.76S45.23,80.68,29,80.11c0,0,34.41.57,44,7.33"/><path class="cls-2" d="M75.84,96.26a1.56,1.56,0,0,1-.63-.14c-.3-.14-30.52-14-46.26-14.51l.07-3c1.43,0,35,.66,44.85,7.6a1.5,1.5,0,0,1-1.73,2.45C68,85.72,58.6,84,49.67,83A259.07,259.07,0,0,1,76.46,93.4a1.48,1.48,0,0,1,.74,2A1.51,1.51,0,0,1,75.84,96.26Z"/><path class="cls-3" d="M35,84.62S28.91,97,16.89,94.76,1.5,89.87,1.5,84.62s9-9.39,9-9.39-6.76-13.6-1.88-14.5,16.15-1.36,16.15,0S41.85,65.1,35,84.62Z"/><path class="cls-5" d="M19.76,96.53a16.49,16.49,0,0,1-3.14-.3C5.84,94.21,0,91.76,0,84.62c0-4.87,5.76-8.57,8.53-10.07C7.06,71.36,4.24,64.37,5.87,61.12a3.37,3.37,0,0,1,2.49-1.86,68.85,68.85,0,0,1,9.47-.86c6.44-.16,7.34.58,7.77.94a1.77,1.77,0,0,1,.5.63l1,.52c4.18,2.1,15.26,7.68,9.32,24.62l-.07.17C36.29,85.4,30.68,96.53,19.76,96.53Zm-.19-35.15a67.34,67.34,0,0,0-10.67.83.39.39,0,0,0-.34.25c-.93,1.85,1.41,8.32,3.29,12.11L12.54,76l-1.4.65c-2.27,1-8.14,4.51-8.14,8,0,4,2.19,6.41,14.17,8.66,4.46.84,8.56-.43,12.19-3.78A22.09,22.09,0,0,0,33.62,84c5-14.39-3.69-18.75-7.86-20.86a5.68,5.68,0,0,1-2.24-1.53A19.85,19.85,0,0,0,19.57,61.38ZM35,84.62h0Z"/><path class="cls-6" d="M61.13,170.41s-10.25,7.89-6.88,13,13.06,4.51,13.06,4.51Z"/><path class="cls-7" d="M66.42,189.39c-2.71,0-10.25-.45-13.41-5.19-4-6.06,6-14.08,7.2-15L61.85,168l7.54,21.29-2,.12C67.32,189.37,67,189.39,66.42,189.39Zm-6-16.43c-2.77,2.53-6.67,7-4.94,9.57,1.89,2.83,6.59,3.67,9.68,3.84Z"/><path class="cls-8" d="M61.44,26.58h-2c0-9.42-6.11-13-6.36-13.19l1-1.74C54.37,11.82,61.44,16,61.44,26.58Z"/><path class="cls-8" d="M28.4,80.91C22.73,76.65,19,76,18.91,76l.29-2c.17,0,4.27.65,10.4,5.25Z"/><path class="cls-1" d="M75.84,86.38a8.76,8.76,0,0,1-2.65,2.54c-1.28.56,2.16,4,2.16,4l3.25-4Z"/><polygon class="cls-1" points="72.35 91.57 75.36 92.89 75.87 97.5 78.6 96.53 76.84 91.87 72.35 91.57"/><polygon class="cls-1" points="61.1 84.75 39.67 80.91 76.7 94.54 76.94 90.91 61.1 84.75"/><polygon class="cls-1" points="75.75 87.73 60.36 84.62 76.84 91.87 75.75 87.73"/><path class="cls-1" d="M60.44,36.75s27,73.72,7.88,112,13.52,54.88,13.52,54.88-18-22.2-10.7-38.53,14.08-53.49,10.7-70.38S68,36.52,65.06,29.88,60.44,27.18,60.44,36.75Z"/><path class="cls-2" d="M87.44,208.19,81.16,205a41.51,41.51,0,0,1-14.52-13.59c-9.92-15.35-5.29-32,.34-43.29C85.62,110.81,59.3,38,59,37.27L58.94,37v-.27c0-9.66,1.58-11.3,3.12-11.62,2.08-.44,3.42,2,4.37,4.14,3.09,7,13.71,49.33,16.88,65.19,3.36,16.82-3.24,54.42-10.8,71.3-6.87,15.31,10.32,36.75,10.49,37ZM61.94,36.49A298.67,298.67,0,0,1,73,78.12c5.85,31.15,4.71,55.15-3.37,71.34-12.82,25.66-1.89,41,6.17,48.15-4.93-8.1-11.15-21.74-6.07-33.08,7.4-16.49,13.86-53.15,10.6-69.48C76.91,77.77,66.53,36.93,63.69,30.48a12.54,12.54,0,0,0-1-1.88C62.39,29.56,62,31.75,61.94,36.49Z"/><path class="cls-3" d="M51.73,35.63s-21.53-9-20.2-19.69S41.86,4.7,45.8,6.08s9,.16,14.64-3.73S87.35,8.1,76.21,19,67,35.63,67,35.63Z"/><path class="cls-4" d="M67,37.13H51.43L51.15,37c-.92-.38-22.56-9.54-21.11-21.26.71-5.74,3.48-8.57,5.68-9.94A13,13,0,0,1,46.3,4.67c3.53,1.24,8.12,0,13.29-3.55,4.19-2.9,14.48.14,19,5.61,3.5,4.24,3,9.1-1.32,13.33-10.09,9.87-8.8,15.07-8.79,15.12l.52,1.9Zm-15-3H65.39c.1-2.75,1.61-8.24,9.77-16.21,3.21-3.14,3.58-6.27,1.1-9.29-3.75-4.54-12.24-6.92-15-5-6,4.13-11.52,5.48-16,3.91a9.94,9.94,0,0,0-8,.86c-2.39,1.49-3.83,4.1-4.29,7.76C32.06,23.86,46.16,31.62,52,34.13Z"/><path class="cls-1" d="M75.84,94.76S45.23,80.68,29,80.11c0,0,34.41.57,44,7.33"/><path class="cls-2" d="M75.84,96.26a1.56,1.56,0,0,1-.63-.14c-.3-.14-30.52-14-46.26-14.51l.07-3c1.43,0,35,.66,44.85,7.6a1.5,1.5,0,0,1-1.73,2.45C68,85.72,58.6,84,49.67,83A259.07,259.07,0,0,1,76.46,93.4a1.48,1.48,0,0,1,.74,2A1.51,1.51,0,0,1,75.84,96.26Z"/><path class="cls-3" d="M35,84.62S28.91,97,16.89,94.76,1.5,89.87,1.5,84.62s9-9.39,9-9.39-6.76-13.6-1.88-14.5,16.15-1.36,16.15,0S41.85,65.1,35,84.62Z"/><path class="cls-5" d="M19.76,96.53a16.49,16.49,0,0,1-3.14-.3C5.84,94.21,0,91.76,0,84.62c0-4.87,5.76-8.57,8.53-10.07C7.06,71.36,4.24,64.37,5.87,61.12a3.37,3.37,0,0,1,2.49-1.86,68.85,68.85,0,0,1,9.47-.86c6.44-.16,7.34.58,7.77.94a1.77,1.77,0,0,1,.5.63l1,.52c4.18,2.1,15.26,7.68,9.32,24.62l-.07.17C36.29,85.4,30.68,96.53,19.76,96.53Zm-.19-35.15a67.34,67.34,0,0,0-10.67.83.39.39,0,0,0-.34.25c-.93,1.85,1.41,8.32,3.29,12.11L12.54,76l-1.4.65c-2.27,1-8.14,4.51-8.14,8,0,4,2.19,6.41,14.17,8.66,4.46.84,8.56-.43,12.19-3.78A22.09,22.09,0,0,0,33.62,84c5-14.39-3.69-18.75-7.86-20.86a5.68,5.68,0,0,1-2.24-1.53A19.85,19.85,0,0,0,19.57,61.38ZM35,84.62h0Z"/><path class="cls-6" d="M61.13,170.41s-10.25,7.89-6.88,13,13.06,4.51,13.06,4.51Z"/><path class="cls-7" d="M66.42,189.39c-2.71,0-10.25-.45-13.41-5.19-4-6.06,6-14.08,7.2-15L61.85,168l7.54,21.29-2,.12C67.32,189.37,67,189.39,66.42,189.39Zm-6-16.43c-2.77,2.53-6.67,7-4.94,9.57,1.89,2.83,6.59,3.67,9.68,3.84Z"/><path class="cls-8" d="M61.44,26.58h-2c0-9.42-6.11-13-6.36-13.19l1-1.74C54.37,11.82,61.44,16,61.44,26.58Z"/><path class="cls-8" d="M28.4,80.91C22.73,76.65,19,76,18.91,76l.29-2c.17,0,4.27.65,10.4,5.25Z"/><path class="cls-1" d="M75.84,86.38a8.76,8.76,0,0,1-2.65,2.54c-1.28.56,2.16,4,2.16,4l3.25-4Z"/><polygon class="cls-1" points="72.35 91.57 75.36 92.89 75.87 97.5 78.6 96.53 76.84 91.87 72.35 91.57"/><polygon class="cls-1" points="61.1 84.75 39.67 80.91 76.7 94.54 76.94 90.91 61.1 84.75"/><polygon class="cls-1" points="75.75 87.73 60.36 84.62 76.84 91.87 75.75 87.73"/></g></g></svg>