<svg xmlns="http://www.w3.org/2000/svg" viewBox="0 0 148.12 116.04"><defs><style>.cls-1{fill:#e47a1f;}.cls-2{fill:#e4aa77;}.cls-3{fill:#485b22;}.cls-4{fill:#768f45;}.cls-5{fill:#b05e18;}.cls-6{fill:none;stroke:#9e5416;stroke-miterlimit:10;stroke-width:5px;}</style></defs><g id="レイヤー_2" data-name="レイヤー 2"><g id="柿"><path class="cls-1" d="M106.06,6.91S48.49-5.48,23.72,11.28s-30.6,63.39,0,84.52,83.06,17.49,96.91,11.66S148,69.74,143.94,50.63C139.57,30.22,131.56,20,106.06,6.91Z"/><path class="cls-2" d="M23,46.88S14,63,29,78s4.5-11.27,3-13.89S32.72,43.12,23,46.88Z"/><path class="cls-2" d="M37.45,94.93s-1.13-.37,0-3.75,4.88-3.38,5.25,0S43.45,96.06,37.45,94.93Z"/><path class="cls-3" d="M64.63,20.6S57,4.26,81.53,5.58c0,0-3,11.26,3,12.39,0,0,12.76-7.51,24.4.38s13.52,4.5,13.52,4.5-5.63,12-25.91,7.51c0,0-3,14.64-11.63,20.27S83,59.27,83,59.27s-22.52-9-19.52-19.9c0,0-20.84-5-26.56-7C37,32.39,47,16.47,64.63,20.6Z"/><path class="cls-4" d="M79.7,34.86s-9.44.68-10.56-2.47,4.22-8.79,10.56-7.66S95.88,30.36,79.7,34.86Z"/><path class="cls-5" d="M143.94,50.63s5.67,31-15.61,51-70.61,5.18-76,6.38S131.28,92.67,143.94,50.63Z"/><path class="cls-6" d="M50.37,2.5S9,5,3.19,48.64s25.1,52.41,65.8,62.3,85.94-8.14,75-60.31S74.77,2.8,50.37,2.5Z"/></g></g></svg>