<svg xmlns="http://www.w3.org/2000/svg" viewBox="0 0 189.44 233.34"><defs><style>.cls-1{fill:#516f35;}.cls-2{fill:#517330;}.cls-3{fill:#918a22;}.cls-4{fill:#684;}.cls-5{fill:#efeedc;}.cls-6{fill:#e0dec1;}.cls-7{fill:#547137;}.cls-8{fill:#afa38c;}.cls-9{fill:#7a7160;}.cls-10{fill:none;stroke:#d4cab8;stroke-miterlimit:10;stroke-width:2px;}.cls-11{fill:#425b2a;}.cls-12{fill:#446129;}</style></defs><g id="レイヤー_2" data-name="レイヤー 2"><g id="かぶ"><path class="cls-1" d="M149.5,59.21s24.89-8,31.81,0c4.22,4.9,3.11,14.46-2.19,19,0,0,10,8.31,6.65,17s-15.38,24.94-32.42,16.21c0,0,2.91,15-14.55,15.38,0,0-20.72.91-18.47-16,0,0-2,12.59-17.27,7.8S91.8,91.75,91.8,91.75Z"/><path class="cls-2" d="M98.73,107.85c10-7.56-1.86-26.66-1.86-26.66,6.62-3.47,16.6-16,14.23-28.13s-12.49-9-9.89-11.59,6.59-8.71,3.29-19.56-14.33-3.32-16.38-8.14-8.37-15-28.07-8.86S50.81,36.2,50.81,36.2c-7.67-1.55-14,8.16-12,18.22s19.26,17,19.26,17S49,80.15,52,91.76s13.51,13.91,17.27,12.58c0,0,4.1,9.72,13.45,10.43s12.65-10.43,12.65-10.43"/><path class="cls-3" d="M87,133.26l-4-3c14.61-19,41.74-22.43,42.88-22.57l.59,5C126.24,112.65,100.3,115.92,87,133.26Z"/><path class="cls-3" d="M82.48,130.61l-4.87-1.12c14.18-61.61-6-99.24-6.24-99.61h0C72.25,31.47,97.13,67,82.48,130.61Z"/><path class="cls-4" d="M82.36,100.7s-4.89-11,2.46-15.48c0,0-13.35-17.27-4.06-28.11S96.38,48.23,101.63,51c0,0-13.46-10.66-2.46-20.28s17.56-15.2,31.61-8.23c0,0,21.19-8.25,34.41,3.92s15.94,36.77-10.69,37.5c0,0,13.27,11.8,6.45,24.92s-16.35,13.5-21,12.77S138.18,118,120,118s-18.93-7.68-20.08-12.37C99.94,105.63,91.47,114.15,82.36,100.7Z"/><path class="cls-3" d="M87.29,132.79l-4.54-2.09c31.07-67.79,55.19-87.27,56.13-88.14h0s-4,7.22-13.34,20.73C116.91,75.76,103.27,97.94,87.29,132.79Z"/><path class="cls-5" d="M38.45,210s-55.13-19.61-28.84-66.74,105.13-18.13,116.92,7.25-1.1,55.49-19.94,62.54-38.26.08-43.7,3.7-12.5,9.89-9.78,13.52C53.11,230.27,38.45,220.87,38.45,210Z"/><path class="cls-6" d="M114.29,139.31s6,50.41-22.72,53.23-48.47,10.52-39.7,34.54c0,0,9.56-12.46,24.16-11.83s48.9,2.32,53.88-36.41S114.29,139.31,114.29,139.31Z"/><path class="cls-7" d="M177.06,54l-5.86-1h0l1.26-2.16c.1-.74,2.35-18.19-12.65-25.36-15.45-7.38-27.33-1.12-27.83-.85l-1.32.72-1.26-.82c-.41-.27-13.07-4.2-21.46,2.5l-.37-6.26c9.35-7.47,19.76-3.06,23.32-1.15C134.83,17.91,147,13.84,162,21,180.31,29.75,177.09,53.78,177.06,54Z"/><polyline class="cls-8" points="84.85 118.49 88.14 119.26 86.38 122.94 84.21 122.27 84.85 118.49"/><path class="cls-9" d="M54.57,233.34l-2.2-.69c-11.06-3.44-14.95-15.92-16-20.55-5.22-1.23-21.06-6-30.06-19.9-6.62-10.23-8-23-4.11-38.08,5.28-20.4,20.17-33.1,43.07-36.72,17-2.68,34.09.19,34.73.33L79.39,121c-2-.36-17.46-1.17-33.51,1.4-21,3.35-34.08,14.46-38.89,33C3.47,169,4.64,180.48,10.46,189.49c9.49,14.66,28.23,18,28.41,18l1.77.3.28,1.77c0,.14,2.22,13.11,10.95,17.48,2.45-4.54,9.14-14.23,21.78-13.76,1.33.05,2.81.15,4.4.25,16.08,1.05,40.37,2.64,49.69-33.54,4.21-16.33-.32-30-13.45-40.72A137.11,137.11,0,0,0,94.1,125.73l3.58-2.31c.5.14,46.2,14,34.91,57.86-10.36,40.19-39.32,38.3-54.87,37.28-1.53-.1-3-.19-4.26-.24h-.64c-12.07,0-17.17,12.35-17.39,12.88Z"/><path class="cls-10" d="M12.93,161.54s11.54-3,23.08.06"/><path class="cls-10" d="M18.22,171.86A44.85,44.85,0,0,1,36,170.41"/><path class="cls-10" d="M16,180.33s8.63-1.87,16.52,0"/></g><g id="かぶ線"><path class="cls-11" d="M137.39,129.75c-11.27,0-19.53-4.56-20.95-9.45l-.68-3.8,5.56-.17a35.33,35.33,0,0,0,5.79-1.21c4.34-1.48,7.81-6.89,10.52-14.41l.79-2.19,2.24.63c.46.12,11.6,2.92,18-11.38S154.52,65.94,154,65.65l-4.7-3.47,5.48-.19c.11,0,11.67-.1,15.61-7.52L171.2,53l1.66.15c4.87.44,13.93,3.41,13.29,11.46-.08,1-.14,2-.2,2.9-.3,4.62-.54,8.26-2.91,10.87a28.28,28.28,0,0,1,3.23,3.79c3.55,5,4.13,10,1.67,14.33-3.7,6.52-11.39,20-24.71,20a22.59,22.59,0,0,1-7.39-1.31,18.51,18.51,0,0,1-.81,4c-1.28,4-4.5,8.91-12.54,10.16A34.21,34.21,0,0,1,137.39,129.75Zm-12.19-8.9c3,2.47,8.44,4.8,16.53,3.55C152,122.81,151,113,150.87,111.83l-.62-4.65,4.2,2.06c14.07,6.94,22.33-3.21,29.14-15.2,3.62-6.36-5.89-13.74-6-13.81l-3.13-2.4L178,76c2.39-1.24,2.61-3,3-8.82.06-.93.12-1.92.21-3,.3-3.85-4.7-5.34-7.28-5.85-3.41,4.9-9,6.82-13.4,7.56,3.84,4.48,7.85,12.5,2.74,23.89-6.32,14.09-17,14.9-21.62,14.51-3.2,7.94-7.43,13.13-12.61,15.42A13.93,13.93,0,0,1,125.2,120.85Z"/><path class="cls-12" d="M80,117.73c-.36-.12-9.5-3.26-12.45-10.71-4.4.14-14-1.22-17.9-14.55-3.29-11.08.6-17.5,3.88-20.71-5.89-3.42-17-11.2-17.53-21.28-.49-9.54,6.34-14.29,11.65-16-1.26-4.49-3-13.77.79-21.67,2.59-5.33,7.21-9,13.75-11C70.57-.84,77.5-.54,82.76,2.6a17.38,17.38,0,0,1,7.18,8.64c3.57,0,11.06.71,15.24,5a11,11,0,0,1,2.92,9.22L107.94,27l-1.44.54c-.07,0-7,2.75-8.56,8.6-1.28,4.76,2,11.32,3.9,13.33L104,52.24l-3.7-1.42c-1-.6-9.69-3.38-17.43,7.72-8.18,11.73,3.72,24.85,3.84,25l2,2.13-2.39,1.64a14.72,14.72,0,0,0-4.37,6.19c-1.23,4.27,3.21,13.16,7.88,14.17.81.18,3.07.91,3.85.71l-2,4c-1.33-.25-1.88,0-4.7-2-5.16-3.59-9.62-12.44-10-16.43s2.35-7.16,4.4-9.07c-4.85-6.41-10-18.47-2.57-29.19,5.53-7.93,11.81-9.5,16.59-9.15C93.46,43.22,92,39,93.12,34.88c1.71-6.34,7.29-9.87,10-11.27a5.73,5.73,0,0,0-1.59-3.85c-3.22-3.35-10.69-3.66-13.3-3.5l-2.18.14-.43-2.14a12.53,12.53,0,0,0-5.54-7.4c-4-2.36-9.55-2.48-16.52-.35-5.15,1.56-8.74,4.4-10.7,8.42-4.21,8.66.19,20.25.23,20.37l1.12,2.89-3.06.48c-.43.07-10.74,1.88-10.25,11.55.44,8.68,13.31,16.6,18.23,18.92l4.9,2.31-4.93,2.23c-.34.16-8.63,4.27-4.75,17.37,3.79,12.75,13.26,11.08,14.33,10.85l2.39-.52.59,2.37c1.51,6.31,8.47,10.55,8.79,10.66Z"/><path class="cls-12" d="M113.25,120.59c-9.13,0-13.67-5.07-15.57-9.42l1.53-3h0l1.13-2.2c.19.42,7,12.14,16.84,10.36l-.74,4A17.85,17.85,0,0,1,113.25,120.59Z"/><path class="cls-12" d="M85.06,117.26l.39-2.63,1.38.17-1.38-.17a35,35,0,0,0,5-2.48c-.06,0,.11-.36,0,0l1.14.18C90.92,114.51,87.25,116.84,85.06,117.26Z"/></g></g></svg>