<svg xmlns="http://www.w3.org/2000/svg" viewBox="0 0 192.36 139.01"><defs><style>.cls-1{fill:#d1800b;}.cls-2{fill:#a15802;}.cls-3{fill:#507e33;}.cls-4{fill:#96aa1c;}.cls-5{fill:#487230;}.cls-6{fill:#f2bf42;}.cls-7{fill:#8a521a;}</style></defs><g id="レイヤー_2" data-name="レイヤー 2"><g id="レイヤー_11" data-name="レイヤー 11"><path class="cls-1" d="M46.2,25.89S24.26,19.42,8.87,49.83c-16.61,32.81,2.11,67,25.27,74.89S68.86,127,68.86,127s8.45,9.58,32.51,8.45,26.13-9,26.13-9,9.2,7.32,28.9,3.38,32.1-29.28,32.67-34.35,5.63-62.13-23.09-64c0,0-15.21-22.15-44.49-13.7,0,0-14.94-16-47.89-1.38C73.6,16.35,54.29,15.29,46.2,25.89Z"/><path class="cls-2" d="M45.47,26.45S61.8,25.75,75,36.59c0,0-2.72-7-1.43-20.24C73.6,16.35,54.65,15.74,45.47,26.45Z"/><path class="cls-2" d="M119.18,18.7s3.37,13,4,17.89c0,0,22.53-10.6,42.8-5.16C166,31.43,151,10.25,119.18,18.7Z"/><path class="cls-3" d="M95.11,5.26s.48,12-3.75,21.62c0,0,7.32,7.3,13.52,2.28,0,0,.28-16.88,0-23.72C104.88,5.44,99.89,11.65,95.11,5.26Z"/><path class="cls-4" d="M105.15,5.26s-5.65,7.3-10.15,0C95,5.26,100.33-.28,105.15,5.26Z"/><path class="cls-2" d="M79.26,47s-26.47-17.3-40,6.84-8.17,48.41,6.92,74.05c0,0,18.08,4.64,23.41-1.56C69.61,126.34,39.28,53.85,79.26,47Z"/><path class="cls-2" d="M121.49,45.89s21.4-6.2,30.41,16.33S166.06,117,148,130.88c0,0-17.22.6-22.1-4.47C125.86,126.41,147.74,76.69,121.49,45.89Z"/><path class="cls-5" d="M105,10.56l-.11-5.29A6.59,6.59,0,0,0,99.68,3a6.79,6.79,0,0,0-4.44,2.28L95,10.38l-2.44.29.21-6.26.46-.63C93.5,3.41,96,.11,99.92,0c1.71,0,4.33.56,6.89,3.69l.55.66.11,6.61Z"/><path class="cls-6" d="M72.31,58.84S64.8,67.47,70.06,78l5-6.38L79.26,78s.94-13.89,3.56-17.27c0,0-7.79.38-7.79,5.64Z"/><path class="cls-1" d="M42.58,56.3s-4,5-4.43,16.92C38.15,73.22,31.72,63.59,42.58,56.3Z"/><path class="cls-1" d="M39.42,61.47s5.21-.1,6-2.63c0,0-3.53,9-2.89,12.39,0,0-1.94,1.81-3.45-6.2"/><path class="cls-1" d="M46.88,66.72s-1.69,2.89,0,4.68C46.88,71.4,41.81,70.94,46.88,66.72Z"/><path class="cls-6" d="M24,42.51s-9,3.94-9,16.33C15,58.84,6.41,47.57,24,42.51Z"/><path class="cls-6" d="M21.87,48.93s-3.73,4.79-1.66,9.85C20.21,58.78,13.58,53.44,21.87,48.93Z"/></g><g id="レイヤー_12" data-name="レイヤー 12"><path class="cls-7" d="M98.31,139c-8.62,0-18.61-2.3-29.4-9A22.23,22.23,0,0,1,58,132.65c-10.74.2-23.92-4.58-39.27-14.3C-2.94,104.63-3.91,72.77,6.2,49.76c8.74-19.91,23.63-30,39.15-26.65,3-3,12-10.47,27.72-9.32,2.47-1.28,15.08-5.79,22-6.35L95,10.38c-7,.57-21.53,8.4-21.63,8.46h0C56.44,17.31,45.8,26,45.47,26.45h0C29.35,22.1,17,37.56,10.78,51.77-1.64,80,7,105,21.44,114.13c33.49,21.18,45.61,11.1,45.73,11l1.43-1.26,1.63,1c31.31,20.55,54.63.52,55.61-.34l1-.9,1.32.37c19,5.36,33.67,4.09,43.65-3.77,11-8.65,16.32-25.46,15.43-48.64C185.83,34.43,167,33.93,166,33.93h-1.23L164,33c-16.4-20.91-40.71-13.21-41.73-12.87l-2.53.84-.57-2.24c-.32-.48-4.69-6.38-14.19-8.14L105,8c8.81,1.63,15.78,5,17.56,6.91C129,13.32,151.38,9.74,167.23,29c5.17.55,23.59,5.11,25,42.41,1,24.84-5,43.08-17.33,52.76-11.09,8.73-26.85,10.41-46.87,5A50.82,50.82,0,0,1,98.31,139Z"/><path class="cls-6" d="M86,61.47s-4.31,10.12,0,15Z"/></g></g></svg>