<svg xmlns="http://www.w3.org/2000/svg" viewBox="0 0 165.25 155.35"><defs><style>.cls-1{fill:#467124;}.cls-2{fill:#a9cf69;}.cls-3{fill:#cadf91;}.cls-4{fill:#9dba6e;}.cls-5{fill:none;stroke:#33521a;stroke-miterlimit:10;stroke-width:5px;}</style></defs><g id="レイヤー_2" data-name="レイヤー 2"><g id="レイヤー_9" data-name="レイヤー 9"><path class="cls-1" d="M70.29,2.88S54.73-.63,36.91,14.19,15.16,27.34,9.52,49.71s-11.39,54.85-2.17,61,12.76,29,41.39,34,53.06,15.21,79.7,0,30.87-20.82,33.41-37.44,5.91-30.77,0-40.17c0,0,0-53.38-19.43-52.92S110.89,1.25,102.16,2.88,82.51,2.36,70.29,2.88Z"/><path class="cls-2" d="M83.82,7.89S71.47,11,73.72,13.24s4.5,7.32,16.89,7.88,18.3-.56,19.71,0,7-3.78,0-6.54S94.19,7.6,83.82,7.89Z"/><path class="cls-3" d="M89.21,5.92l-3.1,5.63s10.7,3.24,14.92,3V9S94.6,3.94,89.21,5.92Z"/><circle class="cls-4" cx="41.06" cy="52.65" r="2.25"/><circle class="cls-4" cx="27.26" cy="83.06" r="1.13"/><circle class="cls-4" cx="86.15" cy="120.03" r="2.33"/><ellipse class="cls-4" cx="115.43" cy="77.15" rx="1.65" ry="2.53"/><circle class="cls-4" cx="129.61" cy="106.01" r="2.39"/><circle class="cls-4" cx="135.31" cy="65.54" r="1.9"/><circle class="cls-4" cx="57.88" cy="88.34" r="2.46"/><path class="cls-5" d="M70.29,2.88S51.84.22,33.58,16.91,13.46,32,9.52,49.71s-12.36,48-2.17,61,14.94,19.57,17.21,21.72,18.14,14,33.32,14.08,22.43,8.32,46.78,5.89,47.7-23.63,49.37-25.69,11.76-26,7.82-59.6-8.3-51.69-19.43-52.92S110.76.15,102.16,2.88,70.29,2.88,70.29,2.88Z"/></g></g></svg>