<svg xmlns="http://www.w3.org/2000/svg" viewBox="0 0 168.51 249.43"><defs><style>.cls-1{fill:#7ca442;}.cls-2{fill:#b1d67e;}.cls-3{fill:#668a35;}</style></defs><g id="レイヤー_2" data-name="レイヤー 2"><g id="レイヤー_14" data-name="レイヤー 14"><path class="cls-1" d="M67,72.89s8.16,96.65-43.22,149.92c0,0,12.09,5.5,23.1-1.5,0,0,39.39-63.52,36.31-148.63Z"/><path class="cls-1" d="M64.76,74S45.84,57.58,63,37.36c0,0,16.42.47,18.9,34C81.85,71.31,79.32,81.58,64.76,74Z"/><path class="cls-1" d="M69.5,76.73a25.44,25.44,0,0,0,21.76-7.41c9.94-9.88,6-25.7,3.64-34.66C94.9,34.66,71.81,41.51,69.5,76.73Z"/><path class="cls-1" d="M59.06,53S49.3,30.65,72.66,15.38c0,0,11.29,17.58,10.11,31.12S68.44,63.77,68.44,63.77Z"/><path class="cls-1" d="M96.33,40.44s-1-14-12.13-30.13c0,0-11,23.85-8.62,30.33s13.09,19.3,13.09,19.3Z"/><path class="cls-1" d="M68.2,23.85S75,7.85,78.07,4.48c0,0,7.35,6.29,8.52,11.29s-2,20.17-2,20.17Z"/><polygon class="cls-2" points="81.33 99.47 74.02 107.86 78.92 112.19 81.33 99.47"/><polygon class="cls-2" points="66.2 115.17 69.87 123.52 64.66 128.15 66.2 115.17"/><polygon class="cls-2" points="74.49 142.29 66.86 145.65 71.06 155.19 74.49 142.29"/><polygon class="cls-2" points="58.32 158.66 62.88 161.61 54.88 169.72 58.32 158.66"/><path class="cls-3" d="M44.19,226c-10.07,4.43-21-.55-21.53-.79l-3.28-1.53L21.87,221C61.8,178.41,64.36,83.48,64.5,75.63c-4.34-1.76-7.68-5.87-9.92-12.2-2.17-6.11-2.1-11.46.21-15.89a17.58,17.58,0,0,1,9.76-8.13l2.08-.61,1,1.87c1,1.85,10.07,24.76,9.79,31.94l-3.87.57c.15-3.9-6-21.07-9.49-27.81A11.5,11.5,0,0,0,59.51,50C57.94,53,58,57,59.63,61.62c1.75,4.95,4.14,8,7.11,9.17a23.81,23.81,0,0,0,4.72,1.53l4.17.11,0,4.42s-1.13.1-4,.12l-1.85,0a393.29,393.29,0,0,1-5.68,55.28c-7,39.86-19,69.87-35.68,89.3,4,1.08,10.88,2,16.35-2,3.66-7.25,44.92-87.22,35.76-144.35L85,72.87c4,32.32-5.92,73-14.88,99.49A398.06,398.06,0,0,1,49.29,222.5L49,223l-.46.36A19.6,19.6,0,0,1,44.19,226Z"/><path class="cls-3" d="M85.22,74.38c-2.68,1.18-7.08,3.05-9.56,2.47l0-4.42c5.5-.63,18.26-9.32,19.25-17,.57-4.49-3.3-11.29-6.13-14.83C82.26,44.27,76.2,64.83,76.19,64.93l-3-6.34c.08-.57,4.43-19.66,15.4-23.76l1.71-.63,1.21,1.32c1.14,1.25,9.57,12.85,8.52,21.25-.56,4.52-4.44,9.41-8.28,13.09A22.67,22.67,0,0,1,85.22,74.38Z"/><path class="cls-3" d="M79.52,44.72,75,54c1.2-7.68-2.82-28.9-4.59-33.81-7.91,7-11.38,23.68-11.24,22.08l-5,6.39c-1.1-4.35,4.09-27.63,16.06-34.91l2.63-1.6L74.15,15C74.43,15.61,81.41,32.59,79.52,44.72Z"/><path class="cls-3" d="M99.17,49.68l-5.84-9.43c0-.11-4-14.46-7.48-19.57a83,83,0,0,0-7.06,12.75l-2.45-6.89c2.45-6.61,8.12-12.37,8.36-12.61l1.64-1.66,3.25,4.31A111.55,111.55,0,0,1,99.17,49.68Z"/><polygon class="cls-3" points="83.63 15.9 78.45 8.97 73.98 16.34 68.8 14.81 77.69 0 87.09 13.33 83.63 15.9"/></g><g id="アス塗り"><path class="cls-1" d="M119.06,97.28S83.2,203.88,5,236.53c0,0,10.11,11.49,24.83,9.19,0,0,70.34-49.15,106.21-141.1Z"/><path class="cls-1" d="M116.19,97.34S103.94,71.1,131.11,57.58c0,0,16.95,8.18,4.16,44.94C135.27,102.52,127.91,112.26,116.19,97.34Z"/><path class="cls-1" d="M119.87,102.52A28.64,28.64,0,0,0,146,104.8c14.92-5.86,18.12-24.5,19.71-35.16C165.73,69.64,138.47,66.14,119.87,102.52Z"/><path class="cls-1" d="M119.87,72.36s0-28.29,31.48-33.62c0,0,3.73,24-3.73,37.83s-22.91,11.67-22.91,11.67Z"/><path class="cls-1" d="M164.58,76.46s5.42-15.34,1.15-37.72c0,0-22.42,20.25-22.93,28.24s4.82,26.63,4.82,26.63Z"/><path class="cls-1" d="M142.8,45.67s14.41-13.85,19.21-16c0,0,4.79,10.12,3.72,16s-11.38,20.51-11.38,20.51Z"/><polygon class="cls-2" points="121.79 132.22 110.3 137.74 113.44 144.63 121.79 132.22"/><polygon class="cls-2" points="98.77 141.85 98.77 152.45 91.19 154.93 98.77 141.85"/><polygon class="cls-2" points="94.98 174.57 85.47 174.57 85.47 186.68 94.98 174.57"/><polygon class="cls-2" points="70.56 184.41 73.97 189.69 61.88 194.58 70.56 184.41"/></g><g id="アス線"><path class="cls-3" d="M24.86,249.43c-12.55,0-21.7-10.39-22.14-10.9L0,235.38l3.82-1.66C65.13,207.05,111.4,107.29,115.15,99c-3.73-3.91-5.33-9.83-4.77-17.62.54-7.51,3.08-13.16,7.52-16.79a19.77,19.77,0,0,1,13.94-4.08l2.45.31.21,2.46c.2,2.45-.85,31.05-4.43,38.55l-4.31-1.2c1.94-4.07,3.41-25.21,2.84-34a12.94,12.94,0,0,0-6.87,2.75c-3.06,2.53-4.83,6.72-5.24,12.45-.44,6.09.64,10.49,3.22,13.08A28.41,28.41,0,0,0,124,98.74l4.31,2.07-2,4.72s-1.22-.43-4.22-1.75l-2-.8a459.92,459.92,0,0,1-31.32,56.13c-25.65,39.1-52,65.41-78.31,78.29,3.74,3,10.48,7.18,18,5.51,7.16-6,87-71.77,103.68-136.8l5.7-.47c-10.67,36.24-39.73,74.88-61.25,98.85a458.52,458.52,0,0,1-44.77,43.6l-.52.42-.65.17A22.33,22.33,0,0,1,24.86,249.43Z"/><path class="cls-3" d="M137.39,107.36c-3.36,0-8.81-.06-11.14-1.83l2-4.72c6,1.9,23.36-1.38,27.94-9.14,2.66-4.5,1.73-13.54.4-18.63-8.49.91-24.26,19.95-24.32,20L132.05,85c.34-.57,13.66-18.84,27-18.07l2.07.12.66,2c.62,1.86,4.1,18.14-.85,26.58-2.67,4.55-9,7.93-14.67,10A25.65,25.65,0,0,1,137.39,107.36Z"/><path class="cls-3" d="M145,73.16l-9,7.8c4.77-7.61,10.32-32.06,10.73-38.1C135.34,46.55,124,62.73,124.92,61.09l-8.11,4.47c.84-5.13,17-27.46,32.82-29.61l3.48-.47V39C153.1,39.82,152.59,61.14,145,73.16Z"/><path class="cls-3" d="M163.3,87.62l-1.77-12.76c0-.15,2.42-17.28,1.17-24.31a94.54,94.54,0,0,0-13.24,10.26l.6-8.47c5.6-5.89,14.17-9.37,14.54-9.51l2.48-1,1.41,6.1A131.54,131.54,0,0,1,163.3,87.62Z"/><polygon class="cls-3" points="162.57 44.43 160.34 34.63 152.28 40.38 147.57 36.34 163.67 24.74 167.37 43.31 162.57 44.43"/></g></g></svg>