<svg xmlns="http://www.w3.org/2000/svg" viewBox="0 0 129.03 138.87"><defs><style>.cls-1{fill:#92714a;}.cls-2{fill:#d5d078;}.cls-3{fill:#a7c75b;}.cls-4{fill:#e1ea9f;}.cls-5{fill:#65593c;}.cls-6{fill:#574c32;}.cls-7{fill:#60633d;}.cls-8{fill:#655a4e;}.cls-9{fill:#5e5337;}.cls-10{fill:#695d3f;}.cls-11{fill:#63573b;}.cls-12{fill:#7e623f;}.cls-13{fill:#aba762;}</style></defs><g id="レイヤー_2" data-name="レイヤー 2"><g id="キウイ塗り"><path class="cls-1" d="M90.36,5.91S118.7,96.57,5,112.91c0,0,33.49,46.16,91.26,10.13C153.11,87.57,117.71,16.61,90.36,5.91Z"/><path class="cls-2" d="M90.36,5.91S56.82,7,25.28,39.7-1.37,110.09,5,112.91C15.42,117.54,114.82,96,90.36,5.91Z"/><path class="cls-3" d="M83.74,14.18s-28.39,1-55.08,28.59-22.56,59.58-17.18,62C20.31,108.65,104.44,90.43,83.74,14.18Z"/><path class="cls-4" d="M51.25,39.35s-4.33,1.23-9.94,7.14S30.74,53.75,29.13,60.7,27.92,75.3,27,78s11,4.92,17-2.34S54.79,65.2,60.66,61.18a13.7,13.7,0,0,0,5.64-14.9C65.09,42,61.19,32.21,51.25,39.35Z"/><path class="cls-5" d="M67.94,34.31a11.81,11.81,0,0,1-5.29,3.08,11.78,11.78,0,0,1,2.77-5.46,11.81,11.81,0,0,1,5.29-3.08A11.82,11.82,0,0,1,67.94,34.31Z"/><path class="cls-6" d="M55.29,30.94a7.77,7.77,0,0,1-.76,4.77,7.77,7.77,0,0,1-2.64-4.05,7.8,7.8,0,0,1,.75-4.77A7.82,7.82,0,0,1,55.29,30.94Z"/><path class="cls-7" d="M45.69,36.08a6.68,6.68,0,0,1,.12,4.42,6.66,6.66,0,0,1-3.27-3,6.64,6.64,0,0,1-.12-4.41A6.68,6.68,0,0,1,45.69,36.08Z"/><path class="cls-6" d="M21.4,67.4a6.71,6.71,0,0,1,3.92,2,6.72,6.72,0,0,1-4.18,1.43,6.73,6.73,0,0,1-3.92-2A6.7,6.7,0,0,1,21.4,67.4Z"/><path class="cls-6" d="M35.25,44a5.72,5.72,0,0,1,1,3.91,5.76,5.76,0,0,1-3.65-1.71,5.75,5.75,0,0,1-1-3.92A5.73,5.73,0,0,1,35.25,44Z"/><path class="cls-8" d="M26.43,54.32A5.8,5.8,0,0,1,28.12,58a5.75,5.75,0,0,1-3.91-1,5.72,5.72,0,0,1-1.69-3.66A5.75,5.75,0,0,1,26.43,54.32Z"/><path class="cls-9" d="M72.15,44.74a11.86,11.86,0,0,1-6.13-.2,10.81,10.81,0,0,1,11.37-3A11.91,11.91,0,0,1,72.15,44.74Z"/><path class="cls-10" d="M23.12,86.48a11.86,11.86,0,0,1-5.9,1.66,11.85,11.85,0,0,1,4.05-4.6,11.81,11.81,0,0,1,5.89-1.66A11.88,11.88,0,0,1,23.12,86.48Z"/><path class="cls-6" d="M71.56,59.15A9.24,9.24,0,0,1,66.68,57a9.28,9.28,0,0,1,5.18-1.29,9.26,9.26,0,0,1,4.87,2.16A9.23,9.23,0,0,1,71.56,59.15Z"/><path class="cls-6" d="M36.54,85A9.25,9.25,0,0,1,38.28,80a8.2,8.2,0,0,1,0,10.09A9.18,9.18,0,0,1,36.54,85Z"/><path class="cls-11" d="M58.25,70.11a6.87,6.87,0,0,1-.89-4.39A5.8,5.8,0,0,1,62,72.55,6.86,6.86,0,0,1,58.25,70.11Z"/><path class="cls-6" d="M47.45,78.32A6.87,6.87,0,0,1,48,73.86a6.85,6.85,0,0,1,2.83,3.48,6.87,6.87,0,0,1-.51,4.46A6.9,6.9,0,0,1,47.45,78.32Z"/></g><g id="キウイ線"><path class="cls-12" d="M52,138.87c-19.4,0-38.6-11.32-51.69-27.51l5.81,1.88c12.25,15.15,28.51,20.85,46.61,20.62,14.75-.16,27.15-5.35,33.1-7.85l.23-.09c14.3-6,38.26-21.56,38-58.51-.29-39.3-33.32-61.3-33.67-61.5L88.82,0c1.52.86,39.9,25.21,40.21,67.37.29,39.87-25.6,56.68-41.06,63.16l-.23.09c-5.76,2.42-19.24,8.06-35,8.24Z"/><path class="cls-13" d="M.29,111.36c-3-46.14,17.36-74.26,38-88.37C60.44,7.84,87.87.17,88.82,0l1.54,5.91c-.22,0-27.6,5.37-48.72,19.87C13.62,45,0,75.77,6.1,113.24Z"/></g></g></svg>