<svg xmlns="http://www.w3.org/2000/svg" viewBox="0 0 208.21 224.84"><defs><style>.cls-1{fill:#90a326;}.cls-2{fill:#547e26;}.cls-3{fill:#b7c952;}.cls-4,.cls-5{fill:none;stroke-miterlimit:10;stroke-width:4px;}.cls-4{stroke:#697814;}.cls-5{stroke:#3a6112;}</style></defs><g id="レイヤー_2" data-name="レイヤー 2"><g id="絹さや"><path class="cls-1" d="M134.15,62.9s-40.55,74.89-49,89.54-40.55,36-47.87,45.05-28.15,18-32.1,18.58-1.69,5.63,6.2,6.76S44.05,220,62.63,220s52.37-31.53,64.76-57.44,40-61.38,41.11-83.9-9-36-9-36S138.65,44.32,134.15,62.9Z"/><path class="cls-2" d="M164,29.11s-14.64-6.76-26.46,13.52-23.65,19.71-23.65,19.71,16.89,8.45,28.72,0a36.76,36.76,0,0,0,15.76,12.38s-1.69-8.44.57-12.95c0,0,13.51,15.77,23.65,15.77,0,0-9.58-18-7.89-24.75S174.53,29.58,164,29.11Z"/><path class="cls-2" d="M164,29.11s7.32-22,28.72-27l10.14,3.38s-29.28,5.63-36.6,31"/><path class="cls-3" d="M134.45,82.37s-8.64,14.4,3.36,18.73,15.85-14.41,13.93-18.73S139.73,75.17,134.45,82.37Z"/><path class="cls-3" d="M117.65,117.5S110,126.06,110,136.14s21.35-.39,21.47-9.32S124.85,113.75,117.65,117.5Z"/><path class="cls-3" d="M101.49,154.65S88,161.4,86.85,171s16.89,5.63,21.39,0S120.29,156.33,101.49,154.65Z"/><path class="cls-3" d="M60.38,205.93s-10.14-1.69,0-13.51,20.27-5.07,19.71,0S71.08,207.06,60.38,205.93Z"/><path class="cls-4" d="M131.45,66s-46.11,78.89-46.29,86.4S41,193.78,37.29,197.49,13.64,214,5.19,216.07s2.07,6.56,6.2,6.76,46.81-2.3,51.24-2.82,25.77-9.07,37.57-21.68,28.54-33.59,31.24-43.68S175.36,95.53,168.59,71"/><path class="cls-5" d="M164,29.11a22.32,22.32,0,0,0-22.16,7.32c-9.37,11-15.92,24.11-27,25.85,0,0,12.28,8.22,27.77.06,0,0,7.88,12.67,15.76,12.38,0,0-2-9.29.57-12.95,0,0,13.51,16,23.65,15.77,0,0-8.17-15.42-7.89-24.75s-1.51-20.73-6.1-22.21A51.74,51.74,0,0,1,201.72,5.72l-9-3.64S171.31,6.59,164,29.11Z"/></g></g></svg>