<svg xmlns="http://www.w3.org/2000/svg" viewBox="0 0 206.75 174.29"><defs><style>.cls-1{fill:#a7c34e;}.cls-2{fill:#dbeda1;}.cls-3{fill:#7c942f;}.cls-4{fill:#acba7f;}</style></defs><g id="レイヤー_2" data-name="レイヤー 2"><g id="キャベツ"><path class="cls-1" d="M79.87,169.56s-57,0-72.25-51.52S16,55.46,19.34,48.49c0,0-.74,31.14,6.86,33S92.14,136.62,79.87,169.56Z"/><path class="cls-1" d="M67.37,159.75s-.48,15.73,52.17,9.81S206.61,118.39,204.39,83c0,0-6,14.6-24.6,16.78s-50.68,13.93-52.37,22.84C127.42,122.64,74.05,125.45,67.37,159.75Z"/><path class="cls-1" d="M203.63,91.15S205.27,49.62,190.91,31s-49.83,16-50.25,24.48-17,5.92-21.83,14.37S72.38,93,94.9,140.56"/><path class="cls-1" d="M118.83,126S94.68,50.17,81.56,45.67,89,9.92,89,9.92,75,15,66.67,15.83,14.38,37.35,12.69,68,72.27,150.7,72.27,150.7Z"/><path class="cls-1" d="M179.09,31.88S149.81,8.23,137,9.92s-7.47-6.76-18.17-6.76-26.69-3.35-39,9.73-7.6,75-7.6,75l46.56,14.6Z"/><path class="cls-2" d="M27,102.51s-13.28,35,10.37,57.48c0,0,8.27,6,12,5.26C49.38,165.25,32.41,146,27,102.51Z"/><polyline class="cls-2" points="32.49 140.56 43.5 122.64 54.64 116.82 57.64 122.6 47.51 124.33 36.33 144.22"/><path class="cls-2" d="M24,133.91,7.62,118l2.26,6.55s12.85,16,17.73,16"/><polyline class="cls-2" points="41.45 152.68 53.14 140.56 60.27 133.91 60.27 137.84 54.26 144.22 42.35 157.36"/><path class="cls-2" d="M38.5,94.4S42.05,56.19,57.64,44c-2.83.22-15.28,45.12-10.88,55.81C46.76,99.8,43.38,93.75,38.5,94.4Z"/><path class="cls-2" d="M45.5,78.9s23.4-5.63,38.8-15.77c0,0-25.37,21.73-38.8,22.9"/><path class="cls-2" d="M42.35,75.9S30.12,55.44,27.61,48.49c0,0,9.67,33.79,13.85,37.54"/><path class="cls-2" d="M49.38,64s16.53-6.44,22.16-11.34c0,0-21.22,19.76-23.47,19.26"/><path class="cls-2" d="M45.5,63.13s-7.38-13.52-7-17.46c0,0,0,15.59,4.78,24.22"/><path class="cls-2" d="M45.07,92.79s19.48,2.89,34.8-2.5c0,0-25.61,10.52-33.11,9.51"/><path class="cls-2" d="M184.91,107.62s-18.4,44.11-22.9,47.86c0,0-3.22,3.66-7.51,4.27C154.5,159.75,176.94,120.43,184.91,107.62Z"/><path class="cls-2" d="M176.9,126.21s12.89-12.68,13.73-17.18c0,0-5.51,20.93-17.68,25.95"/><path class="cls-2" d="M173,127.74a14.31,14.31,0,0,1-9.35-8s2.85,13.11,6.1,14.18"/><path class="cls-2" d="M164.28,142.72s-10.25-6.94-11.1-10.32c0,0,3.27,10.43,9.41,13.24"/><path class="cls-2" d="M168.28,142.81s8.84-4.68,11.65-7.83c0,0-6.76,10.66-12.05,10.66"/><path class="cls-2" d="M179.09,91.15a84.65,84.65,0,0,0,2.71-16.58,67.09,67.09,0,0,0-1.87-21.93s.4,32.45-7,40.34C173,93,174,91.58,179.09,91.15Z"/><path class="cls-2" d="M178.54,75.77s-9.87-3.53-16.35-8.51c0,0,13.24,17.22,17.74,15.84,2.92-.9,11.77-21.72,10.7-20-1.47,2.42-8.83,11.44-8.83,11.44"/><path class="cls-2" d="M175.79,87.91s-14.63-3.66-21.29-9c0,0,12.18,12.08,21.29,11.39"/><path class="cls-2" d="M179.93,87.74s11-7.07,13.42-11.09c0,0-6.61,13.58-15.88,13.64"/><path class="cls-3" d="M99.3,174.29c-12.46,0-19.6-2.16-20.19-2.34l-2-.65.33-2.12c2.76-17.94,14.37-32.62,33.56-42.46A103.09,103.09,0,0,1,138,117.44c3.28-4.65,16.51-22.63,26.59-24.8s38-11.88,38.24-12l3.89-1.36-.59,4.08c-.29,2-7.33,48.53-39.17,72.6l-3-4c24.89-18.81,34-53.36,36.47-65.21-8.24,2.82-26.72,9-34.77,10.74-7.62,1.65-20,17.61-24.13,23.62l-.61.9-1.08.16c-.5.07-49.47,7.91-57.11,45.49,7.36,1.56,33.4,5.19,70.8-10.25.43-.17,1.22-.52,1.33-.56s-.47.22,0,0L157,161.4c-.74.35-.76.35-1,.43l-.59.23C131.72,171.86,112.51,174.29,99.3,174.29Z"/><path class="cls-3" d="M80.54,160.93c-.1-14-34.37-58.47-54.39-72.87-7.38-5.3-11.29-14-11.32-25.21a51.73,51.73,0,0,1,.34-6.05c-.54.77-1.09,1.63-1.65,2.56C10.1,65.09,5.85,75.14,5.06,90.45c-.84,16.08,6.65,43.12,24.47,60.56l-3.15,2.44C7.44,134.92-.83,107.39.06,90.19,1.71,58.35,17.22,46.93,17.88,46.46L24,42.12l-2.24,7.12c-.07.24-7.35,24.19,7.35,34.76,19.62,14.12,54.87,56.63,55,73.6Z"/><path class="cls-3" d="M77.82,171.54c-8.8,0-19.95-1.13-27.86-4.18l1.8-4.67c7.83,3,18.57,3.88,27.37,3.68l-1.31,5.17C77.22,171.55,80.51,171.13,77.82,171.54Z"/><path class="cls-3" d="M101.15,136.47l-4-3c8-10.78,5.22-18.31,2.25-26.28-1.9-5.12-3.87-10.4-2.92-16.44,1.09-7-3.16-14.23-7.66-21.93-4.13-7.06-8.4-14.36-9.72-22.78-1.94-12.35,2.17-24.87,5.11-31.83A96.25,96.25,0,0,1,67,18.31c-9.12,1.06-41,22.08-45.36,31.25l-4.51-2.14c5.15-10.87,38.44-32.82,49.3-34.07C75.72,12.27,88,7.63,88.13,7.58l6.4-2.43-3.33,6c-.09.17-9.74,17.77-7.17,34.14,1.17,7.49,5.2,14.38,9.09,21,5,8.48,9.65,16.5,8.29,25.22-.74,4.75.91,9.21,2.67,13.92C107.22,113.93,110.79,123.51,101.15,136.47Z"/><path class="cls-3" d="M102,100.05l-5-.49c1.11-11.18,8.65-22.4,22.42-33.33A125.77,125.77,0,0,1,139,53.54c24.75-31.37,45.77-29.42,46.66-29.32l.5.05.45.25c.81.46,19.93,11.77,19.54,58.52l-5,0c.19-22.78-4.48-36.32-8.43-43.66-3.44-6.39-6.94-9.3-8.14-10.17h-.06c-3.4,0-21.17,1.36-41.93,27.89l-.35.45-.51.25C141.39,58,104.37,76.46,102,100.05Z"/><path class="cls-3" d="M172,29.55c-8.5-9.78-29-16.32-35.35-17.15-6.77-.89-13-5-14.78-6.29-25.13-4.36-37.08,5.6-37.2,5.71L81.43,8C82,7.54,95.51-3.73,123.34,1.28l.6.11.48.37c.06.05,6.37,4.82,12.9,5.68,7.11.93,29,7.9,38.47,18.83Z"/><path class="cls-4" d="M50,167.36c-12-1.18-23.13-13.34-23.58-13.91L29.53,151l-1.17.91,1.17-.91c.1.12,12.68,11.49,22.23,11.68Z"/><path class="cls-4" d="M157,161.4l-2.13-4.52c-.33,0,0,0,0,0L164,152l3,4A26.08,26.08,0,0,1,157,161.4Z"/></g></g></svg>