<svg xmlns="http://www.w3.org/2000/svg" viewBox="0 0 167.19 189.06"><defs><style>.cls-1{fill:#005a18;}.cls-2{fill:#91b060;}.cls-3{fill:#004522;}</style></defs><g id="レイヤー_2" data-name="レイヤー 2"><g id="胡瓜塗り"><path class="cls-1" d="M162.32,53.9s11-33.75-10.13-32S133.6,28,122.62,46.55s-39,49.78-50.76,67.52S31.31,145.32,24.6,147.85-3.12,157.15,2.31,174s23.26,14.36,37.57,11.82,58.37-35.7,72.67-52.9S129,102.52,136.18,96C151.51,82.1,162.32,53.9,162.32,53.9Z"/><path class="cls-1" d="M152.66,25.56s6.57-11.82,5.63-21.4l4.88-1.5s.19,13.33-6.38,23.84C156.79,26.5,154.35,24.44,152.66,25.56Z"/><circle class="cls-2" cx="34.78" cy="153.77" r="1.69"/><circle class="cls-2" cx="72.22" cy="139.97" r="1.69"/><circle class="cls-2" cx="91.65" cy="104.77" r="1.69"/><circle class="cls-2" cx="116.99" cy="68.74" r="1.69"/><circle class="cls-2" cx="134.17" cy="48.75" r="1.69"/><circle class="cls-2" cx="116.99" cy="92.39" r="1.69"/><circle class="cls-2" cx="140.36" cy="65.36" r="1.69"/><circle class="cls-2" cx="150.97" cy="43.11" r="1.69"/><circle class="cls-2" cx="54.77" cy="158.55" r="1.69"/><circle class="cls-2" cx="23.8" cy="176.01" r="1.69"/><circle class="cls-2" cx="99.25" cy="124.2" r="1.69"/></g><g id="胡瓜線"><path class="cls-3" d="M26.81,189.06A111.62,111.62,0,0,1,13,188l-.33,0-.31-.15C12,187.63,2,182.57.26,173c-1.12-6.09,1.34-12.46,7.31-18.92l.25-.27.33-.16s4.57-2.28,16.47-8L26.2,145c11.59-5.53,31-14.78,39.52-26.3,2.21-3,5-6.83,7.88-10.9,9.91-13.86,21.14-29.56,26.2-33.08,5.53-3.86,24.45-35.29,27.22-40.26.12-.2.24-.44.38-.71,2-3.81,7.22-13.75,25.28-13,2.16-5.66,4.52-13.62,3.72-15.92l-.68-2L165,0l.15,2.55a45.56,45.56,0,0,1-3.83,19.62c3.15,2.61,9,10.26,3.75,28.81-4.59,16.27-15.85,38.48-29.73,48.79-2.85,2.11-5.72,7.19-9.36,13.61-7.66,13.5-19.23,33.92-43.88,49.59-4.63,2.95-8.76,5.63-12.4,8C49.77,183.92,41.84,189.06,26.81,189.06ZM13.9,184.11c23.68,2.94,28.93-.46,53.64-16.5,3.65-2.37,7.79-5.06,12.44-8,23.81-15.14,35.08-35,42.54-48.19,3.87-6.84,6.93-12.24,10.45-14.85,9.21-6.84,22-24.35,28.27-46.67,3.06-10.84,2-17.21.46-20.58A11,11,0,0,0,160,26.5l-3.12-1.41,1.48-2c3.24-6,4.42-15.37,4.58-19l-4.09,1.33c.19,5.67-3.26,15.89-4.15,18.1l-.85,1.34h0c-16.64-1.23-21.05,7.16-22.93,10.74-.15.3-.3.57-.43.8S109.17,73,102.09,78c-4.5,3.13-16.49,19.89-25.24,32.12-2.93,4.09-5.69,8-7.92,11-9.12,12.33-28.31,21.48-41,27.53l-1.57.75c-10.09,4.82-14.85,7.16-16.08,7.77-4.9,5.39-6.94,10.51-6.07,15.22C5.45,179.12,12.41,183.29,13.9,184.11Z"/></g></g></svg>