<svg xmlns="http://www.w3.org/2000/svg" xmlns:xlink="http://www.w3.org/1999/xlink" viewBox="0 0 150.9 199.36"><defs><style>.cls-1{fill:none;}.cls-2{fill:#dfc9b7;}.cls-3{fill:#ab90a6;}.cls-4{clip-path:url(#clip-path);}.cls-5{fill:#d7c6a6;}.cls-6{fill:#ffefc7;}.cls-7{fill:#8f807e;}.cls-8{fill:#ab9a8e;}.cls-9{fill:#8a7486;}.cls-10{fill:#756866;}</style><clipPath id="clip-path" transform="translate(18.9)"><path class="cls-1" d="M56.2,94.22s-29.69-5.63-43.63,20.27-12.73,41.11,0,54.06,44.85,16.9,57,10.7S98,162.36,100.44,146s3-32.1-6.66-40.55S64.71,94.71,56.2,94.22Z"/></clipPath></defs><g id="レイヤー_2" data-name="レイヤー 2"><g id="クアイ塗り"><path class="cls-2" d="M57.12,98.86S102,61.19,105.9,44.68,126.74,8.46,126.74,8.46,117.16,37,117.16,44.68,105.9,98.82,87.88,112.21,57.12,98.86,57.12,98.86Z" transform="translate(18.9)"/><path class="cls-3" d="M56.2,94.22s-29.69-5.63-43.63,20.27-12.73,41.11,0,54.06,44.85,16.9,57,10.7S98,162.36,100.44,146s3-32.1-6.66-40.55S64.71,94.71,56.2,94.22Z" transform="translate(18.9)"/><g class="cls-4"><path class="cls-5" d="M11.86,106.45s18-7.32,27.59-5.63l5.07,9.91L58,108.14l6.75,4.91h16.9l10.7,8.6s13.51,4.51,16.33,0,0,13.3,0,13.3S78.31,122.47,80,117.76c0,0-11.14,5-19.09,2.77s-8.65-9-8.65-9L37.76,116l-2.25-9L2.56,110.73Z" transform="translate(18.9)"/><path class="cls-6" d="M23.69,93.7s73.2,8.9,99.11,24.06C122.8,117.76,68.17,74.2,23.69,93.7Z" transform="translate(18.9)"/><path class="cls-7" d="M-3.91,129s-39.42,32.66,9.58,56.31,87.84,14,90.1-3.16S102,143.05,102,143.05s-14.64-7.19-19.71-8.1-10.7,8.66-14.64,7.54S58,127.85,47.34,127.85s-11.06-8.17-11.06-8.17S.6,113.77-3.91,129Z" transform="translate(18.9)"/></g></g><g id="クアイ線"><path class="cls-8" d="M95.5,107.29h0c-.31-.17-34.7-18.82-59.22-11.85l-3.16-2.75c7.57-2.16,18.64-2.15,28.14-.69,5.7-4.84,35.63-30.7,41-44.68l1.38-3.61c5.6-14.67,10-26.26,21.36-37.06L132,0l-2.88,9.21c-3.37,10.79-8.52,28-8.91,31.2-.06.49-8,51-24.71,66.88ZM67.55,93.2c2.57.58,5.21,1.29,7.9,2.12a119.7,119.7,0,0,1,17.83,7.09c13.41-14.79,21.23-56.59,22-62.61.34-2.78,3.19-12.61,5.63-20.71-5.42,7.74-8.69,16.31-12.54,26.4-.46,1.19-.92,2.4-1.39,3.63C101.75,62.6,77.34,84.71,67.55,93.2Z" transform="translate(18.9)"/><path class="cls-9" d="M6.35,122.08l6.54-3L18,110.58l-4.47-3s-3.85,4-7.2,14.51" transform="translate(18.9)"/><path class="cls-9" d="M36.28,95.44l-3.16-2.75s-13.61,5.22-19.57,14.88l4.47,3S27.8,97.43,36.28,95.44Z" transform="translate(18.9)"/><path class="cls-9" d="M95.5,107.29l2-2.1s7.49,9.37,6.9,27h0l-5-.34S100,122.08,95.5,107.29Z" transform="translate(18.9)"/><path class="cls-9" d="M103.41,142.9l-5-.69c.47-3.35.94-10.32,1-10.39l5,.34C104.37,132.45,103.9,139.37,103.41,142.9Z" transform="translate(18.9)"/><path class="cls-10" d="M52.35,185.09a62.19,62.19,0,0,1-12.69-1.36C24.25,180.51,10.72,172.17,4.34,162c-5.06-8.1-5.71-18.91-1.88-31.26,2.83-9.1,4.47-10.6,4.64-10.88l5.79-.79c-.15.25-14.74,23.58-4.31,40.28,5.59,9,18.19,16.61,32.1,19.52,12.94,2.7,24.71,1,33.14-4.76,20.89-14.31,24.19-25.5,24.63-31.87l5,.69c-.54,7.57-4.12,19.79-26.77,35.31C70,182.76,61.63,185.09,52.35,185.09Z" transform="translate(18.9)"/></g></g></svg>