<svg xmlns="http://www.w3.org/2000/svg" viewBox="0 0 253.26 160.59"><defs><style>.cls-1{fill:#7fb029;}.cls-2{fill:#719b28;}.cls-3{fill:#b5c900;}.cls-4{fill:#afca5d;}.cls-5{fill:#a0c449;}.cls-6{fill:#d5dd9e;}.cls-7{fill:#809e3d;}.cls-8{fill:#6a9325;}.cls-9{fill:#638a21;}.cls-10{fill:#6d7e3a;}</style></defs><g id="レイヤー_2" data-name="レイヤー 2"><g id="ぐり塗り"><path class="cls-1" d="M242,12.42s-22.81,22-24.49,38-11.46,58.29-48.81,76-65.24,28.71-98.18,25.34-33.69,5.32-33.69,5.32,5.61-15.46,26.84-18,24.23-38.86,61.58-53.22S172.74,49.59,177,44.52,201.46,15.8,242,12.42Z"/><path class="cls-2" d="M227.17,18.81s-12.76,20.64-16.89,33.78-23.65,62-39.8,64.2-64.94,31.53-78.08,30.78-46.78-5.7-54.92,8.41c0,0,7.47-5.93,27.44-4.64,17.77,1.15,29.24,5.45,66.9-7.15,51.06-17.07,68-37.87,78.46-59.69,9.2-19.17,6.57-45.8,21.91-61.32Z"/><path class="cls-3" d="M232.19,25.38l-5,.56V18.81h-6l-2.26-4.51h0s10.83-6.87,19.9-4.88l7.13-6.76L250.07,6,242,12.42s-6.19,13.52-8.45,15.77"/><path class="cls-1" d="M199.77,31.21s-15.61-1.33-21.4,3.12-11.3,11.15-12.56,18.28,2.31,17.89,2.31,17.89S186,65.54,199.77,31.21Z"/><path class="cls-1" d="M177.51,59s-14.39-6.18-21.29-3.77-14.24,7-17.68,13.39-3.44,17.71-3.44,17.71S153.59,87.23,177.51,59Z"/><path class="cls-1" d="M146.89,82.36s-14.39-6.18-21.29-3.78-14.24,7-17.68,13.4-3.44,17.71-3.44,17.71S123,110.59,146.89,82.36Z"/><path class="cls-1" d="M119.46,98.7S104.52,94,97.9,97.14s-13.44,8.45-16.2,15.15-1.6,18-1.6,18S98.58,129.25,119.46,98.7Z"/></g><g id="レイヤー_13" data-name="レイヤー 13"><path class="cls-2" d="M191.2,31.1S185.06,58,175.75,61c0,0,10.78-5.08,14-10.27S192.77,38,191.2,31.1Z"/><path class="cls-2" d="M142.3,85.1s20.29-5.21,24.64-18.87c0,0-3.78,17.77-7.15,18.87S142.3,85.1,142.3,85.1Z"/><path class="cls-2" d="M137.26,87.39s-17.68,10.46-25.11,14c0,0,14.37,0,17.31-2.33S135.41,95.14,137.26,87.39Z"/><path class="cls-2" d="M85.45,121.08s21-1.26,21.74-15.18c0,0,3.4,10.95-.72,13.92S100.09,125.56,85.45,121.08Z"/><path class="cls-4" d="M171.88,44.39c-1.31,2.32.51,3.36,2.83,4.66s2.93-.83,4.23-3.14,1.85-4.08-.46-5.38S173.18,42.07,171.88,44.39Z"/><path class="cls-4" d="M146.63,64.55c-2,1.79-.57,3.35,1.22,5.31s3,.14,5-1.65,3-3.29,1.25-5.25S148.59,62.76,146.63,64.55Z"/><path class="cls-4" d="M90,104.28c-2.24,1.43-1.13,3.2.3,5.44s3,.66,5.21-.77,3.57-2.73,2.14-5S92.22,102.85,90,104.28Z"/><path class="cls-4" d="M118.23,83.84c-2.24,1.42-1.14,3.2.29,5.44s3,.67,5.21-.75,3.57-2.72,2.15-5S120.48,82.42,118.23,83.84Z"/><path class="cls-5" d="M92,58.06s18.79-6.68,20.35,11.46-18.77,15-20.84,13.59S84,77.84,83.26,72.87,86,59.21,92,58.06Z"/><path class="cls-6" d="M107.14,61.77s-5.88-3.75-7.49.49-2.87,7.71.59,9,8.28.65,9.05-2.25S111.16,63.27,107.14,61.77Z"/><path class="cls-7" d="M111.52,72.26s-7.35,8-13.86,6.42A21.32,21.32,0,0,1,87.8,73.5s-.51,7.9,8.92,9.84S110,80.83,111.52,72.26Z"/><path class="cls-6" d="M94.15,61.49s2.85.69,2.29,2.26-3.66,2.64-3.81,1.34-1.86-1.63-.17-2.61Z"/></g><g id="グリ線"><path class="cls-8" d="M81.31,71.11A17.44,17.44,0,0,1,84.13,61l.14-.21c.26-.33,6.38-8.05,19.38-6.24,5.69.79,9.85,5.22,11.15,11.85,1.18,6.09-.28,14.13-5.35,17.07-7.55,4.36-17.11,4-21.78-.74C85.33,80.35,81.66,76.6,81.31,71.11Zm6.19-7.93c-4.62,7.91-1.36,12.28,3,16.77,3,3,10.27,3.92,16.92.07,2.89-1.67,4.46-7.55,3.42-12.84-.45-2.33-2.13-7.86-7.78-8.65C93.05,57.13,88.16,62.41,87.5,63.18Z"/><path class="cls-5" d="M34.35,101.66S28.91,82.47,47.11,82.09s13.7,19.71,12.2,21.68-5.75,7.14-10.76,7.56S35.11,107.7,34.35,101.66Z"/><path class="cls-6" d="M39,86.78s-4.13,5.61,0,7.5,7.51,3.37,9,0,1.19-8.22-1.66-9.18S40.8,82.86,39,86.78Z"/><path class="cls-7" d="M56.56,90.2s-.87,10.85-7,13.57a21.31,21.31,0,0,1-10.95,2S43,112.29,51.68,108,60.58,97.93,56.56,90.2Z"/><path class="cls-6" d="M37.91,99.72s.88-2.8,2.4-2.13,2.4,3.82,1.09,3.88-1.74,1.75-2.61,0Z"/><path class="cls-8" d="M46.68,113.16a17.43,17.43,0,0,1-9.9-3.48l-.19-.15c-.31-.27-7.62-6.89-5-19.74,1.16-5.62,5.85-9.49,12.55-10.35,6.15-.79,14.08,1.2,16.68,6.45,3.86,7.81,2.91,17.34-2.16,21.68C56.16,109.75,52.17,113.16,46.68,113.16Zm-7.52-6.69c7.59,5.12,12.17,2.15,16.94-1.94,3.21-2.75,4.58-10,1.17-16.87-1.48-3-7.24-4.94-12.59-4.26-2.36.31-8,1.62-9.14,7.2C33.49,100.53,38.43,105.76,39.16,106.47Z"/><path class="cls-5" d="M1.32,91.62S1,80.33,11,82.65s4.79,12.72,3.69,13.59-4.15,3.12-6.95,2.66S.9,95,1.32,91.62Z"/><path class="cls-6" d="M6,84.1s-3,2.51-1,4.12,3.65,2.89,4.95,1.25,1.79-4.35.36-5.27S7.47,82.19,6,84.1Z"/><path class="cls-7" d="M15.1,88.41s-2,5.84-5.73,6.48a12.1,12.1,0,0,1-6.28-.44S4.62,98.66,10,97.52,16.24,93.21,15.1,88.41Z"/><path class="cls-6" d="M3.55,91.05s.86-1.42,1.61-.84.79,2.43.06,2.28-1.2.72-1.44-.36Z"/><path class="cls-8" d="M6.49,99.65a9.81,9.81,0,0,1-4.94-3.29l-.09-.11c-.13-.19-3.23-4.84,0-11.52,1.42-2.93,4.53-4.4,8.33-4,3.48.43,7.56,2.62,8.26,5.86,1,4.82-.8,9.92-4.19,11.6C12.17,99.09,9.51,100.41,6.49,99.65ZM3.3,94.93c3.45,3.86,6.38,2.87,9.56,1.28,2.15-1.06,3.9-4.84,3-9.1-.4-1.84-3.29-3.71-6.32-4.08-1.34-.16-4.61-.22-6,2.69C1,90.88,3,94.44,3.3,94.93Z"/><path class="cls-5" d="M48.87,53.45s7.79-12.82,17.32-3-3.85,17.65-5.7,17.83-6.88.48-9.68-2.06S45.93,57,48.87,53.45Z"/><path class="cls-6" d="M59.48,48.42s-5.22.6-4.14,3.84,2,5.87,4.62,5,5.13-3.56,4.2-5.62S62.54,47.38,59.48,48.42Z"/><path class="cls-7" d="M67.56,59.83s-6.43,5.08-11.07,3.09a16.14,16.14,0,0,1-6.7-5s-1.33,5.8,5.44,8.38S65.36,66,67.56,59.83Z"/><path class="cls-6" d="M51.77,54.43s2-1,2.4.23-.88,3.28-1.58,2.59-1.86-.07-1.34-1.45Z"/><path class="cls-8" d="M48.84,66.14a13.22,13.22,0,0,1-3.15-7.23v-.19c0-.31-.1-7.73,8.34-12.84,3.69-2.24,8.23-1.64,12.13,1.61,3.59,3,6.55,8.38,5,12.5-2.33,6.13-8.07,10.49-13.06,9.92C55.58,69.62,51.65,69.17,48.84,66.14Zm-.15-7.57c1.06,6.81,5,7.81,9.73,8.35,3.17.36,7.85-2.59,9.91-8,.89-2.35-1-6.52-4.1-9.12-1.38-1.14-5-3.57-8.65-1.35C49.05,52.41,48.7,57.81,48.69,58.57Z"/><path class="cls-9" d="M34,160.59h0c.42-.76,10.28-20.65,26.35-23,12.09-1.73,16.45-7.78,17.45-9.5-.33-3.14-1.18-16.38,6.72-25.49,4.72-5.44,11.6-8.31,20.46-8.56,2.14-4.66,10.66-20,29.13-17.59,1.47-6.06,7.65-23.56,29.8-23.28,1.32-5.82,7-23.77,26.61-24.11,3-2.26,13.57-12,28.4-14.81L223,17.79c-15.38,2.95-30.44,14.76-30.59,14.88l-.55.44h-.81c-8.5,0-15,3.73-19.41,11.08a33.61,33.61,0,0,0-4.15,11.36l-.24,1.83-1.85-.1C141,55.94,137.78,78.1,137.66,79l-.28,2.11-2.09-.4c-19.69-3.83-26.82,15.19-27.11,16l-.48,1.33h-1.49c-8.26,0-14.54,2.42-18.68,7.19-7.64,8.81-5.72,22.83-5.7,23l.09.57-.24.53c-.18.41-4.61,9.95-20.77,12.26-7.24,1-13.19,5.92-17.29,10.44,11.13-3.68,27.75-2.56,39.83-1.74,3.88.26,7.22.48,9.72.51h.31c13.11,0,36.38-8.14,59.6-16.94C174,126,185.79,113.2,196.25,102c1.59-1.72,3.16-3.41,4.74-5,9.55-10,13.54-30.61,16.18-44.25.62-3.21,1.15-6,1.69-8.29,3-12.9,10.39-19,10.75-19.42l4-.41c-.08.09-8.15,8.91-10.89,20.73-.52,2.25-1,5-1.66,8.15-2.73,14.1-6.86,35.41-17.22,46.25-1.56,1.63-3.12,3.31-4.7,5-10.75,11.57-22.94,24.68-44.68,32.93-23.77,9-47.67,17.33-61.37,17.2-2.61,0-6-.26-9.94-.52C68.52,153.3,40.63,151.64,34,160.59Z"/><path class="cls-10" d="M232.48,33.68l-1.76-6-5.55.41V20.81h-7.24l2.25-4.51h-6.82l4.28-3.54c4.65-3.85,14.55-7.09,20.31-5.28L245.85,0l7.41,6.07-9.53,7.54c-1.9,5.66-8.58,16-8.87,16.42Zm1.17-10.23v3.76c2.23-3.67,6.77-11.42,7.65-14.5h0l7.17-5.4-3.59-2.93L238.62,10h0c-2.6.16-4.6-.73-9.57.7L218.91,14.3l10.26,2.51v7Z"/></g></g></svg>