<svg xmlns="http://www.w3.org/2000/svg" viewBox="0 0 372.66 182.43"><defs><style>.cls-1{fill:#58a11b;}.cls-2{fill:#437b26;}.cls-13,.cls-14,.cls-15,.cls-3,.cls-4,.cls-5{fill:none;stroke-miterlimit:10;}.cls-3,.cls-4,.cls-5{stroke:#437b26;}.cls-3{stroke-width:10px;}.cls-14,.cls-15,.cls-4{stroke-width:5px;}.cls-5{stroke-width:3px;}.cls-6{fill:#feda54;}.cls-7{fill:#a9b416;}.cls-8{fill:#dfe891;}.cls-9{fill:#f2c054;}.cls-10{fill:#cc8f46;}.cls-11{fill:#e95448;}.cls-12{fill:#fff2d1;}.cls-13{stroke:#fff2d1;stroke-width:4px;}.cls-14{stroke:#cc8f46;}.cls-15{stroke:#d6473c;}</style></defs><g id="レイヤー_2" data-name="レイヤー 2"><g id="グレフル"><path class="cls-1" d="M85,80.12s-12.38-11.27-32.94-7-26.75,7-26.75,7l64.4,22.57Z"/><path class="cls-1" d="M92.72,103.11S65,92.75,41.49,115.27,11.74,166,5.87,171c0,0,18.91-15,32.42-14.83s63.63,24.66,85-22.49l-30.6-30.59"/><path class="cls-2" d="M85.83,103.44,18.92,80l5.84-1.78c.11,0,11.68-3.56,26.88-7C67.55,67.52,85.31,78,86.06,78.4l1.1,5.36c1.65,1.31-20.29-12-34.62-8.7C44.05,77,36.72,79,31.92,80.3L87.16,99.67Z"/><path class="cls-2" d="M0,178.23,6.48,168s.63-2.16,6.33-14C19,141.07,28.38,127.25,40,114,52.39,99.75,76.8,98.77,77.83,98.73l4.31,3.42c-.23,0-27.89,1.55-39.14,14.44s-20.57,26.53-26.59,39.06c-1.73,3.62-3.21,6.52-4.43,8.82,8-5,20.64-11.77,28.57-10.09,1.3.27,3,.7,4.89,1.2,15.65,4,49.63,9.49,69.87-13.14l3.87,3.33c-21.86,24.45-59.6,17.58-74.73,13.68-1.89-.48-3.51-.9-4.73-1.16-8.54-1.8-23.21,7.67-29.4,12.27Z"/><path class="cls-3" d="M87.69,77.38s2.71,53.34,27.62,65.06"/><path class="cls-4" d="M87.69,125.06s-47.59,16.53-53.9,22"/><path class="cls-4" d="M70.58,143.6s2.25-8.84,1.87-15.76c-.13-2.56-19.37-6.54-19.37-6.54"/><path class="cls-4" d="M55.19,145.33s4.7-3.44,2.35-10.92H46.18"/><path class="cls-5" d="M41.49,80.8s32.78-.18,39.22,9.34"/><polyline class="cls-5" points="68.7 80.12 72.5 85.45 68.7 90.14"/><polyline class="cls-5" points="55.56 77.37 59.59 82.02 58.2 85.47"/><path class="cls-6" d="M237.38,38.45S220.65-1.74,157.25,3.33s-69.56,62-69.56,82.12a54.2,54.2,0,0,0,.91,9.3,90.43,90.43,0,0,0,14.48,35,71.27,71.27,0,0,0,9.6,11.18,58.14,58.14,0,0,0,37.53,16.13c45.79,2.53,92.46-11.37,99.5-41.58S249.05,54,237.38,38.45Z"/><path class="cls-7" d="M171,15.22s7.08-2.93,7.57-5.37c0,0-1.57,6.87,0,9"/><path class="cls-7" d="M164.52,9.85s6,10.75-8.19,13.76c0,0,11.17-1.52,16.66,7.08,0,0,3.91-15.2,16.57-10.42C189.56,20.27,176.9,12.92,164.52,9.85Z"/><ellipse class="cls-8" cx="171.97" cy="18.88" rx="4.15" ry="2.19"/><path class="cls-9" d="M243.25,48.31S250,138.41,171,157.07c0,0,54.22-1.71,74.7-31.69S243.25,48.31,243.25,48.31Z"/><path class="cls-10" d="M157.53,161.6c-18.24,0-27-5.69-35.58-11.25-1.55-1-3.15-2-4.77-3l1-1.75c1.69,1,4.43,2.31,6.08,3.23,12,6.69,21.87,11.3,53.83,5.79,19.1-3.29,37.38-7,51.09-16,15.22-10,22.55-25.45,22.4-47.36-.34-49.71-40-77.7-58-82.83C178.21,4.09,145.67,1,121.23,17.24,103,29.32,91.41,49.92,87.91,78.63l-3.48-.9C88.12,47.51,99,26,118.46,13.07c26-17.23,60.29-14,76.49-9.42,19.17,5.46,61.32,35.09,61.68,87.6.16,23.75-7.91,40.63-24.66,51.59-14.52,9.49-33.35,13.31-53,16.7A126.66,126.66,0,0,1,157.53,161.6Z"/><circle class="cls-9" cx="109.43" cy="72.31" r="2.82"/><circle class="cls-9" cx="143.18" cy="104.71" r="2.02"/><circle class="cls-9" cx="156.33" cy="67.92" r="2.02"/><circle class="cls-9" cx="129.24" cy="127.4" r="2.35"/><circle class="cls-9" cx="191.52" cy="100.73" r="1.96"/><circle class="cls-9" cx="214.61" cy="73.11" r="2.01"/><path class="cls-11" d="M180.2,112s86.72-16.13,168.93-15c0,0,11.15,26.61-3.37,38.75s-83.35,49.48-127.27,31.57S170.63,112,170.63,112Z"/><path class="cls-12" d="M170.63,112h9.57s16.33,54.89,78.27,45.32,90.66-55.26,90.66-60.29h7.32s7.33,28.19-3.94,37.77S319.16,166.71,270.86,173s-86.16-7.79-96.29-23.55-14.64-34-14.64-34l10.7-3.46"/><path class="cls-12" d="M248.65,102.4s13.42-5.52,24-2.32C272.66,100.08,262.49,115.59,248.65,102.4Z"/><path class="cls-13" d="M253.93,106.23S225.71,152.75,229.7,157"/><path class="cls-13" d="M265.77,106.23s31,30.28,31.56,43.23"/><path class="cls-13" d="M272.66,100.08s45,20.28,60.36,19.73"/><path class="cls-13" d="M248.65,102.4s-37.9,27.69-57.68,29.77"/><path class="cls-12" d="M342.38,115.48s-12.92,2.16-19.15,1.81c0,0,3.38,13.65,0,17.28S342.38,115.48,342.38,115.48Z"/><path class="cls-12" d="M290.64,135s10,4,17.92,4.2c0,0-7.09,14.24-26.9,12.55C281.66,151.71,290.72,143.55,290.64,135Z"/><path class="cls-12" d="M241.62,160.72s-8.7-7.05-9.72-13.66c0,0-10.59,11.33-15.1,10C216.8,157,232.66,166.91,241.62,160.72Z"/><path class="cls-12" d="M198.78,143.41s-3.38-5.65,2.25-15.57c0,0-13.51.73-18.58-2.62C182.45,125.22,183.58,145.8,198.78,143.41Z"/><path class="cls-6" d="M170.63,112,147,115.48s17.46,57.07,56.32,62.13S300.71,178,312,173s58-27.57,58-76H356.45S342.29,148,317.6,158.47c-22,9.34-66.45,19.6-104.18,8.9S170.63,112,170.63,112Z"/><path class="cls-14" d="M347.59,97.05H370c1.69,17-8.07,32.73-13.43,41.37s-36.31,33.56-48,36.12-46.5,4.82-64.17,5.25-49.55.83-68.27-15.78S156.33,110,156.33,110L180.76,112"/><path class="cls-15" d="M180.76,112S235,101.8,248.65,102.4c0,0,15.11-5.24,24-2.32,0,0,57.19-4.62,74.93-3"/></g></g></svg>