<svg xmlns="http://www.w3.org/2000/svg" viewBox="0 0 157.78 230.13"><defs><style>.cls-1{fill:#37601c;}.cls-2{fill:#73821d;}.cls-3{fill:#254621;}.cls-4{fill:#556128;}</style></defs><g id="レイヤー_2" data-name="レイヤー 2"><g id="kr-ru"><path class="cls-1" d="M66.08,146.76s-27.73,6.43-32.51,0-6.36-9,0-11.57S30,121.91,30,121.91,27,109.22,32.59,106.35,25.15,102.19,22,97.91,10,79.48,9.75,73.06,3.48,56,1.78,53.59s.07-12.24,8-13.1,11.54-5.23,12.29-8S30.4,30,32.59,30.32s20-8.13,23.09-5.84,14.25-21.74,22-21.29,26.13-7.85,29.13,13.87,26.57,11.24,30.86,13.26,13.71,20.51,9,23.27.42,13.9-3,18.18,18,6.46,11.57,16.94-14.57,10.22-14.57,17.64,3.42,16.41-.43,17.27-4.29,14.57-12,12.43-12.43.85-12.86,5.14-9.85,9.14-15,8.43-9.86,5.71-12.86,5.28-9.85-2.57-11.57-3S66.08,146.76,66.08,146.76Z"/><path class="cls-1" d="M63.34,165.19s-10.55-12-16.12-10.27-9,3.84-7.07,8.12.27,10.72-2.11,12.43-4.48,6,0,6.86,17.75-3,20.32-3,8.14-5.14,8.14-5.14Z"/><path class="cls-1" d="M65.27,170.33s17.57-5.57,21.43-5.57,7.71,7.71,5.14,9,6,6.42-1.29,11.14-21.85,1.53-21.85-2.45S65.27,170.33,65.27,170.33Z"/><path class="cls-2" d="M35.41,228.61H48.08s29.74-69,30.73-84.42S91.73,53,89.16,42.93c0,0-15.8,99.45-18.8,105.12S40.31,227.75,35.41,228.61Z"/><path class="cls-2" d="M79.42,109.48S51.29,64.49,22,56.34c0,0,35.46,22.84,56.77,61.71Z"/><path class="cls-2" d="M79.42,110.18s25.81-31.11,52.65-36.74c0,0-32.55,15.8-52.09,42.67Z"/><path class="cls-2" d="M76.75,129.9S62.2,112.37,47.09,109.2c0,0,18.33,8.9,29.34,24Z"/><path class="cls-2" d="M78.73,129.9s14.54-17.53,29.66-20.7c0,0-18.33,8.9-29.34,24Z"/><path class="cls-3" d="M88.11,156.49a4.05,4.05,0,0,1-.92-.1c-3.17-.67-10.1-2.59-10.4-2.67l.82-2.94c.07,0,7.13,2,10.21,2.63,1.52.32,4.6-1.89,6.44-3.21a14.76,14.76,0,0,1,2.79-1.76,10.57,10.57,0,0,1,3.24-.33c10.77-.31,12.59-2.79,12.95-5.42,1.2-8.86,6.49-8.59,13.19-8.25l1.84.09c4.27.19,6.29-3.3,8.47-7.87a18.52,18.52,0,0,1,2.32-4c1.56-1.77,1-7.37.57-12.31-.16-1.72-.33-3.49-.42-5.17-.24-4.28,2.5-5.87,5.39-7.56s6.53-3.82,9.23-9.52-1.1-8.22-6.78-11.12c-3-1.51-6-3.07-4.8-5.79.78-1.77,1-5.67,1.21-9.12.22-3.67.41-6.84,1.18-8.61a6.49,6.49,0,0,1,1.53-2.12c.6-.59,1.06-1-1.55-7.82-4-10.24-5.3-13.69-19.54-10.82-14.64,2.94-18.72-10.53-21.7-20.37-.46-1.54-.91-3-1.36-4.3C99.7,1.31,89.58,2.92,82.19,4.09c-1.62.26-3.16.5-4.41.61-2.77.26-7,6-10.44,10.66C63,21.27,59.21,26.38,55.53,26,51.2,25.56,40,30,36,31.72l-.43.19-.47-.09c-6.34-1.21-10.48.87-11.75,1.64-1,3.43-4.94,8.91-13.68,8.55a5.66,5.66,0,0,0-4.81,1.72C2.6,46.35,3,51.2,3.2,52.79c4.28,3.85,6.85,14,7.14,15.19l.08.31-.06.32C9,76.16,17.39,92.72,21,94.91c4.25,2.55,15,8.77,15.13,8.83L39,105.39l-3.1,1.1c-6.28,2.24-5.86,8.4-4.61,14.13.08.4.16.74.21,1A17.05,17.05,0,0,0,33.27,125c1.85,3.06,3.95,6.53,3.12,9.22a3.87,3.87,0,0,1-2.18,2.4c-1.87.86-3.75,2.6-3.77,4.54s1.87,3.89,5.32,5.57c9.09,4.4,29.69-1.33,29.9-1.38l.43-.12,4.71,1.41-.88,2.91-3.86-1.16c-3.2.86-22.16,5.66-31.63,1.08-5.86-2.84-7.06-6.1-7-8.34,0-2.88,2.21-5.73,5.54-7.27.45-.21.52-.43.55-.54.43-1.38-1.52-4.61-2.82-6.75a15.71,15.71,0,0,1-2.14-4.34c0-.25-.11-.56-.19-.92-.75-3.46-2.62-12.06,3.85-16.31-3.46-2-9.7-5.63-12.71-7.43C14.57,94.58,6,77.1,7.31,68.4,6.47,65.12,3.91,57.11.86,54.8l-.47-.36-.1-.58C.23,53.55-1.12,46,2.57,41.75A8.59,8.59,0,0,1,9.81,39c9,.38,10.68-6.49,10.75-6.78l.12-.54.44-.34c.22-.17,5.43-4,14.1-2.57C38,27.54,50.3,22.4,55.84,23c1.95.17,6-5.36,9-9.42,4.36-5.91,8.49-11.5,12.62-11.88,1.15-.1,2.56-.33,4.21-.59,8-1.26,20-3.17,23.18,5.91.47,1.36.92,2.85,1.4,4.42,3.54,11.71,7.13,20.49,18.18,18.26,16.08-3.23,18.67,1.56,23,12.71,2.9,7.5,2.78,9.18.85,11.08a3.53,3.53,0,0,0-.88,1.2c-.56,1.25-.75,4.6-.93,7.55-.22,3.79-.45,7.72-1.4,10a15.89,15.89,0,0,0,3.33,2c4.62,2.35,12.33,6.3,8.15,15.13-3.1,6.56-7.35,9-10.44,10.85-2.86,1.67-4,2.44-3.89,4.76.09,1.62.25,3.37.41,5.06.57,6.09,1.11,11.84-1.31,14.59a17.57,17.57,0,0,0-1.86,3.35c-1.87,3.93-4.72,9.9-11.34,9.6l-1.88-.09c-6.69-.34-9.19-.47-10,5.62-1,7.63-11,7.92-15.87,8.05a22.08,22.08,0,0,0-2.26.13A19.7,19.7,0,0,0,96,152.67C93.65,154.39,90.73,156.49,88.11,156.49Z"/><path class="cls-3" d="M39.2,184c-3.07,0-4.74-1.66-5.26-3.23-.66-2,.12-4.82,3.34-6.65,2.64-1.5,2.52-2.88,1.8-6.66-.15-.8-.31-1.62-.43-2.52-.75-5.37-.14-6.1,4.86-10.18l.19-.16c5.69-4.64,17.85,6.69,20.31,9.08L62.73,167c-5.16-5-14.47-12.14-17.1-10l-.2.17c-4.31,3.52-4.31,3.52-3.77,7.4.12.82.27,1.61.41,2.37.68,3.56,1.38,7.23-3.28,9.87-1.72,1-2.22,2.27-2,3.05s1.52,1.3,3.14,1.1c5.36-.66,18.39-3.12,18.52-3.15l-1.3,3.31c-.52.1-11.38,2.19-16.85,2.86A9.16,9.16,0,0,1,39.2,184Z"/><path class="cls-3" d="M78.49,188.39c-3.2,0-6-.47-7.67-1.68a14.25,14.25,0,0,1-4.1-4.26l1.46-3.51a21.19,21.19,0,0,0,4.43,5.31c1.79,1.31,8.21,1.67,16.57-.25a3.41,3.41,0,0,0,2.58-1.82c1.07-2.34-.6-6.45-1.27-7.71l-1-1.95,2.2-.27h.06c-.1-.92-1.46-3.2-2.21-4.47-.46-.77-.93-1.56-1.32-2.3-1.05-1-9.6,1.1-16.64,4.3l1.23-3.49c6.29-2.86,15.85-6.44,18.09-2.24.36.67.79,1.4,1.25,2.17,1.78,3,3.31,5.55,2.36,7.49a2.55,2.55,0,0,1-.61.8c.86,2.09,2,5.93.67,8.94A6.36,6.36,0,0,1,89.86,187,53.86,53.86,0,0,1,78.49,188.39Z"/><polygon class="cls-4" points="49.1 230.13 33.03 230.13 54.5 181.61 57.19 181.1 38.94 227.09 47.05 227.09 66.72 182.45 68.38 184.59 49.1 230.13"/><polygon class="cls-4" points="64 163.71 62.15 162.12 67.86 148.89 69.92 149.5 64 163.71"/><polygon class="cls-4" points="75.83 165.01 72.77 166.28 76.8 153.72 79.42 154.43 75.83 165.01"/></g></g></svg>