<svg xmlns="http://www.w3.org/2000/svg" viewBox="0 0 134.95 230.1"><defs><style>.cls-1{fill:#3c851f;}.cls-2{fill:#255a22;}.cls-3{fill:#255727;}.cls-4{fill:none;stroke:#194621;stroke-miterlimit:10;stroke-width:5px;}</style></defs><g id="レイヤー_2" data-name="レイヤー 2"><g id="go-ya"><path class="cls-1" d="M113.52,3.07s-1.69,15.21-8.45,18.59S39.19,31.23,52.14,74c0,0-24.21,3.52-20.27,35.54,0,0-32.66,14.57-15.21,45.54,0,0-29.41,18.59-5.13,46.74,0,0-6.69,16.33-2.19,24.22a52.5,52.5,0,0,0,10.14-7.32c3.94-3.94,8.45,4.5,13,5.07S46,221.56,48.2,213.12,67.34,203.54,73,203s37.72-19.59,28.15-44.15c0,0,31.54-13,12.39-50.33,0,0,15.15-14.77,6.17-22.09,0,0,24.24-14.07,0-50.11,0,0,2.82-28.72,6.2-29.85C125.91,6.45,127,1.38,113.52,3.07Z"/><path class="cls-2" d="M119.71,36.3s-4.5,51.8-11.26,52.37c0,0,4.51,18.9-3.38,20.43,0,0,6.76,43.76-10.7,44.89,0,0-6.75,40-25.34,40s-29.28,19.71-29.28,19.71-14.08,4.5-17.46,0S9.34,226.07,9.34,226.07s13-9.11,15.65-7,15.32,16,23.21-5.92c0,0,5.63-9.58,24.78-10.14s37.16-33.67,28.15-44.15c0,0,33.23-13.61,12.39-50.33,0,0,19.66-8.57,6.17-22.09C119.69,86.41,147.31,74.59,119.71,36.3Z"/><path class="cls-3" d="M72.61,100.28A22.84,22.84,0,0,1,68,108.49,21.67,21.67,0,0,1,73.31,90.9,22.82,22.82,0,0,1,72.61,100.28Z"/><path class="cls-3" d="M68.68,72.89a19.12,19.12,0,0,1-5.13,8,19.06,19.06,0,0,1,.17-9.54,19,19,0,0,1,5.13-8A19.05,19.05,0,0,1,68.68,72.89Z"/><path class="cls-3" d="M53.16,120.23a19,19,0,0,1-5.13,8,17.56,17.56,0,0,1,5.3-17.58A19.06,19.06,0,0,1,53.16,120.23Z"/><path class="cls-3" d="M96.29,77.5a19.12,19.12,0,0,1-5.13,8A19.05,19.05,0,0,1,91.33,76a19.12,19.12,0,0,1,5.13-8A19.05,19.05,0,0,1,96.29,77.5Z"/><path class="cls-3" d="M84.7,129a19.11,19.11,0,0,1-5.14,8,17.54,17.54,0,0,1,5.31-17.58A19.2,19.2,0,0,1,84.7,129Z"/><path class="cls-3" d="M63.16,143.53a19,19,0,0,1-5.13,8A17.56,17.56,0,0,1,63.33,134,19.06,19.06,0,0,1,63.16,143.53Z"/><path class="cls-3" d="M36.83,165.1a19.11,19.11,0,0,1-5.13,8.05A17.59,17.59,0,0,1,37,155.56,19.06,19.06,0,0,1,36.83,165.1Z"/><path class="cls-3" d="M63.16,173.9a19.12,19.12,0,0,1-5.13,8,17.56,17.56,0,0,1,5.3-17.58A19.05,19.05,0,0,1,63.16,173.9Z"/><path class="cls-4" d="M105.07,21.66s7.32-8.83,8.45-18.59c0,0,10.89-2.63,12.39,3.38,0,0-5.72,24.92-6.2,29.85,0,0,28.67,38.85,0,50.11,0,0,14.85,10.76-6.17,22.09,0,0,25.58,35.27-12.39,50.33,0,0,8.66,18.38-10.5,34.93s-28.92,3.78-42.43,19.36c0,0-2.49,24-23.21,5.92,0,0-10.95,3.65-15.65,7,0,0-4.82-15,2.19-24.22,0,0-23.4-26.46,5.13-46.74,0,0-16.89-32.13,15.21-45.54,0,0-6.2-31,20.27-35.54,0,0-8.42-30.38,17.24-40S99.63,23.34,105.07,21.66Z"/></g></g></svg>