<svg xmlns="http://www.w3.org/2000/svg" viewBox="0 0 193.48 225.83"><defs><style>.cls-1{fill:#398e4b;}.cls-2{fill:#b9cf86;}.cls-3{fill:#8a9c64;}.cls-4{fill:#bdd489;}.cls-5{fill:#9cbd51;}.cls-6{fill:#2c6e3a;}.cls-7{fill:#9fb373;}.cls-8{fill:#92a36a;}.cls-9{fill:#6f7d50;}.cls-10{fill:none;stroke:#a0b374;stroke-miterlimit:10;stroke-width:2px;}</style></defs><g id="レイヤー_2" data-name="レイヤー 2"><g id="小松菜塗り"><path class="cls-1" d="M63,146.84s-18.39-1.69-12.75-18S62.56,117,67.94,111.37s1.35-27,22.51-30.41c0,0-4.17-41.11,38.06-41.11,0,0,11.27-4.76,14.64-9.57C151,19,182.57,12.82,180.88,41.54c0,0-.56,6.76-4.51,11.26,0,0,40,25.34-11.82,51.81,0,0-6.2,31.53-29.85,28.16,0,0-21.72,43.36-54.62,16.89Z"/><path class="cls-1" d="M55.92,139s-28.11,20.27-37.17-6.19,17-32.1,18.59-35.48S22.59,50.55,62,34.22c0,0-2.16-29.85,24.55-31.53s20,35.19,20,35.19,5.63,40.26-10.14,54.34S107.78,137.83,55.92,139Z"/><path class="cls-1" d="M86.59,47.73s20.79-25.34,38.68-21.39c0,0,13.94-32.1,39.84-17.46s25.34,39.42,13.52,56.31"/><path class="cls-2" d="M136.75,56.7s-83.13,87.66-89.38,91.88-45,41.95-40.82,64.48l-3.1,5.35s12.11,7.32,16.89,4.22l2.54-4.22S60.25,174.3,65.39,152.8s69.83-87.28,72.93-89.25S143.92,55.76,136.75,56.7Z"/><path class="cls-3" d="M80.08,149.66s-19.69,15.91-23,21.41c0,0,6.13-10,8.06-18,0,0,1.35-3.84,2.19-5.49Z"/><path class="cls-4" d="M51.91,141.56s-55.41,34.1-45.13,71.5c0,0,4.41-24.12,14.41-34.26s17.6-22.52,24.34-28.59c2-1.77,8.14-6.17,8-7.09A7,7,0,0,1,51.91,141.56Z"/></g><g id="小松菜線"><path class="cls-5" d="M121.61,86.68l-.28-3c.16,0,15.55-1.42,22.49-2.25l.35,3C137.19,85.26,121.76,86.66,121.61,86.68Z"/><path class="cls-5" d="M130.41,99.31c-6.36,0-14.79-3.85-15.2-4l1.26-2.72c2.92,1.35,11.49,4.62,15.91,3.56l.7,2.92A11.34,11.34,0,0,1,130.41,99.31Z"/><path class="cls-5" d="M108.49,78.28c-.2-.66-4.68-16.29.07-26.93l2.74,1.22c-4.3,9.63,0,24.72.07,24.87Z"/><path class="cls-5" d="M97.87,84.7c-.2-.44-5-10.69-3.48-16.78l2.91.73c-1,4.19,2,12.08,3.28,14.77Z"/><path class="cls-5" d="M87.89,97.32c-.08,0-8-2.09-7.67-13.31l3,.1c-.29,8.7,5.17,10.24,5.4,10.3Z"/><path class="cls-5" d="M108.64,111.59a24.31,24.31,0,0,1-7.38-1.34l1-2.83c2,.7,7.67,2.12,10.13.23l1.83,2.37A9.05,9.05,0,0,1,108.64,111.59Z"/><path class="cls-5" d="M64.8,64.11c-.78-1-7.62-10.37-7.62-14.69h3c0,2.51,4.31,9.25,7,12.91Z"/><path class="cls-5" d="M56.19,75.7c-.28-.22-6.85-5.29-7.17-10.7l3-.18c.2,3.36,4.4,7.27,6,8.49Z"/><path class="cls-5" d="M52.52,91.86c-.19-.32-4.5-7.71-4.85-13.91l3-.17c.31,5.47,4.4,12.48,4.44,12.55Z"/><path class="cls-5" d="M166.3,91l-.13-3c2.51-.11,6.92-2.06,8.41-2.79l1.34,2.68C175.67,88.05,170,90.87,166.3,91Z"/><rect class="cls-5" x="142.59" y="104.24" width="12.67" height="3"/><path class="cls-6" d="M76.94,150.74a34.32,34.32,0,0,1-10.28-1.54L68,146.35c32.32,10.3,53.23-37.47,53.44-38l.37-.83.91-.06c11.88-.83,21-5.11,27-12.72C161.45,80.07,158,57.55,158,57.33l-.2-1.28,1.23-.39c19.85-6.21,20.23-32.4,20.23-32.66h3c0,.28-.36,27.6-21.13,35.11.61,5.16,2,24.65-9,38.51-6.44,8.11-16,12.75-28.28,13.79a103.41,103.41,0,0,1-14.87,23C99,144.87,88.05,150.73,76.94,150.74Z"/><path class="cls-6" d="M101.32,161c-12.25,0-21.62-8.13-22-8.51l4.1-3.4-1.91,1.58,1.91-1.59c.09.09,9.48,8.55,21.6,6.63,10.08-1.59,19.34-9.72,27.53-24.17l1-1.79,2,.65A16.69,16.69,0,0,0,148,128.61c6.84-3.87,11.82-12.27,14.81-25l.3-1.25,1.19-.49c.21-.08,20.6-8.55,23.74-22.39,1.42-6.29-1-12.94-7.22-19.78l-1.08-1.19.63-1.47c.51-1.2,12.09-29.52-13.25-44-7.08-4.06-13.91-5.14-20.3-3.2-12.32,3.73-19.29,17.45-19.36,17.59L126.73,29,125,28.82c-.1,0-10-1-16.31,3.38l-2.84-4.11c6.13-4.23,14.44-4.47,18-4.34,2.33-4,9.62-15,21.55-18.67,7.76-2.36,15.93-1.14,24.27,3.64,25.64,14.68,18.22,42.08,15.92,48.8C192.2,65.27,194.68,73,193,80.64c-3.27,14.41-20.72,23.21-25.53,25.39-3.38,13.49-9.12,22.57-17,27A22.28,22.28,0,0,1,136,135.61c-8.79,14.86-19,23.28-30.24,25A29,29,0,0,1,101.32,161Z"/><path class="cls-6" d="M36.13,148.92a19.52,19.52,0,0,1-8.49-1.85c-6.06-2.91-10.26-8.92-12.5-17.88-2.19-8.8.83-17.54,8.76-25.28A53.55,53.55,0,0,1,34.47,96C31,80.47,30,59.53,43,44.25A41.66,41.66,0,0,1,59.5,32.44C59.56,21.05,64.39,1.91,83,.14c6.81-.66,12.57,1,17.1,4.88,8.77,7.52,9.64,20.7,9.68,21.26l-5,.29,2.5-.14-2.49.15c0-.12-.8-11.66-8-17.78-3.46-3-8-4.19-13.36-3.68-8.22.78-13.89,5.75-16.86,14.77a45.37,45.37,0,0,0-2.08,14.22l.09,2-1.94.53C61.26,37,27.81,46.81,39.77,96.71l.46,2-1.8.88c-.22.11-22.7,11.35-18.43,28.44,1.85,7.45,5.15,12.35,9.8,14.58,5.92,2.84,15.57-1.93,19-3.5l.91,1.92C46.22,143.54,39.86,148.92,36.13,148.92Z"/><path class="cls-7" d="M5.15,222.18,0,219.38l3.86-6.66c-1.53-6.27-2.37-37.12,47-72.53l1,1.37c-51.44,36.87-43.1,70.38-43,70.68l.37,1.08L6.9,217.44l.64.34Z"/><path class="cls-8" d="M18.15,225.83c-1.49,0-7.16-1.74-13-3.65l2.39-4.4c2.88.95,8.42,2.84,10,3l3.41-4c8.85-10.9,37.82-48.11,36.67-46.63l2.44.8c-4.85,9.88-32,45.07-35.27,49l-4.55,5.35-.58.23A3.89,3.89,0,0,1,18.15,225.83Z"/><path class="cls-9" d="M60.08,171l-2.44-.8C70,155.64,78.39,150,80.78,150.07h1.59C80.56,151.17,66.11,164.28,60.08,171Z"/><path class="cls-10" d="M49,154.11S19.58,183.7,16.19,195.87"/><path class="cls-10" d="M54.93,164.55S30.34,197.4,23,202.09"/><path class="cls-6" d="M51.91,144.48c-7.41-9.94-8-21.31-4.85-28.91,4.06-9.68,13.8-14.06,17.28-15.35-2.87-22,16-35,20.59-37.76C83.75,55,87,46.92,94.39,39a67.1,67.1,0,0,1,12.1-10.14l1.59,2.55c-.24.15-23.61,15-20,31.48L88.3,64l-1,.54a46.43,46.43,0,0,0-11.49,9.39c-7.15,8.11-10,17.21-8.33,27.05l.22,1.3-1.27.38c-.12,0-12.3,3.77-16.61,14.08-2.82,6.73-1.2,17.1,3.73,26.37Z"/></g></g></svg>