<svg xmlns="http://www.w3.org/2000/svg" viewBox="0 0 200.25 179.86"><defs><style>.cls-1{fill:#972e1c;}.cls-2{fill:#b43620;}.cls-3{fill:#7b210e;}.cls-4{fill:#87a11a;}.cls-5{fill:#687f0b;}.cls-6{fill:#6b5812;}.cls-7{fill:#6f9730;}.cls-8{fill:#597a23;}.cls-9{fill:#7a2318;}.cls-10{fill:#d15c47;}.cls-11{fill:#782516;}.cls-12{fill:#5c190a;}.cls-13{fill:none;stroke:#90b555;stroke-linecap:round;stroke-miterlimit:10;stroke-width:2px;}</style></defs><g id="レイヤー_2" data-name="レイヤー 2"><g id="さくらんぼ"><path class="cls-1" d="M155.61,93.28s19.15-18.11,31.54,0,21.4,46.82-8.45,56.39-39.15,1.3-46.61-5.26S112.82,79.68,155.61,93.28Z"/><path class="cls-2" d="M112.82,96.18s-27-10.7-37.17,9S57.63,161.5,88,175s54.62-20.27,54.62-34.91S150,87.17,112.82,96.18Z"/><path class="cls-1" d="M95.36,104.62s3.33,13.52,25,3.38C120.39,108,115.07,104.06,95.36,104.62Z"/><path class="cls-3" d="M148.86,99.42s9.57,7.85,20.83-6.14C169.69,93.28,157.9,94.5,148.86,99.42Z"/><path class="cls-4" d="M104.5,110.42c9.56-12.22.08-89.7.08-89.7h7.25s8.45,72.41,0,89.7"/><path class="cls-5" d="M104.5,110.42l-2.1-.71c7.42-9.49,3.22-69.68.61-91l-.27-2.25H114l.21,1.77c.35,3,8.87,74.41.27,92l-2.68.17c7.38-15.1-.15-78.79-1.37-90h-3.21C108.94,35,113.67,98.7,104.5,110.42Z"/><path class="cls-4" d="M161.08,101c0-73.72-44-87.11-45.15-85.24l-3.76,8s39.9,9,42.15,77.21"/><path class="cls-5" d="M151.62,100.06c-.9-27.22-7.79-51-21.25-64-10.12-9.73-20.12-11.46-20.22-11.48l-3.38-.55,8.36-10.46,1.19.24c.48.09,11.88,2.48,23.39,14.1,19,19.19,24.4,50,24.56,71.12l-3.2,1c-.16-20.27-6.09-50.85-24-69.1-8.63-8.79-17.32-12-20.38-12.89L114,21.46a49.38,49.38,0,0,1,19,11.55c18.15,17.29,20.74,47.78,21.39,67.6Z"/><path class="cls-4" d="M115.93,15.8S106.62.44,98.74,6.08,97.08,31.72,115.93,15.8Z"/><path class="cls-6" d="M103.32,23.83a10.09,10.09,0,0,1-3.69-.67,10.06,10.06,0,0,1-6.13-8.44A10.81,10.81,0,0,1,97.58,4.45,8.26,8.26,0,0,1,104.26,3c7.07,1.46,13.13,11.32,13.38,11.74l.89,1.47-1.31,1.1C111.29,22.34,106.69,23.83,103.32,23.83Zm-.86-17a4.32,4.32,0,0,0-2.56.87,6.93,6.93,0,0,0-2.43,6.52,6.15,6.15,0,0,0,3.61,5.21c3,1.18,7.29-.26,12.18-4-2.07-3-6.07-7.68-9.81-8.45A4.92,4.92,0,0,0,102.46,6.83Z"/><path class="cls-7" d="M101.62,13.33s-24.1-24.56-58.26-1.55S2,21.83,2,21.83,1.88,49.18,34,49.31,100,35.79,101.62,13.33Z"/><path class="cls-8" d="M34.42,51.31H34C16.44,51.24,8.12,43.23,4.22,36.53A31.91,31.91,0,0,1,0,21.82l0-7.65,3.72,6.69s1,1.63,4.23,2.31c5.16,1.1,15.29-.26,34.26-13.05,35.13-23.66,60.55,1.55,60.8,1.81l.64.64-.07.91C101.89,37.21,67.16,51.31,34.42,51.31Zm-29.9-25C6,33.54,11.77,47.22,34,47.31h.41c29.82,0,62.71-12.61,65.13-33.2-4-3.65-25.39-20.65-55-.67C24,27.22,12.68,28.42,6.77,27A13.81,13.81,0,0,1,4.52,26.26Z"/><path class="cls-9" d="M100.87,179.86a34.6,34.6,0,0,1-24.74-10.24c-10.55-10.4-12.48-23.83-12.24-33.27.43-16.87,7.87-32.39,14.65-38.42,12.22-10.88,27.06-6.76,27.68-6.58l-.31,4.12c-.14,0-14.18-3.93-24.71,5.45-6.24,5.55-12.92,20.36-13.31,35.53-.22,8.65,1.52,20.93,11,30.32,8.18,8.07,19.15,10.89,30.88,7.95,13.32-3.33,24.69-13.36,28.3-24.95,4.47-14.37,6.77-35.2-1.47-46.62-3.68-5.1-11.87-6.94-19-7.07L118,91.7c8.46.15,17.45,2.94,21.9,9.11,9.1,12.6,7,34.17,2,50.15-4,12.87-16.52,24-31.14,27.64A40.51,40.51,0,0,1,100.87,179.86Z"/><path class="cls-9" d="M134.18,95.77,131,94.21c.28-.11,7.52-4.09,20-3.77l.24,3.06C145.25,92,134.18,95.77,134.18,95.77Z"/><path class="cls-9" d="M156.21,155.47a47.63,47.63,0,0,1-16.88-3.23l1.39-3.75c16,5.94,26.79,2.17,44.61-4.09l1.16-.41c4.5-1.58,7.49-5.12,8.88-10.52,3.1-12-2.78-31.1-9.71-38.86-9.07-10.15-21.61-3.82-21.7-3.78l-.34-4.08c.48-.21,14-7.1,25,5.19,7.9,8.85,14.11,28.91,10.61,42.53-1.72,6.68-5.68,11.28-11.44,13.3l-1.16.4C175,152.27,165.89,155.47,156.21,155.47Z"/><path class="cls-10" d="M81.88,111.77s-10.17,10.87-6.23,29.45,3.94-17.29,9.57-21.59S85.85,105.44,81.88,111.77Z"/><path class="cls-10" d="M80,160.19s-6.79.62-4.29-6.65S80,160.19,80,160.19Z"/><path class="cls-11" d="M108.23,112.49a16.12,16.12,0,0,1-13.69-7.29l1.64-1.15c3.57,5.09,8.58,7.18,14.93,6.21a26.63,26.63,0,0,0,8.76-3.11l1,1.7a27.83,27.83,0,0,1-9.44,3.38A21.54,21.54,0,0,1,108.23,112.49Z"/><path class="cls-12" d="M156.48,101.79a17.48,17.48,0,0,1-7.87-1.93l.5-.87c.48.28,11.9,6.69,20.16-6l.84.55C165.84,100.1,160.67,101.79,156.48,101.79Z"/><path class="cls-13" d="M87.74,16.46s-44,10.3-57.14,16.46"/><path class="cls-13" d="M57.63,13.33s14.7,1.68,17.11,6.5-8.15,13.09-8.15,13.09"/><path class="cls-13" d="M41.86,21.83S56.14,21,55.57,24.69s-6.85,10.86-6.85,10.86"/></g></g></svg>