<svg xmlns="http://www.w3.org/2000/svg" viewBox="0 0 192.89 175.53"><defs><style>.cls-1{fill:#914367;}.cls-2{fill:#c39f00;}.cls-3{fill:#dbbc5f;}.cls-4{fill:#6f3249;}</style></defs><g id="レイヤー_2" data-name="レイヤー 2"><g id="レイヤー_10" data-name="レイヤー 10"><path class="cls-1" d="M171.29,7.93S139.22,14.12,128,22.57,98.12,35,98.12,35,65.39,73.81,68.52,92.4s-12,24.77-14,29.28-4.27,15.2-3.14,22-3.38,19.71-6.2,22,5,10.14,9.28,5.63,13.81-14.64,23.95-14.64,40-11.26,58-30.41,32.17-13,35.23-48.43.81-53.49,10.38-60.81S181.46,2.86,177,2.86,171.29,7.93,171.29,7.93Z"/><path class="cls-1" d="M68.52,20.88s97.13,44.84,110.12,81.65c0,0,3.38,8.45,9,9.57s0,10.7,0,10.7-6.75-6.19-9.57-6.19-51.31,20.83-63.67,20.83S32.23,133.5,17,116.05-1,64.24,3,55.23,25.41,10.18,68.52,20.88Z"/><path class="cls-2" d="M58.93,25.27s11.22,27.14,2.4,41.78-22.61,46.19-36,43.93S.73,77.61,3.6,62,28.44,18,58.93,25.27Z"/><path class="cls-3" d="M43.49,33.83S22.1,46.22,19.28,50.72s5.07,5.07,0,9.58S9.71,71.85,13.09,78.18s2.81,15.9,5.06,15.9,9.93-3.65,16-15.9,12.21-8.87,12.21-8.87,12.92-18.59,8.15-22.53S53.07,35.52,43.49,33.83Z"/></g><g id="芋せん"><path class="cls-4" d="M119.12,52.44c-6.63-9.6-18.56-4.73-18.69-4.72h0c.55,0,11.57-1.22,18.69,4.72Z"/><path class="cls-4" d="M95.43,76.71h0c.58-.12,14.23-3,20.53.13h0C105.7,71.14,99.08,75.92,95.43,76.71Z"/><path class="cls-4" d="M94.74,101.89c-5.37,0-13.9-5.85-14.94-6.58h0c3.84,2.68,3.93,8.49,16.31,6.43h0A6.06,6.06,0,0,1,94.74,101.89Z"/><path class="cls-4" d="M88.1,116.42c-3.38-.24-5.88-1.29-7.42-3.15a6.59,6.59,0,0,1-1.51-4.72h0A23.3,23.3,0,0,1,83,111.4c1,1.17,2.57,4.84,5.07,5Z"/><path class="cls-4" d="M162,81.66c-.18-.07-18-7.59-21.18-8.68h0c3.23,1.13,13,1.18,21.18,8.68Z"/><path class="cls-4" d="M149,102c-6.59-.84-11.67-6.72-13.18-6.11h0c3.93-1.56,11.08,4.28,13.18,6.11Z"/><path class="cls-4" d="M131.49,120.3c-4.12-2.58-18.94-4.33-19-3.91h0c.62.12,11.18-2.65,19,3.91Z"/><path class="cls-4" d="M52.69,175.53c-3.73,0-7.61-5.34-9.63-8.61l-.79-1.28.76-1.3c1.58-2.71,5.71-10.66,5.77-14.9,0-.57,0-1.26,0-2.05-.08-7.94-.24-24.44,10.61-34.32,5.69-5.18,5.89-12.11,6.11-19.44.16-5.63.33-11.46,3.08-16.63C74.5,65.9,95.16,34.88,96,33.57l.46-.69.78-.28c.18-.06,18.81-6.75,29.54-12.26C137.09,15.07,156.41,8,169.08,5.76a7.81,7.81,0,0,1,3-4.83,6.11,6.11,0,0,1,5.78-.41c4.89,1.81,10.81,5,11.32,9.86.33,3.12-1.62,6-5.78,8.67s-5.42,21.7-6.54,37.09c-1.63,22.25-3.17,43.27-11.07,49-9.68,7-32.36,23.41-36.83,31-2,3.41-11.1,10.91-49.78,22.81-12.43,3.83-21,8.81-22.3,13-.87,2.77-2.67,3.39-3.67,3.52A3.87,3.87,0,0,1,52.69,175.53Zm-4.58-10a22.37,22.37,0,0,0,4.06,4.69c2.64-7.54,15.29-12.86,25.5-16,25.48-7.84,44.34-16.1,46.94-20.54,4.4-7.54,21.78-20.71,38.21-32.59,6-4.35,7.68-27,9-45.29,1.68-23,3-37.27,8.86-41,2.32-1.46,3.59-2.89,3.48-3.92-.17-1.65-3.5-4-8.08-5.7-.28-.1-1-.32-1.27-.12-.6.4-1,2-1,2.95l-.1,2.05-2,.32c-12.09,1.81-32.13,9-42.56,14.39C119.23,29.86,103.47,35.68,99.74,37,96.61,41.74,78.32,69.36,73,79.35c-2.2,4.14-2.35,9.14-2.5,14.43-.23,7.67-.48,16.38-7.75,23-9.19,8.37-9,23.36-9,30.57,0,.84,0,1.57,0,2.17C53.73,154.7,49.85,162.34,48.11,165.51Z"/><path class="cls-4" d="M49.67,132.69c-.63-.16-15.44-4.22-33.86-14.46C-3.74,107.36.28,57.15.46,55l0-.35.12-.33C6.42,39,18.44,20,42.69,16.23A57.86,57.86,0,0,1,69.4,18.54l.2.08L99.19,32.7,97,37.21l-29.49-14c-2.8-1-43.91-14.95-62.14,32.6-1.12,13.9-1,50.41,12.83,58.07a164.1,164.1,0,0,0,32.73,14Z"/><path class="cls-4" d="M127.5,137.3,126,132.53c5-1.56,50.74-18.1,51.2-18.27l1.17-.42,8.28,5.35c.85-1.94,1.37-3.79,1.22-4.57l-.25,0c-2.27,0-6-1.25-12.48-12.13-3.26-5.51-5.71-10.93-5.81-11.15l3.58-3.59c4.8,10.64,12.32,21.87,14.71,21.87A4.92,4.92,0,0,1,192.2,112c2.14,3.71-1.28,10.19-2.38,12.09l-1.32,2.27-10.74-7C170.4,122.05,132.24,135.84,127.5,137.3Z"/><path class="cls-4" d="M33,113.74a9.18,9.18,0,0,1-1.85-.2l-.87-.17C18.79,111,5.78,108.36,3.62,85.2c-2-21.51-2.26-29.89-2.28-30l.41-1-.93-.31a93.87,93.87,0,0,1,16.3-19.1C30.69,22.74,47.3,19.47,60.39,25.27h0c.65,1.21,16,27,2.89,43.35C58.67,74.36,55,82.55,51.37,90.46,45.74,102.89,40.82,113.74,33,113.74ZM5.55,55.81C5.9,58.45,6.94,66.94,8.6,84.74c1.82,19.46,11.48,21.44,22.68,23.73l.87.17c5,1.06,9.93-9.78,14.67-20.24,3.71-8.2,7.56-16.68,12.56-22.91,9.79-12.2-.29-34.6-2.75-39.6C30,20.63,8.91,50.7,5.55,55.81Z"/></g></g></svg>