<svg xmlns="http://www.w3.org/2000/svg" viewBox="0 0 183.52 187.84"><defs><style>.cls-1{fill:#775f45;}.cls-2{fill:#9a7c4f;}.cls-3,.cls-4{fill:none;stroke-miterlimit:10;}.cls-3{stroke:#9a7c4f;stroke-width:4.24px;}.cls-4{stroke:#69543c;stroke-width:7.07px;}</style></defs><g id="レイヤー_2" data-name="レイヤー 2"><g id="里芋"><path class="cls-1" d="M155.79,25.05V3.56H127.13S81.76,0,60.27,35.79s-33.43,51.35-40.6,77.62,0,37,10.75,45.37,0,17.91,0,17.91l26.27,7.16,10.74-11.94s26.27,3.59,35.82-6,37-46.56,43-63.28,19.1-21.49,20.3-35.82S163.35,30.84,155.79,25.05Z"/><path class="cls-2" d="M27.85,91.15s-3.73,5.94-6.69,17.19l18,3.34s11.68,15.92,16.45,17.51H74.73s12.83,11.15,17,12.21l20.12-3.72,5.92,10.68s8.1-10.82,12.33-17.25l-14-11.35s-15.39,7.84-20.69,8.37c0,0-11.68-12.2-12.21-17.51,0,0-13.27,4.78-20.7,4.25S50.85,93.65,50.85,93.65,37.76,112,27.85,91.15Z"/><path class="cls-2" d="M54.88,44.69S44.25,61.87,41.25,66.87c0,0,12.25-.24,18.09,0s10.85,11.38,16.3,11.91S86,74,91.76,76.66s9,14.65,15.34,14.49c0,0,15.92-6.53,18-3.88s5,13.27,5,13.27,14.74-6.74,18.94-4.17c0,0,6-8.52,9.36-12.83,0,0-13.12,0-20.55,1.08S127.8,67.1,127.8,67.1s-13.27,9.56-19.11,9S99.84,56,99.84,56,85.34,67.63,79.51,67.63,63.05,44.69,63.05,44.69,55.73,63.13,54.88,44.69Z"/><path class="cls-2" d="M97,7.62S84.85,9.87,75.64,18.56c0,0,15.11-1.87,16.12,4.5,0,0,13.22-6.9,20.12,2.65,0,0,19.1-4.77,24.41,5.31,0,0,18-3.83,27.59,9.49,0,0-1.32-12.41-8.09-15.46,0,0-16.32,0-18.44-1s-8.49-8.43-14.86-8.43S110.83,12,103.92,9.79,99.11,16.59,97,7.62Z"/><polyline class="cls-3" points="60.27 35.79 54.56 24.07 54.56 11.38"/><line class="cls-3" x1="35.72" y1="76.2" x2="21.16" y2="72.61"/><line class="cls-3" x1="137.44" y1="119.76" x2="148.49" y2="119.76"/><polyline class="cls-3" points="166.54 66.84 176.62 66.84 183.52 66.84"/><line class="cls-3" x1="117.8" y1="148.36" x2="122.49" y2="161.57"/><line class="cls-3" x1="75.64" y1="172.52" x2="75.64" y2="187.57"/><line class="cls-3" x1="17.67" y1="122.34" x2="0.96" y2="113.8"/><line class="cls-3" x1="41.25" y1="134.5" x2="33.34" y2="140.87"/><line class="cls-3" x1="91.76" y1="97.88" x2="111.88" y2="97.88"/><line class="cls-3" x1="137.44" y1="59.67" x2="145.31" y2="49.06"/><line class="cls-3" x1="62.52" y1="88.33" x2="51.91" y2="88.33"/><line class="cls-3" x1="91.76" y1="40.51" x2="80.04" y2="35.79"/><line class="cls-3" x1="62.52" y1="150.42" x2="72.61" y2="154.96"/><path class="cls-4" d="M155.79,3.56s-43.22-.45-54,2.67S70.62,19,54.88,44.69s-31.29,55.85-31.29,55.85-21,41.12,6.83,58.24c0,0,8.57,4.82,4.28,11.36l-4.28,6.55,26.27,7.16,10.74-11.94s28.41.42,39.82-10.34,39.28-49.51,41-63.69,19.09-18.16,18.26-33.43.79-33.7-10.75-39.4Z"/></g></g></svg>