<svg xmlns="http://www.w3.org/2000/svg" viewBox="0 0 229.44 177.49"><defs><style>.cls-1{fill:#b5c582;}.cls-2{fill:#8da127;}.cls-3{fill:#68862a;}.cls-4{fill:#9eb04a;}.cls-5{fill:#738422;}.cls-6{fill:#c3c47e;}.cls-7{fill:#7b8d26;}.cls-8{fill:#5e7a2e;}.cls-9{fill:#5b762c;}.cls-10{fill:#99a66f;}</style></defs><g id="レイヤー_2" data-name="レイヤー 2"><g id="絹塗り"><path class="cls-1" d="M19.28,164.16S5.76,167.31,1.82,175.31c0,0,1.25-3.13,15.2-6.08S19.28,164.16,19.28,164.16Z"/><path class="cls-2" d="M216.09,23s5.06-5.07,0-22h3.42A45.82,45.82,0,0,1,220,23Z"/><path class="cls-2" d="M175.72,50.41S77.84,128.12,66,137.7,31.1,159.1,26,159.1,12.52,160.79,12.52,163s.56,6.19,4.5,6.76,37.1,14.64,81.9-4.51,49.31-36,59.45-40.54,51.8-72.65,53.49-74.34-13-21.39-13-21.39Z"/><path class="cls-3" d="M209.83,29,212,17.68l15.7,5.72L216.93,35.18v22c0,4.51-5.07-6.76-5.07-6.76l-10.13,7.82V46.47l-12.39-.56V37.85l-10.55,1.86S195.53,23.38,209.83,29Z"/><path class="cls-4" d="M169.31,64.21s3.85-6.41,9.51-1.77c4.78,3.92.94,8-1.4,8.93s-6.81,1.61-8.11,0S168,66.55,169.31,64.21Z"/><path class="cls-4" d="M171.44,61.09s4.38-7.28,10.82-2c5.44,4.45,1.07,9.09-1.59,10.15s-7.75,1.84-9.23,0S170,63.75,171.44,61.09Z"/><path class="cls-5" d="M182.26,59.08S184,67,173.52,68.67c0,0,6.3.63,8.7-1.49S182.26,59.08,182.26,59.08Z"/><path class="cls-6" d="M173.52,61.82s-.19-2.34,1.79-2.16,2.17.9,1.63,2.16S175.34,64.16,173.52,61.82Z"/><path class="cls-4" d="M155.4,77.85s4.38-7.28,10.82-2c5.44,4.45,1.07,9.08-1.59,10.15s-7.75,1.83-9.23,0S153.91,80.51,155.4,77.85Z"/><path class="cls-5" d="M166.22,75.85s1.72,7.88-8.75,9.59c0,0,6.31.63,8.71-1.5S166.22,75.85,166.22,75.85Z"/><path class="cls-6" d="M157.48,78.58s-.19-2.34,1.79-2.16,2.17.9,1.63,2.16S159.3,80.92,157.48,78.58Z"/><path class="cls-4" d="M136.08,91.74s4.38-7.28,10.82-2c5.44,4.45,1.07,9.08-1.59,10.15s-7.75,1.83-9.23,0S134.59,94.41,136.08,91.74Z"/><path class="cls-5" d="M146.9,89.74s1.72,7.88-8.74,9.59c0,0,6.3.63,8.7-1.5S146.9,89.74,146.9,89.74Z"/><path class="cls-6" d="M138.16,92.47S138,90.13,140,90.31s2.17.9,1.63,2.16S140,94.81,138.16,92.47Z"/><path class="cls-4" d="M117.94,109.2s4.37-7.28,10.82-2c5.43,4.46,1.06,9.09-1.6,10.15s-7.75,1.84-9.22,0S116.44,111.86,117.94,109.2Z"/><path class="cls-5" d="M128.76,107.19s1.71,7.89-8.75,9.59c0,0,6.31.64,8.71-1.49S128.76,107.19,128.76,107.19Z"/><path class="cls-6" d="M120,109.93s-.19-2.34,1.8-2.16,2.16.9,1.62,2.16S121.83,112.27,120,109.93Z"/><path class="cls-4" d="M97.52,125.93s4.38-7.28,10.82-2c5.44,4.45,1.07,9.08-1.59,10.15s-7.75,1.83-9.23,0S96,128.59,97.52,125.93Z"/><path class="cls-5" d="M108.34,123.93s1.72,7.88-8.74,9.59c0,0,6.3.63,8.7-1.5S108.34,123.93,108.34,123.93Z"/><path class="cls-6" d="M99.6,126.66s-.19-2.34,1.79-2.16,2.17.9,1.63,2.16S101.42,129,99.6,126.66Z"/><path class="cls-4" d="M74.4,140.85s4.38-7.29,10.82-2c5.44,4.45,1.07,9.09-1.6,10.15s-7.74,1.83-9.22,0S72.91,143.51,74.4,140.85Z"/><path class="cls-5" d="M85.22,138.84s1.71,7.88-8.75,9.59c0,0,6.31.63,8.71-1.49S85.22,138.84,85.22,138.84Z"/><path class="cls-6" d="M76.48,141.58s-.2-2.34,1.79-2.16,2.17.9,1.62,2.16S78.3,143.92,76.48,141.58Z"/><path class="cls-7" d="M17,169.8s15.21,5.39,41.67,5.51,46.53-10.76,61.07-20.25,43-27.74,54.61-46.46,37.49-58.19,37.49-58.19l-10.13,7.82s-65.89,81.16-93.48,89S17,169.8,17,169.8Z"/></g><g id="絹線"><path class="cls-8" d="M35.21,176.27c-8.67,0-13-3.15-19.84-6.53l1-.23c8.61,3.1,12.7,2,30.51,1.5,6.63-.19,15.7-.46,27.79-.56,40.52-.35,95.13-60,98.38-66.09,1.84-4.57,25.55-37.18,33.29-48.4l5.19-4c-12.54,18.16-32.62,51.14-33.79,54.1-.83,2.86-16.61,20.55-35.08,36.07-18,15.09-44.32,33.12-67.95,33.32-12,.1-21.08.36-27.68.56C42.18,176.15,38.37,176.27,35.21,176.27ZM173,104.37a.74.74,0,0,0-.07.21C173,104.52,173,104.45,173,104.37Z"/><path class="cls-8" d="M12.7,165.13l-.95.42c-1-5.7,8.92-9.26,13.78-9.52a26.8,26.8,0,0,0,4.15-.4c3.64-.9,24.83-12.89,26.9-14.22,2.22-1.52,43.49-34.13,48.32-39.45,5.25-5.77,77.41-61.82,80.48-64.2l3,1.28c-14.21,14.89-75.62,61.76-79.74,66.29-5.22,5.73-47.35,39-49.31,40.28-.83.54-23.52,13.67-28.42,14.87a28.27,28.27,0,0,1-5.08.54C21.73,161.24,16.45,158.75,12.7,165.13Z"/><path class="cls-9" d="M215.87,60.92l-4.37-9-10.77,8.31V47.43l-12.39-.57V39l-12.67,2.24L178.1,39a60.81,60.81,0,0,1,10.66-7.76c7.68-4.38,14.64-5.7,20.21-3.86l2.28-11,5.89,2.15c1-3.13-.65-12-2-17.24L214.79,0h5.33l.28.54C223.08,5.78,222,17,221.58,20.1L229.44,23,218,35.54c.28,5.58.91,21.73-1.09,24.18Zm-3.65-12.05,3.64,7.47c.53-4.09.49-13.1.07-21.11l0-.42,10-11-6.57-2.39.11-.8c0-.13,1.79-12.9-.61-18.63h-1.51c.95,3.94,3.36,15.07,1.1,18.31l-.44.63L212.74,19l-2.3,11.1-1.12-.48c-9.54-4-21.69,4.19-27.07,8.46l8.09-1.43V45l12.39.57V56.2Z"/><path class="cls-10" d="M0,177.49.88,175c2-5.74,11.44-9.7,11.82-9.85l.3,1.17c-.07,0-8.4,3.74-10.48,7.91A43.25,43.25,0,0,1,15,169l1.34.47c-5.67,1.1-14,6.63-14,6.67Z"/></g></g></svg>