<svg xmlns="http://www.w3.org/2000/svg" viewBox="0 0 165.78 124.54"><defs><style>.cls-1{fill:#6c4827;}.cls-2{fill:#a28446;}.cls-3{fill:#decd9b;}.cls-4{fill:#c9a889;}.cls-5{fill:#4f351d;}.cls-6{fill:#7a5835;}.cls-7{fill:#baa670;}.cls-8{fill:#826a38;}</style></defs><g id="レイヤー_2" data-name="レイヤー 2"><g id="椎茸"><path class="cls-1" d="M60.25,83.21S2.34,72.12,2.58,52.43,36.44,22.34,46.66,19.09,78.84,9.57,89,4.68s28.72-3.45,42.24,14.41,16.89,27.69,27,33.34,5.27,24.22-11.09,30.78C135.42,87.92,111.78,90.61,60.25,83.21Z"/><path class="cls-2" d="M123.61,74.72S86.44,77.32,65.32,74,34.07,67.37,33.23,58.92s31.22-20.13,41-21.05,28.76,8.06,37.4,14.56S137.12,70.24,123.61,74.72Z"/><path class="cls-3" d="M88.12,61.31S82.73,53.7,74,56.24s-6.17,10.58-8.71,19.22S45.86,90,38.28,94.25s-18.45,17.13-13.66,21.36,18.57,9,31.75,1.44S82.19,93.86,86,88.56,90.64,72.29,88.12,61.31Z"/><ellipse class="cls-4" cx="92.82" cy="19.12" rx="5.64" ry="2.7" transform="translate(-1.92 16.64) rotate(-10.14)"/><ellipse class="cls-4" cx="70.59" cy="25.53" rx="2.7" ry="5.62" transform="translate(31.35 89.52) rotate(-78.37)"/><ellipse class="cls-4" cx="101.6" cy="9.86" rx="3.31" ry="1.08" transform="matrix(0.98, -0.18, 0.18, 0.98, -0.15, 18.04)"/><ellipse class="cls-4" cx="120.57" cy="34.8" rx="1.83" ry="5.6" transform="translate(30.15 121.82) rotate(-60)"/><circle class="cls-4" cx="107.71" cy="27.98" r="2.16"/><circle class="cls-4" cx="78.94" cy="15.02" r="2.16"/><circle class="cls-4" cx="109.95" cy="16.05" r="3.24" transform="translate(-1.11 19.6) rotate(-10.14)"/><circle class="cls-4" cx="92.57" cy="30.07" r="2.09"/></g><g id="椎茸線"><path class="cls-5" d="M117.06,77.2h-.51c-12.6-.12-26.83,0-27,0l0-3c.14,0,14.4-.12,27,0,5,.06,8-.64,9-2s.33-3.81-.56-6.69c-1.36-4.42-16.22-14-36.12-23.21C74.76,35.69,55,45,43.25,50.51c-10.08,4.74-8.75,7.64-6.32,12.89l.26.56c1.57,3.43,17.56,7.93,28.42,10l-.57,3c-4.62-.9-27.79-5.66-30.58-11.73l-.25-.55c-3-6.56-4.13-11.27,7.76-16.86C54.23,42,74.75,32.38,90.2,39.55c5.84,2.72,35.14,16.68,37.72,25,.92,3,2.07,6.72.09,9.37C126.35,76.19,123,77.2,117.06,77.2Z"/><path class="cls-5" d="M109,90.52c-6.71,0-13.91-1-22-2.13L87.58,84c24.9,3.43,41.47.58,59-3.2,9.36-2,13.85-10.25,14.14-17.53.18-4.26-1.19-7.8-3.25-8.42-7.18-2.17-12.73-10.67-20.41-22.43-2.48-3.8-5-7.72-7.94-11.86C122.44,10.92,110.72,6.35,102,5.28,96,4.54,91.92,5.43,90.61,6.57c-5.88,5.11-27.06,10.24-29.73,10.87A228.48,228.48,0,0,0,31.45,28.32C13.54,36.56,4.17,45,5.06,52.11,7,67.47,45.89,78,60.71,80.76l-.91,4.91a199.74,199.74,0,0,1-28.27-7.8C11.87,70.72,1.3,62.26.1,52.74c-2.77-22,53.1-38.34,59.48-40.13l.1,0c6.26-1.48,23.42-6.12,27.65-9.8C90.13.37,95.69-.54,102.6.31c4.75.59,21,3.57,30.66,17.35,2.94,4.2,5.64,8.34,8,12C148.12,40.12,153.52,48.39,159,50c4.41,1.33,7.08,6.6,6.8,13.42-.37,9.2-6.11,19.63-18.09,22.21C135.34,88.31,123.49,90.52,109,90.52Z"/><path class="cls-6" d="M88.42,89l-4.92-.86c4.42-25.27-.77-29.39-3.2-30-3.25-.8-5.81-.48-7.61.94C69,62,69,68.71,69,68.78c0,.63,2.79,12.26-9.28,16.89L53.2,84.26C62.06,80.86,64,69.22,64,68.78S64,59.66,69.56,55.19c3.07-2.44,7.08-3.08,11.93-1.9C94.12,56.38,89.83,80.93,88.42,89Z"/><path class="cls-7" d="M41.36,124.54c-6.31,0-12.43-2.34-16-5.68s-4.8-7.85-3.06-12.09c1.93-4.71,8.06-10.17,18.2-16.23a79.38,79.38,0,0,1,12.74-6.28l6.55,1.41C52.52,89,30,101.11,26.93,108.67c-.94,2.3-.32,4.5,1.86,6.54,4.26,4,13.4,6,20.23,2.66s31.4-18.5,34.57-30l4.93.78c-1.67,6.06-7.78,13.59-17.94,21.33a139,139,0,0,1-19.36,12.35A22.42,22.42,0,0,1,41.36,124.54Z"/><path class="cls-8" d="M79.26,50.94c-1.82-3-1.84-8.41-1.82-8.66l3,.24c0,.06-1.6,5.63-1.17,8.42Z"/><path class="cls-8" d="M67.47,54.85a15.8,15.8,0,0,1-12.14-7.11l2.35-1.86c1.52,1.92,6.07,8.18,9.79,9Z"/><path class="cls-8" d="M55.56,66.09a86.61,86.61,0,0,1-13-1.19l.5-3c4.14.71,16.36,3.31,20.15,1.37h0C61.25,64.31,58.85,66.09,55.56,66.09Z"/><path class="cls-8" d="M89.56,59.06h0c3.38-.92,8.15-7.09,9.51-8.77l2.34,1.87C101.18,52.44,94.58,57.69,89.56,59.06Z"/><path class="cls-8" d="M99.56,68.45c-6,0-5.79-1.88-9-2.4h0a52.13,52.13,0,0,0,27.22-3.45l1,2.81A60,60,0,0,1,99.56,68.45Z"/></g></g></svg>