<svg xmlns="http://www.w3.org/2000/svg" viewBox="0 0 134.84 191.8"><defs><style>.cls-1{fill:#2b8218;}.cls-2{fill:#045400;}.cls-3,.cls-4{fill:none;stroke-miterlimit:10;stroke-width:5px;}.cls-3{stroke:#2f591a;}.cls-4{stroke:#05330a;}.cls-5{fill:#83ba7f;}</style></defs><g id="レイヤー_2" data-name="レイヤー 2"><g id="ししとう"><path class="cls-1" d="M79.92,44.87s27,4,29.37,32c0,0,9.56,19.07,5.41,35.84s10,17.25,10.08,25.35,1.69,25,3.68,28.15S135.31,182,129.72,188s-9-13.2-13.37-16.28a32.8,32.8,0,0,1-11.3-29.38c2-15.63-16.75-15.52-19.93-19.19-8-9.2-30.36-26.25-31.07-62.1C54.05,61.09,64.86,42.55,79.92,44.87Z"/><path class="cls-2" d="M8.09,7.48l30.55-5s13.65,2.2,16,9.52,6.21,21.16,12,22.46S77.6,48.78,77.6,48.78s-6.42,4.91-11.31,4.09L58.5,41.31s-14.07-19.61-12.78-26-28-3.11-28-3.11Z"/><path class="cls-2" d="M72.23,43.11s5.26-1.57,8-1c0,0,5.33,5.81,4.75,7.12,0,0-15,10.2-19.54,8.6,0,0-5.6-5.88-5.23-7.52S72.23,43.11,72.23,43.11Z"/><path class="cls-3" d="M61,52.43c-3.14,2.74-6.91,10.11-6.91,10.11-5.52,29.17,29.64,59.12,33.44,62.14s18,3.28,17.36,12.57-.09,11,2.3,21.92,8.84,9.25,14.4,22,7.31,7.61,10,4.23-2.18-17.44-3.57-20.2-3.21-27.11-4.1-30.32-12.32-8.22-9.19-22.14-5.41-35.84-5.41-35.84C99.24,52,83.13,45.62,83.13,45.62"/><path class="cls-4" d="M17.7,12.24,8.09,7.48l30.55-5s12.53.75,17.13,12.91,6.28,18,12.29,19.61,7.21,8.82,7.21,8.82l5-1.69L85,49.28S68.42,58.2,66.94,58s-9.64-9.78-9.64-9.78l5.56-.48s-17.37-21.43-17.6-34C45.26,13.75,38.53,9,17.7,12.24Z"/><path class="cls-5" d="M95.34,68.73s7.79,6.75,5.69,19.36-8.94-6.62-12.27-8.91S82.78,63.85,95.34,68.73Z"/><path class="cls-5" d="M101.78,98.27c3,.67-2.42,6-4,4.11S95.92,97,101.78,98.27Z"/></g></g></svg>