<svg xmlns="http://www.w3.org/2000/svg" viewBox="0 0 164.41 161.46"><defs><style>.cls-1{fill:#f0e6ca;}.cls-2{fill:#705547;}.cls-3{fill:#544035;}.cls-4{fill:#bab18d;}</style></defs><g id="レイヤー_2" data-name="レイヤー 2"><g id="しめじ塗り"><path class="cls-1" d="M91.31,44.35s-4.33,42-16.08,49S37.08,131.52,35.9,141.5,53.51,165,71.71,149.72s55-66.06,43.81-109.5-23.85-8.49-23.85-8.49Z"/><path class="cls-2" d="M99.89,2.15s-20.8,1-36.36,30.28c0,0-3.11,11.28,4.14,15.44,0,0,43.64,10.59,61.53,6s18.26-13.46,15.9-19.37C141.57,25.69,133.18,1.08,99.89,2.15Z"/><path class="cls-1" d="M30.8,69.13S46,87.62,34.18,124.31C30.54,135.62,20.67,139,22.92,144.58s9.4,10.1,17.93,5S55,133.32,55.58,128.82s2.81-48.43-13.52-63.64-15.2-7.88-15.2-7.88Z"/><path class="cls-2" d="M38.85,32.52S25.61,25.77,17.16,42.66.27,60.12,4.21,66.87s39.27,6.76,50,0S71.21,50,65.86,46.6C65.86,46.6,46.71,33.77,38.85,32.52Z"/><ellipse class="cls-3" cx="97.16" cy="9.22" rx="2.37" ry="1.39"/><ellipse class="cls-3" cx="94.47" cy="26.79" rx="2.37" ry="1.39"/><ellipse class="cls-3" cx="106.25" cy="24" rx="2.37" ry="1.39"/><ellipse class="cls-3" cx="104.29" cy="17.18" rx="4.74" ry="2.78"/><ellipse class="cls-3" cx="115.65" cy="15.78" rx="2.37" ry="1.39"/><ellipse class="cls-3" cx="120.4" cy="24" rx="4.74" ry="2.78"/><ellipse class="cls-3" cx="89.72" cy="21.22" rx="4.74" ry="2.78"/><ellipse class="cls-3" cx="28.09" cy="41.53" rx="1.4" ry="0.82" transform="translate(-6.73 5.45) rotate(-9.91)"/><ellipse class="cls-3" cx="28.31" cy="52" rx="1.4" ry="0.82" transform="translate(-8.53 5.65) rotate(-9.91)"/><ellipse class="cls-3" cx="34.86" cy="49.19" rx="1.4" ry="0.82" transform="translate(-7.95 6.73) rotate(-9.91)"/><ellipse class="cls-3" cx="33.03" cy="45.43" rx="2.79" ry="1.64" transform="translate(-7.33 6.36) rotate(-9.91)"/><ellipse class="cls-3" cx="39.48" cy="43.47" rx="1.4" ry="0.82" transform="translate(-6.89 7.44) rotate(-9.91)"/><ellipse class="cls-3" cx="43.06" cy="47.75" rx="2.79" ry="1.64" transform="translate(-7.58 8.12) rotate(-9.91)"/><ellipse class="cls-3" cx="24.99" cy="49.25" rx="2.79" ry="1.64" transform="translate(-8.1 5.04) rotate(-9.91)"/></g><g id="しめじ線"><path class="cls-4" d="M92,52.63C91.78,54,87.72,86,76.82,94.93l-2.49,2C63,106.1,39.51,125.12,41.77,142.2c.79,5.87,3.71,9.66,8.47,11,7.77,2.11,18.93-2.73,25.39-11,1.09-1.41,2.32-2.93,3.65-4.58C92,121.85,113.13,95.3,113,54.93h5c.15,42.14-21.76,69.53-34.85,85.76-1.31,1.62-2.52,3.12-3.6,4.51-6.43,8.24-16.61,13.42-25.45,13.42a19.69,19.69,0,0,1-5.19-.66c-6.76-1.83-11.06-7.2-12.11-15.11C34.18,123,59.17,102.79,71.18,93.07l2.47-2C81.41,84.68,85.93,60.57,87,51.75l4.93.88"/><path class="cls-4" d="M36.65,154.63c-6.91,0-11.91-2.28-14-6.53-1.55-3.08-2.67-9.76,7.16-19.9,5.18-5.33,6.92-16.11,5-31.17a186,186,0,0,0-5.39-25.09l4.74-.27c.55,1.74,14.11,44.67-.79,60-5.53,5.69-7.88,11-6.29,14.17s6.77,4.39,13.66,3.49l.65,5A36,36,0,0,1,36.65,154.63Z"/><path class="cls-4" d="M52.92,107.63c0-.24-1.25-25-6-35.69l3.65-1.44c5.1,11.46,7.25,35.71,7.33,36.71Z"/><path class="cls-3" d="M113,57.94l0-3c16.06-.45,25.37-6.33,28.29-9.58,2.55-2.85,2.37-5.43,2.36-5.54S141,17.41,123.92,10,93,1.47,76.1,18.62C66.37,28.5,64.68,35.18,65,39.05a8.48,8.48,0,0,0,3.23,6.22C71,47.35,85.61,51.56,92,52.63l-.44,3.06c-2.93-.31-21.66-2.91-26.33-6.43A13.47,13.47,0,0,1,60,39.42c-.53-7.13,3.69-15.3,12.55-24.3C88.65-1.25,104.11-4.06,125.92,5.4c19.79,8.6,22.58,32.87,22.69,33.9,0,.44.43,4.71-3.41,9.16C140.06,54.4,127.47,57.53,113,57.94Z"/><path class="cls-3" d="M23.27,74.73c-17.63,0-21.84-5.67-22.85-8.4-1.28-3.48.39-7.27,4.47-10.14,4.24-3,5.71-6.31,7.41-10.15,1.61-3.63,3.43-7.74,7.78-11.9,9.17-8.77,20.07-4.18,21.55-3.5,2.33.83,18.11,6.57,22.53,10.77l-1.63,4.47c-2.83-2.69-15.86-8.14-22.7-10.57l-.27-.12c-.35-.17-8.94-4.21-16,2.56-3.64,3.48-5.11,6.8-6.67,10.32-1.83,4.14-3.72,8.42-9.1,12.2-.79.56-3.32,2.52-2.66,4.33C6,67,7.36,73,34.15,71.67l.77,2.57C31.39,74.56,26.08,74.73,23.27,74.73Z"/><path class="cls-3" d="M46.14,69.92A36.88,36.88,0,0,0,67,49.7l3.66,1.41C62.56,70,47.55,71.91,46.92,71.94l-.78-2"/></g><g id="レイヤー_6" data-name="レイヤー 6"><path class="cls-1" d="M130.73,98.83s-15.81,9.23-20.79,39.34c-1.53,9.28,2.64,13.89-.26,17.64s-5.84,3.15-11,0c-6.84-4.24-7.38-15.8-6.3-19.31s9.4-32.67,31.43-44.44c13.52-7.22,10.41-2.68,10.41-2.68Z"/><path class="cls-2" d="M154.69,77.23s-3.2-14-20.91-9.77-23.37-1.69-25.92,5.41,19.3,33.22,31,37,23,2.08,22.18-4C161,105.92,157.56,82.66,154.69,77.23Z"/><ellipse class="cls-3" cx="140.92" cy="75.86" rx="0.82" ry="1.4" transform="translate(-10.97 126.28) rotate(-46.66)"/><ellipse class="cls-3" cx="132.67" cy="82.29" rx="0.82" ry="1.4" transform="translate(-18.24 122.29) rotate(-46.66)"/><ellipse class="cls-3" cx="138.84" cy="85.86" rx="0.82" ry="1.4" transform="translate(-18.9 127.9) rotate(-46.66)"/><ellipse class="cls-3" cx="140.76" cy="82.15" rx="1.64" ry="2.79" transform="translate(-15.6 128.13) rotate(-46.66)"/><ellipse class="cls-3" cx="146.19" cy="86.14" rx="0.82" ry="1.4" transform="translate(-16.8 133.33) rotate(-46.66)"/><ellipse class="cls-3" cx="144.9" cy="91.58" rx="1.64" ry="2.79" transform="translate(-21.16 134.1) rotate(-46.66)"/><ellipse class="cls-3" cx="132.89" cy="77.99" rx="1.64" ry="2.79" transform="translate(-15.04 121.1) rotate(-46.66)"/></g><g id="レイヤー_7" data-name="レイヤー 7"><path class="cls-4" d="M105.16,161.46a11.22,11.22,0,0,1-3.7-.7c-9.77-3.43-13.78-13.62-10.74-27.27,2.52-11.27,24-38.89,25-40l2.93,3.62c-5.94,7.36-21.12,29.06-23,37.47-1.17,5.25-2.78,17.85,7.52,21.46.8.28,2.26.68,2.94.19,1.8-1.31,1.62-7.93,1.48-13.25-.05-1.59-.09-3.2-.1-4.8-.06-13.18,16.8-35.37,17-35.59l3.91,3.12c-3.52,4.41-15.92,23-15.88,32.45,0,1.56,0,3.13.1,4.69.2,7.81.38,14.56-3.54,17.42A6.37,6.37,0,0,1,105.16,161.46Z"/><path class="cls-3" d="M148.48,114.46c-.8,0-1.63,0-2.5-.08-10.49-.71-19-9.13-21.57-11.79l1.88-1.69c4.68,4.81,13.1,8,20,8.49s11-1.35,13.06-3c.26-1-.71-4.63-1.57-7.83-.92-3.43-2.07-7.71-3.11-13-2.4-12.25-7.05-14.29-7.09-14.31h0l-.81-.44c-.73-.34-4.22-1.65-13.88-.58-10.36,1.16-15.19.32-18.07-.17a15.15,15.15,0,0,0-1.7-.25,5,5,0,0,0-3.38,2.61c-1.23,2.52-.15,6.08,1.07,8.56,5.13,10.41,10.14,13.7,9.3,14.12l-1.53,2c-.13-.15-3.26-3.81-10.71-13.82-4.64-6.22-3.9-10.72-2.47-13.4,1.77-3.32,5.51-5.22,8-5.1a19.56,19.56,0,0,1,2.3.31c2.62.45,7,1.21,16.67.14,11.49-1.28,15.85.47,17.31,1.43,1.74.79,7.26,4.32,9.92,17.9,1,5.16,2.14,9.34,3,12.7,1.84,6.85,2.85,10.63,0,12.94C160.12,112.21,155.71,114.46,148.48,114.46Z"/></g></g></svg>