<svg xmlns="http://www.w3.org/2000/svg" viewBox="0 0 181.93 147.95"><defs><style>.cls-1{fill:#ae8642;}.cls-2{fill:#c7a565;}.cls-3,.cls-4,.cls-5{fill:none;stroke-miterlimit:10;}.cls-3,.cls-5{stroke:#956432;}.cls-3,.cls-4{stroke-width:3px;}.cls-4{stroke:#926e32;}.cls-5{stroke-width:5px;}</style></defs><g id="レイヤー_2" data-name="レイヤー 2"><g id="レイヤー_7" data-name="レイヤー 7"><path class="cls-1" d="M158.07,137.59s-4.9,1.69-12.59,0-24,7.6-24,7.6l-21.07-6.76s-23-7.35-22.59-16.05-1.18-42.23-1.18-42.23L89.14,52.28l23-6.76h38.33s25.34,21.12,27.88,31.25,2.09,36.42-4.23,40.64l-3.37,10Z"/><path class="cls-2" d="M73.6,3.28S44.88-2.63,20.38,18.49L11.94,32.85s.84,13.51,0,19.43-9.3,20.27-9.3,20.27L6.87,86.91s5.07,11,13.51,16,17.74,11.82,17.74,11.82,20.12,5.91,28.22,0,18.72,2.63,18.72,2.63,23.28-9.39,24.07-15.3-7.47-16,3-24.49,10.42-40.55,10.42-40.55S92.83,3.37,73.6,3.28Z"/></g><g id="レイヤー_8" data-name="レイヤー 8"><polyline class="cls-3" points="135.17 68.32 137.42 81.46 128.22 87.09"/><path class="cls-3" d="M156.19,87.1s-6.38,1.5-2.25,8.25"/><path class="cls-3" d="M111.89,121.26l5.26-1.5s8.64.37,11.07,3.75l1.69,4.13"/><polyline class="cls-3" points="154.37 117.41 144.55 123.7 144.55 127.64"/><path class="cls-4" d="M48.45,26.65s6,8.64,2.62,14.27a80,80,0,0,1-4.88,7.51l-6-2.91"/><polyline class="cls-4" points="76.66 33.41 74.72 40.17 84.48 48.43"/><polyline class="cls-4" points="67.97 76.21 66.47 87.47 72.47 91.97"/><path class="cls-4" d="M33.43,84.09S46.1,89.72,46.15,97.23"/><path class="cls-5" d="M20.38,18.49,11.94,32.85s.3,19.91-1.1,23.3-8.2,16.4-8.2,16.4,4.42,19,11.08,24.68,24.4,17.55,24.4,17.55,16.48,3,24.48,1.75,7.28-7.85,22.46.88c0,0,20.18-6.66,24.07-15.3s-9.53-11.45,3-24.49,10.42-40.55,10.42-40.55L91.43,9.84S59.52-11.45,20.38,18.49Z"/><path class="cls-5" d="M77.89,113.93s0,8.45,1.71,12.95,41.9,18.31,41.9,18.31,14-8.92,24-7.6,12.59,0,12.59,0l12.67-10.14,3.37-10c8.55-5.73,4.23-40.64,4.23-40.64L150.46,45.52H122.69"/></g></g></svg>