<svg xmlns="http://www.w3.org/2000/svg" viewBox="0 0 199.11 197.28"><defs><style>.cls-1{fill:#bb2506;}.cls-2{fill:#536b28;}.cls-3{fill:#e8caab;}.cls-4{fill:#951e19;}.cls-5{fill:#3c4f20;}</style></defs><g id="レイヤー_2" data-name="レイヤー 2"><g id="イチゴ"><path class="cls-1" d="M139.82,43.38S91.11,39.9,90.24,86.87s29.57,79.15,37.4,85.24,26.1.87,32.18-6.09,31.32-53.92,30.45-80S182.44,45.12,139.82,43.38Z"/><path class="cls-2" d="M136.22,40.89S140.61,6.72,162.75,3l7.79.47S153.38,14.79,143,40.32Z"/><path class="cls-2" d="M140.25,37S116,40,104.85,47.17c-12.2,7.89-8.36,17.37-18.12,17,0,0,19.36,1.4,24.75-6.86s14-1.5,16.27,9c0,0,11.26-13.89,21-9.76a54.32,54.32,0,0,1,16.89,12S159.28,56,169.42,54.14c0,0,13.14,10.68,27,12.18,0,0-8.61-10.49-11.9-15.06C180.12,45.11,150.56,35.84,140.25,37Z"/><ellipse class="cls-3" cx="117.9" cy="101.31" rx="2.29" ry="5.41" transform="translate(-18.19 26.19) rotate(-11.77)"/><ellipse class="cls-3" cx="159.49" cy="101.15" rx="2.29" ry="4.34" transform="translate(-3.67 6.03) rotate(-2.14)"/><ellipse class="cls-3" cx="125.98" cy="127.01" rx="3.49" ry="2.29" transform="translate(-27.06 219.65) rotate(-76.42)"/><ellipse class="cls-3" cx="154.47" cy="127.01" rx="3.49" ry="2.29" transform="translate(-5.26 247.34) rotate(-76.42)"/><ellipse class="cls-3" cx="138.96" cy="115.21" rx="2.29" ry="3.49" transform="translate(-41.13 102.84) rotate(-35.73)"/><ellipse class="cls-3" cx="139.75" cy="144.74" rx="2.29" ry="4.4" transform="matrix(0.94, -0.35, 0.35, 0.94, -41.72, 57.85)"/><path class="cls-4" d="M137,177.33c-12.93,0-28-18-42.61-50.77-16.75-37.68-1-63.33-.32-64.41l4.22,2.68-2.11-1.34,2.11,1.33c-.15.24-14.95,24.59.67,59.71,20.23,45.49,34.72,48.07,38.69,47.78,9.85-.73,20.28-3.18,29.92-23.93,8.32-17.92,27.81-59.88,16.42-83.55l4.5-2.17c12.42,25.8-7.77,69.26-16.39,87.82-10.78,23.21-23.24,26-34.08,26.81C137.71,177.32,137.37,177.33,137,177.33Z"/><path class="cls-5" d="M171,76.07l-6.93-5.55c-.11-.09-11.48-9.17-18-12.2-3.54-1.66-12,4.82-16.56,9.71L126.83,71l-1.42-3.76c-3.32-8.77-6.19-10.44-7.6-10.65-2.13-.31-4.48,2.09-6.07,4.16-4.92,6.38-22.1,5.92-27.95,5.56A5.61,5.61,0,0,1,82,66.1h0c.33,0-.34,0,0,0,2.36-.41,11.72-9.54,18.82-18.65,6.3-8.09,27.91-11.55,35-12.48C138.74,10.2,157.26.67,158.07.26L158.6,0l15.33.38-4,4.76c-8.33,7.45-18.39,22.69-21.81,29.76,6.1.93,19.11,3.4,29.68,8.87A46,46,0,0,1,198,65.29L199.11,68l-2.89.64c-7.43,1.62-22.66-8.55-27.4-11.89a2.31,2.31,0,0,0-1.37,1c-1.4,2.22-.39,7.27.57,9.93Zm-.92-24.52.77.56c5.88,4.23,14.81,9.56,20.46,11.23a41.3,41.3,0,0,0-15.88-15.13c-13.17-6.81-31.13-10.79-31.31-10.8h0c.42-1,9.82-21.74,20.95-32.41h-5.28c-2.93,1.65-17.49,10.93-19.14,32.4h0L138,38c-7.68.85-28.26,6.11-33.22,12.48A64.83,64.83,0,0,1,94,61.3c6.25-.35,12.09-1.44,13.79-3.65,3.51-4.55,7.13-6.59,10.76-6,3.85.57,7.17,4,10.09,10.31,4.57-4.27,13.28-11.09,19.61-8.13,4,1.88,9.54,5.71,13.58,8.69a12.3,12.3,0,0,1,1.4-7.35,7.55,7.55,0,0,1,5.95-3.48Z"/><path class="cls-1" d="M28.57,104.38s-34.06,19.15-13.94,50.9,54.64,39.82,62.55,40.43S95,184.79,96,177.46,93.13,127.65,81,110.61,57.8,86.76,28.57,104.38Z"/><path class="cls-2" d="M25.07,104.3s-12.13-24.74,1-37l5.41-3.12S25,79.32,29.31,101Z"/><path class="cls-2" d="M26.07,100S11.54,112.74,6.89,122.33c-5.8,12,2.29,16-4.39,20,0,0,13.33-8.27,13.28-16.16S24.48,119,30.62,125c0,0,1.4-14.24,9.74-15.78a43.39,43.39,0,0,1,16.57.57s-9.8-5.57-3.85-11.29c0,0,13.48,1.34,23.42-3.78,0,0-10.37-3.21-14.59-4.81C56.24,87.78,32.42,94.61,26.07,100Z"/><ellipse class="cls-3" cx="39.47" cy="152.72" rx="1.83" ry="4.33" transform="translate(-96.71 73.11) rotate(-45.2)"/><ellipse class="cls-3" cx="67.17" cy="134.29" rx="1.83" ry="3.48" transform="matrix(0.81, -0.58, 0.58, 0.81, -65.58, 64.12)"/><ellipse class="cls-3" cx="56.19" cy="166.33" rx="1.83" ry="2.8" transform="translate(-53.14 28.96) rotate(-19.85)"/><ellipse class="cls-3" cx="75.21" cy="153.77" rx="1.83" ry="2.8" transform="translate(-47.74 34.67) rotate(-19.85)"/><ellipse class="cls-3" cx="59.66" cy="152.73" rx="1.83" ry="2.8" transform="matrix(0.36, -0.93, 0.93, 0.36, -104.31, 154.14)"/><ellipse class="cls-3" cx="73.2" cy="172.1" rx="1.83" ry="3.52" transform="translate(-108.94 129.67) rotate(-53.85)"/><path class="cls-4" d="M85.75,195.06c-8.64,5.7-26.62.36-50.83-15.13C7.12,162.16,6.33,138.09,6.31,137.07l4-.08-2,0,2,0c0,.23.86,23,26.76,39.57C70.63,198,81.45,193.36,84,191.42c6.26-4.83,12.14-11.06,9.43-29.17-2.34-15.63-7.82-52.24-25.86-63l2-3.44c19.66,11.76,25.34,49.68,27.76,65.87,3,20.25-4.06,27.61-10.94,32.93C86.2,194.75,86,194.91,85.75,195.06Z"/><path class="cls-5" d="M63.82,112.46l-7.07-.65c-.12,0-11.71-1.07-17.38-.23-3.09.45-5.87,8.49-6.78,13.78l-.54,3.16-2.6-1.88c-6.08-4.4-8.73-4.24-9.77-3.76-1.56.73-2.07,3.37-2.22,5.45C17,134.76,5.31,142,1.25,144.36A4.44,4.44,0,0,1,0,145H0l.23-.12c1.39-1.32,3.39-11.41,4.11-20.62.64-8.18,13.55-20,17.9-23.78-9-17.79-.85-32.33-.49-32.95l.24-.41L32.4,60.63l-.61,5c-2.27,8.65-2.27,23.26-1.44,29.49,4.48-2.07,14.26-6.15,23.73-7.16a36.78,36.78,0,0,1,23,5.45l2,1.34-1.66,1.7c-4.24,4.36-18.89,4.28-23.52,4.14a1.84,1.84,0,0,0-.48,1.27c.05,2.1,2.94,5,4.76,6.39Zm-11.42-16,.76,0c5.79.24,14.1-.14,18.61-1.52A33.07,33.07,0,0,0,54.5,91.9C42.7,93.15,29,98.42,28.83,98.48h0c-.14-.82-3-18.83-.29-30.87L25,69.94c-1.22,2.39-6.86,15,1.5,30.07h0L25,101.61c-4.76,4-16.18,16.54-16.69,23a52.21,52.21,0,0,1-2.46,12c4-3,7.43-6.29,7.6-8.51.33-4.59,1.85-7.55,4.52-8.79,2.82-1.31,6.53-.51,11.28,2.45,1.17-4.87,4-13.26,9.51-14.08a75.5,75.5,0,0,1,12.91-.18,9.74,9.74,0,0,1-2.31-5.53A6,6,0,0,1,51.82,97Z"/></g></g></svg>