<svg xmlns="http://www.w3.org/2000/svg" viewBox="0 0 191.06 277.37"><defs><style>.cls-1{fill:#4f8241;}.cls-2{fill:#387129;}.cls-3{fill:#68ab55;}.cls-4{fill:#23471a;}</style></defs><g id="レイヤー_2" data-name="レイヤー 2"><g id="syungiku"><rect class="cls-1" x="75" y="162.85" width="9.71" height="3.38" transform="translate(-91.07 229.62) rotate(-84.96)"/><polygon class="cls-1" points="84.78 171.33 79.14 169.72 80.54 159.79 87.8 160.72 84.78 171.33"/><polygon class="cls-1" points="70.35 212.46 66.87 214.61 68.56 176.47 71.94 176.63 70.35 212.46"/><polygon class="cls-1" points="73.77 207.35 75.81 176.44 79.19 176.66 78.73 183.55 81.17 176.77 84.35 177.92 73.77 207.35"/><rect class="cls-1" x="95.71" y="114.52" width="7.21" height="3.38" transform="translate(-36.48 186.43) rotate(-76.83)"/><path class="cls-2" d="M83.41,160.68s-28-8-34.1-19.18,7.3-1.34,11.32-4.58-4.07-11.22-13.42-15.48-17.33-21.94-6.15-15.2,8-12.09,2.44-11.44-13.88-20.93-7-17.28S56.24,88,56,93s-2,17.72,5.58,13,21.7,2.23,13.73,6.39-1.7,27.61,3.13,11.72,15.11,5.15,12.22,11.14S104.84,162.47,83.41,160.68Z"/><path class="cls-2" d="M98.41,164.48s30.49,6.35,40.9-1.12-6.61-4.87-9.26-9.9,8.41-8.52,19.23-7.89,25.59-12,12-11.23-3.07-15.31,2.13-11.94,21.83-12.76,13.65-12.75-23.43.09-25.15,4.82-5,17.65-10.6,9.46-22.08-8.65-15.93-.81-9.23,26.76-7.69,9.46-16.8-2.65-16.34,4.4S76.76,155.54,98.41,164.48Z"/><path class="cls-2" d="M84.19,180.67s-23.07-2.23-29.67-4.45,4.1-12.26,11.94-9.47S83.33,175.1,84.19,180.67Z"/><path class="cls-2" d="M84.35,185.05s22,3.26,28.84,2.11,1-17.18-7.28-15.63S87.27,178,84.35,185.05Z"/><path class="cls-2" d="M95.23,111.32a221.46,221.46,0,0,1-11-26.13C79.36,71.1,83.85,61.64,93,74.08s5.09-31.76,7.33-43.77,12.14-12.89,11.07,1.51,8.93-13.33,16.1-20.19,5.51,5.23,2.12,17.08-12.94,31.59-3.55,33.54S155.33,88.18,137,85.67s-18.12,15.44-11.13,16.39-5.17,18.33-13.75,16A88.9,88.9,0,0,1,95.23,111.32Z"/><path class="cls-3" d="M44.91,268.87l14,5.08L113.36,97s-1.15-7.1-8.82,5.53S67.07,251.93,44.91,268.87Z"/><path class="cls-4" d="M114.56,120.64a1.87,1.87,0,0,1-.64-.1c-2.33-.83-6.87-2.24-6.91-2.25l1-3.23c.18,0,4.35,1.35,6.79,2.2,2.26-.6,10.81-8,11.32-12.19.08-.66-.05-1.08-.92-1.44-3.56-1.48-4.74-3.84-5.09-5.55-.87-4.17,2.08-9,5.12-12.16,2.47-2.56,5.91-2.14,9.24-1.73s6.4.78,9-1.27a1.15,1.15,0,0,0,.42-1.25c-.7-5.21-14.85-16.33-18.45-17.86A8,8,0,0,1,121,59.2c-1.93-5-.33-12.94,4.87-24.36,6.39-14,5.1-20.82,4.21-23.16-3.22,2.51-11,15.46-13.68,19.94-3.45,5.76-3.45,5.76-4.48,5.86l-.75.08-.59-.52c-.68-.6-.68-1.3-.68-3.15,0-2.46,0-8.21-2.17-10a2.71,2.71,0,0,0-2.5-.41c-3.54.73-4.1,20-4.4,30.42-.47,16-.9,22.2-3.68,23.68a4,4,0,0,1-3.41.45c-1.5-.6-2-2.14-2.53-3.63-.84-2.5-1.55-4-4.28-4.19a1.12,1.12,0,0,0-1.12.46c-2.12,3,.5,15.63,6.09,29.49,4.26,10.57,8.75,11.92,8.8,11.93l-.77,3.3c-.62-.14-6.21-1.68-11.17-14C87,97.11,78.49,75.1,83.05,68.74a4.44,4.44,0,0,1,4.06-1.87c5.21.3,6.52,4.18,7.3,6.49A10.37,10.37,0,0,0,95,74.87a2.34,2.34,0,0,0,.48-.2c1.4-1.58,1.72-12.7,2-20.83C98,33.7,98.79,21.39,104.54,20.2a6.13,6.13,0,0,1,5.31,1.11c2.43,2,3.13,5.81,3.33,9.08.11-.17.21-.34.31-.51C124.27,11.91,128.3,7,131.43,8l.46.15.31.37c.62.74,5.81,7.81-3.26,27.69-5.9,13-5.87,19-4.8,21.72a4.65,4.65,0,0,0,2.6,2.72c3.23,1.38,19.46,13,20.48,20.53a4.52,4.52,0,0,1-1.67,4.35c-3.68,2.93-8,2.4-11.49,2-3.16-.39-5.16-.56-6.4.72-2.51,2.6-4.8,6.43-4.24,9.12.28,1.35,1.29,2.37,3.08,3.11,2.77,1.15,3.7,3.71,2.49,6.85C127.11,112.24,118.32,120.64,114.56,120.64Z"/><path class="cls-4" d="M121.06,168.74c-8.36,0-20.12-.49-28.47-4.29l1.12-3.66c14.06,6.4,37.44,4.17,40.22,3.83a30.28,30.28,0,0,0,7.14-4.9,2.27,2.27,0,0,0-.3-.06c-7.53-1.3-11-3.75-12.32-8.73a3.54,3.54,0,0,1,.54-3.06c1.95-2.75,7.88-3.42,13.79-3.87l1.55-.12a11.55,11.55,0,0,1,3.06.19c2.47.39,5.53.87,14.07-4,2.77-1.58,3.43-2.48,3.58-2.77-.76-.8-4.55-1.58-6.2-1.92a20.25,20.25,0,0,1-4.11-1.1,3.37,3.37,0,0,1-1.83-3.06c-.16-3,2.18-7.84,5.56-10a5.53,5.53,0,0,1,5.79-.33c.89.5,2.2,0,3.14-.41,4.29-2.11,8.77-7.93,9.94-10.34-1.62-.21-6.47-.07-20.9,3-2.62.56-5.09,5.87-6.73,9.39-1.28,2.75-2,4.35-3,5.19a3.09,3.09,0,0,1-2.29.8c-2-.14-3.5-1.94-5.66-4.44a49.06,49.06,0,0,0-3.6-3.87,6.51,6.51,0,0,0-7.46-.71,2.17,2.17,0,0,0-.73,3c2.73,6.57.06,12-3.24,16.79-1.4,2.06-2.83,2.26-3.77,2.07-2.59-.53-3.67-4.56-4-6.27l-.05-.24,0-.24c.2-2.23,0-6.33-1.37-7.86a1.54,1.54,0,0,0-1.2-.56h-.07c-3.44,0-12.11,12.63-13.37,14.53l2.75-9.24c.6-.9,4.76-8.67,10.63-8.67h.12a5,5,0,0,1,3.66,1.68c2.59,2.89,2.35,8.71,2.25,10.16a10.29,10.29,0,0,0,1.23,3.22,3.51,3.51,0,0,0,.39-.48c3.28-4.82,4.91-8.77,2.91-13.6a5.51,5.51,0,0,1,1.92-7,9.92,9.92,0,0,1,11.7,1,51.16,51.16,0,0,1,3.85,4.14,17.33,17.33,0,0,0,3.23,3.24,26,26,0,0,0,2.1-4c2.15-4.62,4.82-10.36,9.1-11.27,20.09-4.25,23.19-3.28,24.51-2a2.38,2.38,0,0,1,.73,2.09c-.46,3.06-6.6,11-12.09,13.66-3,1.48-5.08,1-6.28.33-1-.53-2.08-.18-3.35,1.05-2.28,2.2-3.21,5.5-2.94,6.34a24.83,24.83,0,0,0,3.21.78c4.14.86,8.43,1.74,8.9,4.71.42,2.62-2.6,4.71-5.28,6.24-9.57,5.46-13.29,4.88-16.27,4.41a9.14,9.14,0,0,0-2.21-.17c-.44,0-1,.09-1.62.14-2.5.18-10.1.76-11.29,2.44-.05.07-.07.1,0,.24.84,3.13,2.62,5.05,9.62,6.26,2.52.43,3.23,1.67,3.37,2.62.47,3-4.9,6.44-9.49,8.82l-.26.14-.29,0A112.52,112.52,0,0,1,121.06,168.74Z"/><path class="cls-4" d="M86.39,162.44c-11.13-1.07-29.71-7.37-37.17-18-1.95-2.8-4-6.29-2.27-8.51s5.63-1.21,9.58.25c1.46.53,2.63-.23,3.49-2.28-.33-1.28-4.14-5-8.37-8.07C49.92,125.14,40,121,35.29,111.26c-1.28-2.62-2.37-5.53-.75-7.25,1.82-1.93,5.19-.51,8.75,1,1,.41,1.9.8,2.65,1,.42-.46,1-2.39.83-5.15s-.85-4.16-1.23-4.48l-.07,0c-1.11.6-3.45,1.15-6.58-1.81C35,91,30.58,82.31,32.36,78.46a4.09,4.09,0,0,1,2.53-2.41c2.28-.68,4.77.9,9.28,3.76,1.51,1,3.22,2,5.19,3.21,8.92,5.29,8.55,10.21,8.15,15.42,0,.77-.11,1.56-.15,2.38-.1,2.7.41,3.31.57,3.43.82.62,4.23-.5,5.69-1C70.43,101,78.1,106.15,79.24,109c.81,2-.92,3.83-2.75,5.74-1.27,1.32-2.7,2.81-3.15,4.17-.8,2.44.64,6.63,2.1,8.4l.36-1.07c.83-2.52,2.07-6.33,5.45-8.7a4.73,4.73,0,0,1,5.27-.1c4.16,2.35,8,10.33,7.73,14.35a3.06,3.06,0,0,1-1.83,2.92c-.66.26-1.27,1.41.2,5.53l-1.46,5.19c-.86-2.41-4.26-11.75-.28-13.74.35-1.7-2.18-8.29-5.35-10.84-1.45-1.16-2.09-.71-2.34-.54-2.45,1.73-3.45,4.76-4.17,7-.61,1.86-1.09,3.33-2.43,3.84a2.48,2.48,0,0,1-2.15-.25c-3-1.78-5.74-8.68-4.32-13,.69-2.09,2.41-3.88,3.93-5.46a14.7,14.7,0,0,0,2-2.3c-.92-1.43-6.4-5.24-11.34-3.62-3.71,1.21-6.71,2-8.78.46-1.85-1.4-2-4.09-1.91-6.27,0-.86.1-1.69.16-2.49.38-5,.61-8-6.51-12.26-2-1.2-3.74-2.3-5.27-3.26-2.8-1.78-5.71-3.62-6.52-3.38-.05,0-.21.16-.41.59-.75,1.61,2.11,8.83,5.78,12.3,1.13,1.07,2.15,1.56,2.67,1.29a3.31,3.31,0,0,1,4.19.71c2.41,2.62,2.87,10.35.8,13.58A3.28,3.28,0,0,1,45,109.29c-.89-.29-1.91-.72-3-1.18a23.27,23.27,0,0,0-4.85-1.66,11.11,11.11,0,0,0,1.21,3.32c4.5,9.21,14.6,12.9,14.7,12.94l.23.08.2.14c7.48,5.46,10.76,9.5,9.76,12-1.54,3.91-4.56,5.58-7.85,4.36-3.86-1.42-5.22-1.42-5.68-1.32,0,.4.32,1.63,2.3,4.47,6.77,9.67,25.09,15.89,35.28,16.87Z"/><path class="cls-4" d="M80.68,182.28c-.21,0-21-3.1-25.87-3.66A4.55,4.55,0,0,1,50.6,174c-.1-3.75,3.44-8.34,10.16-9.44,9.95-1.62,21.48,10.2,22,10.72l-.91,3c-.12-.11-12.31-11.71-20.54-10.36-5.08.83-7.38,4.08-7.33,6a1.18,1.18,0,0,0,1.21,1.3c5,.57,25.58,3.62,26.46,3.75Z"/><path class="cls-4" d="M111.09,189.1h-.42c-8.64-.33-24.84-2.2-25-2.22l1-3.1c.15,0,15.64,1.62,24.15,1.93,3.12.14,3.62-1.51,3.79-2.05.79-2.59-1.11-7.36-4.75-9.62-4-2.53-16.65,2.63-22.18,6.46l1-3.22c1.65-1.14,15.73-10.63,23-6.11,4.7,2.92,7.54,9.1,6.19,13.48C116.94,187.5,114.5,189.1,111.09,189.1Z"/><path class="cls-2" d="M68.71,159.61s-29-1.32-37.6-10.79,6.79-3,10-7.07-6.55-10-16.63-12S2.52,112.43,15,116.4s5-13.61-.27-11.69S-3.65,87.55,3.9,89.51,25.52,95.19,26.43,100s2.09,17.71,8.44,11.38,21.62-2.83,14.82,3,4.72,27.25,5.76,10.69,15.88,1.52,14.46,8S90,156.41,68.71,159.61Z"/><path class="cls-2" d="M84.19,159.85s31.13-.86,39.54-10.52-7.56-3.22-11.3-7.5,6.21-10.23,16.89-12.11,22.14-17.59,9.1-13.7-6.52-14.19-.68-12.11S156,86.45,148.08,88.35s-22.78,5.5-23.36,10.5-.78,18.32-8.13,11.64-23.48-3.32-15.69,2.9-2.81,28.16-5.3,11-17,1.3-14.89,8S61.06,156.14,84.19,159.85Z"/><path class="cls-2" d="M74.08,178.88s-23,3.16-29.9,2.51,1.17-12.86,9.45-12S72,173.66,74.08,178.88Z"/><path class="cls-2" d="M75.25,183.11s22.11-1.89,28.55-4.6-3-16.94-10.69-13.53S76.46,175.55,75.25,183.11Z"/><path class="cls-2" d="M68.83,108.86A222.08,222.08,0,0,1,52.06,86c-8-12.6-5.77-22.84,6-12.85s-2.37-32.08-3-44.28S64,13.5,66.23,27.77s5.62-15,11-23.36,6.58,3.81,6,16.13S77.94,54.26,87.53,54s34.44,18.48,16,20.28-14.07,19.2-7.05,18.52-.8,19-9.68,18.77A89.34,89.34,0,0,1,68.83,108.86Z"/><path class="cls-3" d="M56.21,273.76,71,275.49,83.15,90.69s-2.75-6.64-7.3,7.42S73.86,252.17,56.21,273.76Z"/><path class="cls-4" d="M89.79,113.47a2.09,2.09,0,0,1-.65,0c-2.45-.27-7.2-.6-7.24-.6l.22-3.38c.2,0,4.55.31,7.13.58,2.06-1.11,8.67-10.27,8.19-14.47-.07-.66-.29-1-1.22-1.19-3.81-.62-5.5-2.64-6.24-4.22-1.8-3.86,0-9.26,2.18-13,1.82-3.06,5.26-3.44,8.59-3.81s6.41-.72,8.44-3.3a1.19,1.19,0,0,0,.12-1.32c-1.89-4.91-18.22-12.47-22.07-13.13a8,8,0,0,1-5.37-3.46c-3-4.4-3.31-12.52-.87-24.82,3-15.1.16-21.44-1.26-23.51C77.19,7.06,72.62,21.45,71,26.43c-2,6.39-2,6.39-3,6.73l-.7.25-.7-.36c-.8-.44-1-1.11-1.39-2.92-.57-2.39-1.92-8-4.41-9.19a2.74,2.74,0,0,0-2.52.18C55,22.65,58.93,41.57,61,51.73c3.24,15.69,4.25,21.81,1.89,23.9a4,4,0,0,1-3.21,1.22c-1.61-.23-2.47-1.61-3.3-2.95C55,71.66,54,70.33,51.27,70.81a1.09,1.09,0,0,0-1,.71C48.91,74.87,54.38,86.61,63,98.8c6.58,9.31,11.26,9.59,11.31,9.59v3.38c-.63,0-6.43-.2-14.09-11-2.7-3.83-16.07-23.28-13.09-30.53a4.41,4.41,0,0,1,3.52-2.75c5.14-.91,7.3,2.56,8.6,4.63a10.1,10.1,0,0,0,.92,1.33,2.71,2.71,0,0,0,.42-.3c1-1.86-1.26-12.75-2.9-20.72-4.08-19.73-6.17-31.89-.85-34.37a6.12,6.12,0,0,1,5.42-.15c2.82,1.36,4.39,4.93,5.34,8.07l.18-.57C74.16,5.43,77-.26,80.23,0l.48,0,.39.29C81.88.92,88.56,6.6,84.32,28c-2.76,14-1.34,19.81.34,22.25a4.62,4.62,0,0,0,3.15,2c3.47.59,22,8.19,24.66,15.24a4.49,4.49,0,0,1-.62,4.62c-2.9,3.71-7.24,4.19-10.72,4.58C98,77.12,96,77.42,95.07,79c-1.85,3.11-3.19,7.36-2,9.85.58,1.25,1.8,2,3.71,2.32,3,.47,4.46,2.75,4,6.08C100.06,102.4,93.45,112.6,89.79,113.47Z"/><path class="cls-4" d="M107.21,158.77c-8.13,1.93-19.69,4.16-28.7,2.39l.25-3.82c15.16,3,37.4-4.58,40-5.54,2.7-2.37,5.13-5.08,5.81-6.43h-.3c-7.62.48-11.55-1.11-14-5.64a3.55,3.55,0,0,1-.19-3.11c1.26-3.13,6.88-5.14,12.53-6.94l1.48-.48a11.47,11.47,0,0,1,3-.52c2.49-.19,5.58-.43,12.76-7.15,2.34-2.18,2.77-3.2,2.84-3.51-.91-.61-4.78-.5-6.47-.45a20.17,20.17,0,0,1-4.25-.12,3.33,3.33,0,0,1-2.48-2.55c-.85-2.84.31-8.13,3.11-11a5.48,5.48,0,0,1,5.55-1.66c1,.28,2.15-.46,3-1.13,3.69-3,6.71-9.74,7.3-12.35-1.63.17-6.33,1.42-19.66,7.72-2.42,1.15-3.6,6.89-4.38,10.69-.61,3-1,4.71-1.73,5.74a3,3,0,0,1-2,1.31c-1.92.32-3.85-1.08-6.53-3a49.22,49.22,0,0,0-4.39-2.93,6.52,6.52,0,0,0-7.43,1,2.17,2.17,0,0,0,0,3c4.18,5.77,2.81,11.63.72,17.1-.89,2.32-2.23,2.84-3.19,2.87-2.64.09-4.62-3.58-5.35-5.17l-.1-.22,0-.24c-.32-2.21-1.46-6.16-3.15-7.33a1.58,1.58,0,0,0-1.31-.27l-.06,0c-3.35.79-8.87,15.08-9.65,17.21l.53-9.62c.38-1,2.64-9.53,8.34-10.89l.13,0a4.92,4.92,0,0,1,3.95.79c3.18,2.21,4.29,7.93,4.52,9.37a10.43,10.43,0,0,0,1.95,2.85,3.89,3.89,0,0,0,.26-.56c2.08-5.45,2.76-9.67-.3-13.9a5.51,5.51,0,0,1,.25-7.3,9.92,9.92,0,0,1,11.62-1.71,54.76,54.76,0,0,1,4.7,3.13,17,17,0,0,0,3.88,2.41,25.83,25.83,0,0,0,1.13-4.38c1-5,2.29-11.2,6.24-13.07,18.58-8.77,21.81-8.54,23.39-7.63a2.34,2.34,0,0,1,1.19,1.86c.26,3.08-3.9,12.18-8.61,16.07-2.6,2.15-4.72,2.15-6,1.78-1.05-.3-2.07.3-3,1.79-1.71,2.67-1.86,6.09-1.41,6.85a25,25,0,0,0,3.31,0c4.23-.12,8.6-.25,9.74,2.53,1,2.45-1.44,5.18-3.7,7.29-8.05,7.52-11.8,7.81-14.81,8a9,9,0,0,0-2.19.35l-1.54.5c-2.39.76-9.65,3.07-10.42,5,0,.07,0,.1,0,.23,1.54,2.85,3.72,4.32,10.81,3.88,2.55-.16,3.52.87,3.88,1.77,1.14,2.79-3.29,7.4-7.2,10.77l-.22.2-.28.1A107.77,107.77,0,0,1,107.21,158.77Z"/><path class="cls-4" d="M72,160.63c-11.08,1.53-30.61-.31-40.32-9-2.55-2.27-5.33-5.2-4.17-7.75s5.19-2.48,9.37-2c1.55.19,2.51-.83,2.87-3-.61-1.17-5.17-3.86-10-5.92-1.83-.25-12.41-2-19.27-10.38-1.85-2.25-3.58-4.83-2.4-6.88,1.33-2.3,4.93-1.69,8.74-1.06,1.05.18,2,.35,2.83.42.29-.55.41-2.56-.38-5.21-.75-2.5-1.8-3.85-2.24-4.07,0,0,0,0-.05.05-.95.83-3.1,1.91-6.83-.24C5.57,103-.77,95.54.08,91.38A4.13,4.13,0,0,1,2,88.45c2.07-1.18,4.85-.22,9.9,1.52,1.69.58,3.6,1.24,5.79,1.93,9.9,3.09,10.67,8,11.49,13.13.12.75.24,1.53.4,2.34.52,2.66,1.16,3.13,1.34,3.21,1,.41,4-1.46,5.31-2.26,6.12-3.75,14.76-.54,16.53,2,1.26,1.78,0,3.94-1.35,6.21-.93,1.58-2,3.36-2.11,4.79-.21,2.56,2.15,6.31,4,7.69,0-.37.07-.78.1-1.13.22-2.64.55-6.63,3.3-9.72a4.74,4.74,0,0,1,5.1-1.31c4.59,1.32,10.17,8.2,10.84,12.18a3.08,3.08,0,0,1-1.11,3.26c-.59.41-.92,1.67,1.46,5.34L72.75,143c-1.4-2.15-6.86-10.44-3.45-13.3,0-1.73-4-7.57-7.71-9.31-1.67-.8-2.2-.21-2.39,0-2,2.25-2.26,5.43-2.46,7.75-.16,2-.29,3.5-1.47,4.3a2.51,2.51,0,0,1-2.15.26c-3.34-1.05-7.6-7.13-7.21-11.69.19-2.19,1.45-4.33,2.56-6.21a15,15,0,0,0,1.38-2.7c-1.22-1.18-7.44-3.62-11.87-.91-3.33,2-6.06,3.52-8.44,2.48-2.12-.94-2.88-3.52-3.3-5.66q-.24-1.27-.42-2.46c-.79-5-1.26-8-9.16-10.43-2.24-.7-4.17-1.37-5.88-2C7.64,92.09,4.39,91,3.66,91.39c-.05,0-.17.21-.27.66C3,93.8,7.48,100.17,11.85,102.7c1.35.78,2.46,1,2.9.63a3.31,3.31,0,0,1,4.24-.27c3,2,5.18,9.41,3.91,13a3.28,3.28,0,0,1-3.45,2.4c-.94-.08-2-.27-3.18-.46a23.13,23.13,0,0,0-5.1-.5,11,11,0,0,0,1.93,3c6.51,7.93,17.19,9.19,17.29,9.2l.25,0,.22.09c8.54,3.58,12.67,6.76,12.28,9.45-.61,4.16-3.15,6.48-6.64,6.06-4.08-.5-5.4-.18-5.82,0,.12.39.68,1.51,3.27,3.82,8.81,7.85,28.07,9.68,38.21,8.28Z"/><path class="cls-4" d="M71,181.25c-.21,0-21.12,1.83-26,2.41a4.53,4.53,0,0,1-5.15-3.49c-1-3.63,1.42-8.91,7.71-11.53,9.31-3.87,23.25,5,23.88,5.36l-.2,3.11c-.14-.09-14.68-8.56-22.38-5.34-4.75,2-6.24,5.67-5.74,7.54a1.18,1.18,0,0,0,1.48,1c5-.59,25.72-2.38,26.6-2.46Z"/><path class="cls-4" d="M102.2,180.88a2.71,2.71,0,0,1-.41.09c-8.48,1.68-24.67,3.59-24.82,3.61l.21-3.24c.15,0,15.6-2,23.95-3.69,3.06-.58,3.18-2.3,3.21-2.86.18-2.71-2.77-6.91-6.83-8.28-4.53-1.52-15.6,6.4-20.1,11.41l.22-3.36c1.34-1.5,12.86-14,21-11.25,5.24,1.76,9.42,7.12,9.13,11.69C107.53,178,105.52,180.1,102.2,180.88Z"/><path class="cls-2" d="M88.43,157.63s-26.92-11-31.79-22.81,7.41-.54,11.76-3.31-2.81-11.6-11.63-16.86S42,90.93,52.33,98.86,61.62,87.73,56,87.76,44.51,65.43,51,69.82,69.41,82.44,68.65,87.3s-4,17.38,4.11,13.56,21.32,4.6,12.94,7.85S81,136,87.53,120.71s14.44,6.78,10.92,12.42S109.53,161.76,88.43,157.63Z"/><path class="cls-2" d="M102.92,163.05s29.61,9.67,40.78,3.39-6-5.57-8.12-10.86,9.29-7.54,20-5.73,26.76-9.12,13.17-9.83-1.36-15.56,3.44-11.64,23.09-10.29,15-11.18-23.31-2.48-25.54,2-6.89,17-11.57,8.24-21-11-15.74-2.55-12.12,25.58-8.69,8.55-16.4-4.48-16.73,2.58S82.39,151.78,102.92,163.05Z"/><path class="cls-2" d="M87,177.58s-22.68-4.75-29-7.69,5.42-11.72,12.92-8.09S86.77,172,87,177.58Z"/><path class="cls-2" d="M86.68,182s21.46,5.65,28.44,5.26,2.85-17-5.52-16.33S90.36,175.24,86.68,182Z"/><path class="cls-2" d="M105.6,109.87a222.21,222.21,0,0,1-8.09-27.19c-3.26-14.53,2.24-23.44,10-10.07s8.56-31,12.1-42.7,13.49-11.48,10.84,2.72,10.35-12.27,18.22-18.3,4.91,5.81.23,17.21-16.33,30-7.22,32.95,26.23,29,8.27,24.48S130.22,102.32,137.06,104s-7.15,17.64-15.43,14.42A89,89,0,0,1,105.6,109.87Z"/><path class="cls-3" d="M38.27,260.93l13.33,6.59L125.2,97.58s-.36-7.18-9.37,4.53S62.15,246.52,38.27,260.93Z"/><path class="cls-4" d="M123.8,121.26a1.94,1.94,0,0,1-.63-.17c-2.23-1.08-6.58-3-6.63-3l1.36-3.1c.17.07,4.17,1.82,6.51,2.94,2.31-.35,11.62-6.76,12.58-10.87.15-.65.08-1.09-.75-1.54-3.38-1.86-4.29-4.33-4.45-6.07-.4-4.24,3.06-8.74,6.43-11.53,2.73-2.27,6.11-1.47,9.37-.7s6.28,1.48,9.06-.27a1.21,1.21,0,0,0,.56-1.2c-.14-5.26-13-17.87-16.38-19.79a8,8,0,0,1-3.89-5.07C135.57,55.74,138,48,144.46,37.23c7.89-13.22,7.36-20.14,6.73-22.57C147.71,16.81,138.57,28.83,135.4,33c-4.06,5.34-4.06,5.34-5.1,5.33h-.75l-.53-.58c-.61-.68-.53-1.37-.33-3.21.26-2.44.88-8.17-1.06-10.14a2.73,2.73,0,0,0-2.44-.68c-3.6.33-6.28,19.47-7.72,29.75-2.22,15.86-3.34,22-6.26,23.13a3.94,3.94,0,0,1-3.43.08c-1.44-.76-1.79-2.35-2.12-3.89-.56-2.58-1.1-4.18-3.8-4.64a1.11,1.11,0,0,0-1.16.34c-2.43,2.7-1.22,15.58,2.81,30,3.07,11,7.39,12.81,7.43,12.83l-1.12,3.19c-.61-.2-6-2.36-9.57-15.11C99,94.84,93,72,98.18,66.21a4.43,4.43,0,0,1,4.24-1.41c5.15.87,6,4.86,6.54,7.25a11.5,11.5,0,0,0,.43,1.57,2.9,2.9,0,0,0,.49-.15C111.45,72.05,113,61,114.12,53,116.91,33,119,20.88,124.87,20.33A6.1,6.1,0,0,1,130,22c2.19,2.23,2.47,6.12,2.31,9.4l.36-.48C145.4,14.26,150,9.84,152.94,11.19l.45.2.26.41c.54.8,4.92,8.4-6.28,27.16-7.3,12.22-7.92,18.2-7.16,21.07a4.64,4.64,0,0,0,2.28,3c3.06,1.73,17.91,15.1,18.1,22.66a4.53,4.53,0,0,1-2.14,4.14c-4,2.51-8.22,1.51-11.64.7-3.1-.73-5.06-1.12-6.43,0-2.79,2.31-5.48,5.87-5.22,8.61.13,1.37,1,2.49,2.71,3.42,2.63,1.45,3.27,4.09,1.73,7.08C137.19,114.29,127.53,121.67,123.8,121.26Z"/><path class="cls-4" d="M125,169.78c-8.3-.91-19.94-2.7-27.82-7.4l1.52-3.51c13.26,7.91,36.75,8.26,39.55,8.23,3.33-1.32,6.54-3,7.63-4.09l-.29-.09c-7.34-2.12-10.5-4.93-11.28-10a3.54,3.54,0,0,1,.87-3c2.24-2.52,8.21-2.53,14.14-2.33l1.55,0a11.46,11.46,0,0,1,3,.52c2.41.66,5.4,1.47,14.42-2.43,2.93-1.27,3.68-2.09,3.86-2.36-.66-.88-4.34-2.08-5.95-2.6a19.92,19.92,0,0,1-4-1.54,3.35,3.35,0,0,1-1.48-3.24c.16-2.95,3-7.55,6.62-9.28a5.51,5.51,0,0,1,5.79.3c.83.6,2.18.29,3.17-.06,4.5-1.63,9.59-6.92,11-9.18-1.59-.39-6.43-.79-21.11.66-2.66.26-5.7,5.27-7.72,8.59-1.57,2.6-2.51,4.1-3.56,4.83a3.07,3.07,0,0,1-2.37.54c-1.91-.35-3.26-2.31-5.13-5a50.88,50.88,0,0,0-3.15-4.24,6.5,6.5,0,0,0-7.34-1.52,2.16,2.16,0,0,0-1.05,2.86c2,6.84-1.26,11.9-5.07,16.34-1.62,1.89-3.06,1.94-4,1.64-2.51-.81-3.14-4.93-3.29-6.67l0-.24,0-.24c.44-2.19.69-6.29-.5-8a1.56,1.56,0,0,0-1.14-.69h-.06c-3.42-.38-13.43,11.22-14.89,13l3.74-8.88c.7-.83,5.69-8.1,11.52-7.45h.12a5,5,0,0,1,3.46,2.08c2.25,3.15,1.38,8.92,1.11,10.34a10.34,10.34,0,0,0,.88,3.34,3.64,3.64,0,0,0,.43-.44c3.79-4.42,5.85-8.18,4.39-13.19a5.51,5.51,0,0,1,2.69-6.79,9.93,9.93,0,0,1,11.52,2.3,54.46,54.46,0,0,1,3.37,4.53c.93,1.36,2.19,3.2,2.85,3.57a25.71,25.71,0,0,0,2.53-3.75c2.64-4.35,5.93-9.77,10.28-10.2,20.44-2,23.41-.71,24.59.67a2.38,2.38,0,0,1,.49,2.16c-.79,3-7.76,10.16-13.51,12.24-3.17,1.15-5.17.44-6.29-.36-.89-.64-2-.41-3.44.67-2.5,1.95-3.79,5.12-3.62,6a25.17,25.17,0,0,0,3.11,1.13c4,1.31,8.18,2.66,8.32,5.66.13,2.65-3.1,4.4-5.93,5.62-10.11,4.38-13.74,3.4-16.66,2.6a8.75,8.75,0,0,0-2.18-.41l-1.62,0c-2.5-.08-10.12-.35-11.49,1.19,0,.06-.07.09,0,.23.49,3.21,2,5.32,8.87,7.29,2.45.7,3,2,3.06,3,.14,3-5.58,5.86-10.4,7.73l-.28.1h-.29A109.74,109.74,0,0,1,125,169.78Z"/><path class="cls-4" d="M91.2,159.7c-11-2.28-28.72-10.59-35-22C54.6,134.7,53,131,54.92,129s5.72-.58,9.49,1.3c1.39.69,2.64.06,3.72-1.88-.18-1.3-3.57-5.38-7.44-8.94-1.63-.85-11-6.08-14.66-16.26-1-2.74-1.75-5.75.06-7.28,2-1.72,5.21.06,8.58,1.94.93.52,1.81,1,2.53,1.34.46-.41,1.24-2.27,1.39-5s-.4-4.23-.74-4.58l-.06,0c-1.18.47-3.56.76-6.35-2.52-3.43-4-6.9-13.18-4.71-16.81a4.05,4.05,0,0,1,2.78-2.11c2.35-.42,4.64,1.41,8.81,4.75,1.4,1.12,3,2.38,4.81,3.76,8.28,6.24,7.37,11.1,6.4,16.23-.14.75-.28,1.53-.41,2.34-.4,2.68,0,3.34.19,3.48.75.7,4.26,0,5.76-.35,7-1.47,14.08,4.46,14.9,7.43.58,2.11-1.34,3.71-3.37,5.4-1.4,1.18-3,2.5-3.59,3.81-1.06,2.33-.1,6.66,1.17,8.57.16-.33.33-.7.47-1,1.1-2.41,2.75-6.06,6.37-8a4.75,4.75,0,0,1,5.25.49c3.88,2.78,6.82,11.14,6.11,15.11a3,3,0,0,1-2.14,2.69c-.69.19-1.42,1.27-.41,5.53l-2,5c-.59-2.5-3-12.15,1.23-13.69.53-1.65-1.25-8.48-4.13-11.37-1.31-1.31-2-.93-2.26-.79-2.63,1.45-4,4.35-4.92,6.48-.81,1.78-1.45,3.19-2.83,3.54a2.41,2.41,0,0,1-2.11-.47c-2.8-2.11-4.76-9.27-2.86-13.43.92-2,2.82-3.59,4.5-5a14.77,14.77,0,0,0,2.21-2.08c-.76-1.52-5.79-5.91-10.87-4.85-3.82.81-6.9,1.28-8.78-.5-1.69-1.6-1.54-4.28-1.21-6.44.13-.85.28-1.67.43-2.46.93-4.94,1.49-7.93-5.12-12.9-1.87-1.42-3.47-2.7-4.88-3.83-2.59-2.07-5.28-4.22-6.11-4.06-.06,0-.23.13-.47.53-.92,1.52,1.12,9,4.39,12.87,1,1.18,2,1.79,2.51,1.57a3.31,3.31,0,0,1,4.09,1.17c2.11,2.86,1.71,10.6-.7,13.58a3.27,3.27,0,0,1-4.05,1.09c-.86-.39-1.83-.92-2.85-1.49a22.14,22.14,0,0,0-4.63-2.19,10.53,10.53,0,0,0,.83,3.43c3.46,9.65,13.09,14.43,13.19,14.48l.22.1.18.17c6.84,6.24,9.66,10.62,8.39,13-2,3.71-5.15,5-8.29,3.47-3.68-1.84-5-2-5.5-1.94,0,.4.14,1.65,1.8,4.69,5.66,10.36,23.18,18.56,33.2,20.65Z"/><path class="cls-4" d="M83.35,178.79c-.21,0-20.51-5.38-25.32-6.48a4.54,4.54,0,0,1-3.68-5c.32-3.74,4.33-7.91,11.14-8.26,10.07-.52,20.22,12.49,20.69,13.07L84.94,175c-.1-.13-11-13-19.28-12.56-5.14.27-7.78,3.24-7.94,5.17A1.18,1.18,0,0,0,58.78,169c4.86,1.11,25,6.41,25.88,6.63Z"/><path class="cls-4" d="M112.81,188.92l-.41,0c-8.55-1.27-24.45-4.92-24.59-5l1.29-3c.14,0,15.37,3.33,23.79,4.58,3.08.48,3.77-1.1,4-1.62,1.07-2.49-.29-7.44-3.65-10.09-3.76-3-16.85.78-22.77,4l1.34-3.09c1.77-.95,16.81-8.83,23.52-3.55,4.35,3.43,6.48,9.88,4.67,14.09C118.81,188,116.21,189.3,112.81,188.92Z"/><path class="cls-1" d="M55.18,269.7,34.1,261.05l3.44-1.65c11.32-5.4,34.7-59.71,41.19-75.85L81,184c-.91,2.27-24.44,64.53-39.18,76.62l11.61,4.76c4.45-9.7,27-66,33-78.37h1.74c-1.86,15.25-31.13,78.61-32.36,81.26Z"/><polygon class="cls-1" points="72.55 277.37 54.33 275.25 56.14 259.68 59.5 260.07 58.09 272.28 69.41 273.6 72.44 227.49 75.82 221.36 72.55 277.37"/><polygon class="cls-1" points="55.63 275.36 39.71 269.6 47.53 263.79 49.55 266.5 46.78 268.56 56.78 272.18 55.63 275.36"/></g></g></svg>