<svg xmlns="http://www.w3.org/2000/svg" viewBox="0 0 252.13 163.64"><defs><style>.cls-1{fill:#b48a47;}.cls-2{fill:#947138;}.cls-3{fill:#c9a161;}.cls-4{fill:#e0bc82;}.cls-5{fill:#e3c99f;}.cls-6{fill:#7d5a23;}.cls-7{fill:#bf9d63;}</style></defs><g id="レイヤー_2" data-name="レイヤー 2"><g id="生姜"><path class="cls-1" d="M152.72,31.34s-13.52-9.58-19.15-9.58c0,0-18-19.7-25.9-19.14,0,0-29.85,8.44-34.92,25.34,0,0,18,24.21,12.39,29.84,0,0-19.71-.56-12.39,15.21s-14.64-4.34-23.08-3.58S37.84,79.48,30,79.06.11,77,.67,87.65s22.53,42.8,32.67,33.22S48.54,101.16,56.42,100s19.14-3.38,20.27-4.51,7.89,15.21,17.46,15.21c0,0-19.72,13.51-17.46,22.52s-7.88,7.32-5.63,12.39.56,11.83,5.63,13.52,18.59-1.13,19.15-7.89,14.08-9.57,17.46-14.08S126.81,122,133,124.82s18,4.5,23.65-.57,17.46,1.69,17.46,1.69,27,2.25,32.66-29.84S231,84.83,231,84.83l5.63-3.7V73.57l12.39-9s-6.19-18-12.39-19.14S213,38.09,207.34,42.6,197.2,56.11,195,55.55s-2.82-18-2.82-20.83-8.44-5.64-12.38-7.32-2.82-9.58-12.39-9S152.72,31.34,152.72,31.34Z"/><path class="cls-2" d="M142.32,24.91s-24.33,15.25-30,16.38S96.59,54.8,98.09,58.93s4.13,5.24,2.26,10.5S85.69,102.83,86.07,107c0,0,3.76,4.89,8.08,3.77,0,0,8.45-3.38,12.58-3,0,0,2.54-9.76,7.46-9.76,0,0-1.28-28.15,10.65-34.91,0,0,1-13.14,9.29-13.52,0,0,13.14-18.77,18.59-18.2C152.72,31.34,147.5,25.05,142.32,24.91Z"/><path class="cls-2" d="M61.59,73.83s-10.16-8-17.77-2.32S33.63,79.26,30,79.06s-7.32-.36-9.16-.35S7.15,97.64,19.26,109.05s18.47,7.34,18.47,7.34,10-11.65,12.24-13.23c0,0-6.22-1.15-3.26-7.06S52.83,77.32,61.59,73.83Z"/><path class="cls-2" d="M86.07,117.22s6.77,4.4,11.46,4.59,14.08-.75,15.77,15.39a29.84,29.84,0,0,1-15,9.74s-9.55-17.06-21.56-13.68C76.69,133.26,74,123.71,86.07,117.22Z"/><path class="cls-2" d="M236.62,73.57s-11.26-2.44-12.39-8.63-14.4-14.49-24.47-13.82c0,0-3.12,4.06-4.81,4.43,0,0,19,7.26,19,12.36S225,73.57,225,73.57s8.83,8.07,6,11.26l5.63-3.7Z"/><path class="cls-3" d="M179.75,27.4s-14.36,21.68-24.22,27S135,69.91,135.26,79.77s-.29,26.18,0,29.28S134.92,124,140,126.94c0,0,10.73,3.79,16.64-2.69,0,0-9-15.48-1.69-27.31s5.07-17.46,4.79-20.55,3.66-9.29,9.29-13.52,21.4-17.74,23.08-28.15C192.13,34.72,193,30.49,179.75,27.4Z"/><path class="cls-4" d="M206.78,96.1s-2-11-11.83-6.48-15.49,9.57-16.89,12.67-7.89,4.51-8.17,11.26.28,9.58,4.23,12.39S204.81,124,206.78,96.1Z"/><path class="cls-5" d="M201.14,98.63s-5.34-4.5-10.41-1.41-4.51,9.48-5.92,10.37-7.6,4.27-5.06,7.65,10.41,3.44,15.2-4.33S203.44,108.7,201.14,98.63Z"/><path class="cls-6" d="M78.81,163.64a9.42,9.42,0,0,1-5.93-2.19c-4.7-3.79-6.95-12-5.43-15.78a3.74,3.74,0,0,1,3.76-2.52c1.11-.62,2.58-5.52,3-10,.4-12.9,7.49-16.91,10.25-18a16.92,16.92,0,0,1,3.15-3.36c-6.83-3-10.76-9.85-12.38-13.32-4.64,1.08-15.65,3.64-18.41,4.06-1.59.24-5.69,3.25-8.67,6C38.83,120.72,35,125.8,30.25,126.36c-3.59.43-6.5-1.94-10.89-5.54-1.22-1-2.59-2.12-4.15-3.33C-.17,105.56-1.93,87.23,1.44,80.76c3.2-6.17,22.52-6,32.08-5.45,2-2.55,7.14-8.38,13.61-9.34a12.62,12.62,0,0,1,10.13,3c5.69,4.67,10.46,6,13.37,6.3-2-6.08-1.74-11,.79-14.52,3.16-4.45,8.9-5.34,11.92-5.48-.11-3.77-5.58-15.12-12.68-26l-.66-1,.38-1.15C77.16,6.83,104.58.7,107,.19c6.87-2,21.06,12,27.63,19.08,6.3.36,13.72,5.47,17.43,8.34,4.87-7.3,10.11-11,15.6-11h.06c7.18,0,12.12,6.45,13.65,8.74,2.56,1,9.89,4.14,12.71,7.84,2.2,2.87,3,10.45,3.21,16.25l8.75-9.15.78-.15c11.29-2.23,22.8.84,28.32,2.31.81.22,1.48.4,2,.52,4.59,1.07,10.8,13.33,14.09,20.54l.85,1.86-13,9.46v7.63l-8.72,5.74L229,86.33c-3.37-4.49-10.22-5.38-11.48-5.51-3.87.56-6.35,3-7.57,7.59a24.08,24.08,0,0,0-.68,7.45l-5,.47c-.62-6.48,1.27-19.1,12.86-20.5l.23,0h.22c.37,0,8.48.55,13.82,5.74l2.7-1.77V72.3l11.75-8.55c-3.85-8.1-8.23-15.19-9.9-15.93-.48-.1-1.21-.3-2.07-.53-5-1.34-15.38-4.1-25.31-2.38L192.42,61.82l0-6.28c0-7.78-.83-17.38-2.3-19.31-1.79-2.34-7.87-5.22-11.27-6.49l-.84-.31-.46-.78c0-.06-4.18-7-9.86-7h0c-4.12,0-8.56,3.8-12.83,11l-1.53,2.58-2.26-2c-3-2.58-11.93-9.23-17.39-9l-1.16.06-.8-.86C122.05,13,111,4.16,108.48,5l-.32.09c-.27,0-25.91,5.37-32.63,22.57,6.47,10,15.83,26.45,11.56,31.73l-.82,1L85,60.3c-.06,0-6.78-.41-9.47,3.4-2.36,3.34-.74,8.93,1,13l1.18,2.75-2.91.67c-.38.09-9.37,2-20.71-7.27a7.64,7.64,0,0,0-6.21-2c-5.95.86-11,8.29-11.06,8.36L36,80.47l-1.43-.09c-13.78-.84-27.46.44-28.71,2.68-2.3,4.45-.87,20.17,12.4,30.48,1.61,1.25,3,2.4,4.25,3.41,3.41,2.78,5.66,4.62,7.14,4.45,2.62-.31,7.39-6.61,14.63-16.14l.29-.33c1.23-1.12,7.52-6.76,11.46-7.36,2.6-.4,14.27-3.1,20.08-4.47l2.18-.52.75,2.12c0,.12,4.86,13.22,15.18,13.54l12.51.38L95,113.07s-4.7,1.86-6.82,5.43l-.55.92-1,.24c-.26.07-7.09,2-7.43,13.67v.15c-.29,3.36-1.66,13.83-7.21,14.63-.14,1.94,1,6.92,4,9.38,1.19,1,3.17,2.07,6.53-.2a77.61,77.61,0,0,1,9.61-5.56c3.43-1.7,3.43-1.7,3.69-5l.15-1.81,1.77-.42a32.33,32.33,0,0,0,18-13.73c6.66-10.87,19.35-8.82,25.25-6.18,3,1,11.53,2.7,13.48-1.42a7.74,7.74,0,0,1,5.07-4.39c5.16-1.37,14,6.69,14.65,7.15l-.64,2.42h0c-1.2-.83-10.26-5.4-12.73-4.73a2.7,2.7,0,0,0-1.83,1.69c-4.28,9-19.07,4.2-19.7,4l-.24-.1c-.53-.24-13-5.72-19,4.18a37.15,37.15,0,0,1-19.39,15.47c-.68,4.4-2.47,5.47-6.26,7.35a73.52,73.52,0,0,0-9,5.22A11.45,11.45,0,0,1,78.81,163.64Z"/><path class="cls-7" d="M178.6,128.9a21.51,21.51,0,0,1-5.12-.54l.64-2.42a38.74,38.74,0,0,0,15.61-5.12c6.8-4.1,11.77-13,14.56-24.49l5-.47c-3.12,12.89-9,24.51-17,29.3A26.52,26.52,0,0,1,178.6,128.9Z"/></g></g></svg>