<svg xmlns="http://www.w3.org/2000/svg" viewBox="0 0 238.03 220.96"><defs><style>.cls-1{fill:#25642b;}.cls-2,.cls-5{fill:none;stroke-miterlimit:10;}.cls-2{stroke:#25642b;stroke-width:7.05px;}.cls-3{fill:#142e19;}.cls-4{fill:#10401b;}.cls-5{stroke:#184b23;stroke-width:2.64px;}.cls-6{fill:#b53821;}.cls-7{fill:#d4e8c4;}.cls-8{fill:#430000;}.cls-9{fill:#812511;}</style></defs><g id="レイヤー_2" data-name="レイヤー 2"><g id="スイカ"><path class="cls-1" d="M113.66,45.93S59.48,37.55,39,57.61s-39.39,35-36.91,64,22.82,62.22,41.67,71.66,71.39,19.86,113.08-14.86,18.38-81.85,16.39-86.82S152.35,50.39,113.66,45.93Z"/><path class="cls-2" d="M105.22,52S82.9,43,88.36,27.57s23.31-9,25.79-5.5.81,15.11-6.05,12.79S92.81,17.42,117.82,7.73c12.79-5,17.17-2,17.17-2"/><path class="cls-3" d="M89.86,44.2s3,18.92-21.18,25.54S45.86,98,49.17,111.34s-29.44,20.24-18.85,40.08,26.05,14.65,16.86,26.46,9.49,20.22,9.49,20.22-12.46-10-2.87-16.25,2-27.12-9.59-31.09-17.53-13.23,5.29-20.17,15.41-24.86,11.67-32.28S49.05,77.41,85.88,72.87C111.24,69.74,89.86,44.2,89.86,44.2Z"/><path class="cls-3" d="M67.69,52c-7-3.4-48.56,20.47-43.66,39.24,4.47,17.11,3.31,24.13-5.62,32.07S3.48,136.49,8.24,147.21c0,0,4.55-16.29,14.14-19.27S43.78,102,34.61,92.23,47.94,58.88,67.69,52Z"/><path class="cls-3" d="M100.2,49.41s15.12,22.31-1.92,38.85-20,19.18-6.64,37S93.75,147.12,87.5,159s-10.29,9.59,0,21.83S94,202.42,94,202.42a66.19,66.19,0,0,0,9.79-1s2.11-26.64-9.79-30.14,11.15-10.59,17.2-20.51-5.66-34.06-15-36.38-4.59-16.31,15-20.72S107.35,51.76,100.2,49.41Z"/><path class="cls-3" d="M114.77,47.65S150.91,67,146,85.5s-28.59,10.92-13.8,29.77,23.06,6.78,15.79,30.18-21,23.62-8.53,44.67c0,0,8.46-5.13,11.83-7.42,0,0-19.84-14.52,1.33-26.42s6-41.34-9.93-41.34-11.57-13.67,11.58-23S130,45.77,114.77,47.65Z"/><path class="cls-4" d="M90.14,204.33a145.18,145.18,0,0,1-33-3.81l-.44-.1C37.92,195.89,23.1,183,12.67,162-2.47,131.64-.61,118,1.19,104.79c.1-.74.2-1.47.29-2.21,2.09-15.8,25.24-38.15,38.6-48.86C52.28,43.92,74.52,42.24,84.67,42a15.79,15.79,0,0,1-2.13-14.25c3.21-10,11.06-16.41,18.3-15.23a57,57,0,0,1,10.39-7.4c9-5,18-6.37,25.89-4l2.65.81-4.88,8.42-1.49-.24a29.37,29.37,0,0,0-19.84,5.23c4.84,2,6.27,5.89,6.27,8.22,0,.84,0,1.68.08,2.57.25,5,.59,11.9-9.27,14l-.22,0h-.28c-4.1,0-13.91-4.19-13.79-15.78L99,20.63c-.46,15.43,9.63,16.56,10.91,16.61,5.94-1.33,6.88-5.71,6.64-10.72a12.71,12.71,0,0,0-.44-3c-1.2-3.78-5.54-6.56-5.61-6.57L107,16h0c9.52-9.31,21.47-10.69,25.59-10.4l.54-.92C117.7,2.11,104,15.61,103.82,15.77h0c-8.43-.76-15.56,3.51-18.5,12.65a14.51,14.51,0,0,0,3.41,14.41l4.21,3.67-3.16-.1c-.32,0-32.41-.91-46.95,10.75-16.65,13.36-35.32,33.46-37,46l-.3,2.22c-1.79,13.12-3.47,25.51,11.07,54.7,9.82,19.71,23.66,31.85,41.13,36l.46.12c7.53,1.84,46.65,10.18,77.23-6.6,32.08-17.59,40.37-33.78,43.36-54.21,3.07-21-9.07-54.45-24.05-66.25-2-1.57-3.76-3-5.47-4.44C137.4,55,130.85,49.58,98.07,46.39l-.64-.07-.51-.4c-.34-.26-8.21-6.57-8-14.79.14-4.71,4.29-8.83,10-10.5h0c-2.6,4.33-5.5,7.39-5.6,10.62-.16,5,4.35,9.5,5.83,10.82,33.53,3.34,40.84,9.36,52.89,19.28,1.69,1.4,3.45,2.84,5.39,4.38,16.28,12.82,29,47.67,25.68,70.35-3.09,21.16-12,39-45.59,57.43C122.21,201.94,104.87,204.33,90.14,204.33Z"/><path class="cls-5" d="M104.64,20.46s-2.48,5.37.5,8.85,6.12,4.3,6.86-.5S110.33,20.3,104.64,20.46Z"/><path class="cls-6" d="M80.94,175.09s33.28-14,40.18-18.53,44.91-18.21,54-19.08,31.73-5.91,37.94-7.59c0,0,8.94,11,.94,26.56s-39.67,66.49-88.93,57-56.72-26.66-56.72-26.66Z"/><path class="cls-7" d="M72.43,179.93l8.51-4.84s11.47,9.84,14.42,12.58,14.82,7.74,23.65,7.43,48.93-2.95,67.49-18.26,26.5-40.68,26.56-47l7.9-2.15s10.18,21.89,1.17,33.12-54.7,49-74.06,49.74S76.05,196.91,72.9,193l-7.14-9.85Z"/><path class="cls-8" d="M163.52,151.92a6.79,6.79,0,0,1,.13,4.84,5.47,5.47,0,0,1-4-7.68A6.76,6.76,0,0,1,163.52,151.92Z"/><path class="cls-8" d="M191.59,150.58a6.77,6.77,0,0,1,2.44,4.17A5.47,5.47,0,0,1,186.8,150,6.72,6.72,0,0,1,191.59,150.58Z"/><path class="cls-8" d="M150.25,170.1a6.84,6.84,0,0,1-1.37,4.64,5.47,5.47,0,0,1-1.48-8.55A6.8,6.8,0,0,1,150.25,170.1Z"/><path class="cls-8" d="M126.47,167.18a6.76,6.76,0,0,1-2.5,4.14,5.47,5.47,0,0,1,.74-8.64A6.82,6.82,0,0,1,126.47,167.18Z"/><path class="cls-8" d="M112.6,179.72a6.8,6.8,0,0,1-2.5,4.15,5.48,5.48,0,0,1,.74-8.65A6.82,6.82,0,0,1,112.6,179.72Z"/><path class="cls-1" d="M72.43,179.93,58.55,186.7s18.37,27.57,51.54,30.39,56.67,6,89.66-20.3,37.67-63.33,36.18-73.2l-15,4.15s-1.37,33.45-27.48,52.83-54.1,26.09-84.52,20.59C77.32,195.44,72.43,179.93,72.43,179.93Z"/><path class="cls-4" d="M145.78,220.9c-10.48.37-23.26-1-38.15-2.53l-5.78-.6c-25.29-2.61-44.07-28.86-44.85-30l-1.09-1.53,2.64-1.48c2.23-1,12.34-6.19,21.46-11.34l2.48,3c-11.58,6.54-17.94,9.83-20.9,11.15A95.58,95.58,0,0,0,72.36,199c6.88,6.15,17.65,13.75,29.88,15l5.78.61c21.67,2.27,38.79,4.06,50.25.75A141.86,141.86,0,0,0,188.67,202c14.64-8.63,25-18.52,30.63-29.38C232,148.29,234.67,136.89,234.18,126l-21.3,5.79-.33-3.77,25.08-6.9.19,2.28c1,12-1.17,24.21-15.16,50.94-12.8,24.48-45.84,39.56-63.33,44.62A56.68,56.68,0,0,1,145.78,220.9ZM58.37,184.83Z"/><path class="cls-9" d="M82.49,176.42l-2.48-3c.3-.12,32.61-13.41,40.73-18.87,8.47-5.69,45.84-18.34,56.32-19.06,9.73-.66,35.26-7.39,35.49-7.45l.33,3.77c-1,.26-25.47,6.78-35.56,7.47-9.86.68-46.51,13.07-54.46,18.42C114.42,163.4,83.74,175.91,82.49,176.42Z"/></g></g></svg>