<svg xmlns="http://www.w3.org/2000/svg" xmlns:xlink="http://www.w3.org/1999/xlink" viewBox="0 0 263.3 214.73"><defs><style>.cls-1{fill:none;}.cls-2{clip-path:url(#clip-path);}.cls-3{fill:#0e5d21;}.cls-4{fill:#00400c;}.cls-5{fill:#2c9445;}.cls-6{fill:#dbcfaa;}.cls-7{fill:#97a435;}.cls-8{fill:#7ecc91;}.cls-9{fill:#002607;}.cls-10{fill:#0c4f1c;}.cls-11{fill:#6c7526;}.cls-12{fill:#ada487;}</style><clipPath id="clip-path" transform="translate(46.97)"><path class="cls-1" d="M200.8,37.34S190.14-2.08,148.73,23.82s-18.57,45.05-43.51,56.32-81,24.77-96.34,56.31,0,46.17,0,46.17,27.2,29.29,64,12.39S185,95.9,192.92,77.88,201.93,55.36,200.8,37.34Z"/></clipPath></defs><g id="レイヤー_2" data-name="レイヤー 2"><g id="ズッキ塗り"><g class="cls-2"><path class="cls-3" d="M200.8,37.34S190.14-2.08,148.73,23.82s-18.57,45.05-43.51,56.32-81,24.77-96.34,56.31,0,46.17,0,46.17,27.2,29.29,64,12.39S185,95.9,192.92,77.88,201.93,55.36,200.8,37.34Z" transform="translate(46.97)"/><path class="cls-4" d="M193.67,24.23s39.23-3.22,14.45,52S97.19,215.85,57.77,214.72s-23.35-16.78-23.35-16.78,83-45.9,105.57-78.47S182.59,60.68,193.67,24.23Z" transform="translate(46.97)"/><path class="cls-5" d="M189.54,11.44s-43.45,22.52-53,51.8-76,55-82.73,56.23S4.39,151.65,2.08,187.13s-49-51.81-49-51.81L138.86,1.86Z" transform="translate(46.97)"/></g><path class="cls-6" d="M18.35,178.12,5.4,188.25s2.82,6.2,9,7.33l10.14-11.27S27.82,173.61,18.35,178.12Z" transform="translate(46.97)"/><path class="cls-7" d="M169.66,15.34s10.87-12.91,16.5-13.48,5.07,6.74,5.07,6.74,6.37-5.68,9.94,0c0,0,8.9-4.82,6.39,6.42,0,0,6.76-5.26,6.76,3.75s-13.15,25.9-13.15,25.9S195.4,11.93,169.66,15.34Z" transform="translate(46.97)"/><path class="cls-8" d="M48.53,122S23,140.44,15.25,153.77C15.25,153.77,26.9,125.55,48.53,122Z" transform="translate(46.97)"/><path class="cls-8" d="M150.19,41.3s-8.35,12.13-13.63,21.94C136.56,63.24,135.06,50.32,150.19,41.3Z" transform="translate(46.97)"/></g><g id="ズッキ線"><path class="cls-9" d="M46.9,202.6c-19.13,0-28.93-10-29.49-10.59l2.9-2.76c.7.73,17.68,17.81,51.76,3.91C110.53,177.47,177.45,96,185,86.81c16.57-20.39,16.18-40.36,16.18-42.33l2-.06c.11.93,2.59,23.14-15.1,44.91C180.49,98.65,113,180.8,73.58,196.86,63.26,201.07,54.37,202.6,46.9,202.6Z" transform="translate(46.97)"/><path class="cls-10" d="M9.08,185.6c-16.46-17.58-7.84-44,4.54-61.3,11.07-15.46,60.12-34.61,83.69-43.81,5.79-2.26,10.36-4,11.88-4.82,5.63-2.86,8.7-13.74,9.41-17.69l.12-.42c14.76-35.68,49.05-43.84,50.5-44.17l.44,2.2c-.33.08-33.17,9.76-47.16,43.31-.39,2-3.39,16.22-11.5,20.34-1.69.85-5.89,2.49-12.24,5-23.21,9.06-71.5,27.92-81.89,42.42C5.37,142.69-2.8,167.06,12,182.87Z" transform="translate(46.97)"/><path class="cls-11" d="M203.16,44.42l-2,.06c.1-.12,9.77-16.31,11-23.95.27-1.69.1-2.9-.48-3.4-.83-.72-2.75-.45-3.51-.21l-3.9,1.21,1.44-3.83c.47-1.29.82-3.54.21-4.24-.28-.31-1.2-.51-3-.09l-1,.23-.78-.67c-.4-.34-4.21-3.3-8.63.58l-4,3.47.65-5.23c.09-.72.1-3-1-3.9-.76-.65-2.14-.48-3.23-.19-4.44,2.42-14.9,9.65-15.39,11.33l-.44-2.2c2.83-4,11.61-11.4,14.14-12.76l.39-.16c3-.86,5.41-.54,7.14,1A6.81,6.81,0,0,1,193,5.07a10.25,10.25,0,0,1,10,.81c2.65-.44,4.64.08,5.93,1.54a6.71,6.71,0,0,1,1.25,5.25,6.39,6.39,0,0,1,4.13,1.44c1.71,1.49,2.32,3.86,1.8,7.05C214.68,29.9,203.59,43.9,203.16,44.42Z" transform="translate(46.97)"/><path class="cls-12" d="M14,197.6c-4.36,0-8.94-6.23-10.3-8.22l-1-1.55,4.6-4.29,1.78,2.06L6,188.4c1.84,2.34,5.3,5.77,6.62,6.19L17.41,192l2.4,2.09-4.39,3.34-.71.11A3.71,3.71,0,0,1,14,197.6Z" transform="translate(46.97)"/></g></g></svg>