<svg xmlns="http://www.w3.org/2000/svg" viewBox="0 0 232.97 242.54"><defs><style>.cls-1{fill:#5c9424;}.cls-2{fill:#47731c;}.cls-3{fill:#4c7a1e;}.cls-4{fill:#548721;}.cls-5{fill:#528520;}.cls-6{fill:#4e7d1e;}.cls-7{fill:#6db02b;}.cls-8{fill:#46701b;}.cls-9{fill:#6fb32c;}.cls-10{fill:#d3ed9f;}.cls-11{fill:#aac476;}</style></defs><g id="レイヤー_2" data-name="レイヤー 2"><g id="セロ塗り"><path class="cls-1" d="M119.57,68.06s-5.87-5.33-.06-20.59l5.81-15.26,2,13.7a28.71,28.71,0,0,1,5.5-14.27l1.42,7.83s2.44-9,9.68-11.72c0,0,.44,11.52-3,13.23l9.54,2.14-7.57,7.3,5.65,1.27s-8.2,26.5-29,16.37"/><path class="cls-1" d="M152.18,83.49s-5.87-5.33-.06-20.59l5.81-15.26,2,13.7a28.66,28.66,0,0,1,5.49-14.27l1.42,7.83s2.44-9,9.68-11.72c0,0,.44,11.53-3,13.23l9.55,2.15-7.58,7.29,5.65,1.27s-8.2,26.5-29,16.37"/><path class="cls-1" d="M152.54,84.18s-3.6-7.07,7.24-19.28l10.84-12.21-3,13.52a28.73,28.73,0,0,1,10.2-11.4l-1.45,7.83s5.47-7.58,13.2-7.53c0,0-3.67,10.93-7.47,11.32l8.17,5.39L180.64,76l4.83,3.19s-17.06,21.87-32.93,5"/><path class="cls-1" d="M139,74.31S133.14,69,139,53.72l5.81-15.26,2,13.7a28.59,28.59,0,0,1,5.5-14.27l1.42,7.83s2.43-9,9.68-11.72c0,0,.44,11.52-3,13.23l9.55,2.14-7.57,7.3L168,57.94s-8.2,26.5-29,16.37"/><path class="cls-1" d="M156.64,119.4s-1.79-7.73,11.68-17l13.47-9.23-6.15,12.4A28.67,28.67,0,0,1,188.29,97l-3.3,7.25s7.15-6,14.63-4.12c0,0-6.2,9.72-10,9.18l6.62,7.2-10.38,1.68,3.92,4.26S168,139.58,156.64,119.4"/><path class="cls-1" d="M156.64,119.4s-1.79-7.73,11.68-17l13.47-9.23-6.15,12.4A28.67,28.67,0,0,1,188.29,97l-3.3,7.25s7.15-6,14.63-4.12c0,0-6.2,9.72-10,9.18l6.62,7.2-10.38,1.68,3.92,4.26S168,139.58,156.64,119.4"/><path class="cls-1" d="M160.82,97.1s-1.79-7.73,11.68-17L186,70.91l-6.14,12.41a28.6,28.6,0,0,1,12.65-8.6L189.17,82s7.14-6,14.63-4.11c0,0-6.2,9.72-10,9.17l6.62,7.21-10.38,1.68,3.92,4.26s-21.83,17.11-33.16-3.07"/><path class="cls-2" d="M154.84,116.55s-5.22-6,2.32-20.46l7.53-14.49.42,13.84a28.55,28.55,0,0,1,7.11-13.54l.5,7.94s3.46-8.68,11-10.52c0,0-.9,11.49-4.48,12.79l9.23,3.23-8.36,6.38,5.46,1.91s-11.2,25.38-30.7,12.92"/><path class="cls-3" d="M116.61,75.66s-1.41-7.81,12.5-16.37L143,50.73l-6.75,12.09a28.72,28.72,0,0,1,13.06-8l-3.65,7.08s7.43-5.68,14.82-3.4c0,0-6.67,9.4-10.42,8.68l6.26,7.52L145.88,75.9l3.71,4.44s-22.65,16-33-4.68"/><path class="cls-1" d="M108.62,78.22s-7.93.31-14.47-14.65l-6.54-15,11,8.37a28.66,28.66,0,0,1-6.08-14l6.5,4.6s-4.58-8.15-1.3-15.15c0,0,8.39,7.92,7.14,11.53l8.32-5.16-.29,10.51,4.92-3.05s12.72,24.65-9.23,32"/><path class="cls-4" d="M111.52,88.35S104.46,92,92.25,81.12L80,70.28l13.52,3a28.66,28.66,0,0,1-11.4-10.19L90,64.5S82.4,59,82.44,51.3c0,0,10.93,3.67,11.32,7.47l5.39-8.18,4.14,9.67,3.19-4.83s21.88,17,5,32.92"/><path class="cls-1" d="M148.64,53.06s-6.42-4.65-2.32-20.46l4.1-15.8,3.5,13.39a28.7,28.7,0,0,1,3.9-14.79L160.09,23s1.43-9.24,8.34-12.71c0,0,1.7,11.4-1.51,13.47l9.73,1.08L169.92,33l5.75.64s-5.24,27.24-27,19.45"/><path class="cls-5" d="M137.39,44.77s-6.42-4.65-2.31-20.46l4.1-15.8,3.5,13.39a28.7,28.7,0,0,1,3.9-14.79l2.27,7.63S150.28,5.51,157.18,2c0,0,1.7,11.41-1.5,13.48l9.72,1.08-6.72,8.09,5.75.64s-5.24,27.24-27,19.45"/><path class="cls-6" d="M166.27,48.63S159.85,44,164,28.17l4.11-15.8,3.5,13.39A28.7,28.7,0,0,1,175.46,11l2.27,7.63s1.43-9.23,8.33-12.7c0,0,1.7,11.4-1.5,13.47l9.72,1.08-6.72,8.09,5.75.64s-5.24,27.24-27,19.45"/><path class="cls-7" d="M178.57,45.89s-4.83-6.29,3.62-20.27l8.45-14-.47,13.83a28.62,28.62,0,0,1,8-13.06v8s4-8.44,11.62-9.8c0,0-1.63,11.42-5.29,12.49l9,3.82-8.75,5.82L210,35s-12.8,24.61-31.46,10.92"/><path class="cls-1" d="M188.24,57.19S186.47,49.46,200,40.26l13.49-9.2-6.17,12.39a28.63,28.63,0,0,1,12.67-8.57l-3.32,7.23s7.16-6,14.64-4.08c0,0-6.22,9.7-10,9.15l6.61,7.22-10.38,1.66,3.91,4.27s-21.87,17.06-33.16-3.14"/><path class="cls-1" d="M161,65.41S158.06,58,170,46.93l12-11.1L177.74,49A28.66,28.66,0,0,1,189,38.64l-2.21,7.65s6.19-7,13.88-6.21c0,0-4.72,10.52-8.53,10.54l7.6,6.16-10,3.18,4.5,3.64S175.11,83.72,161,65.41"/><path class="cls-8" d="M161,65.41S158.06,58,170,46.93l12-11.1L177.74,49A28.66,28.66,0,0,1,189,38.64l-2.21,7.65s6.19-7,13.88-6.21c0,0-4.72,10.52-8.53,10.54l7.6,6.16-10,3.18,4.5,3.64S175.11,83.72,161,65.41"/><path class="cls-7" d="M130.8,61.54s-2.9-7.38,9.08-18.48l12-11.1-4.27,13.17a28.59,28.59,0,0,1,11.25-10.36l-2.2,7.65s6.19-7,13.87-6.21c0,0-4.71,10.52-8.53,10.54l7.61,6.16-10,3.18,4.5,3.64S145,79.85,130.8,61.54"/><path class="cls-1" d="M175.92,79.64s-2-7.67,11.21-17.27l13.21-9.6-5.81,12.57a28.67,28.67,0,0,1,12.41-8.94l-3.1,7.33s7-6.22,14.52-4.52c0,0-5.94,9.89-9.73,9.45l6.82,7-10.33,2,4,4.15s-21.36,17.7-33.24-2.16"/><path class="cls-7" d="M172.8,82.49s1.5-7.79,17.55-10.77l16.06-3-10.65,8.84a28.64,28.64,0,0,1,15.05-2.73l-5.95,5.29s9-2.62,15,2.16c0,0-9.61,6.38-12.84,4.35l3.14,9.27L200,93.25l1.86,5.48s-26.9,6.8-29.08-16.24"/><path class="cls-9" d="M118.33,55.91s-7.7-1.9-9.82-18.09l-2.12-16.19,8.27,11.1a28.64,28.64,0,0,1-1.93-15.17l5,6.22s-2.13-9.1,3-14.91c0,0,5.86,9.94,3.66,13.06l9.42-2.64-3.2,10,5.57-1.56S141.45,55,118.33,55.91"/><path class="cls-5" d="M179.22,97.24s-1.79-7.73,11.67-17l13.47-9.23-6.15,12.41a28.67,28.67,0,0,1,12.65-8.6l-3.29,7.24s7.14-6,14.63-4.12c0,0-6.2,9.72-10,9.18l6.62,7.2-10.38,1.69,3.92,4.26s-21.83,17.11-33.16-3.07"/><path class="cls-1" d="M199.15,60.76s-3-3.68-.85-6.51S201.8,60.46,199.15,60.76Z"/><path class="cls-1" d="M195.33,66.7s-4.78-1.91-1.05-4.92S195.33,66.7,195.33,66.7Z"/><polygon class="cls-8" points="188.16 61.62 188.44 56.5 191.91 58.9 188.16 61.62"/><path class="cls-10" d="M118.8,117s-14.08-5.83-29.32,17.22-32.37,38.82-36.61,42S10,196.12,2.46,223.57c0,0,29.79,20.8,44.13,16.19s31.27-43.24,31.27-43.24,53.32-65.35,52.51-67.13S132.12,121.84,118.8,117Z"/><path class="cls-10" d="M155.07,77c-1.69,8.63-39.27,40.73-39.27,40.73l11.12,7.23s28.43-40.83,32.94-45Z"/><path class="cls-10" d="M107.21,119.5s-6.48-20.77-6.48-24.85,22-31.39,23.37-33.65l5.07,3.38s-17.74,25.06-18.58,28.44,5.66,24.06,10,26.87"/><path class="cls-10" d="M127.76,131.78s27.59-13.8,38.58-14.27l-2.33-5s-26.62,10.8-41.71,8.38Z"/><path class="cls-10" d="M110.36,123.91S131.93,90.55,132,71.54l4.23,1.29c1.11.3-15,54-13.91,54.78C124,128.78,110.36,123.91,110.36,123.91Z"/></g><g id="セロ線"><path class="cls-2" d="M171.93,130.67a18.83,18.83,0,0,1-5.23-.73,19,19,0,0,1-11.44-10l2.93-.84h0a15.59,15.59,0,0,0,9.39,7.92c5.57,1.61,12.27,0,19.93-4.89l-4.61-5,10.38-1.68-6.16-6.71,1.93-.84a32.08,32.08,0,0,0,3.95-2l.39-.38.52,0c.11,0,10.12-.77,16.3-5.42L205.47,95l10-1.62-6.17-7.33,2.67-.38s3.23-.67,7.5-6.44a12.84,12.84,0,0,0-6.92,1.5l-.36.22-4.65,1.14,1.52-7.37,3.37,0L205.86,68l2.32-.73a12.26,12.26,0,0,0,5.41-3.87l.24-.33.37-.16a35.18,35.18,0,0,0,5.08-2.63L214.5,55l10.39-1.66-6.5-7.09,2.56-.55s3.55-.92,7.56-6.33c-1.82-.13-5.36.38-11.09,4l-4.26,2.69,3.76-8.21c-2.81,1.41-7.76,4-10.41,6.37h0l2.75-8.51-2.52-.09-4.87-2.84,8.44-5.61-8.47-3.59L203.38,22c.76-.79,2.87-3.25,3.4-5.21a12.3,12.3,0,0,0,.38-2.48q0-.53.09-1.05a18.49,18.49,0,0,0-7.79,7.79l-2.84,5.57V16c-1.7,1.82-6.48,8.45-6.45,9.11h0l-1.24-7.73-4.72,7.81.16-5.69c.09-3.13.2-7.63.26-10.4-1.54,1.3-3.77,4.08-5.47,10l-1.42,4.91-2.61-8.78a25.29,25.29,0,0,0-2.08,10.53l.8,14.41-3.75-13.94c-.47-1.75-2.45-9.23-3-13.54-1.34.76-2.93,2-3.05,3.77l-.11,1.56-10.79-1.21,1.28-2a16.42,16.42,0,0,0,1.75-10.27c-1.82,1.41-4.67,4.51-5.84,10.6l-1.16,6-2.84-9.56c-1.12,2.92-3.55,8.23-3.32,11.5h0l-3.79-8.45-3.75,14.93-6.8,1.91,1.7-10.15-7.72,2.93.17-2.35a21.72,21.72,0,0,0-2.22-10,19.83,19.83,0,0,0-1.42,11.79l.83,5.53-5.11-6.41,2,15.53-8.26-11.09c.74,5.67,1.68,12.68,2,13.85L110.8,42l-7.08,4.4-.3-2.31a19.6,19.6,0,0,0-4.71-9.17c-.8,2.14-1.47,6.29,1.66,11.86l3.26,5.8-8.84-6.25c.78,3.18,1.84,6.07,2.77,6.7l-1.64,2.51-5-3.11,3.07,7-4.29-2.9a42.36,42.36,0,0,0-5.52-3.16,16.41,16.41,0,0,0,6.68,9.9l5.3,3.88L85.91,65.28c2.57,2.92,5.64,7.45,7.66,8h0c-.07,0,.08,0,0,0L85.33,73l5.82,5.16c5.63,4,12.51,8.59,13.64,8.93l-1.42,2.46c-1.91-.46-10.36-6.39-14-9l-.12-.1L74.73,67.59l11.63,2.55A60.34,60.34,0,0,1,81,64l-2.32-3.08,6.59,1.22a17.65,17.65,0,0,1-4.28-10.83l0-1.56,1.56.1a13.76,13.76,0,0,1,4.73,1.76l-3-6.79L92.71,50a47.48,47.48,0,0,1-1.63-6.84l-.56-3.52,5.15,3.64c-2-7.13,1.3-11.59,1.47-11.81l1-1.34,1.22,1.15a24,24,0,0,1,6.5,10.25l1.57-1c-.69-4.19-2.33-17.14-2.54-18.77l-.71-5.66,8.26,11.1-1.88-14.81,5.33,6.69c.2-7.29,3.47-11.07,3.63-11.25l1.3-1.46,1.08,1.63a24.59,24.59,0,0,1,3.87,11.72l8.4-3.19L132.4,27.22l.58-.16,6.17-24.6,3.08,11.8a49.76,49.76,0,0,1,3-7.82l1.7-3.38,1.91,6.43c2.81-6.73,7.52-8.74,7.76-8.84L158.19,0l.44,1.64A19.84,19.84,0,0,1,158,14.25l3.39.38c1.34-4,6.38-5.65,6.62-5.73l2.22-.73-.26,2.32a35.45,35.45,0,0,0,1.18,7.15,34.23,34.23,0,0,1,3.07-7.43l1.74-3,2,6.53c3.31-7.64,7.48-8.62,8-8.72l1.55-.28.2,1.56c.06.42,0,3.71-.1,7.55l4.8-7.94L192,17a31,31,0,0,1,5.18-5.69l2.49-2.19v6.4a21.88,21.88,0,0,1,9.71-6.37l3.61-1L211,11.35a6.15,6.15,0,0,0-.88,3.2,14.4,14.4,0,0,1-.47,3.05,14.94,14.94,0,0,1-2.75,4.89l9.68,4.1-9.07,6,.51.3L216.7,27l-4.87,10.29a43.44,43.44,0,0,1,7.58-3.84l3.4-1.26-2.92,6.36c8-3.82,11.5-1.58,11.93-1.27l1.15.84-.77,1.19c-3.19,4.93-6.36,7.3-8.4,8.4l7.06,7.71L220.48,57.1l2.77,3-.55.95c-.91,1.59-4.92,3.5-6.95,4.39a14.68,14.68,0,0,1-4.54,3.69l6.89,7.09a21.56,21.56,0,0,1,4.37.26l2.2.41-1.21,1.88c-3.54,5.47-6.71,7.91-8.75,9l6.5,7.71-9.76,1.58,3.05,3.32-1.1,1c-6.13,5.64-16.53,6.91-18.83,7.13a24.18,24.18,0,0,1-2.42,1.29l7.11,7.73-10.38,1.68,3.21,3.49-1.44,1C183.8,128.34,177.53,130.67,171.93,130.67Z"/><path class="cls-2" d="M128.88,87.52c-4.86-.25-10.34-6.07-11-6.77l1.77-2.63c1.54,1.66,6.87,6.31,10,6.48Z"/><path class="cls-2" d="M153,116.47c-.21-.5-4.87-12,5.24-26.34a42.49,42.49,0,0,1-4.52-2.75L155.57,85c.42.35,3.33,2,5.64,3.29l1.53.84-1.06,1.39c-10.35,13.5-6.08,24.3-5.89,24.75Z"/><path class="cls-2" d="M134.31,87.91a7.59,7.59,0,0,1-1.65,0l.76-3c5.85.94,11.22-3.38,13.66-5.28l-3.56-4.55h7.86L151,76.84a4.63,4.63,0,0,0,1.51,4.86l-1.64,2.51a7,7,0,0,1-2-2.23C146.4,83.93,140.54,87.91,134.31,87.91Z"/><path class="cls-11" d="M40.93,242.54c-16.47,0-38.67-16.62-39.67-17.38L0,224.21l.63-1.45c14.67-33.58,47-46.7,51.17-48.29,3.05-2.9,28.72-27.48,33.13-37,4.27-9.25,15.68-17.62,19.51-20.24-1-3.61-3.5-13.22-4.78-17.07-2-6,.89-11.86.9-12.05l2.81,1.43a26.44,26.44,0,0,0,.17,9.63c1.2,4.74,5.11,18.22,5.15,18.36l.42,1.44-1.26.8c-.15.1-14.72,9.49-19.29,19.38-5,10.78-33.12,37.39-34.31,38.52l-.31.29-.39.14c-.34.12-33.6,12.33-48.6,44.81,5.29,3.76,25.67,17.46,38.66,15.44l.28,0,.28,0c.08,0,14,.43,31.84-42.57l.11-.26.17-.22,52.13-66.1L155.26,120l2,3.27-26.37,9.27-51.28,65C61.56,241,46.78,242.46,44,242.33A21.83,21.83,0,0,1,40.93,242.54Z"/><path class="cls-11" d="M129.17,123.56l-1.15-.22c-1.15-.8-1-1.71-.45-2.76l0,0a1.26,1.26,0,0,1,.21-.26c.22-.36.49-.74.76-1.14l25.24-31.77,1.33.9c-.17.25-14.61,20.68-20.9,29.73,3.13-.89,10.92-2.88,18-4.76l.87,3.22c-8.23,2.2-20.4,6.09-22.54,6.83Z"/><polygon class="cls-11" points="121.68 116.75 132.66 87.9 134.31 87.91 130.2 102.7 149.56 82.93 150.9 84.21 121.68 116.75"/><polygon class="cls-11" points="116.83 116.75 108.44 92.52 117.89 80.75 120.04 82.85 112.73 93.12 116.85 108.81 125.44 86.57 128.88 87.52 116.83 116.75"/></g></g></svg>