<svg xmlns="http://www.w3.org/2000/svg" xmlns:xlink="http://www.w3.org/1999/xlink" viewBox="0 0 282.46 199.13"><defs><style>.cls-1,.cls-12{fill:none;}.cls-2{fill:#ffe85d;}.cls-3{fill:#eed75d;}.cls-4{fill:#fee2a3;}.cls-5{fill:#f8ba69;}.cls-6{fill:#fff9ac;}.cls-7{fill:#e7ca5a;}.cls-8{fill:#fff684;}.cls-9{clip-path:url(#clip-path);}.cls-10{fill:#ad7f52;}.cls-11{fill:#c69b72;}.cls-12{stroke:#d3b75f;stroke-miterlimit:10;stroke-width:5px;}</style><clipPath id="clip-path"><path class="cls-1" d="M227.83,19.57a30.59,30.59,0,0,0-31.25-5.92C178,20.41,128.16,50,114.65,64.33s-19.43,27-22,39.7c0,0-11,10.14-11.82,24.5S87.62,152.18,91,153.87s7.6,17.74,40.54,16c0,0,22.81,3.63,36.32.12s65-46.58,75.18-55.87,21.11-22.81,23.65-33.79-.4-16.89-8.65-22.8C258,57.58,265.8,22.68,227.83,19.57Z"/></clipPath></defs><g id="レイヤー_2" data-name="レイヤー 2"><g id="瓜塗り"><path class="cls-2" d="M187.29,30.55s-22-25.34-49-27.88S29.83,26.73,29.83,26.73l16.4,123.76s41.57.09,83.81-26.09S187.29,30.55,187.29,30.55Z"/><path class="cls-2" d="M80.7,82.89c4.49,34.53-8.44,64.67-28.88,67.33S7,126.39,2.5,91.87s12.64-64,33.07-66.68S76.22,48.37,80.7,82.89Z"/><path class="cls-3" d="M70.57,66.32S75,89.7,73,107.13h0s16.89-2.25,29.65-6.38,97.24-64.2,97.24-64.2L182.33,25.49S122.76,59.19,70.57,66.32Z"/><ellipse class="cls-4" cx="35.91" cy="90.03" rx="25.71" ry="51.32" transform="translate(-11.3 5.38) rotate(-7.4)"/><path class="cls-5" d="M28,57.94s-15,25-12.53,31.79,11.22,36.45,20.4,35.63,12.08-23.83,14.55-29.79S39.67,63.94,38.29,61.84,37.3,56.85,28,57.94Z"/><ellipse class="cls-6" cx="34.91" cy="71.18" rx="3.2" ry="4.96" transform="translate(-24.31 18.47) rotate(-22.2)"/><ellipse class="cls-6" cx="44.3" cy="91.62" rx="1.96" ry="4.96" transform="translate(-31.34 23.53) rotate(-22.2)"/><ellipse class="cls-6" cx="21.54" cy="87.54" rx="4.56" ry="2.47" transform="translate(-67.54 101.39) rotate(-85.01)"/><ellipse class="cls-6" cx="32.95" cy="90.1" rx="2.47" ry="4.56" transform="translate(-11.33 5) rotate(-7.4)"/><ellipse class="cls-6" cx="35.91" cy="105.95" rx="3.68" ry="2.47" transform="translate(-72.76 132.51) rotate(-85.01)"/><path class="cls-7" d="M73,107.13s1.61,32.49-21.16,43.09c0,0,27.45-3.44,48.52-11.16s99.53-77.73,99.53-77.73l-20.3-6S101.88,106,73,107.13Z"/><path class="cls-8" d="M29.83,26.73s11.24-1.82,18.74,9.82c0,0,59.82-24.33,109.88-27.93,0,0-12.27-6.59-30.29-5.85S49,20.28,29.83,26.73Z"/><path class="cls-2" d="M227.83,19.57a30.59,30.59,0,0,0-31.25-5.92C178,20.41,128.16,50,114.65,64.33s-19.43,27-22,39.7c0,0-11,10.14-11.82,24.5S87.62,152.18,91,153.87s7.6,17.74,40.54,16c0,0,22.81,3.63,36.32.12s65-46.58,75.18-55.87,21.11-22.81,23.65-33.79-.4-16.89-8.65-22.8C258,57.58,265.8,22.68,227.83,19.57Z"/><path class="cls-8" d="M227.83,19.57s-76.39,56-89.16,75.55S130,126.4,130,126.4h0S104.51,62.83,174.18,25.49"/><path class="cls-8" d="M174.18,25.49s34.32-26.67,53.65-5.92"/><g class="cls-9"><path class="cls-7" d="M244.73,154.43l37.73-74.89-7.89-22H258s3,20.22-8.81,34-81.65,73.51-81.65,73.51S132.67,186,124.22,150.49c0,0,0,29.85-23.65,47.87C90.5,206,244.73,154.43,244.73,154.43Z"/></g><path class="cls-10" d="M116.9,125.46s-.56,7.88-3.94,10.14c0,0,4.5,9.57,3.94,11.26s6.76-1.13,12.95,0c0,0,2.25-7.32,5.63-7.88,0,0-5.82-7.7-5.44-12.58C130,126.4,124.22,130.53,116.9,125.46Z"/><polygon class="cls-11" points="121.4 131.34 118.59 136.44 120 141.48 127.6 141.48 129.85 136.44 127.03 131.34 121.4 131.34"/><path class="cls-3" d="M258,57.58S167.86,170,135.48,139c0,0-2.81.59-5.63,7.88a25.81,25.81,0,0,0-5.63-.18v6.63S130.7,170,142,170.76s18.58-2,25.62-5.63c0,0,76.62-65.13,82.4-72.73C257,83.13,258.69,74.67,258,57.58Z"/><path class="cls-3" d="M92.68,104S102.26,132.9,113,135.6l2.53,5.88s-16.33,4.69-21.35,14.08c0,0-15.53-9.39-13.28-27S92.68,104,92.68,104Z"/></g><g id="瓜線"><path class="cls-12" d="M258,57.58s7.61-34.83-30.21-38c0,0-10.7-9.82-28-6.93s-72.46,35.29-85.22,51.69-17.27,24.22-22,39.7c0,0-10.69,12.86-11.82,24.5s5.16,21.4,13.28,27c0,0,5.46,17.08,37.4,14.36,0,0,24.83,5.06,41.84-2.26S250.16,113,260.4,94,269.67,66.59,258,57.58Z"/><path class="cls-12" d="M176.65,20.49S158.29,3.8,138.3,2.67a117,117,0,0,0-36,3.66L29.83,26.73S11.05,33.28,4.56,60.67,5.4,150.49,49,150.4l36.11-6.65"/></g></g></svg>