<svg xmlns="http://www.w3.org/2000/svg" viewBox="0 0 133.28 158.44"><defs><style>.cls-1{fill:#8fb553;}.cls-2{fill:#aacf70;}.cls-3{fill:#4d612c;}.cls-4{fill:#cae69f;}.cls-5{fill:#6b873e;}.cls-6{fill:#313d1c;}</style></defs><g id="レイヤー_2" data-name="レイヤー 2"><g id="空豆"><path class="cls-1" d="M132.32,78.41S122.77,14.74,94.13,7.85,58.05,4.78,49.57,27.27,30.47,83.51,17.74,85.74-12,135.71,23,149.5,124.9,162.23,132.32,78.41Z"/><path class="cls-2" d="M117.63,44S88.67,9.84,71.2,17.19,40.87,81,44.08,95.31s28.5,40.47,43.67,28.52S129.58,98.31,117.63,44Z"/><path class="cls-3" d="M62.2,7.66s4.75-5.87,9-6,29,3.68,34.13,7.7,13.92,15.63,15.29,18-.56,8.49-.56,8.49S107.63,12.48,95.68,8.8C95.68,8.8,66.07,5.94,62.2,7.66Z"/><path class="cls-4" d="M101.54,65S98.32,49.13,96,44s6-8.73,9.66,10.52S103.26,72.84,101.54,65Z"/><path class="cls-4" d="M104.3,84.3s-5.52-5,0-7.35S110.27,84.3,104.3,84.3Z"/><path class="cls-5" d="M57.2,158.44c-11.59,0-25-1.86-36-7.11C11.36,146.61,5,139.86,2.31,131.28c-9-28.9,11-45.84,16.8-48.8C21.5,81.27,35.34,66.17,43,39.31,50.52,12.65,60.71,6.18,61.14,5.92l1.07,1.74c-.09.06-8.28,7.92-15.33,32.77C39.31,67.15,25.26,83.94,21,86.12c-.25.13-24,14.28-14.74,43.94,2.33,7.46,8,13.37,16.77,17.58,19.19,9.19,47.09,7.33,56,3.81,10.06-4,34.21-15.2,41.12-34,6.16-16.76,13.46-41.09,5.74-58.89C118.25,41,120,36.63,120.06,35.91h2c0,.17.24,4.27,7.52,21,8.3,19.14.75,44.5-5.65,61.92-7.48,20.35-32.88,32.23-43.45,36.39C76,157,67.27,158.44,57.2,158.44Z"/><path class="cls-6" d="M122.1,35.9h-2a35.15,35.15,0,0,1-.58-6.8c-.14-2.26-9.61-14.75-16.22-19.11-5.6-3.7-22.39-5.72-28.71-6.49L72.78,3.3c-3.3-.43-9.42,3.07-10.57,4.36L61.14,5.92c.21-.24,6.38-6.59,12-5.86L75,.27c7.14.87,23.86,2.89,30.11,7S123,25.32,122.74,29.32C122.55,32.3,122.12,35.8,122.1,35.9Z"/></g></g></svg>