<svg xmlns="http://www.w3.org/2000/svg" viewBox="0 0 237.31 248.67"><defs><style>.cls-1{fill:#faf1df;}.cls-2{fill:#cfe6bd;}.cls-3{fill:#618953;}.cls-4{fill:#739854;}.cls-5{fill:#7ea462;}.cls-6{fill:#4e6f42;}.cls-7{fill:#9bb88b;}.cls-8{fill:#c4b59f;}.cls-9{fill:none;stroke:#c4b59f;stroke-miterlimit:10;stroke-width:3px;}</style></defs><g id="レイヤー_2" data-name="レイヤー 2"><g id="大根"><path class="cls-1" d="M91.82,111.92s-14.31-12.26-28.63,5.19S19.84,193.2,16.19,207s-9.8,23.56-10.71,27-7.09,12.86.78,12.37,18.15-4.53,24.91-4.58,25.51-13,33.48-18,27.95-22,32.75-23.44,22.19-29.82,23.71-35.64,9.51-16.13,7.64-22S99.25,115.1,91.82,111.92Z"/><path class="cls-2" d="M91.88,111.73s-11.24-9.72-23.35,0c0,0,37.49,14.85,58.65,39.8,0,0,5.87-6.93-1.87-15.38C115.73,125.71,91.88,111.73,91.88,111.73Z"/><path class="cls-3" d="M98.56,116s3-40.1.3-58.87c0,0,8.24,44.78,3.52,61.43Z"/><path class="cls-4" d="M106,120.93S136,88.24,145,63.83c0,0-16,43-34.26,60.36Z"/><path class="cls-5" d="M115.26,127.56s48.1-26.56,65-28.44c0,0-56.8,26.42-60.12,32.36Z"/><path class="cls-4" d="M124,103.25s-15.06-3.75-12.06-21,12.06-15,12.06-15-11.31-27,12.72-27.78c0,0-18.77-23.27,8.26-32.28S203.9,2.64,203.9,2.64,171.24,28.17,178.37,32.3c0,0,22.15,10.51,1.5,24.78,0,0,12.77,28.15-11.26,28.9,0,0-.37,19.53-15.77,13.52C152.84,99.5,136,124.28,124,103.25Z"/><path class="cls-6" d="M107.26,121.78l-2.47-1.67,14.47-17.43c-3.32-2.29-10.65-8.61-9.22-19.15,1-7.69,4-13.68,8.18-16.46a8.77,8.77,0,0,1,3.57-1.43c-1.45-4.28-3.91-13.91.33-20.7,2.37-3.78,6.4-6.06,12-6.79a41.09,41.09,0,0,1-3.54-7.81c-2.46-7.61-1.46-13.95,2.91-18.33C143.62,1.86,185.56-2.22,204.17,1.17l3.36.61L204.8,3.84c-13.11,9.9-26.31,22.7-25.77,26.92,2.32,1.33,10.75,6.67,11.08,14.11.2,4.52-2.6,8.81-8.33,12.74,1.18,2.63,3.68,9,3,14.13l-3-.42c.78-5.55-3.19-13.49-3.23-13.56l-.62-1.21,1.15-.74c5.49-3.51,8.2-7.15,8-10.8-.29-6.72-10-11.86-10-11.91l-.48-.25-.21-.49c-1-2.32-.81-6.81,12.29-18.92,4.29-4,8.77-7.63,11.55-9.83-20.31-2.48-56.33,2.22-64.6,10.52-8.64,8.66,2.2,24.28,2.31,24.44l1.57,2.23-2.73.13c-5.88.27-10,2.16-12.1,5.6-4.66,7.44.64,20,.69,20.09l1.22,2.83-3-.79a4.75,4.75,0,0,0-3.72.91c-1.62,1.08-5.55,4.66-6.87,14.36-1.54,11.35,8.75,16.83,9.19,17l1.65.86Z"/><path class="cls-3" d="M101.35,95s-12.7,2.87-19.46-7.2S86.4,73.22,86.4,73.22s-12-4.5-10.14-13.14a24.55,24.55,0,0,1,8.63-13.51S72.25,34.93,88.71,23.29s30.72-7.51,30.72-7.51-8.63,14.27-6,19.9c0,0,9.76,3.75,10.51,16.52s-7.89,17.27-7.89,17.27S134.7,87.49,101.35,95Z"/><path class="cls-6" d="M112,125.1l-2.39-1.69c2.2-1.45,10.08-12.66,14.34-19.08l1.28-1.92,1.24,1.94c5.31,8.34,12.85,5.09,13.17,5l1.24,2.73a13.39,13.39,0,0,1-15.63-4.24C122.12,112.37,114.85,123.21,112,125.1Z"/><path class="cls-5" d="M143.08,115.3s-16.89-10.63,0-21.29,22.15,0,22.15,0S166,65,190.76,69.09s46.55-8.26,46.55-8.26-18,12-16.52,19.15c0,0,7.51,10.51,2.63,19.14s-13.51,10.89-21.77,6.39c0,0,3,15.21-8.26,18.68s-18-5.68-18-5.68,1.12,7.78-3.38,13S142,141.61,143.08,115.3Z"/><path class="cls-6" d="M116.41,128.45l-1.71-1.32L139,113.63c-3.54-4-5-7.64-4.58-11,.74-5.34,6.45-9,11.74-12.09a18.12,18.12,0,0,1,18.19,0c5.79-23.92,14.86-23.34,28.4-22.47,2,.13,4.12.26,6.37.34,17.55.53,36.7-8.46,36.89-8.55l1.29,2.71c-.81.38-20,9.41-38.28,8.83-2.3-.07-4.42-.2-6.47-.34-13.68-.88-20.55-1.32-25.75,22.21l-.52,2.36-1.88-1.52a15.18,15.18,0,0,0-16.74-.93c-5.8,3.34-9.77,6.31-10.27,9.9-.38,2.76,1.3,6,5.12,9.94l1.42,1.45Z"/><path class="cls-6" d="M159.8,136.9a43.39,43.39,0,0,1-5-.31c-9-1.06-12.34-10.26-13.07-16.65l-20.8,12.81-1.57-2.55,25.19-15.52,0,2.66a27.64,27.64,0,0,0,1.48,7.93c1.79,5,4.85,7.84,9.1,8.34,6.93.81,11.54,0,14.5-2.62,2.78-2.44,4.16-6.53,4.24-12.5l0-3.93,2.58,3c.36.41,8.95,10,18.49,4.35s5.46-15.37,5.28-15.78L198.5,102l3.88,2.17c.46.25,11.36,6.15,18.06-3.31,6.86-9.69-.76-19.9-.84-20l-.57-.75.42-.84c.31-.6,7.54-14.89,15-18.75l1.38,2.66c-5.67,2.95-11.68,13.69-13.26,16.67,1.83,2.88,7.25,13,.34,22.75-5.89,8.32-14.48,6.94-19,5.44.77,4.18.72,11.57-7.39,16.39-8.33,5-16,.4-19.83-2.68-.53,5.17-2.2,8.93-5.08,11.46S165,136.9,159.8,136.9Z"/><path class="cls-7" d="M96.21,114.58c-.09-.06-11.22-5.83-18.1-4.87-6.39.9-7.88,3.16-7.89,3.18l-1.75-1L66.68,111c.34-.68,2.44-4.1,10.88-5.28s18.73,4.55,19.15,4.87Z"/><path class="cls-7" d="M128.85,152.72l-3-2.52c5.24-9-4.58-17.2-5-17.45l2.82-1.73C127.94,133.87,134.52,143,128.85,152.72Z"/><polygon class="cls-7" points="114.7 127.13 111.97 125.1 114.5 122.46 118.01 125.28 114.7 127.13"/><polygon class="cls-7" points="105.21 120.41 102.38 118.51 103.25 114.58 107.31 117.02 105.21 120.41"/><path class="cls-8" d="M7.68,248.67a14.09,14.09,0,0,1-4.22-.61,4.61,4.61,0,0,1-3.1-2.61c-1.21-2.89.78-6.76,3.81-12.62,2.94-5.69,6.59-12.78,8.72-21.46,2.82-11.5,9.12-23.5,14.68-34.09,4.09-7.8,8-15.18,9.5-20.7,3.75-13.44,28.82-44.54,29.76-45.76l3.54,1.87c-.23.29-25.9,32.28-29.45,45-1.65,5.93-5.62,13.48-9.81,21.48-5.45,10.39-11.63,22.16-14.33,33.19-2.24,9.13-6.18,16.76-9.06,22.34-1.95,3.78-4.16,8.06-3.67,9.24,0,.12.34.25.59.33,4,1.24,9.12-.5,13.64-2a37.58,37.58,0,0,1,7.18-2c11.16-1.32,19.47-4.51,24-9.23,3.26-3.37,7.5-5.7,12.4-8.4,5.86-3.23,12.49-6.88,18.74-13.22A43.14,43.14,0,0,1,92.22,201c5.67-3,10.57-5.67,17.68-19.61l16-31.21,3,2.52-15.39,30.5c-7.68,15.06-13.35,18.1-19.35,21.33a39.24,39.24,0,0,0-10.64,7.63c-6.65,6.76-13.56,10.56-19.66,13.92-4.62,2.55-8.61,4.74-11.45,7.68-5.2,5.39-14.34,9-26.43,10.42A35.19,35.19,0,0,0,19.57,246C15.81,247.26,11.69,248.67,7.68,248.67Z"/><path class="cls-6" d="M102.38,118.51l-1.43-.93c2.19-8.42,2.26-22.48,2.25-22.63L103.07,93h0c11-3.51,17.2-7.83,17.88-12.49.78-5.31-5.68-9.8-5.74-9.85l-2.09-1.42,2.25-1.15c6.43-3.28,6.19-12.69,6-18.31,0-1.3-.06-2.44,0-3.32.16-2.61-5-7.16-8.79-9.56l-.42-.26-.17-.46c-2-5.23,2.9-15.33,5.15-19.48-7-1.23-21.37,1.89-30.91,10.48-3,2.72-4.57,5.67-4.61,8.78-.07,5.31,4.22,9.44,4.27,9.48l1.94,1.84L85.28,48s-4.18,1.43-7.1,10.68c-2.78,8.85,8.25,13,8.72,13.12l3.87,1.4-3.86,1.42a7.2,7.2,0,0,0-4.73,5.42,10.91,10.91,0,0,0,3.48,9.82c5.48,5.29,14.28,4,14.36,4h0l-1.16,22.24-2.65-1.55L98.43,97c-3.2.15-9.91-.22-14.86-5a14,14,0,0,1-4.33-12.6,10.15,10.15,0,0,1,3.82-6.08c-4.74-2.61-10.15-7.89-7.74-15.56,2.23-7.09,5.22-10.26,7.19-11.65A16.55,16.55,0,0,1,78.66,36c0-4,1.93-7.67,5.6-11C95.66,14.73,113,11.85,120,14.37l1.69.62-.91,1.55c-3,5-7,14.17-6,18.17,2.46,1.63,10,7.06,9.72,12,0,.76,0,1.83,0,3.07.15,5.79.39,15.14-5.79,19.86,2.31,2.08,6,6.28,5.29,11.38-.85,5.77-7.18,10.66-18.83,14.54A101.57,101.57,0,0,1,102.38,118.51Z"/><path class="cls-9" d="M107.31,171.93s-.64-5.23-15.66-10.11"/><line class="cls-9" x1="95.03" y1="183.97" x2="87.52" y2="179.74"/><path class="cls-9" d="M84.89,195.23s-3.06-3-10.16-3.38"/></g></g></svg>