<svg xmlns="http://www.w3.org/2000/svg" xmlns:xlink="http://www.w3.org/1999/xlink" viewBox="0 0 188.77 179.87"><defs><style>.cls-1{fill:url(#名称未設定グラデーション_22);}.cls-2{fill:#8d4b20;}.cls-3{fill:#7f4319;}</style><linearGradient id="名称未設定グラデーション_22" x1="141.03" y1="24.87" x2="53.44" y2="176.57" gradientUnits="userSpaceOnUse"><stop offset="0" stop-color="#e8b556"/><stop offset="0.12" stop-color="#daa43e"/><stop offset="0.27" stop-color="#cf962b"/><stop offset="0.44" stop-color="#c78c1d"/><stop offset="0.64" stop-color="#c28714"/><stop offset="1" stop-color="#c18512"/></linearGradient></defs><g id="レイヤー_2" data-name="レイヤー 2"><g id="玉塗り"><path class="cls-1" d="M140.82,50.63c1.94,4.4,70,45.41,33.61,89.71s-91,37-91,37c-56.5-6-81.94-56.41-81.94-56.41-13.51-61.1,71.71-82.85,71.71-82.85,18.77-5.37,29.65-27.89,29.65-27.89s3.44,14.81,7.57,12.93,6.7-12.93,6.7-12.93,3.38,15.92,6,18.93,13.14-13.68,13.14-13.68S135.28,38,140.82,50.63Z"/></g><g id="玉線"><path class="cls-2" d="M101.67,175.78h0c25.1-18.2,23.21-52.51,17-77.56-1.78-7.2-3.31-13.43-3.88-18.49-2.56-22.88,6.51-53.2,6.9-54.48l4.78,1.45c-.09.3-15,29.89-6.71,52.47,1.65,4.48,6.48,10.44,8.22,17.48C134.16,121.59,129.5,155.6,101.67,175.78Z"/><path class="cls-2" d="M73.69,171.9c-26-39.55-19.57-66.84-6.13-84.78C69,85.18,81.27,72.3,82.1,71.79c29-18.05,26.71-49.1,26.77-49.35l4.85,1.21c-.26,1.06-6.55,26.06-12.07,34.33-.62.93-1.75,2.43-3.31,4.51C92,71,74.18,89.58,64.18,109.73c-12.18,24.56,4,47.09,9.51,62.17Z"/><path class="cls-2" d="M39,153.6c-31.16-46.55-4.5-77.81,17.24-84.12,16-4.64,26-15.78,32.69-26.25C96.35,31.73,99.73,17.6,99.77,17.5h5.33C99,30.91,100.28,30,92.64,41.92,82.28,58.07,70.85,69.3,58.19,74.09,22.51,87.61,28.59,127.17,39,153.6Z"/><path class="cls-2" d="M145.91,162.83h0c14.84-17.59,17.65-28.19,16-41.46-2-16.2-8.39-30.28-21.38-40.57-16.8-13.31-8.17-59.68-8-61.44l5,.42c0,.42-17.38,45.64,7.25,58.32C176.78,94.58,174.43,140.34,145.91,162.83Z"/><path class="cls-3" d="M100.07,179.87a109.28,109.28,0,0,1-40.69-8.2c-31.79-12.82-55-37.88-57.7-50.2-8.74-40.36,16.43-67.93,81.6-89.4h0c7.89-2.6,17.1-17.51,20-23L108,0V10.19c0,8.42,1.3,11.57,2.4,12.94,1.74-2.28,4.83-8.5,7.06-13.89l3.31-8,1.46,8.55c.47,2.79.83,5.37,1.14,7.66a58.44,58.44,0,0,0,1.45,8.1c2.41-1.59,7.9-7,12.24-11.76l6-6.64-1.71,8.8c-5.09,26.11,5.06,33.89,5.16,34a135.22,135.22,0,0,1,21.05,18.75c13.94,15.3,21.28,31.06,21.21,45.58-.08,17.58-10.58,33.51-31.22,47.37C137.33,175.17,117.64,179.87,100.07,179.87Zm3.44-161.43c-4.31,6.68-11.4,16-18.67,18.38C5.11,63.09,1.12,95.29,6.56,120.41c2,9.4,22.61,33.69,54.69,46.62,22.58,9.11,57.14,14.83,93.52-9.59,19.17-12.87,28.93-27.42,29-43.23C183.93,82,144,54.25,143.62,54s-10.59-8.07-8.36-31c-8.43,8.48-10.53,8.12-11.52,7.94-3.53-.61-4.25-4.84-5.22-11.86-2.87,5.81-5.3,9-7.23,9.59a3.2,3.2,0,0,1-2.74-.44C105.87,26.28,104.26,23.29,103.51,18.44Z"/></g></g></svg>