<svg xmlns="http://www.w3.org/2000/svg" viewBox="0 0 190.03 233.34"><defs><style>.cls-1{fill:#762e3d;}.cls-2{fill:#919436;}.cls-3{fill:#581d2b;}.cls-4{fill:#f8e0b2;}.cls-5{fill:#c3463d;}.cls-6{fill:#7e171e;}.cls-7{fill:#737629;}.cls-8{fill:#4e1624;}</style></defs><g id="レイヤー_2" data-name="レイヤー 2"><g id="いち塗り"><path class="cls-1" d="M83.14,73.83S-1.89,129,2.05,159.42s31.53,58,81.09,39.42,23.09-98.55,18-114.88S83.14,73.83,83.14,73.83Z"/><path class="cls-2" d="M97.74,77.12S131,19.77,172.11,13.57L160.29,2.31S117.49,16.9,89.9,72.68c0,0-1.89-8.68-36.56,22.61,0,0,14.59-5.69,20.79-6.82,0,0-3.38,17.46-1.13,25.9,0,0,9-19.14,14.08-21.4,0,0,8.45,17.46,6.76,29.29,0,0,9.57-22,7.88-25.91s7.78,19,8.27,21.79C110,118.14,105.58,81.57,97.74,77.12Z"/><path class="cls-3" d="M22.38,195.41s-5.69-49.5,22.47-65.27C44.85,130.14,26.37,158.75,22.38,195.41Z"/><path class="cls-3" d="M62.3,142.53s-1.12,41.56-17.45,52.88C44.85,195.41,55.55,182,62.3,142.53Z"/><path class="cls-3" d="M92.71,145.34S104,176.2,76.38,195.41C76.38,195.41,86.56,181.15,92.71,145.34Z"/><path class="cls-1" d="M149,113.81s-45.61,51.24-57.43,60.25-6.2,50.68,33.78,56.32,61.95-16.33,62.51-37.17.65-55.21-21.4-74.9C166.48,118.31,158,103.78,149,113.81Z"/><path class="cls-4" d="M145.08,126.76s-14.64,10.7-17.46,16.33-13,9-15.2,17.46S98.34,168.43,95,180.26s-6.19,19.14,9,28.15c0,0,4.51,9.58,8.45,9s11.26,1.13,12.39,4,12.39,2.81,15.77,0,11.08-.17,17.45,2.11,14.64-6.06,15.21-8.87,4.5-6.76,6.75-9.57,4.51-7.33,0-14.08,2.95-7.32,2.61-12.39,4.31-7.89,0-11.26-4.3-4.51-4.3-6.76-2.26-8.45-2.26-8.45v-9.57s-5.63,0-7.32-4.51-3.38-11.82-5.07-11.26-9.57-.62-11.26,0S145.08,126.76,145.08,126.76Z"/><path class="cls-5" d="M142.27,143.66s-5.64-1.13-9,6.75-11.27,3.94-11.83,8.45-10.14,14.08-5.63,20.27-2.4,10.7-1.2,13,12.2,19.15,22.47,14.08,15.33-2.25,15.33-2.25,5.63-3.38,5.63-5.63,7.32-10.14,7.89-12.39,3.38-13.33,0-15.11-4.51-11.92-4.51-14.17-5.07-7.89-7.32-8.45,2.82-4.62-4.5-4.56S151.28,136.9,142.27,143.66Z"/><path class="cls-6" d="M138.37,164.49s-6.24,4.13-7.37,9.39-3.94,8.63-4.5,10.88,2.3,10.14,5.93,9.58,10.4-3.38,13.21-3.38,5.64-5.07,6.2-6.76,2.25-9.39,0-13.42S146.86,161.11,138.37,164.49Z"/><ellipse class="cls-4" cx="124.77" cy="167.12" rx="1.65" ry="3.66"/><ellipse class="cls-4" cx="121.38" cy="184.58" rx="1.51" ry="2.88" transform="translate(-99.16 197.41) rotate(-60)"/><ellipse class="cls-4" cx="154.41" cy="190.12" rx="2.88" ry="1.51"/><ellipse class="cls-4" cx="137.07" cy="154.78" rx="1.65" ry="1.83"/><ellipse class="cls-4" cx="141" cy="196.23" rx="1.65" ry="1.83"/><ellipse class="cls-4" cx="153.56" cy="160.58" rx="3.11" ry="1.72" transform="translate(-62.29 213.28) rotate(-60)"/><ellipse class="cls-4" cx="126.43" cy="197.24" rx="3.11" ry="1.72" transform="translate(-106.46 222.74) rotate(-63.59)"/><ellipse class="cls-4" cx="161.86" cy="175.93" rx="1.72" ry="3.11" transform="translate(-50.42 65.99) rotate(-20.01)"/><path class="cls-2" d="M137.66,126.56s7.82-12.49,15.32-16.28c0,0,4.37-51.15-9.34-70.24h18.22s3.14,57.44-4.57,68.7c0,0,17.66,12.86,20.37,23.7l-10.11-4.18-3.7,10.51-6.56-8.63-9.21,4.13-3.37-4.13-10.42,5.4Z"/></g><g id="いち線"><path class="cls-7" d="M157.29,108.74C160.58,99.36,161,59.13,160,42H147.12c3.59,7,10.78,26.16,8.22,63.62l-.47,6-1.06.48c-.07,0-8.35,3.31-16.15,14.46l-1.74-1c5.78-10.4,12.56-15.06,15.16-16.56,4.09-49.47-8.92-67.62-9.05-67.8L139.66,38h24.07l.13,1.87c.39,5.71,4.6,54.42-2.73,68.55,4.87,3.77,17.64,15.05,18.52,23.78l-4,.4S163.76,113.53,157.29,108.74Z"/><path class="cls-7" d="M107.57,116c-1-31.26-10.67-37-10.77-37.1l-1.88-1.06L96.07,76c33.66-50.73,61.35-61.53,71.69-63.82l-7.91-7.54c-6.87,3-43.26,20.7-68.18,68.93l-1.3,1.08-1.88-.56c-.51-.24-2.4-.4-6.15,1.32C78,77.43,67.81,84.16,54.44,97l-2.19-3.34C68,78.57,81.34,69.64,88,70a7,7,0,0,1,1,.13c28.2-53.31,68.87-69,70.61-69.67L160.76,0,177,15.5l-4.9.07c-.3,0-31.59,1.44-71.7,61.11a23.15,23.15,0,0,1,4.61,6.43c3.89,7.61,6.08,18.63,6.52,32.76Z"/><path class="cls-8" d="M53.22,206.74A53.11,53.11,0,0,1,29,201.25c-14-7.06-24.35-20.92-28.38-38-7.22-30.58,49.2-68,51.61-69.61L54.44,97A215.24,215.24,0,0,0,26.7,119.42C14.72,131.07,1.14,148,4.53,162.31c3.76,15.95,13.35,28.84,26.29,35.37,14.78,7.45,33.63,6.66,54.5-2.28l1.58,3.67C75,204.18,63.63,206.74,53.22,206.74Z"/><path class="cls-8" d="M114.43,153.53l-4.36,1.25c3.79-12.41-2.44-38.62-2.5-38.79l4-.12C111.81,116.61,118.59,139.89,114.43,153.53Z"/><path class="cls-8" d="M136.65,233.34a61.16,61.16,0,0,1-27.91-6.22c-10.67-5.43-18.56-14.2-22.22-24.69-3-8.67-3.17-16.3-.43-22.68a19.18,19.18,0,0,1,8-9.25c2.61-1.6,28.27-29.65,41.87-44.91l1.74,1c-8.48,9.52-38.29,45.65-41.74,47.47-.13.07-12.64,7-5.62,27.09,8.58,24.62,36.76,31.23,60.88,26.86,33.88-6.14,34.85-36,34.85-39.37,0-.36-2.9-42.1-10.36-56l4-.4c7.93,14.74,10.38,56,10.38,56.37a47.27,47.27,0,0,1-5.67,21.31c-6.38,11.7-17.61,19.31-32.47,22A85.37,85.37,0,0,1,136.65,233.34Z"/></g></g></svg>