<svg xmlns="http://www.w3.org/2000/svg" viewBox="0 0 167.66 192.31"><defs><style>.cls-1{fill:#fffde3;}.cls-2{fill:#8ec445;}.cls-3{fill:#c0d96b;}.cls-4{fill:#cfcda8;}.cls-5{fill:#79a63e;}.cls-6{fill:#8eb463;}</style></defs><g id="レイヤー_2" data-name="レイヤー 2"><g id="チコリ塗り"><path class="cls-1" d="M44.84,189s-19,5.12-41.49-12.3l5.13-11.26S-8.19,44.89,120.06,21.43q4.27-.8,8.78-1.42s-31.63,95.9-62.74,107c0,0,53.52-66.07,86.3-71.7,0,0-7.17,12.29-12.81,33.29S94.28,170.08,53,176.22Z"/><path class="cls-2" d="M120.06,21.43s19.88-5.81,24.47-13.13c2.8-4.47,9.92-1.61,9.92-1.61s3.07-5.12,5.63-5.64,9.73,7.57,6.15,10.19S161.11,18,161.62,20s-1.54,15.36-4.1,17.92-4.37,16-5.12,17.42-52.24,31.24-52.24,31.24Z"/><path class="cls-3" d="M120.06,21.43s-21.7,58-28.54,72.88c0,0,44.49-26.29,60.88-39,0,0-13.32-2.56-24.59,2S116.55,71.74,113.47,74.3s-6.14,2.56-13.31,12.29,7.68-7.17,8.7-17.41,10.74-9.51,7.69-19.47S123,33.56,123,33.56,128.7,27.46,120.06,21.43Z"/><path class="cls-3" d="M41.08,165.47s-10.75,5.12-10.75-3.59,55.61-61,55.61-61Z"/></g><g id="チコリ線"><path class="cls-4" d="M39.09,192.31c-20.73,0-36.76-12.89-37.46-13.46L0,177.52,5.22,166C4,125.42,12.6,70.7,60.19,39.25,88.8,20.34,117.55,19,118.76,18.92l3.16-.12-.33,3.14c-1.32,12.25-19.31,50.14-28.73,70.67,19.37-16.23,54.28-37,56-38.1L154.56,51,153,57.49c-8,32.54-25,77-60.55,104.27-18.71,14.34-34.71,17.92-39,18.66l-9.79,11.7-1.16.07C41.33,192.27,40.2,192.31,39.09,192.31ZM6.75,175.85c4.61,3.23,18.23,11.63,34.19,11l9.64-11.51,1.07-.13c.17,0,17.43-2.29,37.76-18C121.19,132.69,137.6,93.55,146,62.78c-14,8.87-49.72,31.06-61.17,39.59h0l2-4.9c.3-.62,24-52.67,28.72-72.78A124.27,124.27,0,0,0,63,43.93C26.42,68.22,8.82,109.45,10.69,166.5l0,.63Z"/><path class="cls-5" d="M154.59,51l-2.83,1.71c.1-.4,2.89-12.27,4.55-15.44,1.4-2.66,5.08-12.6,4.58-21.09l0-.53,3.93-4.83c-.55-3.29-2-7.67-3.88-8.09-1.27-.28-3.21,1.42-5.32,4.67l-.82,1.27-1.18-.95a5,5,0,0,0-3.7-.68c-2.11.35-5.47,2-9.45,8.1l-.19.29-.31.16c-1.47.79-13.27,7.24-18.71,6.7l.53-2.31c3.81.4,12.55-4.49,16.59-6.63C142,8,145.73,5,149.56,4.36a8.06,8.06,0,0,1,4.46.53c2.65-3.75,5.11-5.32,7.49-4.79,4.49,1,5.84,9.3,6.07,11l.08.58-4,4.95c.35,8.76-3.2,18.71-4.91,22C157.22,41.44,154.64,50.52,154.59,51Z"/><path class="cls-5" d="M110.77,71.71h0c5-5.1,7.6-12.22,10.08-23.78.4-1.84,1.5-3.3,2.14-4.69,4.82-10.45,19.17-14.64,19.78-14.82A8.78,8.78,0,0,0,149,20c0-8.42,14.34-15.85,14.95-16.16l1.24,2.43C161.4,8.2,151.66,14.4,151.68,20a11.48,11.48,0,0,1-8.16,11.05c-.14,0-13.76,4-18.05,13.33-.64,1.39-1.79,2.83-2.14,4.67C120.8,62.69,116,66.51,110.77,71.71Z"/><path class="cls-5" d="M142.07,30.58c-.62-.8-3.65-4.91-2.53-8a4.11,4.11,0,0,1,3.33-2.53,1.73,1.73,0,0,0,1.26-.92c1.25-2.19.12-7.55-.89-10.41l2.57-.91c.31.88,2.95,8.69.7,12.67a4.5,4.5,0,0,1-3.09,2.24c-1.11.23-1.27.66-1.32.81-.45,1.21,1,3.89,2.12,5.33Z"/><path class="cls-6" d="M104.44,83.24l-2.2-1.61c.06-.09,5.54-9,5.57-14.36,0-5.77,5.34-9.63,6.8-10.58a11.12,11.12,0,0,0-.13-8.77l-.11-.26v-.29a22.49,22.49,0,0,1,6.46-14.28c1.81-1.79,2.67-3.53,2.53-5.19a5.34,5.34,0,0,0-2.29-4l.15-1.56c1.13.8,4.59,1.93,4.86,5.37.2,2.49-.92,5-3.34,7.34a20,20,0,0,0-5.62,12.16,13.46,13.46,0,0,1-.29,11.13l-.18.31-.31.18c-.06,0-5.78,3.49-5.81,8.48a23.8,23.8,0,0,1-2.16,8.36,8.28,8.28,0,0,1,3.05-1.35c.82-.2,1.24-.3,3.09-4.4,4.52-10,9.66-12.23,15.1-14.59l.14-.06c5.72-2.48,18.09-.44,18.61-.41l-2.57,1.59c-.12,0-9.83-.9-15,1.32l-.14.06C125.34,60.15,121.09,62,117,71c-2.11,4.65-3,5.44-4.93,5.92C111,77.21,109.21,77.65,104.44,83.24Z"/><path class="cls-6" d="M32.1,171a5.76,5.76,0,0,1-4.28-1.49c-1.62-1.67-1.71-4.38-.29-8.29,4-10.95,49-51.85,50.93-53.59l7.48-6.77-5.41,8.52c-11.24,17.69-37.81,59-41.67,60.26A23.21,23.21,0,0,1,32.1,171Zm40.48-54.26c-16.7,15.54-38.8,36.16-41.37,43.23a6.35,6.35,0,0,0,.65,6c.72.74,2.3,1.17,7.8-.63C42.33,163.8,58.77,138.23,72.58,116.75Z"/></g></g></svg>