<svg xmlns="http://www.w3.org/2000/svg" viewBox="0 0 191.9 202.2"><defs><style>.cls-1{fill:#e1c08b;stroke:#b1825a;}.cls-1,.cls-2{stroke-width:5px;}.cls-2{fill:#ca9e47;stroke:#9e6a35;}.cls-3{fill:none;stroke:#b48d41;stroke-miterlimit:10;}.cls-3,.cls-5{stroke-width:3px;}.cls-4,.cls-5,.cls-6{fill:#8e602f;stroke:#7e5427;}.cls-4{stroke-width:3.14px;}.cls-6{stroke-width:3.23px;}</style></defs><g id="レイヤー_2" data-name="レイヤー 2"><g id="つくし"><path class="cls-1" d="M155.31,65.17S132.5,169,118.14,186.7c0,0,18.59,8.45,30.41,1.69,0,0,20.31-84.26,17.34-123.22S155.31,65.17,155.31,65.17Z"/><path class="cls-2" d="M157.53,76.05s-25.34-4.22-17.74-27,14.36-38.41,25.34-44.55,19.43,3.16,22,12.45S197.32,77.64,157.53,76.05Z"/><path class="cls-3" d="M153.59,25.75s7.08-8.45,10.3,0,9.41.56,12.79,0S184,29.63,184,29.63"/><path class="cls-3" d="M151,38.68s7.07-8.45,10.29,0,9.42.56,12.8,0,7.32,3.88,7.32,3.88"/><path class="cls-3" d="M146.68,50.79s7.08-8.45,10.3,0,9.41.56,12.79,0,7.32,3.88,7.32,3.88"/><path class="cls-4" d="M163.89,111.38s5.94-7.06,7.91-12.3l-11.11,4.33-2.08-10.12-7.1,6.87-6.48-8s-4.77,9.61-.77,15.6C144.26,107.77,156.24,105.49,163.89,111.38Z"/><path class="cls-4" d="M159.78,144.94A25.08,25.08,0,0,0,163.89,131l-11.11,4.33L150.7,125.2l-7.1,6.87-6.48-8s-4.77,9.61-.77,15.6C136.35,139.68,152.13,139.05,159.78,144.94Z"/><path class="cls-1" d="M49.74,194.37,69.17,186s-7.6-52.82-31.25-106.27c0,0-10.7-6.31-10,4S57.34,153,49.74,194.37Z"/><path class="cls-2" d="M42.14,91.32S10,103.15,5,77.81s-2.53-52.37,9.3-51.53S75.08,56.69,42.14,91.32Z"/><path class="cls-3" d="M8.52,58.09s2-10.84,9-5.09,8.46-4.17,11.12-6.33,8.28-.24,8.28-.24"/><path class="cls-3" d="M13.58,67.6s2-10.84,9-5.09S31,58.34,33.65,56.18s8.28-.24,8.28-.24"/><path class="cls-3" d="M16.77,77.23s2-10.84,9-5.09S34.18,68,36.84,65.81s8.28-.24,8.28-.24"/><path class="cls-5" d="M39.46,122.09s-7.27-2.24-9.23-6.81l8.2-.1,2.33-8.9,7.26,5.9,6.86-7.1s2.88,9.55-3,13.14C51.86,118.22,47.5,116.81,39.46,122.09Z"/><path class="cls-5" d="M47.07,151.44s-7.28-2.24-9.23-6.81l8.19-.1,2.33-8.91,7.26,5.91,6.86-7.11s2.88,9.56-3,13.14C59.46,147.56,55.11,146.15,47.07,151.44Z"/><path class="cls-1" d="M94.27,73.29S71.46,184.79,80.75,199.15c0,0,15.21-5.74,25.34-4.14,0,0-11.82-82,0-121.72C106.09,73.29,105.25,52.17,94.27,73.29Z"/><path class="cls-2" d="M85.44,83.59s-21.51-14,0-44.74S110.3,3.68,123.75,12.48c8,5.24,6.72,60.11,0,66S93.78,95.22,85.44,83.59Z"/><path class="cls-3" d="M94,35.54s8.12-7.45,10.2,1.34,9.26,1.79,12.69,1.67,6.75,4.81,6.75,4.81"/><path class="cls-3" d="M89.75,48s8.12-7.45,10.21,1.34,9.26,1.79,12.68,1.67,6.75,4.81,6.75,4.81"/><path class="cls-3" d="M83.91,59.47S92,52,94.12,60.81s9.26,1.79,12.68,1.67,6.75,4.81,6.75,4.81"/><path class="cls-6" d="M102.58,131.53s5.41-4.74,3.51-11.5l-7.32,3.4-2.08-8.05-8.62,9-6.42-6.35s-3.52,7.75,1.68,13.18A34.48,34.48,0,0,1,102.58,131.53Z"/><path class="cls-6" d="M103.93,160s3.85-7.82,2.57-12.92l-9.89,4.87-5.72-8.51-5,9.48-6.42-6.35s-3.61,5.38-1,13.89C78.53,160.44,94.09,156.72,103.93,160Z"/></g></g></svg>