<svg xmlns="http://www.w3.org/2000/svg" viewBox="0 0 193.49 245.75"><defs><style>.cls-1{fill:#ef7f1b;}.cls-2{fill:#b6530e;}.cls-3{fill:#efa15b;}.cls-4{fill:#549326;}.cls-5{fill:#417329;}</style></defs><g id="レイヤー_2" data-name="レイヤー 2"><g id="でこ塗り"><path class="cls-1" d="M80.06,79.16s-9.1-30,13.08-31.09a24.15,24.15,0,0,1,21-5.27s28.43-11.06,33.55,7.91,15.36,14.75,18.49,17.91,5,16.34-2.19,18.45c0,0,23,20.55,23,31.61s4.55,18.45,2.84,25.3,6.26,19-2.28,34.25-.56,24.24-18.2,39.52-33,28.46-57.44,25.82-25-5.27-30.71-3.69-28.37,0-34.66-3.69-21.08-8.43-23.92-19-23.32-19-20.48-39-5-19,7.74-33.2,2.5-11.07,11-19c6.13-5.67.57-10.54,10.24-14.75S41.39,93.39,55,89.17,56.74,81.8,80.06,79.16Z"/><circle class="cls-2" cx="54.31" cy="185.34" r="3.43"/><circle class="cls-2" cx="88.03" cy="161.37" r="3.43"/><circle class="cls-2" cx="144.68" cy="168.22" r="3.43"/><circle class="cls-2" cx="107.79" cy="195.88" r="3.43"/><circle class="cls-2" cx="144.68" cy="141.75" r="3.43"/><circle class="cls-3" cx="53.38" cy="151.22" r="2.5"/><circle class="cls-3" cx="64.05" cy="121.84" r="2.5"/><circle class="cls-3" cx="84.61" cy="133.44" r="2.5"/><path class="cls-4" d="M111.22,10.13s13.43,1.58,17.12,9c0,0,5.16,23.33.95,39.67,0,0-6.19-2.26-8.57,2,0,0-.81-1.58-5.55-2.11C115.17,58.61,123.07,28.57,111.22,10.13Z"/><path class="cls-4" d="M120.72,25.94a112.64,112.64,0,0,0-12.93-4.74v4.74s7.93-1.05,12.93,4.74"/><path class="cls-4" d="M107.79,21.2S88.78-6.35,50.88,4.34c0,0-22.56,7.9-31.3,5.79,0,0,18.13,7.91,20.76,15.81s46.9,32.14,67.45,0"/></g><g id="でこ線"><path class="cls-2" d="M157.92,88.83a49.3,49.3,0,0,1-6.11-.43l.49-3.72c8,1,13.13.1,14.89-2.7,2.08-3.34-.65-9.26-2.21-11.83C161.82,68.9,148,62.82,145.9,51c-1.88-10.36-15.55-9.54-15.68-9.53l-.13-3.78c5.88-.38,17.51,1.76,19.49,12.64s17.12,16.44,17.28,16.49l.58.21.35.52c.27.41,6.53,10,2.57,16.37C168.34,87.2,164.17,88.83,157.92,88.83Z"/><path class="cls-2" d="M86.11,84.3a11.28,11.28,0,0,1-8.51-6.48c-3.83-8.06-.17-20.72,2-24.64,3.08-5.57,10.64-6.71,12.85-6.93,9.53-7.1,17.65-5.85,20.73-5.37l.47.07a21.57,21.57,0,0,1,4.08-1.1l-.2,3.71a8.87,8.87,0,0,0-2.19.72c-.75.6-1.59.47-2.73.3-3-.46-9.87-1.53-18.33,5l-.46.35-.59,0c-.07,0-7.81.46-10.35,5.05C80.69,58.94,78,70,81,76.22a7.46,7.46,0,0,0,5.8,4.39Zm29.31-40.09,0,0ZM113,41.38l0,0Z"/><path class="cls-2" d="M119.72,245.75c-9.88,0-34.19-3.79-37.25-4.28-23.45,3.17-36.19-3.2-38.61-4.58-2.47-.39-6.87-3.07-14.7-8.24-1.78-1.17-3.62-2.39-4.11-2.62-1.41-.67-2.06-2.32-3.13-5-1.42-3.61-3.57-9.07-8.33-13.33C5.73,200.64-.16,189.23,0,184.1c0-1.1.13-2.19.25-3.45a124.88,124.88,0,0,0,.26-19.2c-.45-9.5,5.62-15.88,10.06-20.54,2.21-2.32,4.5-4.73,4.35-6.1-.65-5.8,5-11.33,6.69-12.79,2.79-8.43,3.69-9.21,10-13.11l1.13-.69c2.81-1.75,5-5,7.29-8.53,3-4.55,6.11-9.25,11.11-11,6.87-2.39,9.42-4.3,9.76-4.57C66,78.88,77.55,77.57,78,77.52l2.53,3.37c-3,.33-13.61,2.31-17,5.89l-.1.1c-.28.25-2.92,2.52-11.07,5.35-3.81,1.33-6.43,5.31-9.22,9.52-2.42,3.68-4.93,7.47-8.44,9.65l-1.14.7c-5.78,3.55-6,3.69-8.6,11.58l-.17.52-.42.34c-1.75,1.45-6.2,6-5.77,9.85.35,3.11-2.17,5.75-5.36,9.1-4.19,4.41-9.41,9.88-9,17.79A128.35,128.35,0,0,1,4,181c-.11,1.2-.2,2.25-.24,3.24-.1,3.29,4.5,13.64,12.34,20.65,5.43,4.85,7.77,10.81,9.32,14.75a18.94,18.94,0,0,0,1.39,3.09c.74.38,2.07,1.26,4.43,2.82,3.43,2.26,11.45,7.56,13.25,7.67H45l.44.29c.12.08,12.45,7.59,36.78,4.24l.27,0,.28,0c9,1.44,33.58,5,39.09,4.17,4.48-.67,18.14-2.72,30.15-12.36l4.26-3.4c9.55-7.57,19.42-15.4,21.37-21.36.89-2.7,1.79-6.7,2.66-10.56,2-8.69,3.29-14.1,5.23-16,2.55-2.55,6.52-12.75,2.53-28.07l-.06-.22v-.22c0-.17-.08-4.29.13-6.75.19-2.28-.54-11.19-1.8-13.81-.73-1.51-.79-3.54-.85-5.9-.1-3.32-.21-7.44-2.33-10.77-4.52-7.1-17.89-23.18-21.26-24.44l3.55-2c5.69,2.13,19,21.56,20.87,24.42,2.67,4.2,2.81,9.1,2.91,12.67a14.2,14.2,0,0,0,.48,4.38c1.73,3.58,2.35,13.43,2.16,15.75-.17,2-.13,5.28-.12,6.16,4.14,16.17,0,27.85-3.56,31.43-1.32,1.32-3,8.78-4.23,14.22-.93,4.13-1.81,8-2.75,10.9-2.31,7-12.16,14.86-22.6,23.14l-4.25,3.38c-12.8,10.28-27.21,12.43-31.94,13.14A19.82,19.82,0,0,1,119.72,245.75Z"/><path class="cls-2" d="M120.38,65.13,119,61.38A2.81,2.81,0,0,0,117.68,60a2.09,2.09,0,0,0-1.63.3c-4.39,2.35-8.28-1.84-9.89-4.68l3.26-1.85c0,.05,2.61,4.43,4.87,3.23a5.54,5.54,0,0,1,4.72-.49A5.39,5.39,0,0,1,121,57.75a8.41,8.41,0,0,1,8-.91,2.68,2.68,0,0,0,2.32,0,3.77,3.77,0,0,0,1.27-2.4l3.72.42a7.42,7.42,0,0,1-3,5.14,6.2,6.2,0,0,1-5.54.37c-3.89-1.32-5.33,1.15-5.39,1.26Z"/><path class="cls-5" d="M126.83,20.2c-.93-1-6.42-4-12.28-6.59l4.09,12.77-11-3.69h0A72.33,72.33,0,0,0,96,13,56.92,56.92,0,0,0,64.15,3.74c-5.79.63-21.36,2.89-25.47,6-2.94,2.23-7.32,2.47-11.21,2.06L39.24,20.7l.17.26c.12.17,12.15,17.48,30.81,19.38,12,1.22,24.18-4.07,36.27-15.75l.82-.79,11.85,4s-1.63,26.34-3.48,28.58a12.11,12.11,0,0,1-1.84.77l1.69-26.63-7.27-2.45c-11.41,10.75-23,16.18-34.64,16.18a37.4,37.4,0,0,1-3.81-.2c-19.33-2-31.62-18.36-33.31-20.73L9.27,2.77l10.9,3.66c3.22,1.08,12.42,3.25,16.24.34C42.12,2.43,61.65.25,63.86,0h.19c28.27,0,42.43,16.45,44.89,19.62l4.48,1.54L107.91,6.73l4,1.67c3.67,1.53,15.84,6.75,17.91,9.58s1.44,35.51,1.42,38.87c0,0-.64,1.1-2.32,0C129,56.84,131.27,25,126.83,20.2Z"/><path class="cls-5" d="M99.06,23.06c-.33,0-32.34-4.45-45.7-4.79l0-1.87c13.46.35,45.58,4.76,45.9,4.8Z"/><path class="cls-5" d="M83.18,29.82,82.64,28c1.15-.34,3.16-4.08,4.42-7.44-.49-1.57-5.38-6.18-9.85-9.73L78.38,9.4c2.41,1.91,10.3,8.37,10.58,11.18l0,.21-.07.21C88.42,22.33,85.84,29,83.18,29.82Z"/><path class="cls-5" d="M67.08,26.72l-1-1.55c2.22-1.51,5.07-5.12,6-6.37-1.85-4-6.09-7.94-6.13-8l1.27-1.37c.2.18,4.93,4.61,6.8,9.12l.21.49-.32.42C73.73,19.7,70,24.72,67.08,26.72Z"/></g></g></svg>