<svg xmlns="http://www.w3.org/2000/svg" viewBox="0 0 170.4 167.95"><defs><style>.cls-1{fill:#b03401;}.cls-2{fill:#18652c;}.cls-3,.cls-4{fill:none;stroke-miterlimit:10;stroke-width:5px;}.cls-3{stroke:#872912;}.cls-4{stroke:#0e4e26;}.cls-5{fill:#e37446;}</style></defs><g id="レイヤー_2" data-name="レイヤー 2"><g id="唐辛子"><path class="cls-1" d="M84,34.93s-27.19-2-35.67,24.78c0,0-13.51,16.52-13.13,33.79S21.64,108.14,19.76,116s-7.13,24-9.76,26.66-10.13,13.89-6,21,11.64-10.91,16.61-12.95a32.77,32.77,0,0,0,17.45-26.19c1.5-15.68,19.75-11.47,23.66-14.36,9.78-7.23,35.38-19,43.92-53.77C105.64,56.43,99.16,36,84,34.93Z"/><path class="cls-2" d="M162.23,14.19,133.51,2.65s-13.79-.85-17.73,5.77-10.7,19.29-16.62,19.29S85.37,39.25,85.37,39.25s5.18,6.2,10.13,6.48l10.14-9.58s18-16,18.16-22.52,28,3.1,28,3.1Z"/><path class="cls-2" d="M91.84,34.9s-4.78-2.69-7.6-2.69c0,0-6.48,4.51-6.19,5.91,0,0,12.38,13.24,17.17,12.67,0,0,6.76-4.5,6.76-6.19S91.84,34.9,91.84,34.9Z"/><path class="cls-3" d="M100.75,46.45c2.47,3.36,4.53,11.38,4.53,11.38C104.27,87.5,63.4,109,59,111.12s-18.24-.73-19.69,8.47S37,130.38,32.29,140.47s-10.65,7.09-18.86,18.28-8.8,5.82-10.65,1.95,6-16.54,7.91-18.93S19.76,116,21.34,113.08s13.82-5.32,13.82-19.58S48.29,59.71,48.29,59.71C63.56,37.6,80.66,35,80.66,35"/><path class="cls-4" d="M151.81,16.73l10.42-2.54L133.51,2.65S121.12.63,114,11.49,103.9,27.69,97.68,27.93s-9,7-9,7l-4.48-2.75-6.19,5.91s14.21,12.33,15.69,12.5,11.54-7.43,11.54-7.43L100,41.51s21.64-17.1,24.62-29.35C124.59,12.16,132.2,9,151.81,16.73Z"/><path class="cls-5" d="M63.69,54.83s-9.08,4.88-9.8,17.64,10.17-4.5,13.93-6S77,52.82,63.69,54.83Z"/><path class="cls-5" d="M50.92,82.24c-3.09,0,1.06,6.38,3,4.88S56.93,82.24,50.92,82.24Z"/></g></g></svg>