<svg xmlns="http://www.w3.org/2000/svg" viewBox="0 0 186.21 179.5"><defs><style>.cls-1{fill:#bcd77e;}.cls-2{fill:#def2ae;}.cls-3{fill:#d5b57f;}.cls-4{fill:#9cb85c;}.cls-5{fill:#78943a;}.cls-6{fill:#b08d4f;}</style></defs><g id="レイヤー_2" data-name="レイヤー 2"><g id="冬瓜線"><path class="cls-1" d="M161,17.35s-39.7-34.63-86.16,0S-6.27,105.2,4.71,128.85s35.47,25.34,35.47,25.34S62.14,174.46,90,166s45.61-43.07,51.52-44.76S219.25,63,161,17.35Z"/><path class="cls-2" d="M143.23,12.28s-41.39,0-56.59,33.79S43.56,99.28,36,105.2s-6.76,27.87-6.76,27.87,2.54-25.34,23.65-32.1,40.3-45.61,40.3-45.61S106.91,20.73,143.23,12.28Z"/><path class="cls-2" d="M149.15,50.29S139,89.15,117.05,96.75,68.9,128,68.06,138.14c0,0,28.72-29.56,40.54-28.72S155.06,88.3,149.15,50.29Z"/><path class="cls-2" d="M68.06,37.62S30.89,64.83,33.43,85Z"/><path class="cls-3" d="M35.68,140.58S13.15,163.11,9.4,163.86c0,0-2.63,10.13,7.51,13.14,0,0,25.9-23.28,29.28-30.41C46.19,146.59,44.69,138.33,35.68,140.58Z"/><path class="cls-4" d="M171,26.67s.57,70.36-31.72,87.26c0,0-73.2,56.31-93.1,32.66l-6,7.6s16.52,17,40.55,13.88,46.47-26.13,56.35-42.9c0,0,36.32-23.18,43.1-49.68S181,36,171,26.67Z"/><path class="cls-5" d="M79.61,170.58c-28.73,0-39.85-11.07-41.72-15.4l4.59-2c1.16,2.68,11.07,12.68,38.22,12.37,26.9-.27,54.85-41.91,55.13-42.33l.33-.49.51-.3c21.62-12.39,38.11-33,43-53.92,3-12.73,1.46-24.18-4.48-33.13C159,11,128.47-.26,99.19,7.35c-28,7.28-79.9,72.78-83.46,78.92-.33.57-.77,1.27-1.28,2.09C11,93.77,3.89,105.05,5.15,119.72c1.39,16.15,21.8,28.08,22,28.19l-2.5,4.34c-.93-.54-22.88-13.37-24.49-32.1C-1.24,103.8,6.5,91.56,10.22,85.68c.48-.75.88-1.39,1.19-1.92C13.56,80.05,67,10.56,97.93,2.51c31.35-8.15,64.08,4,81.46,30.12,6.73,10.13,8.52,22.94,5.19,37.05-5.2,22-22.39,43.73-44.92,56.82A165.29,165.29,0,0,1,121.8,148c-14.72,14.85-28.53,22.45-41,22.57Z"/><path class="cls-5" d="M56.46,150.34l-3.4-3.67a.88.88,0,0,0,.35-1c-.64-2.83-7.64-8.07-15.72-10.6-2.67-.84-3.85-.58-4.1-.33s-.27,2,0,2.78l-4.76,1.53c-.16-.51-1.52-5.06,1.22-7.83,1.9-1.92,5-2.23,9.15-.92,8.28,2.59,17.79,8.47,19.09,14.27A5.83,5.83,0,0,1,56.46,150.34Z"/><path class="cls-6" d="M18,179.5h-1a9,9,0,0,1-6.9-2.95c-3.94-4.43-3.19-12.12-3.1-13l.18-1.52,1.43-.53c2-1,12.24-10.32,23.19-20.75l7.42-.56c-6.32,6-22.07,21.38-27.32,25.08-.07,2.22.2,6,1.94,7.93a3.67,3.67,0,0,0,2.19,1.2l30.17-28.17.7,4Z"/></g></g></svg>