<svg xmlns="http://www.w3.org/2000/svg" viewBox="0 0 241.42 221.54"><defs><style>.cls-1{fill:#f0c300;}.cls-2{fill:#799e1f;}.cls-3{fill:#c1d65f;}.cls-4{fill:#668713;}.cls-5{fill:#e8a01c;}.cls-6{fill:#ffc761;}.cls-7{fill:#ffd07a;}.cls-8{fill:#f7d390;}.cls-9{fill:#e8a935;}.cls-10{fill:#62850b;}.cls-11{fill:#5c7a11;}.cls-12{fill:#98ad37;}.cls-13{fill:#cb9719;}</style></defs><g id="レイヤー_2" data-name="レイヤー 2"><g id="とうもろこし"><path class="cls-1" d="M182.56,26.49s7.95-20.24-6.37-22.56c0,0-9.65-4.59-15.38,2.95,0,0-11-3.77-14.78,1.51a14.74,14.74,0,0,0-14.33,3.54s-10.55-1.28-15.83,8.52c0,0-9.34-.56-10.45,11.79,0,0-15.25,2.07-10.26,10.06,0,0-14.48,7.48-10.71,15.94,0,0-8.3,9-6,19,0,0-7.06,7.22-5.55,20.08s8.32,47.41,8.32,47.41l25.58,28.77,72.67-74.06s8.82-5.11,2-17.93a26.77,26.77,0,0,0,4.25-13.32s.19-11.16-3.16-17c0,0,6.36-10.71,0-13.18C182.56,38,189.68,31.76,182.56,26.49Z"/><path class="cls-2" d="M82.69,200.66S58.56,203.18,52,176s2.51-55.3-4-69.62S19.31,63.51,2.59,52.5c0,0,98.71,49.26,102.83,96.39C108.22,180.94,110.84,200.66,82.69,200.66Z"/><path class="cls-2" d="M235,89.13s-36.69,9.67-53.28,37.48-55.38,98.28-99,74.05c0,0-8.23-38.37,29.27-69.11C146,103.61,181.21,73.11,235,89.13Z"/><path class="cls-3" d="M82.69,200.66s-1.74,5.85-4.59,13c0,0,12.82,7.36,23.2,5.06l8.47-14.1S95,207.62,82.69,200.66Z"/><path class="cls-4" d="M78.41,77.26S39.78,42.73,2.59,52.5c0,0,66.36,41.6,70.72,47.8C73.31,100.3,70.79,88,78.41,77.26Z"/><path class="cls-5" d="M93.93,64.44a11.82,11.82,0,0,0,0,9.72,11.64,11.64,0,0,0,7.37,1.37s2.21-3.44,4.12-6.26C105.42,69.27,101.15,61.93,93.93,64.44Z"/><path class="cls-5" d="M142,29.58a11.81,11.81,0,0,0,0,9.72,11.6,11.6,0,0,0,7.37,1.36s2.21-3.43,4.12-6.25C153.51,34.41,149.24,27.06,142,29.58Z"/><path class="cls-6" d="M97.66,93.07s-3.53,4.29-1.46,8.69l7.1,3.1s.89-6.28,3.46-7.52C106.76,97.34,102.57,93.05,97.66,93.07Z"/><path class="cls-5" d="M138.14,94.4s-3.53,4.29-1.45,8.69l7.1,3.1s.89-6.28,3.46-7.51C147.25,98.68,143.06,94.38,138.14,94.4Z"/><path class="cls-7" d="M149.36,58s-3.53,4.28-1.46,8.69l7.1,3.1s.89-6.28,3.46-7.52C158.46,62.29,154.27,58,149.36,58Z"/><path class="cls-8" d="M115.54,43s-3.53,4.29-1.46,8.69l7.1,3.1s.89-6.28,3.46-7.51C124.64,47.23,120.45,42.93,115.54,43Z"/><path class="cls-9" d="M123.66,63.37s-3.53,4.29-1.46,8.69l7.1,3.1s.89-6.27,3.46-7.51C132.76,67.65,128.57,63.36,123.66,63.37Z"/><path class="cls-10" d="M79.41,203.33a25.69,25.69,0,0,1-20.08-7.9c-14.44-14.7-13.79-47-13.32-70.56.15-7.64.28-14.25-.22-18.18-.95-7.42-8.89-18.8-23-32.9C12,62.94.11,52.58,0,52.5H2.59A126.3,126.3,0,0,1,26,70.61c15,15,23.18,27,24.27,35.51.54,4.26.41,11,.25,18.84-.43,21.5-1.08,54,12,67.35,4.09,4.16,11.5,8.35,17.86,8.35h0l-1,2.67Z"/><path class="cls-11" d="M77,79c-.32-.26-30.86-25.58-63-25.58-.69,0-13.27-.92-14-.89l10.3-1.74c.76,0,3.35,0,4.11,0,33.76,0,64.12,23.69,65.44,24.8Z"/><path class="cls-12" d="M96.48,221.54c-9.48,0-19.06-5.74-19.54-6l-1.62-1,5.07-13.87h2.3L79.3,212.52c3.51,1.82,13.57,5.69,20.43,4.24L104,205.19l5.79-.62-6.88,16-1,.28A19.6,19.6,0,0,1,96.48,221.54Z"/><path class="cls-13" d="M183,87a2.42,2.42,0,0,1-.91-.18h0c-.07,0,.07,0,0,0-.29.35.06,0,0,0h0c-.34.08.27-.25,0,0-.72.67,0,0-1.18-1.8a12.57,12.57,0,0,0-1.27-2.23l-1-1.57,1.36-1.27c.06-.06,7.71-7.9.51-27.95l-.3-.86.38-.83c1.66-3.62,3.14-4.48,3.32-7.88,0-.05-.31-2.38-1.38-2.82l-3.17-1.42L181,36.45s2.2-2.32,2.08-4.82a4.86,4.86,0,0,0-1.94-3.45l-1.14-1,.48-1.43c1.13-3.28,3.39-12.78.43-17.19a5.77,5.77,0,0,0-4.81-2.41l-.47,0-.42-.22c-.35-.17-8.61-4.26-12.45,2.12l-.9,1.5L160.16,9c-3.24-1-10.49-2.13-12.26.59l-1,1.52-1.69-.66c-.27-.1-7-2.53-11.85,2.95l-.73.81-1.09-.07c-.4,0-10.09-.53-13.66,7.23l-.58,1.27-1.4,0c-.78,0-7.78.53-8.26,9.67l-.1,1.76-1.73.32c-3.31.61-8.38,2.41-9.27,4.52-.1.24-.37.85.47,2.11l1.36,2-2.17,1.16c-.12.07-12.54,6.94-9.74,13L87,58.49l-.76,1.06c-2,2.71-6.42,10.65-3.59,14.7L79,76.8c-2.24-3.2-2.27-7.74-.07-13.11A36.82,36.82,0,0,1,82,58c-2.29-7.53,6.37-14,10.32-16.52a5.91,5.91,0,0,1,.17-4.21c.35-.83,2.47-4.86,10.91-6.83,1.23-9.2,8.06-11.45,11.06-12,4.34-7.85,13.23-8.67,16.35-8.71a15.23,15.23,0,0,1,14.52-3.84c3.87-3.56,11.25-2.33,14.59-1.53,4.82-6.09,12.8-4.53,16.92-2.58a10.09,10.09,0,0,1,7.79,4.35c4,6,1.62,16,.52,19.76a8.78,8.78,0,0,1,2.4,5.61,10.61,10.61,0,0,1-1.59,5.76,4.5,4.5,0,0,1,.66.88c2.09,3.57-.34,10.23-1.61,13.19,6.09,17.67,1.62,27-.75,30.41,1,1.68,1.56,3.16.52,4.41A2.33,2.33,0,0,1,183,87Z"/><path class="cls-10" d="M108.82,206.77l1-2.2c28.47-6.42,59.41-55.8,69.92-78.88,4.79-10.53,15.48-20.26,31.77-28.9a156.85,156.85,0,0,1,16.6-7.55c-12.51-3.29-42.58-7.66-73.25,14.33q-4.2,3-8.38,6c-38.38,27.26-73.68,51.35-63.74,91.12H79.2c-10.68-42.73,26.59-67.72,64.64-94.76q4.17-2.94,8.37-6c22-15.75,43.51-18.43,57.71-17.9,15.42.58,25.54,4.86,26,5l5.54,2.39-5.75,1.79c-.42.13-41.41,13.19-51.92,36.28C175.13,146.46,141.82,201.63,108.82,206.77Z"/></g></g></svg>