<svg xmlns="http://www.w3.org/2000/svg" viewBox="0 0 186.62 157.44"><defs><style>.cls-1{fill:#e8380d;}.cls-2{fill:#2a7736;}.cls-3{fill:#f78367;}.cls-4{fill:#ac2a07;}.cls-5{fill:#0d4c25;}</style></defs><g id="レイヤー_2" data-name="レイヤー 2"><g id="トマ塗り"><path class="cls-1" d="M177,110.9c-11.71,34.33-84.44,42.42-84.44,42.42S51.54,157,18,122c-34.73-36.32,2.7-90.82,23.36-96.35s51.2-2.33,51.2-2.33a49.54,49.54,0,0,0,23.35,1.84C140.2,20.83,202.18,37.12,177,110.9Z"/><path class="cls-2" d="M97.51,31.61S95.79,8.25,111.06,3.31l10.55,2.87S108.08,10.5,104.49,33.4Z"/><path class="cls-2" d="M103.37,20.53s-7.39-3.1-26.54.23S61,28.7,53.33,32.3c0,0,21-11.07,32.71-5.66,0,0-12.6,2.74-20,10.4,0,0,23.27-7.39,28.89-4.1,0,0,7.71,11.66,4.3,18.36,0,0,11.42-9,9.26-19.72,0,0,14,5.86,23.33,17.82,0,0,.18-10.77-14.27-20.77,0,0,14.78,2.57,23.65,7.13C141.21,35.76,131.73,21.82,103.37,20.53Z"/><path class="cls-3" d="M151.6,99.44s-7.26-16.51-9.55-18.78-6.77-21.82,7.74-17S151.6,99.44,151.6,99.44Z"/><circle class="cls-3" cx="152.64" cy="109.61" r="4.49"/></g><g id="レイヤー_3" data-name="レイヤー 3"><path class="cls-4" d="M89.17,157.44C56.29,157.44,24.33,133.28,24,133l-.62-.46C.68,115.81-5.77,90.3,5.26,60.73,14.57,35.76,29.2,28.66,40,23.67c12.7-5.84,33.26-3.06,33.69-3l-4.2,1.69c-4.39.59-41.2-.69-56.8,41.15-9.81,26.3-4.48,48,15.4,62.63.4.29.71.52.9.68s31.32,23.27,61.49,22.62c3.18-.37,53.76-6.56,75.2-28.09s11.15-61.77,6.85-67.73l-.19-.3c-.55-.92-10.89-23.11-41.23-25.2L126,24.53c33.76-.78,51.76,22.27,53.18,24.59,5.65,8.22,16.77,53.22-7.78,77.87-24,24.13-77.87,30.16-80.15,30.41l-.32,0Z"/><path class="cls-5" d="M97.49,53.73l1-2.76c3-6.66-3.24-16.14-4.12-17.42-4.46-2.27-21.75,2.28-28.1,4.25l-2.24.69,1.35-1.91c3.43-4.86,13.45-8.52,18.07-10-11.68-3.11-28.74,5.9-28.92,6l-4.07,2.17,3.1-3.41c7.7-8.47,19.55-11.45,28.14-12.45a81.74,81.74,0,0,1,16.16-.24C100.78,5.58,110.92,1,111.34.84h0l12.84,5.21-2.28.87c-6.84,2.62-11.2,10.33-12.62,13.19,19.55.7,32.85,16.48,33,16.65h0c-1.89-1.6-13.13-3.8-20.17-5.95,8.3,7.09,10.43,17.91,10.53,18.44l.6,3.21-2.07-2.65c-4.61-7.53-17.29-14.57-21.57-16.79,1,9-9.34,18.45-9.81,18.87Zm-7-22.38a10.23,10.23,0,0,1,4.89.9l.24.22c.29.4,6.18,8.68,5.24,16.08,3.17-3.48,8.61-10.59,6.91-16.76l-.47-1.69,1.58.76c.64.3,13.86,6.7,21,14.65-1.66-4.64-5-12.82-12.31-16.88l-1.11-1,1.33.25c1.66.47,14.16,3.71,20.9,6.43-5.14-4.7-16.85-12.58-30.65-12.62h-1.19l.46-1.11c.18-.43,4.25-10,12-14.2l-8.21-2.23c-1.42.49-9.46,3.73-11.78,15.53l-.15.73-.73-.09c-.27,0-27.57-1.67-42.55,9.89,6.7-2.83,21.73-8.17,30.5-4.29l2,.9-2.16.59c-.14,0-11.92,3.31-17.58,8C73.73,34,83.87,31.35,90.45,31.35Z"/><path class="cls-5" d="M95.73,56.16l2-5.47c2.74-6.08-2.8-14.86-3.91-16.51-4-1.73-18.81,1.74-27.33,4.38L62.05,40l2.7-3.83c2.9-4.12,10.08-7.34,15.52-9.3-11.12-1.06-25.19,6.38-25.34,6.46l-8.14,4.35,4-4.41-.29.12.59-.46L53,30.8c7.87-8.65,19.91-11.69,28.64-12.7a81.64,81.64,0,0,1,15.63-.3A26.31,26.31,0,0,1,111.12.08l.26-.08,15,6.07-4.18,1.6c-5.82,2.22-9.78,8.29-11.63,11.71,19.23,1.31,32.19,16.71,32.32,16.87l-.42.42,0,0h0c-1.06-.89-7.11-1.55-11.83-2.74-1.9-.48-3.84-1-5.66-1.47A37.11,37.11,0,0,1,133.4,49.1l1.21,6.44-4.09-5.24c-4.18-6.82-15.24-13.31-20.08-15.92-.1,8.93-9.7,17.71-10.13,18.1ZM100,48.54a9.92,9.92,0,0,1-.78,2.75l0,0,.45-.42Zm8.48-17c1.78,6.49-3.68,13.75-7.09,17.51l-.72.79c2.83-2.94,8.84-10,8.1-16.77l-.16-1.47-.13-.06Zm20.87,14.56a22,22,0,0,1,2.46,3.26c0-.07-.06-.31-.15-.7Zm.3-3.4c.35.87.67,1.71,1,2.5l.45,1.25A38,38,0,0,0,129.67,42.74ZM90.45,30.55a10.72,10.72,0,0,1,5.29,1l.49.44c.24.33,5.19,7.3,5.47,14.31,3.06-3.73,6.61-9.39,5.26-14.31L106,28.63l3.16,1.51c.5.24,11.07,5.34,18.55,12.12-2-4.69-5.21-10-10.57-12.93l-.15-.11-3.17-2.89,4.07.75,1.46.4c2.92.79,9.59,2.6,15.13,4.46-5.13-3.77-14.77-9.43-26.48-9.46h-2.39l.92-2.2c.16-.39,3.8-8.93,10.73-13.61L111.11,5c-1.9.71-8.9,4-11,14.85l-.29,1.46-1.47-.19c-.2,0-19.22-1.09-34,5.17,7.17-2.18,16.17-3.83,22.35-1.09L90.79,27l-4.32,1.18c-.1,0-9.47,2.34-15.24,5.45C76.61,32.25,85.51,30.55,90.45,30.55ZM95,33l.06.1c1,1.38,4.7,7.2,5,13C99.74,39.93,95.53,33.77,95,33Zm14.29-1,.67.35c4.17,2.17,13.25,7.27,18.89,13.25C122.58,38.91,112.22,33.44,109.28,32Zm-43.2,5,0,0c.19-.06,15.2-4.67,23.9-4.89-6.42.12-15.89,2.57-21,4ZM86,26.61l-2.28.73a64.47,64.47,0,0,0-12.48,5.35,71.6,71.6,0,0,1,14.81-6h0Zm34.25,2.8,2.09.64c2,.61,4.36,1.23,6.75,1.84-3.41-1-6.73-1.95-8.94-2.55ZM54.3,31.74l-.13.14h0l1-.53ZM91,19.16a79.19,79.19,0,0,0-9.21.52,54.8,54.8,0,0,0-18.26,5.18c15.3-6.6,34.74-5.37,35-5.34h0c0-.21.09-.42.14-.63l-.14.62-.7-.06C96.79,19.35,94.32,19.16,91,19.16Zm17,1.72,1,0-1,0v0Zm3-17.57,10.37,2.81-1.75,1c-6.47,3.52-10.31,11-11.35,13.18l.24-.5c1.59-3.18,6-10.88,13-13.57L122,6,111.35,1.71A24.7,24.7,0,0,0,99.29,16.46c3-9.69,10-12.56,11.53-13.07Z"/></g></g></svg>