<svg xmlns="http://www.w3.org/2000/svg" viewBox="0 0 178.19 177.68"><defs><style>.cls-1{fill:#d0ae64;}.cls-2{fill:#77502e;}.cls-3{fill:#9dba5d;}.cls-4{fill:#a88d52;}.cls-5,.cls-6,.cls-7{fill:none;stroke-miterlimit:10;}.cls-5{stroke:#a17d4b;stroke-width:5px;}.cls-6{stroke:#634223;stroke-width:3px;}.cls-7{stroke:#728945;stroke-width:4px;}</style></defs><g id="レイヤー_2" data-name="レイヤー 2"><g id="なし"><path class="cls-1" d="M90.74,47.68s-28.57-13-47.7-2.26-53.48,52.37-33.2,91.79,68.7,32.1,68.7,32.1,46.74,19.15,80.52-10.7,6.2-93.48,0-96.86-33.22-19.71-58-10.13Z"/><path class="cls-2" d="M93.74,55.56s-6.19-33.79,18-54.06h7.89S94.31,25.71,101.06,55.56Z"/><path class="cls-3" d="M106.34,20.14S123,5.44,138.79,13.33s22.53,2.24,22.53,2.24S135.83,47.78,106.34,20.14Z"/><circle class="cls-4" cx="46.28" cy="76.82" r="3.24"/><circle class="cls-4" cx="112.47" cy="132.85" r="3.52"/><circle class="cls-4" cx="64.51" cy="111.71" r="3.43"/><circle class="cls-4" cx="139.81" cy="82.77" r="2.7"/><circle class="cls-4" cx="33.31" cy="134.92" r="2.08"/><circle class="cls-4" cx="93.44" cy="88.18" r="2.7"/><circle class="cls-4" cx="83.96" cy="143.29" r="2.13"/><circle class="cls-4" cx="147.38" cy="124.4" r="1.83"/><path class="cls-5" d="M93,48.55s-30.3-13.64-50-3.13-56.16,56.37-33.2,91.79c23.47,36.23,69.67,32.47,69.67,32.47s41.82,13.54,66-1.86,31.25-34.55,30-50.32-1.36-53.94-33-63.76-41.45-2.12-41.45-2.12"/><path class="cls-6" d="M119.65,1.5h-7.89s-24.21,15.77-18,54.06h7.32S95.06,24.4,119.65,1.5Z"/><path class="cls-7" d="M109,21.17S131.65,46,160.09,17c0,0-12.48,1.41-21.3-3.65C138.79,13.33,120.58,5.18,109,21.17Z"/></g></g></svg>