<svg xmlns="http://www.w3.org/2000/svg" viewBox="0 0 158.24 148.45"><defs><style>.cls-1{fill:#73315a;}.cls-2{fill:#2a1626;}.cls-3{fill:#451e41;}.cls-4{fill:#88557f;}.cls-5{fill:#461f42;}.cls-6{fill:#0e0008;}</style></defs><g id="レイヤー_2" data-name="レイヤー 2"><g id="なす"><path class="cls-1" d="M95.08,39.87S69,77.39,39,79.17C27,79.89-2.64,86.44,3.38,111.74s23.87,32.49,44.82,33.7,81.2-18.08,87.23-79.52V38.54l-34.94-5.15Z"/><path class="cls-2" d="M123.33,18.83S129,5.87,132.9,2.5L144.16,7s-9.57,9.14-10.41,16.12c0,0,10.41-1.48,7.6,13.16s9.1,22,16.89,23.09c0,0-45,1.27-38-17.08,0,0-8.18,9.76-30.15,10.89,0,0,14.05-10.55,17.74-16,0,0-12.73,12.7-33.66-1.64,0,0,22.12-.39,26.06-9.4S112.91,14.54,123.33,18.83Z"/><path class="cls-3" d="M20.84,127.89s11.3,14.18,34.35,11.26,74.33-25.9,76-82.78C131.21,56.37,117.13,125.07,20.84,127.89Z"/><ellipse class="cls-4" cx="28.96" cy="100.96" rx="17.7" ry="12.95"/></g><g id="なす線"><path class="cls-5" d="M50,148.45a52.64,52.64,0,0,1-7.3-.49C9.59,143.39,1.85,129.83.09,109.42c-.64-7.44,2-14.56,7.74-20.58,8.26-8.73,22.36-14.33,35.05-14h.36c14.1,0,39-25,47.49-34.71l5.19,1.54a235.37,235.37,0,0,1-19.7,20C62.24,74,51,80.12,42.73,79.89c-11.36-.35-23.93,4.63-31.27,12.39-3.27,3.45-7,9.16-6.39,16.71,1.59,18.41,8.37,29.88,38.35,34,21.25,2.93,45.47-8.51,60-21.15,13.36-11.59,29.32-32.37,29.47-65.53l5,0c-.16,35-17.05,57-31.19,69.29C90.41,139.8,68.52,148.45,50,148.45Z"/><path class="cls-6" d="M158.24,59.37c-2.89,0-31.13,1.72-38.61-9a10.4,10.4,0,0,1-1.9-5.19C112.09,49.42,101.41,56,90,55.17l-5.22-.37,4.14-3.21a108.12,108.12,0,0,0,11.35-10.06c-6.79,2.26-17.66,3.72-27.34-4.45l-3.1-2.61L85.71,31C95,29,95.12,28.76,99,23.71c.81-1.07,1.76-2.32,3-3.82,5.8-7.2,15.17-5.82,20.58-3.63L132.05,0l16.66,6.67-3.54,2.06c-4.34,2.53-7.37,9.21-8.72,12.72a10.27,10.27,0,0,1,5.37,2.9,8.42,8.42,0,0,1,2,6.79c-1.61,15.68,2.89,26.25,14.44,28.23m-50.4-22.18c-.64,3.65-13,11.94-17.74,16,12.37-2,25.22-11.73,29-14.4h0l1.12,3.51c.53,3.32,1.26,3.75,2.66,5.76,3.67,5.27,14.89,7.7,24.24,8.7-6.12-5-8.59-13.73-7.33-26a4.5,4.5,0,0,0-1-3.68c-1.41-1.57-4.17-1.93-5.12-1.93l-2.67,0,.76-2.56c.14-.45,2.95-9.64,8.37-15L133.76,5l-9.67,16.49-1.69-.88c-.45-.23-11.3-5.71-17.35,1.8-1.17,1.46-2.11,2.69-2.9,3.73-4.41,5.79-5.24,6.5-15.58,8.76L76,36.7c12.24,6.95,31.22.87,31.81.49"/></g></g></svg>