<svg xmlns="http://www.w3.org/2000/svg" viewBox="0 0 168.79 253.31"><defs><style>.cls-1{fill:#94161c;}.cls-2{fill:#c73f46;}.cls-3{fill:#781217;}.cls-4{fill:#791318;}.cls-5{fill:#8f9400;}.cls-6{fill:#6e7300;}</style></defs><g id="レイヤー_2" data-name="レイヤー 2"><g id="棗"><path class="cls-1" d="M129.14,142s-18.59-43.37-54.48-30.12S-8.21,196.22,5,223.93s34.43,34.94,69.62,16.87S137.57,176.94,129.14,142Z"/><path class="cls-2" d="M96.35,164.43s-6.75,38-16.89,46.45,16.86,4.68,22.79-4.42S112.38,149.22,96.35,164.43Z"/><path class="cls-2" d="M65.44,229.84s1.89-7.6,9.22-7.6S77.6,232.38,65.44,229.84Z"/><path class="cls-3" d="M78.23,127.26s13.53,25,32.84,23.65C111.07,150.91,105.18,127.6,78.23,127.26Z"/><path class="cls-4" d="M37.86,253.31c-14.06,0-33.67-11.95-37.59-40.68C-2.3,193.82,14.08,168.47,24.07,155c14.21-19.12,32.37-36.82,44.17-43,22.37-11.83,36.43-1.64,38.58.11,5.14,2.66,20.92,12.3,26.2,32.48,4.46,17-.06,35.83-13.44,55.85-21.21,31.72-47.89,49.47-79.3,52.75A24,24,0,0,1,37.86,253.31Zm51-141.94c-5,0-11.1,1.25-18.28,5-11.2,5.92-28.68,23-42.49,41.61C11.85,179.84,3.52,199.5,5.22,212c4.06,29.7,25,37.25,34.54,36.26,29.86-3.12,55.32-20.13,75.66-50.56,12.55-18.78,16.85-36.21,12.77-51.81-4.85-18.5-19.51-27.19-23.89-29.41l-.29-.15-.23-.21C103.42,115.76,98.17,111.37,88.85,111.37Z"/><path class="cls-5" d="M162.81,2.81s-55.93,133-64.2,136.3l5.07,5.61S165.37,17.45,167.18,7.88Z"/><path class="cls-6" d="M104.06,147.37l-8-8.84,2-.81c5.9-3,42-84.68,63.37-135.49L162.36,0l6.43,7.45-.13.71c-1.84,9.66-61.11,132-63.63,137.21Zm-3.27-8.08,2.51,2.77c21-43.39,59.1-123.12,62.24-133.79l-2.29-2.65c-3.39,8-15.43,36.36-28.07,64.7C111.45,123.51,103.76,136.05,100.79,139.29Z"/></g></g></svg>