<svg xmlns="http://www.w3.org/2000/svg" viewBox="0 0 138.08 243.27"><defs><style>.cls-1{fill:#778b2f;}.cls-2{fill:#95a323;}.cls-3{fill:#c0ac3a;}</style></defs><g id="レイヤー_2" data-name="レイヤー 2"><g id="稲塗り"><path class="cls-1" d="M83.94,243.27s108.78-148,18-243.27C101.89,0,175.17,81.09,83.94,243.27Z"/><path class="cls-2" d="M83.94,243.27S185.4,85.29,31.19,30C31.19,30,165,81.93,83.94,243.27Z"/><path class="cls-2" d="M83.94,243.27S166.72,105.58,5.84,60C5.84,60,145,90.48,83.94,243.27Z"/><path class="cls-3" d="M8.47,103.61c-2.49,3.23-1.39,8.25-1.39,8.25s5.14-.22,7.62-3.45,3.11-6.92,1.39-8.25S11,100.38,8.47,103.61Z"/><path class="cls-3" d="M24.16,87.66c-2.63-3.11-7.77-3.09-7.77-3.09s-.87,5.07,1.77,8.18,6.11,4.49,7.77,3.09S26.8,90.77,24.16,87.66Z"/><path class="cls-3" d="M8.36,86.75C4.79,84.8,0,86.66,0,86.66s1,5,4.58,7,7.32,2,8.37.09S11.94,88.71,8.36,86.75Z"/><path class="cls-3" d="M16,52.41c-2.71-3-7.85-2.91-7.85-2.91s-.75,5.09,2,8.14S16.36,62,18,60.54,18.73,55.46,16,52.41Z"/><path class="cls-3" d="M36.33,20.29c-1.84-3.63-6.85-4.8-6.85-4.8s-2,4.73-.17,8.36,4.91,5.79,6.85,4.8S38.17,23.93,36.33,20.29Z"/><path class="cls-3" d="M50.43,26.52c-.8-4-5.3-6.47-5.3-6.47s-3.21,4-2.41,8S45.89,35,48,34.53,51.23,30.52,50.43,26.52Z"/><path class="cls-3" d="M64.59,32.53c-.8-4-5.3-6.47-5.3-6.47s-3.21,4-2.41,8,3.17,6.89,5.3,6.46S65.39,36.52,64.59,32.53Z"/><path class="cls-3" d="M25.75,32.76c-3.94,1.05-6.12,5.7-6.12,5.7s4.2,3,8.14,1.91,6.68-3.6,6.12-5.7S29.69,31.72,25.75,32.76Z"/><path class="cls-3" d="M36.3,43c-3.36,2.32-3.84,7.43-3.84,7.43s4.95,1.36,8.31-1S45.84,43.8,44.61,42,39.65,40.65,36.3,43Z"/><path class="cls-3" d="M51.89,51c-2.2,3.43-.67,8.34-.67,8.34s5.09-.66,7.29-4.09,2.5-7.17.67-8.34S54.09,47.6,51.89,51Z"/><path class="cls-3" d="M13.44,66.44c-4.08,0-7.4,3.9-7.4,3.9s3.28,4,7.36,4,7.39-1.73,7.4-3.9S17.51,66.46,13.44,66.44Z"/><path class="cls-3" d="M31.15,58C29.44,54.33,24.49,53,24.49,53s-2.2,4.64-.49,8.35,4.69,6,6.66,5S32.86,61.73,31.15,58Z"/><path class="cls-3" d="M25.08,75.71c-4,.88-6.36,5.44-6.36,5.44s4.07,3.13,8.05,2.25S33.6,80.09,33.13,78,29.06,74.84,25.08,75.71Z"/><path class="cls-3" d="M46.6,64.18c-.31-4.07-4.49-7.06-4.49-7.06s-3.67,3.6-3.36,7.67,2.33,7.22,4.5,7S46.92,68.24,46.6,64.18Z"/><path class="cls-3" d="M38.74,90.93c-1.94-3.59-7-4.62-7-4.62s-1.88,4.78.06,8.37,5.06,5.65,7,4.61S40.68,94.51,38.74,90.93Z"/><path class="cls-3" d="M22.11,108.12c-1.63,3.74.67,8.34.67,8.34s4.92-1.46,6.55-5.2,1.32-7.47-.67-8.34S23.73,104.38,22.11,108.12Z"/><path class="cls-3" d="M36.94,111.87c-.23,4.07,3.51,7.59,3.51,7.59s4.12-3.07,4.35-7.14-1.34-7.47-3.51-7.59S37.17,107.8,36.94,111.87Z"/><path class="cls-2" d="M85.69,240.14S149.17,109.45,6.84,96.39C6.84,96.39,129.27,95.15,85.69,240.14Z"/></g></g></svg>