<svg xmlns="http://www.w3.org/2000/svg" viewBox="0 0 154.65 271.29"><defs><style>.cls-1{fill:#428c29;}.cls-2{fill:#f5ffd9;}.cls-3{fill:#346e20;}.cls-4{fill:#c2d98f;}</style></defs><g id="レイヤー_2" data-name="レイヤー 2"><g id="にら"><path class="cls-1" d="M62.5,174.36s37.24-.65,48.65-30.16-20.69-30.15-20.69-30.15Z"/><path class="cls-1" d="M100.21,14.24s-4.5,98-28.16,136.84-47.3,82.21-49.55,85.59S2.79,260.32,2.79,260.32L9,264.83S150.89,79,100.21,14.24Z"/><path class="cls-2" d="M9,264.83l-6.2-4.51s16.79-22.33,19.5-27.1,21.75-34.49,25.48-41v3.87l4-1.41v3.38l4-3S19.4,257.79,9,264.83Z"/><path class="cls-3" d="M58.12,193.94l-2.35,1.2c.16-.33,14.13-34.4,28.37-56.68C98.05,116.7,104,86.05,109,56.52c2.37-14.14-.51-24.47-3.34-30.65a38.69,38.69,0,0,0-4-6.79c-1.84,17.18-8.36,76.14-13,93.36-.25,1-6.35,24.92-12.67,35.64s-28.27,44.18-28.27,44.18l-.49-3.11s19.07-32.5,25.32-43.1c6-10.23,12.18-34.38,12.24-34.63C90.1,91.91,98.14,14.81,98.22,14l.41-3.92,2.92,2.65c.67.6,16.31,15.12,11.39,44.42-5,29.94-11.12,61-25.43,83.43C73.41,162.68,58.27,193.61,58.12,193.94Z"/><path class="cls-4" d="M9.35,267.56,0,260.77l1.17-1.62c.35-.49,39.33-53.93,46.11-70l.49,3.11c-6.32,15-35.92,58.89-42.19,67.62l3,2.21c6.33-8,40.77-54.21,47.15-66.95l2.35-1.2c-7.54,19.78-46.07,70.28-47.58,72.14Z"/><path class="cls-1" d="M105.69,4.33s-4.46,102.72-28.1,143.46S30.32,234,28.07,237.54s-19.71,24.8-19.71,24.8l6.2,4.72S156.41,72.19,105.69,4.33Z"/><path class="cls-2" d="M14.56,267.06l-6.2-4.72s16.78-23.41,19.49-28.41,21.74-36.17,25.47-43V195l4-1.48v3.54l4-3.1S25,259.68,14.56,267.06Z"/><path class="cls-3" d="M63.67,192.73,61.32,194c.16-.35,14.12-36.08,28.35-59.44,13.9-22.81,19.88-54.94,24.82-85.9,2.37-14.83-.51-25.66-3.35-32.13a41.57,41.57,0,0,0-4-7.13c-1.83,18-8.32,79.84-13,97.88-.25,1-6.34,26.14-12.65,37.38S53.32,191,53.32,191l-.49-3.27s19.06-34.08,25.3-45.19c6-10.73,12.17-36.05,12.23-36.31C95.61,85.75,103.62,4.92,103.7,4.11L104.1,0,107,2.77c.67.63,16.31,15.85,11.41,46.57-5,31.38-11.09,64-25.39,87.47C79,160,63.83,192.39,63.67,192.73Z"/><path class="cls-4" d="M14.93,269.93l-9.36-7.12,1.17-1.69c.36-.51,39.32-56.56,46.09-73.41l.49,3.27c-6.31,15.71-35.89,61.74-42.17,70.9l3,2.31C20.52,255.82,55,207.35,61.32,194l2.35-1.26c-7.52,20.74-46,73.69-47.55,75.65Z"/><path class="cls-1" d="M125.21,12.2S114,114.41,87.77,153.51,35,236.44,32.47,239.83s-21.29,23.45-21.29,23.45l5.88,5.12S171.37,83.25,125.21,12.2Z"/><path class="cls-2" d="M17.06,268.4l-5.88-5.12S29.46,241,32.49,236.2,56.55,201.54,60.72,195l-.26,4,4.1-1.21-.23,3.53,4.18-2.83S27.93,261.71,17.06,268.4Z"/><path class="cls-3" d="M70.93,197.45l-2.42,1.1c.18-.34,16.45-35.07,32.18-57.45,15.37-21.86,23.45-53.53,30.4-84.1,3.34-14.63,1.17-25.63-1.23-32.28a42.45,42.45,0,0,0-3.48-7.36c-3,17.85-13.54,79.11-19.35,96.82-.31,1-8,25.66-15.08,36.46S60.72,195,60.72,195l-.28-3.29S81.69,159,88.65,148.29c6.72-10.31,14.51-35.17,14.59-35.43,6.58-20.07,19.87-100.2,20-101l.67-4.08,2.74,3c.63.67,15.24,16.88,8.34,47.21-7.06,31-15.27,63.13-31.08,85.62C88.33,165.74,71.11,197.11,70.93,197.45Z"/><path class="cls-4" d="M17.23,271.29l-8.87-7.72L9.64,262c.39-.48,42.94-53.85,50.8-70.22l.28,3.29C53.39,210.28,20.85,254.28,14,263l2.88,2.51c6.87-7.94,44.4-54,51.64-67l2.42-1.1c-8.87,20.2-50.78,70.51-52.41,72.36Z"/><path class="cls-1" d="M147.82,38.85S122,131.86,92,164.16s-61,68.93-63.79,71.7S5.15,254.42,5.15,254.42L9.75,260S179.26,111.55,147.82,38.85Z"/><path class="cls-2" d="M9.75,260l-4.6-5.61s20.12-17.9,23.63-21.91S56.1,204,60.91,198.57l-.86,3.71,3.94-.52L63.24,205l4.26-2S20.72,255.46,9.75,260Z"/><path class="cls-3" d="M69.89,202.35,67.5,203c.22-.28,20.41-30,38.23-48.41,17.39-18,29.62-46.08,40.65-73.36,5.28-13.06,5-23.57,3.78-30.08a39.68,39.68,0,0,0-2.06-7.35c-5.47,16.09-24.45,71.27-32.47,86.8-.44.89-11.27,22.57-19.36,31.52s-35.36,36.45-35.36,36.45l.25-3.09s24.45-27.17,32.45-36c7.72-8.55,18.64-30.42,18.75-30.64,9.09-17.61,33.46-89.85,33.71-90.58l1.23-3.68,2.06,3.15c.47.72,11.38,17.92.44,45-11.18,27.65-23.6,56.2-41.5,74.67C90.65,175.57,70.1,202.06,69.89,202.35Z"/><path class="cls-4" d="M9.47,262.73l-7-8.47L3.94,253c.43-.39,47.52-43.48,57.22-57.47l-.25,3.09c-9,13.05-45.54,49-53.15,56L10,257.32C17.52,251,58.91,213.88,67.5,203l2.39-.65c-11.2,17.39-57.24,57.74-59,59.21Z"/></g></g></svg>