<svg xmlns="http://www.w3.org/2000/svg" viewBox="0 0 151.1 227.14"><defs><style>.cls-1{fill:#83aa28;}.cls-2{fill:#ef7c00;}.cls-3{fill:#567217;}.cls-4{fill:#6f9025;}.cls-5{fill:#48601b;}.cls-6{fill:#9b4f00;}.cls-7{fill:#364b1b;}.cls-8{fill:none;stroke:#ef9e45;stroke-miterlimit:10;stroke-width:3px;}</style></defs><g id="レイヤー_2" data-name="レイヤー 2"><g id="人参塗り"><path class="cls-1" d="M72,83.58s-14.66,27-17.9,30.45,16,10.28,16,10.28L87.55,91.09Z"/><path class="cls-2" d="M52.5,99.72c-11.13-4.84-28.18,8.3-33,19.43,0,0-20.5,36.68-16.9,85.78,1.9,25.85,12.77,23.32,30.36,12.5s38-26.71,60.27-66.19c6-10.58,3.84-32.13-7.29-37"/><path class="cls-3" d="M56.67,62.52S37.38,49.65,46.4,30.69,73,22.56,73,22.56,76.25,3.18,88.83,2.71s20.44,7,19.83,16.46-4.92,46.06-4.92,46.06L82.07,84.6Z"/><path class="cls-4" d="M77.91,50.37s-14.25-20.32,0-33.86,25-3.56,25-3.56,11-16.08,28.52-8,9.78,25.18,6.34,27.88c0,0,1.79-4.19,9.25,7.89,5.31,8.59.56,29.28-20,31.53,0,0,8,22.41-10,34.72C93.07,123.4,81.76,96.3,81.76,96.3s-3.49,5.54-18,2c-16.14-3.89-20.4-13.86-19.68-26.72S57.81,41.3,77.91,50.37Z"/></g><g id="人参線"><rect class="cls-5" x="59.76" y="99.13" width="4.77" height="4" transform="translate(-56.51 104.48) rotate(-60.05)"/><path class="cls-6" d="M15.11,227.14a14.71,14.71,0,0,1-5-.82,12.71,12.71,0,0,1-8-9.18c-6.75-38.7,3.43-80.92,17-102.64,7.48-12,16.27-16,22.32-17.33a24.88,24.88,0,0,1,11.82.17l.19.07c.25.1,25.12,10.31,30.47,12.55,6.26,2.62,16.46,10.85,15,25.06-1.7,16.22-11.59,42.17-49,73.71C35.33,221,23.68,227.14,15.11,227.14Zm32-125.61c-5.63,0-15.4,2.26-23.74,15.62C10.64,137.55.6,179.21,7.06,216.26a7.68,7.68,0,0,0,4.79,5.38c4,1.37,13.71,1,34.79-16.74,36.15-30.46,45.66-55.1,47.27-70.41C95.1,123.21,87,116.66,82,114.57c-5.15-2.15-28.48-11.73-30.32-12.49A17.46,17.46,0,0,0,47.1,101.53Z"/><rect class="cls-5" x="75.9" y="101.29" width="10.4" height="4" transform="translate(-48.11 126.77) rotate(-62.16)"/><path class="cls-7" d="M49.52,59.44A31.55,31.55,0,0,1,43,51.87c-3.88-6.33-4.69-13.06-2.35-19.45A23.17,23.17,0,0,1,53.54,18.71c3.9-1.56,10-2.64,17.86.43C73.1,14.3,77.47,4.66,86.26,1.23,93-1.38,100.67.17,109.16,5.85L106.37,10c-7-4.71-13.18-6.09-18.28-4.12C78.84,9.48,73.2,22,73.17,22.15l-.74,3-.56-.37C66,21.9,60.26,21.4,55.4,23.35a18.21,18.21,0,0,0-10,10.79c-1.8,4.93-1.18,10,1.85,15a26.44,26.44,0,0,0,5.43,6.39Z"/><path class="cls-5" d="M102.69,113.8a22,22,0,0,1-7-1.15A26.68,26.68,0,0,1,80.7,99c-5.54,2.26-21.31,6.75-34-8.41-6.7-8-8.68-22.44.49-34.49,5.23-6.86,14.6-12.38,26.3-9.39-2.77-5.66-6.12-15.46-2.4-24.86,2.77-7,9.4-12.11,17.75-13.66,5.55-1,10.7-.24,14,2.09,3.85-3.42,15.26-11.89,29.22-7.18,10,3.37,11.78,11.88,12,16.66s-1.08,9.66-3,12.58c5.51,3.37,12.29,10.86,9.3,22.17-3.4,12.89-15.8,17.75-20.83,19.21,1.57,6.18,4.55,24.44-11.37,35C112.29,112.55,107,113.8,102.69,113.8ZM82.86,93.4l.79,2.24a22.43,22.43,0,0,0,13.29,13.22c6,2,12.41.84,19-3.54,6.93-4.58,10.6-11.35,10.9-20.13A36.76,36.76,0,0,0,125.16,73l-.79-2.2,2.29-.44c.16,0,16.28-3.35,19.84-16.84,3.44-13-9-18.55-9.5-18.78l-4.3-1.85L137,31c.95-.52,3.55-5.65,3-12.1-.37-4.2-2.27-9.71-9.19-12C116.35,2,104.49,14.2,104.37,14.33l-1.47,1.54-1.45-1.56c-2.08-2.26-6.85-3.14-11.86-2.21-7,1.3-12.5,5.49-14.76,11.2C70,35.41,79.45,49.09,79.55,49.22l4.19,6-6.66-3c-10.17-4.63-20.15-2.27-26.69,6.32-7.9,10.38-6.28,22.69-.6,29.49,13.41,16,30.28,6.94,31,6.55Z"/><path class="cls-8" d="M74.25,159.37S63.09,153,53.68,150"/><path class="cls-8" d="M67.54,170.63s-8.64-6-15.39-7.13"/><path class="cls-8" d="M59.84,181.14s-.56-2.63-7.69-3.75"/></g></g></svg>