<svg xmlns="http://www.w3.org/2000/svg" viewBox="0 0 178.23 124.91"><defs><style>.cls-1{fill:#e7d8bc;}.cls-2{fill:#cfc29e;}.cls-3,.cls-5{fill:none;stroke:#b89f87;stroke-miterlimit:10;}.cls-3{stroke-width:4px;}.cls-4{fill:#faf1df;}.cls-5{stroke-width:4.41px;}</style></defs><g id="レイヤー_2" data-name="レイヤー 2"><g id="ニンニク"><path class="cls-1" d="M48.73,5.07S49.29,22.53,42,27.6-22.3,58.26,11.56,87.29c0,0,14.64,5.07,23.09,0,0,0,18.58,19.14,35.48,2.25,0,0,27.6,6.85,31.53-19.15S67.87,34.92,67.31,27.6,75.2,7.32,69,2.26C69,2.26,59.43,6.76,48.73,5.07Z"/><path class="cls-2" d="M62.64,4.35S56.2,33.6,59.29,36.7s32,31.48,10.84,52.84c0,0,27.86,6.31,31.53-19.15S72,32.23,69.6,30.85c0,0-5.23-3.19-.38-13.1S69,2.26,69,2.26Z"/><path class="cls-3" d="M48.73,5.07s7.54,1.38,13.91-.72L69,2.26s5.5,4.8.22,15.49.38,13.1,5.85,15.73C78.24,35,109.85,53.7,100.69,74.86S70.13,89.54,70.13,89.54s-15.21,16.89-35.48-2.25c0,0-24.28,7.46-29.88-7.39S0,54.79,27.29,36.27,44.79,28.44,48.73,5.07Z"/><path class="cls-3" d="M44.22,43.08s-18,22.25-9.29,38"/><path class="cls-3" d="M58.45,26.75s-1.62,9.86,3.48,12.68S83,66.27,75,83"/><path class="cls-4" d="M32.55,36.89S21.14,45.05,19.16,53.5l8.45-7.26a13.38,13.38,0,0,0,0,5l4.94-5v3.14s6.61-9.68,8.58-10.52l-7.32,4.22.28-3.38-3.94,3.38Z"/><path class="cls-4" d="M49,47.38a17.85,17.85,0,0,0-1.13,5.48l3.54-2.74.75,2.74,1.91-2.74,1.41,2.74,2.72-5.52-3.5,1.13L53.3,46.25,50.14,49Z"/><path class="cls-1" d="M116.91,22s.62,19.24-7.45,24.83S38.6,80.63,75.94,112.64c0,0,16.14,5.58,25.45,0,0,0,20.49,21.1,39.11,2.48,0,0,30.44,7.55,34.77-21.11S138,54.9,137.4,46.83s8.69-22.35,1.86-27.94C139.26,18.89,128.71,23.86,116.91,22Z"/><path class="cls-2" d="M132.25,21.21s-7.1,32.24-3.69,35.65,35.25,34.71,11.94,58.26c0,0,30.73,6.95,34.77-21.11s-32.69-42.07-35.35-43.59c0,0-5.77-3.52-.42-14.45s-.24-17.08-.24-17.08Z"/><path class="cls-5" d="M116.91,22s8.32,1.52,15.34-.79l7-2.32s6.07,5.3.24,17.08.42,14.45,6.45,17.35c3.49,1.67,38.34,22.28,28.24,45.61s-33.69,16.19-33.69,16.19-16.76,18.62-39.11-2.48c0,0-26.76,8.23-32.93-8.15s-5.33-27.68,24.82-48.1S112.57,47.76,116.91,22Z"/><path class="cls-5" d="M112,63.9S92.08,88.42,101.7,105.81"/><path class="cls-5" d="M127.64,45.9s-1.79,10.87,3.83,14,23.25,29.6,14.43,48"/><path class="cls-4" d="M99.07,57.07s-12.58,9-14.75,18.32l9.31-8a14.61,14.61,0,0,0,0,5.51l5.44-5.51v3.46s7.29-10.67,9.46-11.6l-8.07,4.65.31-3.72L96.43,63.9Z"/><path class="cls-4" d="M117.22,68.64a19.8,19.8,0,0,0-1.24,6l3.9-3,.83,3,2.1-3,1.55,3,3-6.09-3.86,1.25L122,67.4l-3.48,3Z"/></g></g></svg>