<svg xmlns="http://www.w3.org/2000/svg" viewBox="0 0 204.39 207.8"><defs><style>.cls-1{fill:#2e8152;}.cls-2{fill:#f4f8e9;}.cls-3{fill:#2e6443;}.cls-4{fill:#dddcc5;}</style></defs><g id="レイヤー_2" data-name="レイヤー 2"><g id="ねぎ塗り"><path class="cls-1" d="M78.08,102.73S94.49,33.65,94.49,21.27L113.63,14S103.07,65.42,96.48,80.14c0,0,57.14-66.76,84.73-77.46L198.1,7.19S118.43,72.32,92,109.58Z"/><path class="cls-2" d="M2.15,204.48s16.68-5.17,29.29-13.06c-4.3-1.55,58.28-76.3,78.73-103.63L88.93,103.3,94,93.22l-11.54,9.25,2-7.62S28,163.86,2.15,204.48Z"/></g><g id="ねぎ線"><path class="cls-3" d="M78.26,102.5,76.87,100h0c2.37-3.6,9.31-43.22,15.15-79.12l.23-1.42,24.26-9.27-.39,4c-1.35,14.09-9.32,40.35-14.54,56.45C139.87,24,179.53.77,180,.52l.89-.52,23.54,6.28-5.27,3.19c-10.93,5.34-67.89,60.38-93.22,85.93l-6.63,1.33c2.75-2.77,71-73.06,92.62-88.61l-10.3-2.75c-6.49,4-40.36,22-76.64,66.42L95.33,82.38l2.27-8.51c.16-.46,9.59-34.15,13-56.1l-13.9,5.32c-.8,4.89-3.58,21.62-6.64,38.34C82.55,102.55,79.57,100.55,78.26,102.5Z"/><path class="cls-4" d="M0,207.8l1.48-4.36C7,187.23,74.1,103.38,76.87,100l1.39,2.52C77.64,103.26,20.39,177,7.51,200l22.6-10.2c5.47-7.8,58-85.59,69.16-93.09l6.63-1.33c-8.69,5.83-50.53,65.31-72.82,97.17l-.32.45Z"/></g></g></svg>