<svg xmlns="http://www.w3.org/2000/svg" xmlns:xlink="http://www.w3.org/1999/xlink" viewBox="0 0 197.09 225.81"><defs><style>.cls-1{fill:none;}.cls-2{fill:#8cc32f;}.cls-3{clip-path:url(#clip-path);}.cls-4{fill:#6c9a21;}.cls-5{fill:#7bac28;}.cls-6{fill:#ddebbe;}.cls-7{fill:#cad8af;}.cls-8{fill:#c0cda7;}.cls-9{fill:#608a2d;}</style><clipPath id="clip-path" transform="translate(18.07 28.58)"><path class="cls-1" d="M27,18.72s.56,27-3.94,29.84S3.33,61,6.7,76.72s10.14,23.65,3.38,33.22-7.32,15.77-.56,28.16S2.18,157.24,4.73,164,7.83,177,21.35,179.77s29.28-1.69,33.78,0,19.2,8.45,30.44,6.19,3.35-5.63,7.86-9.57,22.22-8.45,32.23-26.47S139,106,153.08,95.3s3.7-24.78,3.56-27.59,5.55-24.78,3.83-27.59S148.61,39,148.61,39s3.94-24.78,0-29.85-10.14-3.37-13-2.25S128,21,125.66,21s-9.15-4.51-15.9-5.63S102.16,4.64,97,2.39,77.66,3,69.21,12.52,56.82,27.16,56.82,27.16s-2.25-10.7,0-14.64S46.69,4.08,41.62,4.08,31.48,8,27,18.72Z"/></clipPath></defs><g id="レイヤー_2" data-name="レイヤー 2"><g id="白菜塗り"><path class="cls-2" d="M27,18.72s.56,27-3.94,29.84S3.33,61,6.7,76.72s10.14,23.65,3.38,33.22-7.32,15.77-.56,28.16S2.18,157.24,4.73,164,7.83,177,21.35,179.77s29.28-1.69,33.78,0,19.2,8.45,30.44,6.19,3.35-5.63,7.86-9.57,22.22-8.45,32.23-26.47S139,106,153.08,95.3s3.7-24.78,3.56-27.59,5.55-24.78,3.83-27.59S148.61,39,148.61,39s3.94-24.78,0-29.85-10.14-3.37-13-2.25S128,21,125.66,21s-9.15-4.51-15.9-5.63S102.16,4.64,97,2.39,77.66,3,69.21,12.52,56.82,27.16,56.82,27.16s-2.25-10.7,0-14.64S46.69,4.08,41.62,4.08,31.48,8,27,18.72Z" transform="translate(18.07 28.58)"/><g class="cls-3"><path class="cls-4" d="M27.81,16.84S45.69,22.66,50.13,37.3s3.38,18.21,0,26.65c0,0,14-14.26,20.21-14.26,0,0,12.86-15.21,18.82-15.21,0,0-10.64-22.86-2.9-32.83S50.13-28.58,50.13-28.58L12.34,1.65Z" transform="translate(18.07 28.58)"/><path class="cls-4" d="M125.66,21s7.6,11.39,4.29,24c0,0,8.46-6,18.66-6S174,7.45,174,7.45L149.8-6.62H125.66Z" transform="translate(18.07 28.58)"/><path class="cls-5" d="M130,45l-4.29,6.41S127.12,63.2,122.38,66s5.25,10.14,7.57,12.39,7.1,20.83-4.29,24.77-14.21,7.33-13.09,14.65,1.66,26.46-7,30.4a68.17,68.17,0,0,1-16.36,5.07s-23.44,19-23.67,30.33,43.7,13.6,43.7,13.6L179,79,160.47,40.12S147.34,33.49,130,45Z" transform="translate(18.07 28.58)"/><path class="cls-5" d="M27.81,16.84l-45.88,85.78,16.89,83.8,34.35,4.05s7.89-14.64,6.2-18.58S20.78,144.08,27,117.72,42.18,93.61,46.12,88,44.43,65.46,57.39,57.57L56,48.81C53.86,36.09,47.22,22.85,27.81,16.84Z" transform="translate(18.07 28.58)"/></g><path class="cls-6" d="M44.49,182.85l5.64-16.6S32.05,148.8,32.05,131.34c0,0,12,17.46,18.08,20.27a59.61,59.61,0,0,1-6.26-26.46s9.57,9.57,13,10.13c0,0-2-15.48-11.82-26.18,0,0,14.08,5.35,17.45,11.54,0,0-8.88-24.17-9.8-33.22,0,0,10.93,7.32,14.87,14.64,0,0-.84-18.58-7-27,0,0,11,7.32,14.93,15.77,0,0,11-29.29,21.54-30.41,0,0-20,23.93-17,33.65,0,0,18.56-4.09,25.61,0,0,0-27.56,6.89-30.4,11.4,0,0,20.52-.57,26.17,3.94,0,0-24.33,4.84-27.29,6,0,0,30.66,3.6,31.52,7,0,0-25.58,1.13-31.8,7.32,0,0,19.66,8.45,27.57,7.32,0,0-30.32,5.26-36.87,5.63,0,0,18,3.57,24.74,3.19,0,0-19.57,14.27-26.33,17.27,0,0-7.66,15.6-7.06,21.22Z" transform="translate(18.07 28.58)"/><path class="cls-6" d="M27.81,16.84s6.27,25.34,0,32.1S10.27,61.33,13.27,77.47c0,0,7.24-17.65,17.32-18.77A38.17,38.17,0,0,0,17,84.23s10.13-5.63,16.52-3.76c0,0-18.77,10.14-17.27,22.15,0,0,7.13-2.63,11.64-6,0,0-8.39,14.85-15.14,19.35,0,0-4.39,6.55-2.13,14.06s9.76,14.26,1.5,27.78,7.29,21.51,7.29,21.51S4,180,3.14,164.75s6-12.95,7.13-18.58-7.88-16.52-8.26-18,2.25-17.27,7.51-19.52S9.15,86,8.39,83.31s-6-21.23,6-29.49S25.86,34.48,24.54,23.41Z" transform="translate(18.07 28.58)"/><path class="cls-7" d="M160.8,43.31s-9.75,21-9,26.65,9.7,10.89,4.48,15.77-16,1.88-15.87-5.63c0,0-2.56,18.48,0,23.27a5.76,5.76,0,0,1-7,0s.37,4.13,3,5.63c0,0-2.36,4.51-10.75,3,0,0,5.17,5.21,8.87,6a100.55,100.55,0,0,1-12.15,4.88s6.9-1.8,10.28,0c0,0-8.26,27.78-18.77,34.54S89,169.73,89.16,177.33s-2.38,6.92-2.9,9.09,5.41,0,5.41,0,.82-9.84,4.57-10.59,25.63-16.15,27.27-18.4,10.65-22.9,11.77-26.28,9.52-31.49,16.4-34.7,9.85-12.6,9.12-20.11-4.61-7.36,1.68-23.13Z" transform="translate(18.07 28.58)"/></g><g id="白菜線"><path class="cls-8" d="M19.87,179.33c-11,0-17.23-5.32-18.82-10-2.56-7.47-.08-15.71,3.54-19.68,4-4.42,3.11-6.51-1.93-15.67l-.44-.79c-2.6-4.74-2.75-10.42-.42-16.45a33.17,33.17,0,0,1,7.27-11.17c2.16-2.09.22-9.29-2.23-18.41-.79-3-1.69-6.29-2.56-9.87-3.48-14.24,6-23.54,12.34-29.7a46.72,46.72,0,0,0,3.88-4.06c2.1-2.7,1.61-7.44,1.18-11.62-.41-3.93-.76-7.32.71-9.8A37.72,37.72,0,0,0,25.44,16l4.74,1.59a40.62,40.62,0,0,1-3.49,7.06c-.63,1-.32,4.06,0,6.72.5,4.87,1.13,10.92-2.21,15.21a48.18,48.18,0,0,1-4.32,4.57c-6.14,6-13.79,13.46-11,24.94.86,3.52,1.75,6.83,2.54,9.75,3.1,11.54,5.15,19.17.88,23.3-3,2.93-10.59,13.17-5.94,21.62l.43.78c4.89,8.88,7.84,14.24,1.24,21.47-2.63,2.88-4.34,9.31-2.5,14.68,1.66,4.86,7.63,10.48,14.09,11.6Z" transform="translate(18.07 28.58)"/><polygon class="cls-8" points="76.06 215.67 59.21 213.53 60.87 208.67 63.59 208.4 62.82 210.87 73.5 212.59 74.28 208.77 76.69 209.73 76.06 215.67"/><path class="cls-8" d="M90.33,190A8.64,8.64,0,0,1,85,187.88l3.2-3.84L86.57,186,88.16,184s2,1.5,2.61.76a11.28,11.28,0,0,0,1-3.45c.64-3.23,1.71-8.64,7.16-8.7,1.12,0,5.79-2.16,13.57-7.87,6.7-4.92,11.06-9.06,11.73-10.26.55-2.34,3.69-10.36,8-21.33,2-5,3.82-9.64,4.55-11.69a139.51,139.51,0,0,1,6.84-15.58c4.25-8.16,8-12.81,11.57-14.2,1.66-.65,2.73-2.52,3.35-4,2.15-5.11,2.12-13.24-.09-18.49-3.29-7.85,2.22-13.46,4-16l-3.13-9.41,4.9-1L166.32,53l-.77.92c-.22.26-5.31,6.57-2.45,13.38,2.71,6.45,2.74,16.07.09,22.37-1.42,3.36-3.54,5.67-6.13,6.69-4.71,1.86-12.06,17.1-15.53,26.82-.76,2.12-2.54,6.62-4.61,11.84-3,7.5-7.46,18.85-7.81,20.65-.61,3.06-8.42,9.25-13,12.67s-13,9.25-17.09,9.3c-1.11,0-1.59,1-2.32,4.67-.41,2.09-.84,4.25-2.11,5.73A5.4,5.4,0,0,1,90.33,190Zm33.87-35.34Z" transform="translate(18.07 28.58)"/><path class="cls-9" d="M145,42.25l1.26-4c2.09-6.68,5.9-25-1.62-29.31a5.73,5.73,0,0,0-4.82-.57c-5.43,1.73-10.4,10.44-11.86,13.64l-2,4.47-2.3-4.06c-1.67-1.32-10.95-4.62-18.8-7l-1.07-.32-.48-1A17,17,0,0,0,85.86,5.14c-13,1.51-26.79,23.14-26.92,23.36l-3,2.75-1.52-3.5C54,26.06,52,17.42,54,13.05a1.94,1.94,0,0,0-.06-1.83c-.39-.71-2.23-3.11-9.65-4.33-8-1.3-15.33,13.21-14.06,10.74L25.44,16c.25-.52,8-16,19.61-14.08,6.81,1.11,11.39,3.49,13.23,6.87A6.93,6.93,0,0,1,58.53,15c-.49,1.13-.5,3.35-.26,5.7,5.35-7.12,16-19.28,27-20.57a22.09,22.09,0,0,1,22,10.78c9.73,3,14.78,5,17.45,6.39C127,13.26,131.88,5.65,138.25,3.6a10.57,10.57,0,0,1,8.87,1c9.94,5.75,6.92,23.31,4.93,31.33a12.07,12.07,0,0,1,12.2,6.87l-4.39,2.55c.06.14-1.72-4.31-1.7-4.29-2.23-.74-5.21-.38-9.07.37Z" transform="translate(18.07 28.58)"/><path class="cls-9" d="M52.54,61.89l2.35-4.27c-.53-29.39-25.57-37.35-25.8-37.42l2.11-4.79c.25.08,25.12,8.19,28.33,36.59,2.63-2.22,6.19-4.56,9.67-4.81,3.28-3.72,10.71-11.65,16.53-14.31-2.35-5.73-7.09-19.3-3.7-28.47l4.78-.47c-3.57,9.65,4.52,29.3,4.6,29.47L93.11,37h-4c-2.93.67-10.93,7.42-16.92,14.34l-.85,1-1.29-.13c-4,.18-10.28,4.24-13.13,6.59Z" transform="translate(18.07 28.58)"/><path class="cls-9" d="M125.66,51.38,128.27,43c.36-3.54-1.24-12.91-3.38-18.33L128.83,19c.79,2,4.59,14.07,4.66,20.39C138,37.7,145,35.76,147.34,36.1L145,42.25a54.15,54.15,0,0,0-13.71,3.37Z" transform="translate(18.07 28.58)"/></g></g></svg>