<svg xmlns="http://www.w3.org/2000/svg" viewBox="0 0 202.53 280.41"><defs><style>.cls-1{fill:#2b8839;}.cls-2{fill:#276028;}.cls-3{fill:#e6ab00;}.cls-4{fill:#bb7c12;}.cls-5{fill:#a5670b;}.cls-6{fill:#1f682b;}</style></defs><g id="レイヤー_2" data-name="レイヤー 2"><g id="パイ塗り"><path class="cls-1" d="M45.68,131.37s-26.07-18-31.42-20,38.56-11.33,48.63,20C62.89,131.37,61.1,127.47,45.68,131.37Z"/><path class="cls-1" d="M75.67,127.64S71.25,69.69,32.46,61.3c0,0,26.29,44.89,24.92,59.75-1.42,15.38-.17,10.32-.17,10.32S66.17,124.59,75.67,127.64Z"/><path class="cls-1" d="M116.09,147.47s33.13,2.76,39.23,12.05c0,0-13.36-17.88-26.21-24.46a20.39,20.39,0,0,0-7.34-2.34c-14.49-1.27-20.11,4.07-20.11,4.07Z"/><path class="cls-1" d="M97.73,127.64s36.24-31.07,79.7-1c0,0-38-9.62-64.73,12.49l-24.65-6.55Z"/><path class="cls-1" d="M75.67,114.17s11.58-35.33,27.7-43c0,0,12.9,31.87,5.59,48.72Z"/><path class="cls-1" d="M93.35,89.74S76.36,46.05,45.68,40c0,0,38.47,68.55,17.21,91.42l34.84-32.2Z"/><path class="cls-1" d="M101.66,136.79s56.08-52.13,87.13-43.51c0,0-77.59-35-87.13,25.39Z"/><path class="cls-1" d="M80.32,77.73S78.37,40,75.67,32.33c0,0,33,28.74,27.5,47.79l-5.44,19L80,89.43Z"/><path class="cls-1" d="M132.74,88.67s27.92-24.57,44.69-22.92c0,0-31.56-5.74-56.42,3.4a48.23,48.23,0,0,0-17.84,11l-1.51,38.55L130.31,105Z"/><path class="cls-1" d="M118.06,77.73s6.9-50-13.41-71.33c0,0-4.52,67.9-20.43,73.23l-.08,10.11,26.12-.31Z"/><path class="cls-1" d="M45.68,131.37l2.75,3.41s8.08-3.06,22,0,29.21,5,40.79,16.61c0,0-.39-5.19,11.52-3.15l-18.94-48Z"/><path class="cls-2" d="M188.79,93.28s-60.42-11.36-87.13,25.39h0S116.53,71.13,188.79,93.28Z"/><path class="cls-2" d="M64.93,126.59S54.06,85.48,47.42,78.33c0,0,23.54,22.39,24.29,42.72Z"/><path class="cls-2" d="M153.29,120s-30.4-6.77-52.82,11.36L111.2,133A67.3,67.3,0,0,1,153.29,120Z"/><path class="cls-2" d="M107.58,25.46s-1.21,59.68-10.8,71.66l13.48-7.69S113.73,44.78,107.58,25.46Z"/><path class="cls-2" d="M80.31,127.64s16.47-21.89,16.47-26.2c0,0,1,22.64-1.07,30.73C95.71,132.17,91.78,125.78,80.31,127.64Z"/><path class="cls-2" d="M62.89,57s23.47,26.38,25.16,44.46l-8.43,9.91S72.14,78.33,62.89,57Z"/></g><g id="レイヤー_17" data-name="レイヤー 17"><path class="cls-3" d="M42.8,133S22.67,146.84,19,153.67-2.24,223.5,4.85,240.51s45.38,54.22,91.65,29c0,0,18.15-6.6,24.59-34.4s9.83-53.32,9.83-53.32S126.4,149,111.2,142.21,69.23,122.47,42.8,133Z"/></g><g id="パイ線"><path class="cls-4" d="M30.48,186.57l-.43-2.68c1.92-.3,47.35-7.38,74-2.56l-.48,2.66C77.37,179.26,30.94,186.49,30.48,186.57Z"/><path class="cls-4" d="M30.48,173.32l-.43-2.68c1.92-.3,47.35-7.38,74-2.56l-.48,2.66C77.37,166,30.94,173.24,30.48,173.32Z"/><path class="cls-4" d="M115.65,191.63c-.38-.27-38.5-27.74-64-35.36l.77-2.6c25.93,7.76,63.23,34.63,64.8,35.77Z"/><path class="cls-4" d="M106.79,199.69c-.38-.27-38.51-27.74-64-35.36l.78-2.6c25.92,7.76,63.22,34.63,64.8,35.77Z"/><path class="cls-4" d="M99.68,207.87c-.39-.28-38.51-27.74-64-35.37l.77-2.59c25.93,7.75,63.23,34.62,64.8,35.76Z"/><path class="cls-4" d="M94.92,220.58c-.39-.27-38.51-27.74-64-35.36l.77-2.6c25.93,7.76,63.23,34.63,64.8,35.77Z"/><path class="cls-4" d="M90.92,231c-.38-.28-38.51-27.74-64-35.36l.78-2.6c25.92,7.76,63.22,34.62,64.8,35.76Z"/><path class="cls-4" d="M83,240.51c-.38-.28-38.5-27.74-64-35.37l.78-2.59c25.93,7.76,63.22,34.62,64.8,35.76Z"/><path class="cls-4" d="M78.82,253c-.38-.28-38.5-27.74-64-35.36l.77-2.6c25.93,7.76,63.23,34.63,64.8,35.77Z"/><path class="cls-4" d="M30.48,200.73l-.43-2.68c1.92-.3,47.34-7.38,74-2.56l-.48,2.66C77.36,193.42,30.94,200.66,30.48,200.73Z"/><path class="cls-4" d="M30.48,215.18l-.43-2.68c1.92-.3,47.35-7.38,74-2.56l-.48,2.66C77.37,207.87,30.94,215.1,30.48,215.18Z"/><path class="cls-4" d="M30.48,228.11l-.43-2.67c1.92-.31,47.35-7.38,74-2.57l-.48,2.67C77.37,220.8,30.94,228,30.48,228.11Z"/><path class="cls-4" d="M30.48,242l-.43-2.68c1.92-.3,47.35-7.38,74-2.56l-.48,2.66C77.37,234.69,30.94,241.92,30.48,242Z"/><path class="cls-5" d="M66.91,280.41a77.66,77.66,0,0,1-43.86-13C-5.23,248.18.26,218.24.73,216c.35-2.69,5.71-42.69,14.72-59.93,9.3-17.82,28.52-26.39,29.33-26.75l1.81,4.14c-.18.08-18.58,8.32-27.14,24.7C10.7,174.9,5.25,216.23,5.19,216.65l0,.22C4.89,218-1,245.56,25.59,263.64c26.47,18,56.26,10.88,58,10.44s26.77-10,31.44-28l1.13-4.37c5-19.07,11.73-45.18,11.88-52.76l0-1.27c.22-8.38.61-24-13.6-38.63l3.23-3.14c15.54,16,15.11,32.84,14.89,41.89l0,1.24c-.17,8.11-6.75,33.45-12,53.8l-1.13,4.37C114,268.08,86.17,278,85,278.37l-.15.05A75.13,75.13,0,0,1,66.91,280.41Z"/><path class="cls-6" d="M64.28,131.33h-.36c-10.73,0-17.37,2.13-17.52,2.18l-1.22.41-1-.84c-6-5.17-23.28-16.84-30.19-19.48l-4.57-2.09,4.09-2.3c.26-.08,22.86-7.41,41.08,5.85-4.9-14.22-15.43-43.07-24-54.71l-5.08-6.92L33.38,57c.55.24,11.84,5.5,27.11,25.08C56.44,68.79,49.7,48.77,43.91,41.34l-5.18-6.63,7.8,3.15c.88.35,18.62,7.62,29.82,19.45L72.53,25.06l23,27.51c2.11-10.23,7-35.07,6.86-46.15L102.32,0l4.07,5c.92,1.11,21.54,26.76,15.78,62.55a95.37,95.37,0,0,1,52.32-4L182,65.16l-7.22,2.7c-.19.08-16.59,6.25-28.43,13.43,9.58.55,27.22,2.58,43.36,9.94l12.8,5.84-14-1.54c-.33,0-30.93-3.14-52.54,15.62,9.48.19,28.45,2.15,42.83,13.68l8.75,7-10.78-3.08c-.28-.08-26.68-7.41-48.63,3,13.78,5,26.53,26.89,27.14,27.76h0c-1.23-1.46-8.89-5.4-21.25-7.62A140.63,140.63,0,0,0,120,150.13l2.71.22-6.12,1c-17.76-17.7-38.45-19.91-51.9-20m56.23,14.33c3.23.24,14.63,1.24,23.67,4.1-5.92-6.56-14.77-14.57-22.89-14.78l-7.37-.19,6.21-4c15.41-9.83,33.67-10,45.43-8.63-16.68-7.76-35.27-6.44-35.49-6.43l-5.79.45,4-4.24c14.8-15.81,34.71-20,47.56-21a135.57,135.57,0,0,0-36.89-5.38l-6.86.13,5.43-4.18c7.69-5.91,19.93-11.58,27.8-14.91a91.41,91.41,0,0,0-45.53,6.59l-4.15,2,1-4.5c5.65-26.35-4.55-47.88-10.4-57.5-1.46,16.65-7.31,43.51-7.6,44.82l-1,4.5-19.2-23L83,74.93l-5.36-8.7c-5.91-9.58-18.37-17.08-26.11-21.05,8.33,16.24,16.57,46.7,17,48.19L72,106.56l-7.6-11.35C54.59,80.51,45.81,71.75,39.8,66.79c10.55,20,21.33,53.42,21.86,55.08l1.55,4.82C77.25,126.55,98.06,129.89,120.93,145.66ZM22.38,111.92c9.12,4.72,20.27,13.91,23.84,16.93a66.11,66.11,0,0,1,14-2.07l-2.41-2.73C46.44,111.22,31.29,110.77,22.38,111.92Z"/></g></g></svg>