<svg xmlns="http://www.w3.org/2000/svg" viewBox="0 0 248.93 163.53"><defs><style>.cls-1{fill:#8fa92c;}.cls-2,.cls-4,.cls-7{fill:#48772e;}.cls-3{fill:#2f5321;}.cls-4,.cls-7{stroke:#2f5321;stroke-miterlimit:10;}.cls-4{stroke-width:2.69px;}.cls-5{fill:#335824;}.cls-6{fill:#6e8322;}.cls-7{stroke-width:4px;}</style></defs><g id="レイヤー_2" data-name="レイヤー 2"><g id="レイヤー_8" data-name="レイヤー 8"><path class="cls-1" d="M43.7,77.1S82,158.15,83.08,162.18c0,0,3.62-.09,5.11-3,0,0-4.7-5.87-18.46-36.13C58.55,98.45,48.6,75.35,49.25,72.32Z"/><path class="cls-1" d="M81.8,84,67.56,122.87l3.59,7.49s12-41.15,15-46.44Z"/><path class="cls-1" d="M60.94,107.8l-28.88-7.41-1.26,3s26.75,4.65,30.62,9.12"/><path class="cls-1" d="M22.34,123.65l45.49,1.65,1.57,3.54s-43.76,0-45.41-2.59Z"/><path class="cls-1" d="M62.35,110.3l1.82-24.64,3,1.26S64.31,111,65.81,114.36"/><path class="cls-2" d="M31.15,129.39s1.37,15-9.23,8.36c0,0-5.81,5.4-9.64-1.78,0,0-8.47-.66-5.75-7.18,0,0-10.19-10.92-2-17.42s11.53,1.18,11.53,1.18,3.45-7.92,7.59-4.92S26.81,113,26.81,113s5.06-2.3,6,1.39-.15,4.94-1.76,6.83C31,121.17,38.32,122.69,31.15,129.39Z"/><path class="cls-3" d="M31.54,137.14a6.07,6.07,0,0,1-2.34,3c-1.87,1.15-4.28.9-7.17-.72a8,8,0,0,1-5.7,1.59,7.15,7.15,0,0,1-4.88-3.74c-1.46-.23-4.6-1-6.06-3.37A5.52,5.52,0,0,1,5,129.08C3.52,127.31-.36,122.14,0,117a9.06,9.06,0,0,1,3.66-6.63c3.07-2.44,5.94-3.35,8.53-2.71a7.39,7.39,0,0,1,3.7,2.34c1-1.6,2.61-3.62,4.67-4.19a4.39,4.39,0,0,1,3.84.78c2.39,1.72,3.34,3.34,3.67,4.58a6,6,0,0,1,3.92.22A3.87,3.87,0,0,1,34.1,114c.82,3.28.2,5-.88,6.57a4.54,4.54,0,0,1,2.29,2.69c.54,2-.43,4.14-3,6.65A17.86,17.86,0,0,1,31.54,137.14ZM3.16,115.2a6.18,6.18,0,0,0-.45,1.94c-.39,5.09,4.75,10.68,4.81,10.74l.59.63-.34.8a3.33,3.33,0,0,0-.09,3.13c.94,1.55,3.72,2.11,4.71,2.19l.73.06.35.64c.93,1.76,2,2.76,3.3,3,2.12.36,4.22-1.53,4.24-1.55l.76-.69.87.54c1.59,1,3.78,2,5.15,1.19,2.14-1.31,2.18-6.56,2-8.29l-.06-.66.48-.44c2.8-2.62,2.82-4,2.69-4.41-.25-.91-1.68-1.41-2.17-1.52L28.56,122,30,120.3c1.53-1.8,2.23-2.62,1.48-5.64a1.17,1.17,0,0,0-.64-.9c-.94-.46-2.75.08-3.48.41l-3.72,1.69,1.91-3.4c0-.24.13-1.7-2.7-3.75a1.72,1.72,0,0,0-1.56-.36c-1.81.5-3.55,3.67-4,4.74l-1.23,2.82-1.23-2.82a5.5,5.5,0,0,0-3.27-2.87c-1.74-.43-3.82.32-6.19,2.2A7.07,7.07,0,0,0,3.16,115.2Z"/><path class="cls-4" d="M51.51,76.16s1.37,15-9.23,8.36c0,0-5.81,5.4-9.63-1.78,0,0-8.47-.66-5.75-7.18,0,0-10.2-10.92-2-17.42s11.53,1.18,11.53,1.18S39.87,51.4,44,54.4s3.17,5.32,3.17,5.32,5.06-2.3,6,1.39S53,66.05,51.4,67.94C51.4,67.94,58.68,69.46,51.51,76.16Z"/><path class="cls-2" d="M96.16,79.24s1.37,15-9.23,8.36c0,0-5.81,5.41-9.63-1.78,0,0-8.47-.66-5.75-7.17,0,0-10.2-10.92-2-17.42s11.52,1.18,11.52,1.18,3.46-7.93,7.6-4.93,3.17,5.32,3.17,5.32,5-2.29,6,1.39-.16,5-1.77,6.83C96,71,103.33,72.55,96.16,79.24Z"/><path class="cls-3" d="M96.56,87a6.15,6.15,0,0,1-2.35,3c-1.87,1.14-4.28.9-7.17-.72a7.94,7.94,0,0,1-5.69,1.58,7.12,7.12,0,0,1-4.89-3.74c-1.46-.23-4.6-1-6.06-3.37A5.59,5.59,0,0,1,70,78.93c-1.48-1.77-5.36-6.93-5-12.12a9.16,9.16,0,0,1,3.66-6.64c3.07-2.44,5.94-3.35,8.53-2.7a7.21,7.21,0,0,1,3.7,2.34c1-1.61,2.61-3.63,4.68-4.19a4.42,4.42,0,0,1,3.84.77c2.38,1.73,3.33,3.34,3.66,4.58A6,6,0,0,1,97,61.2a3.85,3.85,0,0,1,2.08,2.67c.82,3.27.2,5.05-.87,6.57a4.51,4.51,0,0,1,2.28,2.68c.55,2-.42,4.14-3,6.66A18.08,18.08,0,0,1,96.56,87Zm-28.38-22a6,6,0,0,0-.46,2c-.38,5.09,4.76,10.68,4.81,10.73l.59.64-.33.8a3.37,3.37,0,0,0-.1,3.13c.94,1.55,3.72,2.1,4.71,2.18l.73.06.35.65c.94,1.76,2,2.76,3.3,3,2.13.37,4.22-1.53,4.24-1.55l.76-.69.87.54c1.6,1,3.79,2,5.15,1.2,2.14-1.31,2.18-6.56,2-8.3l-.06-.65.48-.45c2.8-2.61,2.81-4,2.68-4.41-.24-.9-1.68-1.41-2.17-1.51l-2.18-.48L95,70.15c1.54-1.8,2.24-2.62,1.48-5.63a1.17,1.17,0,0,0-.63-.9c-.93-.46-2.75.08-3.49.41l-3.69,1.65,1.88-3.36c0-.24.13-1.7-2.7-3.75a1.7,1.7,0,0,0-1.55-.36c-1.61.43-3.32,3.13-4,4.73l-1.24,2.82-1.23-2.82a5.53,5.53,0,0,0-3.27-2.87c-1.73-.42-3.82.32-6.19,2.21A7,7,0,0,0,68.18,65.05Z"/><path class="cls-2" d="M77.37,76.59s1.37,15-9.23,8.35c0,0-5.81,5.41-9.64-1.78,0,0-8.47-.65-5.74-7.17,0,0-10.2-10.92-2-17.42s11.53,1.18,11.53,1.18,3.46-7.92,7.6-4.93S73,60.15,73,60.15s5-2.3,6,1.38-.16,5-1.77,6.84C77.25,68.37,84.54,69.89,77.37,76.59Z"/><path class="cls-3" d="M77.76,84.34a6.07,6.07,0,0,1-2.34,3c-1.87,1.15-4.28.9-7.17-.72a8,8,0,0,1-5.69,1.59,7.16,7.16,0,0,1-4.89-3.75c-1.46-.22-4.6-1-6.06-3.36a5.59,5.59,0,0,1-.39-4.77c-1.48-1.77-5.36-6.94-5-12.13a9.09,9.09,0,0,1,3.66-6.63c3.07-2.44,5.94-3.35,8.53-2.71a7.32,7.32,0,0,1,3.7,2.34c1-1.6,2.61-3.63,4.68-4.19a4.37,4.37,0,0,1,3.83.78C73,55.46,74,57.08,74.32,58.32a6,6,0,0,1,3.92.22,3.87,3.87,0,0,1,2.08,2.67c.82,3.28.2,5.05-.87,6.57a4.56,4.56,0,0,1,2.28,2.69c.55,2-.43,4.14-3,6.65A17.9,17.9,0,0,1,77.76,84.34Zm-28.37-22a6,6,0,0,0-.46,2c-.38,5.09,4.76,10.68,4.81,10.74l.59.63-.33.8a3.37,3.37,0,0,0-.1,3.13c.94,1.55,3.72,2.1,4.71,2.19l.73.06.35.64c.94,1.76,2.05,2.76,3.3,3,2.13.36,4.22-1.53,4.24-1.55l.76-.69.87.54c1.6,1,3.79,2,5.15,1.19,2.15-1.32,2.18-6.56,2-8.29l0-.66.48-.45c2.8-2.61,2.81-3.95,2.68-4.41-.24-.9-1.68-1.4-2.17-1.51l-2.18-.48,1.44-1.7c1.54-1.8,2.24-2.63,1.48-5.64a1.19,1.19,0,0,0-.63-.9c-.93-.45-2.75.08-3.49.41L69.9,63l1.88-3.37c0-.24.13-1.7-2.7-3.75a1.7,1.7,0,0,0-1.55-.36c-1.61.44-3.32,3.14-4,4.74L62.27,63.1,61,60.29a5.53,5.53,0,0,0-3.27-2.88C56,57,54,57.73,51.58,59.62A7,7,0,0,0,49.39,62.39Z"/><path class="cls-2" d="M33.94,105s1.68,3.83-2.57,6.16-6.28-2.63-6.28-2.63-3,9.11-9.64,6.08-5-10.28-2.7-11c0,0-7.35-.88-6.29-8.37S12,89.46,12,89.46,9.37,80.15,15.44,78s8,.62,8.53,3.56c0,0,6.37-3.9,8.45,3.53,0,0,8.53,2.47,3.47,9.37C35.89,94.5,42.79,101.52,33.94,105Z"/><path class="cls-5" d="M39.67,102.26A7.72,7.72,0,0,1,35.91,106a6.48,6.48,0,0,1-3.73,6.68,5.61,5.61,0,0,1-4.7.53,5.88,5.88,0,0,1-2.1-1.32,10.69,10.69,0,0,1-4.63,4.51,7.11,7.11,0,0,1-6-.21c-3.81-1.75-5.92-5.08-5.66-8.92a7.94,7.94,0,0,1,.67-2.73,8.8,8.8,0,0,1-3.43-2.64,8.69,8.69,0,0,1-1.53-6.8c.47-3.32,1.65-5.58,3.52-6.71A5.33,5.33,0,0,1,10,87.73a18,18,0,0,1-.2-3.25c.15-4.08,2-6.94,5.11-8s5.83-1.11,7.74,0a6,6,0,0,1,2.42,2.83,7.11,7.11,0,0,1,4.78,0,7,7,0,0,1,3.94,4.51c1.44.58,4.17,2,5.1,4.74A6.87,6.87,0,0,1,38,94.38c1.07,1.4,2.61,4,2,6.81A5.09,5.09,0,0,1,39.67,102.26Zm-7.91,1.87,1.56-.65c2-.79,3.15-1.8,3.4-3,.39-1.85-1.34-4.12-2-4.83l-1-1,.83-1.15C35.65,92,36,90.69,35.69,89.66,35.14,88,32.8,87,32,86.74l-.89-.26-.25-.89c-.48-1.71-1.22-2.76-2.2-3.15C27,81.8,24.87,83,24.85,83l-2.12,1.3-.41-2.45a3.38,3.38,0,0,0-1.4-2.52c-1-.6-2.71-.51-4.93.26-4.52,1.57-2.83,8.16-2.34,9.37l.48,1.67-2.64-.23h0s-.75.39-1.47.85c-.91.58-1.59,2.1-1.9,4.28A5.58,5.58,0,0,0,9,99.83,6.67,6.67,0,0,0,13,102l1.89,1.15-1.62,2.13a3.84,3.84,0,0,0-.79,2.81,5.71,5.71,0,0,0,3.71,5,3.84,3.84,0,0,0,3.26.18c2.21-1,3.7-4.13,4.09-5.27l1.44-4.25,1.7,4.14a4.18,4.18,0,0,0,2,2.11,2.38,2.38,0,0,0,2-.32c2.7-1.47,2-3.61,1.83-4Z"/><polygon class="cls-6" points="69.09 122.67 64.52 112.1 67.03 87.31 68.26 86.55 66.86 112.7 68.41 116.54 78.12 89.2 80.07 90.44 69.09 122.67"/><polygon class="cls-6" points="62.7 107.38 52.05 83.32 52.45 82.09 61.45 101.01 62.45 88.1 63.98 88.21 62.7 107.38"/><path class="cls-6" d="M60.57,108.7l-2.53-1c-2.53-.67-15.77-4.43-18.48-5.17l.42-1.3c2,.54,11.07,2.58,15.75,3.65L47,87.57l2.33-.6Z"/><path class="cls-6" d="M68.56,126.94l-32.94-2.3-.28-1.77,29,1.21c-1.73-3.84-4.53-9.94-5.42-11.33-1.39-1.16-13.11-4.27-23.07-6.75l1.91-1.24c11,2.23,22.13,5.37,23.43,7.32s6,11.68,6.49,12.89Z"/><path class="cls-6" d="M89.21,159.89l-.26.55c-1.46,3.22-5.74,3.09-5.92,3.09l-.84,0L67.13,130.37l-34-1.07,1.38-1.74L69,128.63l15,32.15a3.68,3.68,0,0,0,2.27-1L70.79,127.89l12.33-37,2-.52L73.65,127.71Z"/><path class="cls-1" d="M190.47,41.66s-81.71,105.56-86.34,109.7c0,0,2.56,4.73,7.46,4.74,0,0,4.62-10.2,35.49-48.9,25.07-31.42,49-60.22,53.49-61.4Z"/><path class="cls-1" d="M207,96.89l-61.19,7.33L138.31,114S201,102.19,210.1,102.67Z"/><path class="cls-1" d="M161.36,85.27l-9.65-43.34-4.86.37s11.88,38.63,8.56,46.79"/><path class="cls-1" d="M114.28,44.74l28.51,61.48-3.64,4.48s-29.55-58.09-27.21-62Z"/><path class="cls-1" d="M159,88.82l33.95-14.21.36,4.87s-34,12.44-37.36,16.67"/><path class="cls-2" d="M112.6,60.3s-19,12-17.32-6.61c0,0-11.1-4.07-4.14-14,0,0-4.85-11.68,5.64-12.47,0,0,7.61-20.9,21.76-14.43s6.22,16.1,6.22,16.1,12.84-.76,11.66,6.76-4.92,7.8-4.92,7.8,6.45,5.16,2.19,8.87-6.67,3.13-10.26,2.27C123.43,54.59,126.33,65.29,112.6,60.3Z"/><path class="cls-3" d="M102.58,66.05a9.12,9.12,0,0,1-5.5-1.13c-2.78-1.7-4.09-5.06-3.89-10-1.81-1-4.86-3-5.94-6.48-.88-2.8-.32-5.83,1.67-9-.69-2.09-1.81-6.77.37-10.32a8.29,8.29,0,0,1,6.07-3.73c1.35-3.16,5.6-11.8,12.75-14.79a13.61,13.61,0,0,1,11.27.38c5.31,2.43,8.45,5.63,9.35,9.5a10.87,10.87,0,0,1-.61,6.49c2.8.24,6.58,1,8.72,3.38A6.57,6.57,0,0,1,138.4,36c-.68,4.32-2.19,6.68-3.61,8a9.09,9.09,0,0,1,2.36,5.35A5.81,5.81,0,0,1,135,53.83c-3.8,3.3-6.57,3.68-9.31,3.27a6.76,6.76,0,0,1-2,4.85c-2.23,2-5.78,2.23-10.84.54C111,63.55,106.72,65.74,102.58,66.05Zm10-52.48a9.07,9.07,0,0,0-2.89.71c-7,2.92-11,13.52-11,13.63l-.44,1.21-1.28.1c-2.12.15-3.5.8-4.23,2-1.42,2.3-.27,6.36.29,7.73l.41,1-.62.9c-1.71,2.43-2.28,4.58-1.72,6.38,1,3.07,4.88,4.58,4.92,4.59l1.43.54-.14,1.52c-.25,2.8-.13,6.39,1.9,7.64,3.18,2,10.17-1.53,12.37-2.91l.83-.52.92.34c5.36,1.95,7.15,1.06,7.67.59,1-.94.73-3.19.54-3.91l-.84-3.22,3.24.77c3.43.82,5,1.19,8.48-1.84a1.83,1.83,0,0,0,.77-1.46c0-1.56-2-3.6-2.9-4.34l-4.75-3.8,5.79.24c.35-.11,2.35-1,3.16-6.11a2.54,2.54,0,0,0-.57-2.31c-1.88-2.07-7.26-2.25-9-2.14l-4.58.27,2.92-3.54s2.38-3,1.6-6.28c-.61-2.59-3-4.85-7.11-6.73A10.46,10.46,0,0,0,112.55,13.57Z"/><path class="cls-7" d="M197,51.4s-19,12-17.33-6.61c0,0-11.1-4.06-4.14-14,0,0-4.84-11.68,5.64-12.47,0,0,7.62-20.9,21.77-14.43S209.15,20,209.15,20s12.85-.76,11.67,6.76-4.93,7.8-4.93,7.8,6.46,5.16,2.19,8.87-6.67,3.13-10.25,2.27C207.83,45.69,210.72,56.39,197,51.4Z"/><path class="cls-2" d="M223,112.74s-19,12-17.32-6.61c0,0-11.1-4.06-4.15-14,0,0-4.84-11.69,5.64-12.47,0,0,7.62-20.9,21.77-14.43s6.21,16.1,6.21,16.1,12.85-.77,11.67,6.75-4.93,7.8-4.93,7.8,6.46,5.16,2.2,8.87-6.67,3.14-10.26,2.27C233.87,107,236.77,117.73,223,112.74Z"/><path class="cls-3" d="M213,118.49a9,9,0,0,1-5.5-1.12c-2.78-1.71-4.08-5.07-3.88-10-1.81-1-4.86-3-5.95-6.49-.88-2.8-.32-5.82,1.67-9-.68-2.09-1.8-6.77.38-10.31a8.27,8.27,0,0,1,6.07-3.74C207.15,74.66,211.39,66,218.54,63a13.53,13.53,0,0,1,11.27.38c5.31,2.43,8.46,5.62,9.35,9.5a10.93,10.93,0,0,1-.6,6.48c2.8.24,6.57,1,8.71,3.38a6.54,6.54,0,0,1,1.56,5.62c-.68,4.33-2.18,6.68-3.6,8a9,9,0,0,1,2.35,5.35,5.76,5.76,0,0,1-2.14,4.56c-3.8,3.3-6.58,3.68-9.32,3.28a6.66,6.66,0,0,1-2,4.84c-2.23,2-5.78,2.23-10.84.55C221.42,116,217.15,118.18,213,118.49ZM223,66a9.17,9.17,0,0,0-2.9.7c-7,2.93-11,13.53-11,13.63l-.44,1.21-1.29.1c-2.11.16-3.49.81-4.22,2-1.42,2.3-.28,6.35.28,7.72l.42,1-.63.9c-1.7,2.43-2.28,4.58-1.72,6.39.95,3.07,4.88,4.57,4.92,4.59l1.43.53-.13,1.52c-.26,2.8-.14,6.4,1.89,7.65,3.19,2,10.18-1.54,12.38-2.91l.82-.52.92.33c5.37,2,7.15,1.06,7.67.59,1-.94.73-3.19.54-3.9l-.84-3.23,3.24.77c3.43.82,5,1.2,8.48-1.84a1.75,1.75,0,0,0,.77-1.45c0-1.54-2-3.6-2.9-4.35L236,93.66l5.74.23c.34-.11,2.34-1,3.15-6.11a2.56,2.56,0,0,0-.57-2.31c-1.66-1.84-6.4-2.29-9-2.14l-4.57.26,2.91-3.53s2.38-3,1.61-6.28c-.61-2.58-3-4.85-7.11-6.72A10.35,10.35,0,0,0,223,66Z"/><path class="cls-2" d="M213.88,86s-19,12-17.32-6.61c0,0-11.1-4.06-4.14-14,0,0-4.85-11.68,5.63-12.47,0,0,7.62-20.9,21.77-14.43S226,54.6,226,54.6s12.84-.76,11.66,6.76-4.93,7.8-4.93,7.8,6.46,5.16,2.2,8.87-6.67,3.13-10.26,2.27C224.71,80.3,227.61,91,213.88,86Z"/><path class="cls-3" d="M203.85,91.76a9,9,0,0,1-5.49-1.12c-2.78-1.71-4.09-5.07-3.89-10-1.81-.95-4.86-3-5.95-6.48-.88-2.8-.32-5.83,1.67-9-.68-2.09-1.8-6.77.38-10.32a8.32,8.32,0,0,1,6.07-3.73c1.35-3.16,5.59-11.8,12.74-14.79a13.61,13.61,0,0,1,11.27.38c5.32,2.43,8.46,5.63,9.35,9.5a10.8,10.8,0,0,1-.6,6.49c2.8.24,6.57,1,8.72,3.38a6.57,6.57,0,0,1,1.56,5.62c-.68,4.32-2.19,6.68-3.61,8A9,9,0,0,1,238.42,75a5.76,5.76,0,0,1-2.14,4.56c-3.8,3.3-6.57,3.67-9.31,3.27a6.76,6.76,0,0,1-2,4.85c-2.24,2-5.79,2.23-10.84.54C212.26,89.26,208,91.45,203.85,91.76Zm10-52.48a9.34,9.34,0,0,0-2.89.71c-7,2.93-11,13.52-11,13.63l-.44,1.21-1.29.1c-2.11.16-3.49.81-4.22,2-1.42,2.3-.28,6.36.29,7.73l.41,1-.63.9c-1.7,2.43-2.28,4.58-1.72,6.39,1,3.07,4.88,4.57,4.92,4.58l1.43.54-.13,1.52c-.26,2.8-.14,6.4,1.9,7.65,3.19,2,10.17-1.54,12.37-2.92l.83-.52.92.34c5.36,2,7.15,1.06,7.66.59,1-.94.73-3.19.55-3.9l-.84-3.23,3.24.77c3.42.82,5,1.19,8.48-1.84a1.76,1.76,0,0,0,.76-1.45c0-1.54-2-3.6-2.9-4.35l-4.69-3.79,5.74.23c.34-.11,2.35-1,3.15-6.11a2.56,2.56,0,0,0-.56-2.31c-1.67-1.84-6.41-2.29-9-2.14l-4.56.26,2.9-3.53s2.38-3,1.61-6.28c-.61-2.59-3-4.85-7.11-6.73A10.46,10.46,0,0,0,213.83,39.28Z"/><path class="cls-2" d="M146.8,47.57s-4,4.81-9.9.74-.76-10.11-.76-10.11S122,40.31,121.56,29.51s10.28-13.56,12.73-11c0,0-3.79-10.35,6.86-14S152.7,8,152.7,8s10.56-9.83,17.46-3.19,4.59,11.08,1,13.73c0,0,9.47,5.81,1,13.59,0,0,2.48,13-10.1,10.93C162.1,43,157.46,56.94,146.8,47.57Z"/><path class="cls-5" d="M154.36,53.29a11.36,11.36,0,0,1-7.49-2.47c-2.52,1.71-6.65,2.79-11.38-.45a8.34,8.34,0,0,1-3.88-5.87,8.73,8.73,0,0,1,.34-3.68c-2.83-.17-6.42-.88-9.11-3.1a10.6,10.6,0,0,1-3.78-8.11c-.25-6.24,2.76-11.29,8-13.53a12.06,12.06,0,0,1,4.07-.95,13.22,13.22,0,0,1,1.18-6.34,13,13,0,0,1,8-6.62c4.73-1.62,8.52-1.57,11.29.15a7.76,7.76,0,0,1,2,1.76,26.66,26.66,0,0,1,4.19-2.45C163.31-.94,168.31-.46,171.89,3s5.41,7,5.2,10.29A8.85,8.85,0,0,1,175,18.39a10.69,10.69,0,0,1,3.21,6.36c.28,2.87-.84,5.64-3.33,8.27.21,2.31.16,6.88-2.85,10-2,2-4.78,3-8.31,2.74C162.54,48.1,160.12,51.9,156,53A8.5,8.5,0,0,1,154.36,53.29Zm-7.83-9.23,1.92,1.63c2.41,2.12,4.51,3,6.24,2.5,2.72-.73,4.56-4.54,5-5.95l.69-2,2.09.34c2.77.46,4.75.1,5.89-1.06,1.81-1.85,1.58-5.63,1.35-6.94l-.25-1.35,1-.94c1.93-1.79,2.84-3.48,2.69-5-.26-2.6-3.29-4.57-3.32-4.59l-3.16-1.94,3-2.2c1.52-1.13,2.33-2.32,2.41-3.56.11-1.74-1.16-3.94-3.68-6.36-5.13-4.94-12.73,1.75-14,3.22l-1.88,1.75-1.47-3.65h0s-1-.74-2.12-1.38c-1.4-.82-3.87-.69-7,.37a8.22,8.22,0,0,0-5.09,4c-1.5,3.09-.24,6.73-.23,6.77L136.4,21l-3.92-.71c-.33-.21-2.17-.34-4.26.84-1.64.93-4.36,3.24-4.16,8.32a5.74,5.74,0,0,0,2,4.45c2.76,2.29,8,2.13,9.76,1.87l6.61-.95-4.35,5a6.15,6.15,0,0,0-1.47,4,3.55,3.55,0,0,0,1.74,2.38c3.78,2.59,6.14.21,6.58-.29Z"/><polygon class="cls-6" points="147.12 106.11 158.07 92.91 192.66 79.52 194.5 80.64 158.85 96.43 154.81 101.08 197.65 95.51 197.32 98.94 147.12 106.11"/><polygon class="cls-6" points="163.1 87.31 187.85 56.94 189.75 56.63 170.72 81.36 188.53 73.97 189.42 76.08 163.1 87.31"/><path class="cls-6" d="M159.92,85.38l-.34-4.06c-.81-3.8-4.77-23.91-5.61-28l2-.31c.61,3,4,16.44,5.78,23.36l17.05-23.23,2.37,2.7Z"/><path class="cls-6" d="M141.1,108.3,121.93,63l2.16-1.58,18,39.32C146,95.9,152.2,88.05,153.44,85.94c.6-2.63-3.19-20.28-6.62-35.17l2.94,1.68c4.48,16.14,7.8,33,6.1,36s-11.49,15.79-12.73,17.31Z"/><path class="cls-6" d="M111.31,157.94l-.91,0c-5.26.22-8-5.54-8.09-5.78l-.52-1.14,33.8-42.34L114.07,62.89l3.24.66L139.14,110l-32.58,41.55a5.57,5.57,0,0,0,2.87,2.34l31.91-42,57.51-8.65,2,2.29-57.36,10Z"/></g></g></svg>