<svg xmlns="http://www.w3.org/2000/svg" viewBox="0 0 208.62 194.41"><defs><style>.cls-1{fill:#f4d144;}.cls-2{fill:#aac44e;}.cls-3{fill:#a16829;}.cls-4{fill:#be8033;}.cls-5{fill:#7d5120;}.cls-6{fill:#dbb146;}.cls-7{fill:#96ad47;}.cls-8{fill:#93b033;}.cls-9{fill:#c2ac50;}.cls-10{fill:#5c3b18;}.cls-11{fill:#9e874f;}.cls-12{fill:#738536;}.cls-13{fill:#96ad46;}</style></defs><g id="レイヤー_2" data-name="レイヤー 2"><g id="バナナ塗り"><path class="cls-1" d="M153.72,33.14S88.27,103.53,29.29,87.49c0,0-11.64-.67-15.62,5.31l-4,11.42s3.82,16.84,9.14,18.83,33.06,6.64,47,2.65,96.79-21.48,96.79-21.48Z"/><path class="cls-1" d="M63.86,188s78,0,110.66-32.91c20.89-21,34.65-66,18.69-97.93C186.72,44.21,182.85,21,182.85,21h-6.34c-15.95,119.14-127.6,130.6-127.6,130.6s-15.47,6.69-16.8,9l4.32,22.89S56.44,188.24,63.86,188Z"/><path class="cls-1" d="M157.4,35.73S28.33,126.06,21.14,129.37c0,0-5.32,10-5.65,12.29l7.07,14.06s7,2.65,9,3,136.73,12.12,149.89-97l-6.25-25.94Z"/><path class="cls-2" d="M176.51,19.79s0,13.54-3.42,19.35c0,0,6.33,13.29,8.33,14.79,0,0,8.8-9,8.3-10.71s-6.35-17.91-6.87-23.43C182.37,14.7,176.51,19.79,176.51,19.79Z"/><path class="cls-2" d="M165.8,17.34s.23,17.69-2.42,18-4,3-3.32,4,6,9.64,6,9.64l10.47-5V19.79Z"/><path class="cls-2" d="M161.66,17.34S158.17,20,158.51,21s-3.33,13-6,13-4.59,2.19-2.65,3.65,5.5,6.32,5.5,6.32l14.1-7.65,1.41-17.83Z"/><path class="cls-3" d="M169.38,4.3l-6.75,13.38s6.06,2,7.77,2.39S178,19,178,19s2.71,2.52,3.16,3.93,4-2.46,4-5.37,4.49-8.19,5.27-8.39l-6.84-6.84Z"/><path class="cls-4" d="M183.54,2.34,178,19s-4.9,3.15-8.08,1.9-7.26-3.26-7.26-3.26L169.38,4.3Z"/><polygon class="cls-5" points="5.52 99.29 7.6 104.53 7.6 107.02 11.92 110.49 12 104.53 9.68 104.22 13.66 92.8 5.52 99.29"/><polygon class="cls-5" points="21.14 129.37 17.49 129.37 15.49 132.82 14 142.33 19.49 138.46 19.73 134.19 21.14 129.37"/><polygon class="cls-5" points="32.09 161 30.4 166.21 32.44 168.31 31.48 170.45 34.59 175.09 35.4 168.18 33.22 165.63 34.27 162.66 32.09 161"/><path class="cls-6" d="M174.78,44.78s-12.38,57.58-25.7,72S93.26,146,68.65,147.41s-31.23,11.68-33.76,11.82-11.14-2.38-11.14-2.38l-6.43-7L14,142.33l3-4s145.58,3,153.89-91.41l3.9-2.15"/><path class="cls-6" d="M160,41.46c-1.62,11.65-36.68,56.42-55.62,63.07s-56.63,15.87-60.95,16.2-15.25,4.44-15.25,4.44-7.4-1.52-10.94-3.18-7.54-17.77-7.54-17.77S108.06,117.39,160,41.46"/><path class="cls-7" d="M181.42,52.6,179.77,26l3.57-3.34,6.38,20.59s.69,1.07-1,2.32S181.42,52.6,181.42,52.6Z"/><polygon class="cls-8" points="174.78 44.78 177.99 19.01 170.88 46.93 174.78 44.78"/><path class="cls-7" d="M162.63,17.68,160,41.46,168.2,20.2S166.44,19.44,162.63,17.68Z"/><path class="cls-6" d="M181.42,52.6s50.76,106.76-132.36,117c-11,.61-15.84-4-15.84-4l2.53,17.77s33.35,9.34,43.3,9.11c0,0,120.39,5.1,127.87-95,2-26.22-15.59-38.59-18.23-51.94l-7.27,7.06"/></g><g id="バナナ線"><path class="cls-9" d="M13.3,93.85l-2.24-3.49a23.83,23.83,0,0,1,18.48-5.07l.35.07C81.37,99.91,147.66,36.69,148.33,36.05l3.07,3.19A263.7,263.7,0,0,1,110.71,70.1c-31.17,19-59.46,25.81-81.83,19.57A21,21,0,0,0,13.3,93.85Z"/><polygon class="cls-10" points="33.27 176.86 28.18 173.06 28.18 169.96 25.47 167.1 29.61 159.06 32.44 161.04 30.84 166.33 32.61 168.2 32 170.46 34.9 175.02 33.27 176.86"/><polygon class="cls-11" points="21.84 129.37 20.06 124.79 28.33 125.17 27.14 125.96 21.84 129.37"/><polygon class="cls-10" points="14.81 142.67 11.89 143.01 11.86 132.76 14.67 127.09 20.45 125.17 21.84 129.37 17.82 130.71 16.13 134.11 14.81 142.67"/><polygon class="cls-10" points="8.84 110.23 3.31 109.94 3.31 105.01 0 97.78 11.06 90.36 13.3 93.85 5.56 99.3 7.74 104.05 7.74 107.09 11.2 109.76 8.84 110.23"/><path class="cls-11" d="M28.33,125.17c-2.13-.13-7.91,1.62-12.09-1.2-4.37-3-7.57-11.89-8-13.77l2.94-.44c1.15,3.65,4.92,9.22,7,10.24,3,1.5,7.94,4.85,10.13,5.17Z"/><polygon class="cls-12" points="188.03 43.75 181.15 22.95 185.53 22.31 191.8 43.97 188.03 43.75"/><path class="cls-11" d="M32.44,161c-4,0-5.66-1.07-10.76-3.3C16,155.26,12.29,144.25,11.89,143l3-1c1.28,4,5.83,9.95,8.53,11.66,4.27,2.68,8.63,5.48,12,5.41l-3,1.94C32.3,161.05,32.58,161,32.44,161Z"/><path class="cls-13" d="M150.63,37.51l-3.1-1.72a5.16,5.16,0,0,1,3-2.8,4.93,4.93,0,0,0,1-.49c1.25-.86,4.46-8.16,5.2-11.82a6,6,0,0,1,5.85-4.77l0,3.54a2.46,2.46,0,0,0-2.43,1.93c-.54,2.7-3.9,12.26-6.76,14.1a8.89,8.89,0,0,1-1.64.81C151.29,36.5,151.16,36.56,150.63,37.51Z"/><path class="cls-11" d="M76.63,194.41l-2.43,0c-14.67-.23-37.55-8.42-38.52-8.77l-1.15-.41-1.93-8.84L34.9,175l3.43,6.84c4.83,1.66,23.8,7.91,35.93,8.1,15.75.25,69.61-1.5,102.8-34,17.84-17.47,27-41.23,27.14-70.64,0-.12-.32-15.84-12.44-26.47l-.18-.15-.14-.19c-.26-.35-6.42-8.76-3.8-16L191.8,44c-1.45,4.06,1.6,9.66,3.06,11.72,13.47,12,13.76,28.91,13.76,29.63-.17,30.66-9.75,55.48-28.46,73.8C147.3,191.29,95.34,194.4,76.63,194.41Z"/><path class="cls-5" d="M181.15,22.94c-.59-4.06,3.84-10.45,6.27-13.59l-4.66-4.66-12,1.65-7,11.85-3.52-1.75L168,2.25,184.33,0l9,9.05-1.3,1.55c-3.38,4.05-6.84,9.68-6.55,11.71Z"/></g></g></svg>