<svg xmlns="http://www.w3.org/2000/svg" viewBox="0 0 246.91 186.68"><defs><style>.cls-1{fill:#ee7500;}.cls-2{fill:#6a791f;}.cls-3{fill:#ab4f18;}.cls-4{fill:#f4a456;}.cls-10,.cls-14,.cls-15,.cls-5,.cls-6{fill:none;stroke-miterlimit:10;}.cls-5{stroke:#993711;}.cls-10,.cls-5,.cls-6{stroke-width:4.8px;}.cls-15,.cls-6{stroke:#3f4712;}.cls-7{fill:#e9b800;}.cls-8{fill:#c47e10;}.cls-9{fill:#fdd761;}.cls-10{stroke:#a24f17;}.cls-11{fill:#d03707;}.cls-12{fill:#ab2f16;}.cls-13{fill:#e6714c;}.cls-14{stroke:#8c2712;}.cls-14,.cls-15{stroke-width:5px;}</style></defs><g id="レイヤー_2" data-name="レイヤー 2"><g id="パプリカ"><path class="cls-1" d="M178.86,30.76s-21.63-18.73-33,11-2.71,45.42-2.71,54.61,1.09,19.46,8.65,22.71,16.77-.54,20.55-2.7,4.87,5.94,10.81,7,19.77,1.09,23.94-9.19c0,0,13.37,13,24.72-1.62s8.66-24.87,11.9-30.82,1.62-48.66-11.9-48.66-17.3,3.25-17.3,3.25S204.81,10,178.86,30.76Z"/><path class="cls-2" d="M196.43,5s1,22.43-3.84,28.92c0,0,3,2.44,7.63,0,0,0,15.67-23.52,15.94-31.09C216.16,2.83,201.84,5,196.43,5Z"/><path class="cls-3" d="M241.5,90.53s-20.29,29.63-32.18,13c0,0,.4,6.53-2.2,10.63,0,0,11.17,11,21.28,2S239.34,104.23,241.5,90.53Z"/><path class="cls-3" d="M143.17,96.37s14.11,30.62,26.5,15.14a66.58,66.58,0,0,0,2.88-18s.27,20.29,2.9,23.43a2.57,2.57,0,0,0-3.08-.54c-1.78.92-9.37,5-17.44,3.64s-10-8.59-10.57-11.19S143.53,100.21,143.17,96.37Z"/><path class="cls-4" d="M159.31,35s-13.7,10.55-7.49,28.39S171.29,52.85,171,49.2,172.74,28.25,159.31,35Z"/><path class="cls-4" d="M169.71,61.78s-3.8,3.55-2.11,6.13S172.93,62.4,169.71,61.78Z"/><path class="cls-5" d="M195.81,22.85s-11.91,2.31-16.95,7.91c0,0-16.11-13-27.52,1s-13,40.91-9.71,54.51.39,21.75,4.48,27.48,13,7.33,28.64,1.85c0,0,14.86,19.74,32.37-1.35,0,0,10.09,11.13,21.28,2,0,0,10.78-5.84,11.53-17l3.81-17.43s2.21-23.88-.87-32.94S241,26.62,214.54,36.36c0,0-5.12-11-8.87-11.07"/><path class="cls-6" d="M196.43,5l19.73-2.17S205.7,27.22,200.22,33.92c0,0-5.07,2.08-7.63,0C192.59,33.92,197.42,23.74,196.43,5Z"/><path class="cls-5" d="M179.4,39.6s15.14-10.27,30.55,0"/><path class="cls-7" d="M41.16,35.79s-21.63-18.74-33,11S5.47,92.21,5.47,101.4s1.08,19.46,8.65,22.71,16.76-.54,20.55-2.71,4.86,5.95,10.81,7,19.76,1.08,23.94-9.19c0,0,13.37,13,24.72-1.62S102.79,92.75,106,86.8s1.62-48.66-11.9-48.66-17.3,3.24-17.3,3.24S67.11,15.05,41.16,35.79Z"/><path class="cls-2" d="M58.73,10s1,22.43-3.84,28.92c0,0,3,2.43,7.62,0,0,0,15.68-23.52,15.95-31.09C78.46,7.86,64.13,10,58.73,10Z"/><path class="cls-8" d="M103.8,95.56s-20.29,29.63-32.19,13c0,0,.41,6.53-2.19,10.63,0,0,11.17,11,21.28,2S101.64,109.26,103.8,95.56Z"/><path class="cls-8" d="M5.47,101.4S19.58,132,32,116.54a66.31,66.31,0,0,0,2.89-18s.26,20.28,2.9,23.42a2.59,2.59,0,0,0-3.08-.54c-1.78.93-9.38,5-17.44,3.65s-10-8.59-10.57-11.2S5.83,105.23,5.47,101.4Z"/><path class="cls-9" d="M21.61,40S7.9,50.58,14.12,68.42s19.47-10.55,19.2-14.19S35,33.27,21.61,40Z"/><path class="cls-9" d="M32,66.81s-3.8,3.55-2.12,6.13S35.23,67.42,32,66.81Z"/><path class="cls-10" d="M58.11,27.88s-11.91,2.31-17,7.91c0,0-16.11-13.06-27.52,1S.6,77.66,3.93,91.26,4.31,113,8.41,118.74s13,7.33,28.64,1.85c0,0,14.86,19.74,32.37-1.35,0,0,10.09,11.13,21.28,2,0,0,10.78-5.84,11.53-17L106,86.8s2.2-23.88-.87-32.95-1.84-22.2-28.33-12.47c0,0-5.12-11-8.87-11.06"/><path class="cls-6" d="M58.73,10,78.46,7.86S68,32.24,62.51,39c0,0-5.06,2.07-7.62,0C54.89,39,59.72,28.77,58.73,10Z"/><path class="cls-10" d="M41.7,44.63s15.14-10.27,30.54,0"/><path class="cls-11" d="M102.76,87.13S80.24,67.61,68.41,98.58s-2.81,47.31-2.81,56.88,1.12,20.27,9,23.65,17.45-.56,21.39-2.81,5.07,6.19,11.27,7.32,20.58,1.12,24.93-9.58c0,0,13.92,13.52,25.75-1.69s9-25.9,12.39-32.09S172,89.57,158,89.57s-18,3.38-18,3.38S129.79,65.53,102.76,87.13Z"/><path class="cls-2" d="M121.06,60.29s1,23.37-4,30.13c0,0,3.15,2.53,7.94,0,0,0,16.33-24.5,16.61-32.38C141.62,58,126.69,60.29,121.06,60.29Z"/><path class="cls-12" d="M168,149.38S146.87,180.24,134.48,163c0,0,.42,6.8-2.28,11.07,0,0,11.63,11.41,22.16,2S165.75,163.65,168,149.38Z"/><path class="cls-12" d="M65.6,155.46s14.69,31.89,27.59,15.77a69.11,69.11,0,0,0,3-18.77s.28,21.13,3,24.4A2.68,2.68,0,0,0,96,176.3c-1.85,1-9.76,5.24-18.16,3.79s-10.46-8.94-11-11.66S66,159.45,65.6,155.46Z"/><path class="cls-13" d="M82.4,91.55s-14.27,11-7.79,29.56,20.27-11,20-14.78S96.39,84.51,82.4,91.55Z"/><path class="cls-13" d="M93.24,119.43s-4,3.7-2.21,6.39S96.59,120.07,93.24,119.43Z"/><path class="cls-14" d="M120.42,78.89S108,81.3,102.76,87.13c0,0-16.77-13.6-28.66,1S60.52,130.74,64,144.9s.4,22.66,4.66,28.62,13.59,7.63,29.83,1.93c0,0,15.48,20.55,33.72-1.41,0,0,10.5,11.59,22.16,2,0,0,11.23-6.08,12-17.67l4-18.15s2.3-24.88-.9-34.32-1.92-23.12-29.51-13c0,0-5.34-11.41-9.24-11.52"/><path class="cls-15" d="M121.06,60.29,141.62,58S130.72,83.43,125,90.42c0,0-5.28,2.16-7.94,0C117.07,90.42,122.1,79.81,121.06,60.29Z"/><path class="cls-14" d="M103.33,96.33s15.76-10.7,31.81,0"/></g></g></svg>