<svg xmlns="http://www.w3.org/2000/svg" viewBox="0 0 146.36 141.74"><defs><style>.cls-1{fill:#285f2e;}.cls-2{fill:#6aa36f;}.cls-3{fill:#1a3d1e;}</style></defs><g id="レイヤー_2" data-name="レイヤー 2"><g id="ピー塗り"><path class="cls-1" d="M82.76,29.91s5-20.68,19.33-25.17,21.59-1.37,21.59-1.37l-1.15,8a25.06,25.06,0,0,0-14.79.64C100.05,14.9,89.61,26.17,90,36.86s-9.1,5.07-9.1,5.07Z"/><path class="cls-1" d="M56.07,46.44S42.55,30.11,28.47,36.3,10.74,54.37,9.19,65,14.37,86.86,13.27,96c-1.16,9.62-11.26,15.21-9,22.53s18.38,17.59,35.94,6.82c0,0-1,10.63,21.5,13.45S88,133.27,88,133.27s1.9,6.42,15.42,6,19-5,20.27-19.6c1.22-14.35,5.07-18.58,9.84-28.72,2-4.19,17.19-25.9,5.37-37.73s-26.47-1.68-28.16,0c0,0-1.12-19.14-15.2-20.83C88.41,31.51,67.33,22.22,56.07,46.44Z"/><path class="cls-2" d="M123.68,63s7.09-3.09,10.85,1.65c0,0-.71,10-5.42,15.61a70.88,70.88,0,0,1-7.72-1.87C119.51,77.6,123.72,76.47,123.68,63Z"/><path class="cls-2" d="M120.74,82.4s-.71,2.67-1.6,3.55,2,2.63,4.54,1.5L125,83.26A6.13,6.13,0,0,1,120.74,82.4Z"/><path class="cls-2" d="M123.68,63s7.09-3.09,10.85,1.65c0,0-.71,10-5.42,15.61a70.88,70.88,0,0,1-7.72-1.87C119.51,77.6,123.72,76.47,123.68,63Z"/><path class="cls-2" d="M120.74,82.4s-.71,2.67-1.6,3.55,2,2.63,4.54,1.5L125,83.26A6.13,6.13,0,0,1,120.74,82.4Z"/><path class="cls-2" d="M33.63,50S30,44.32,24.9,46.77c0,0-4.58,8.9-4,15.78a52.29,52.29,0,0,0,6.57,1.71C29.2,64.43,26.71,61.64,33.63,50Z"/><path class="cls-2" d="M25.86,68a11.55,11.55,0,0,0-.64,3.74c.18,1-2.77,1.42-4.08-.66L22.35,67A4.5,4.5,0,0,0,25.86,68Z"/><path class="cls-2" d="M77.5,47.9s4.23-2.46,6.87,3.92c0,0,.15,13.14-2,16.52,0,0-2.71-3.08-4.83-2.1C77.5,66.24,78.9,63.31,77.5,47.9Z"/><path class="cls-2" d="M79.22,72.57a6,6,0,0,1,3.43.5s.08,1.68-1,2.11a7.17,7.17,0,0,0-2.41-.27S79.92,74.54,79.22,72.57Z"/></g><g id="ピー線"><path class="cls-3" d="M103.32,141.74c-8.2,0-13.52-3-16.15-5-3.08,2.3-10.23,5.52-25.64,4.49-15.06-1-20.6-7.18-22.64-11.53-4,2.51-12.15,4.93-26.49,0C5.55,127.38,1.49,123.87.34,119.31c-2-8,5.4-16,9.38-20.33l.71-.78c2.45-2.7-.06-13.3-2.54-19.61l-.1-.34c-.23-1-5.25-23.55,12.05-39.7C24.6,34.11,30,32,35.76,32.38c8.32.49,14.24,5.88,18.05,9.41,1.23-2.21,4.69-5.06,8.78-8.44a27.3,27.3,0,0,1,18.27-6c3-10.39,8.36-18,16-22.54C109.54-2.72,123.71.8,124.3,1l2.18.56-1.88,13-2.71-.72c-8.42-2.23-15.78.08-21.86,6.87a38.26,38.26,0,0,0-5.62,8.45C107.71,31,111.59,42.67,112.73,49c19-10.47,28,2.45,31,6.86l.17.24c3.86,5.55,3.54,20.7-4.12,28.16-6.51,6.34-13.15,23.57-13.68,35.45-.64,14.37-8.51,22-22.77,22ZM23.25,42.21C7.25,53.81,12.24,75,12.62,77c1.37,3.51,6.82,18.75,1.51,24.6l-.73.8c-3.1,3.38-9.56,10.4-8.21,15.72C5.9,120.9,8.87,123.23,14,125c18.49,6.37,24.07-1,24.12-1.09l4.34-6.56.22,7.9c0,.37.81,9.81,19.16,11C80.69,137.55,85,132.06,85,132l3.14-2.54.79,2.28c.17.19,4.7,5,14.36,5h0c11.61,0,17.26-5.48,17.78-17.21.6-13.37,7.69-31.5,15.19-38.81,6.29-6.13,5.7-18.56,3.5-21.73l-.17-.24c-1.53-2.21-4.09-5.9-8.35-7.67-5.23-2.17-11.7-.76-19.25,4.2l-3.82,2.52,0-4.58c0-.78-.48-19.33-17.44-19.33H87.19l1.15-3.32c3.23-9.31,14-25.25,32.1-22.19l.43-3c-4.12-.58-13.32-1.12-21.47,3.77-7,4.17-11.74,11.4-14.23,21.49l-.56,2.24-2.28-.38c-.17,0-9.22-1.36-16.56,4.7,0,0-8.58,6.55-11.53,13.31,0,0-6.06-11.12-13.8-12S28.31,38.54,23.25,42.21Z"/><path class="cls-3" d="M37.75,125.87c-1.63-7.61,4.81-19.12,9.51-27.52.49-.86.94-1.68,1.36-2.44,3.08-5.6,5.46-24.62,4.85-31.3h0c.24,2.61,3.9,25.76-.47,33.71-.42.77-.88,1.6-1.37,2.47-3.83,6.83-10.23,18.26-9,24Z"/><path class="cls-3" d="M88.41,135.54l-2.64-4.25c8.34-5.18,6.77-13.49,3.65-24.68-1.21-4.33-2.35-8.42-2.06-11.74.85-9.56,9.45-24.76,9.73-25.39h0c-.06.15-4,17.11-4.75,25.83-.21,2.41.81,6.07,1.9,10C96.91,114.85,100.57,128,88.41,135.54Z"/></g></g></svg>