<svg xmlns="http://www.w3.org/2000/svg" viewBox="0 0 146.56 255.57"><defs><style>.cls-1{fill:#488c2e;}.cls-2{fill:#426b2d;}.cls-3{fill:#99b06f;}.cls-4{fill:#7e915c;}.cls-5{fill:#385f26;}</style></defs><g id="レイヤー_2" data-name="レイヤー 2"><g id="レイヤー_13" data-name="レイヤー 13"><path class="cls-1" d="M130.79,24.13V8.93l14.27-7.61-2.59,26.43S136.7,161.9,82.65,198.6c0,0-19.48,24-44.8,34.17S1,254.32,1,254.32s14.21-21.55,27.26-25.78,13.28-25.72,24.56-30.6,15.51-21.77,15.51-25.15,13.51-13.51,16.89-19.42,9.89-19.43,8.32-24.92,10.26-15.21,12.8-23.87S108.83,90,108.83,84.1s6.19-18,9.85-22.52,2.26-12.52,0-18.23S130.79,24.13,130.79,24.13Z"/><path class="cls-2" d="M141.09,45.69S132.51,136.9,112.62,161c0,0-5.52,21.48-30,37.61,0,0-13.7,22.17-44.8,34.17,0,0,37.68-25.27,41-37.37,0,0,16.14-9.57,20.27-17.27s6.94-19.34,7.69-21.59,15.77-5.25,14.27-29c0,0,9.28-9.41,7.51-30.51,0,0,7.76-14.79,4.5-31.16,0,0,6.57-7.32,5.45-15.95,0,0,2.63-13.52.37-22.53l4.15-5.59Z"/></g><g id="レイヤー_14" data-name="レイヤー 14"><path class="cls-3" d="M145.06,1.32l-6.53,21.2S123.77,38.44,125,45.69,122.76,68,118.26,75.08s-4.13,22.9-4.13,24.4-8.26,18.77-12,23.65S96.48,148.87,92,155.33s-13.52,11-16.9,16.23-6,20.27-11.64,24-14.95,4.07-20.27,20.62-13.51,14.67-16.52,16.17S2.91,248.07,1.82,253.78c0,0,16.67-23.28,26.4-25.24s9.85-29.3,17.2-29.95,18.4-10.14,19.53-15,2.36-17.27,7.37-20.64,15.53-14.27,16.28-18.77a168.59,168.59,0,0,0,1.12-17.65c0-5.39,5.6-2.61,10.75-11.67a81.4,81.4,0,0,0,8.06-21.72S101.46,73.41,115,64.69c0,0,5.82-7.44,4.75-14.39s-8.72-13.67,11-26.17V8.93Z"/></g><g id="レイヤー_16" data-name="レイヤー 16"><path class="cls-4" d="M5.42,250.24,0,255.57c6.62-11.19,21.93-25.84,27.6-28.39,3.33-1.51,3.33-1.51,6.73-9.92.6-1.49,1.3-3.22,2.14-5.25,5.42-13.18,5.94-13.8,13.8-16.69l1.6-.59c8.08-3,10.77-8.93,13.17-19.49,2.5-11,9.17-15.72,9.46-15.91,13.18-10.26,13.18-20.43,13.17-20.53v-.18c.21-1.93.38-3.59.53-5,.94-9.25,1-9.8,4.19-12.22a39.52,39.52,0,0,0,3.88-3.31c6.61-6.42,10.16-22.27,10.7-24.86-4-13.41,0-26.06,6.27-29.09,3.55-1.72,4.79-10.2,5-13.53-2.5-5.69-2.78-11-.83-15.76,2.81-6.87,9.4-10.51,11.88-11.67V8l15.07-8,1.41,2.65L132.29,9.83V25.16l-1,.37c-.08,0-8.23,3.28-11.15,10.44-1.66,4.06-1.34,8.68.94,13.71l.15.33v.36c-.06,1.38-.75,13.55-6.7,16.44-4.48,2.18-8.51,13.34-4.6,25.87l.11.36-.07.37c-.15.78-3.78,19.18-11.63,26.8a41,41,0,0,1-4.16,3.55c-2.15,1.63-2.15,1.63-3,10.13-.15,1.42-.31,3.07-.52,5,0,1.26-.54,12.11-14.4,22.89-.13.09-6.08,4.34-8.3,14.15-2.58,11.35-5.74,18.17-15,21.64l-1.61.6c-6.93,2.54-6.93,2.54-12.07,15-.83,2-1.53,3.75-2.13,5.23-3.56,8.81-3.85,9.53-8.28,11.53C23.46,232.33,11.66,239.69,5.42,250.24Z"/><path class="cls-5" d="M0,255.57H0c.26-.32,5.09-8.92,38.42-24.17,17-7.76,27.73-16.46,33.77-22.4,6.54-6.42,9.11-11.07,9.14-11.11l.21-.39.38-.21c21.66-12,29.19-36.48,29.26-36.73l.12-.41.33-.29c8.4-7.35,16.24-33.5,22.67-75.63,4.89-32.05,7.23-62.23,7.25-62.53L144.36,0h2.2l-2,22c-.37,4.89-9.42,120.26-30.61,139.87-1.11,3.44-9,25.93-30.19,37.88-1.7,2.88-12.85,20.13-44.07,34.42C7.32,248.93,2.43,252.73,0,255.57Z"/></g></g></svg>