<svg xmlns="http://www.w3.org/2000/svg" viewBox="0 0 198.21 226.35"><defs><style>.cls-1{fill:#7b5332;stroke:#654326;}.cls-1,.cls-2,.cls-3,.cls-4{stroke-width:3.91px;}.cls-2{fill:#cf7a35;stroke:#ad572b;}.cls-3{fill:#5c762a;stroke:#525226;}.cls-4{fill:#506739;stroke:#3b4f28;}</style></defs><g id="レイヤー_2" data-name="レイヤー 2"><g id="びわ"><path class="cls-1" d="M54.6,121.67H44.34L52,76.22,35.54,9.06s5-3.22,9.53-3.52L59.88,75l24.93,39-7.56,5.28L60.17,88.53Z"/><path class="cls-2" d="M47,118.2S17.45,131.56,6.8,161.44,2.45,219.9,31.48,219.9s44-11.13,45.47-32S75.5,116.34,47,118.2Z"/><path class="cls-2" d="M71,118.15s-10.77,25.22-8.13,47.43,8.79,47.07,38.92,42.67,38.05-18.92,41.13-34.53-10.78-42.67-28.37-50.81S81.58,103,71,118.15Z"/><path class="cls-3" d="M29.38,214s-8.5-2.64-9.67-6.75V218l-4.11,3.68H26.45l11.14,2.06s-3.52-7,0-12.32l-11,4.11"/><path class="cls-3" d="M117.06,198.79s-3.22,7.33-8.79,10c0,0,9.34-1.59,13.48-5H130s-2.94-3.51,0-9.38C130,194.39,125.57,198.79,117.06,198.79Z"/><path class="cls-4" d="M60.17,53.84s19.69-36,65-42.89,69-8.69,69-8.69S151,61.51,60.17,53.84Z"/></g></g></svg>