<svg xmlns="http://www.w3.org/2000/svg" viewBox="0 0 225.84 201"><defs><style>.cls-1{fill:#d9f09c;}.cls-2{fill:#c1db7f;}.cls-3,.cls-4{fill:#9aba43;}.cls-3{stroke:#7a9435;stroke-width:4px;}.cls-5{fill:#7a9435;}.cls-6{fill:#abc762;}.cls-7{fill:#95ad57;}</style></defs><g id="レイヤー_2" data-name="レイヤー 2"><g id="ふきのとう"><path class="cls-1" d="M89.2,49.7S88.58,6.11,139.35,2.21c0,0-2.24,13.48,2.38,23.75S163.87,78.13,124,77,89.2,49.7,89.2,49.7Z"/><path class="cls-1" d="M76.43,73.47s-17.7-18-37.86-13.63S3.14,61.4,3.14,61.4s16.73,39.28,38.26,44.75S76.85,105,76.43,73.47Z"/><path class="cls-1" d="M68.65,117.81s-31.26,21-28.5,38.93,21.13,34.76,13.52,41.61c0,0,47.94-11.47,43.29-59.48C93.64,104.58,68.65,117.81,68.65,117.81Z"/><path class="cls-1" d="M124.45,103.26s41.76-50.5,76.15-41c0,0,12.21,14.88,19.79,10.79,0,0-26.57,53.49-63.46,48.31C118,115.88,124.45,103.26,124.45,103.26Z"/><path class="cls-1" d="M143.22,106.86s29.58,24.71,29.58,41.7,15.14,17.26,15.14,17.26S126.1,171.44,116,136.34,143.22,106.86,143.22,106.86Z"/><path class="cls-2" d="M115.78,58.45s-20.39-26.24-66-31.71c0,0,2.92,17.5,0,25.15s-9.11,26.24,0,40.46S114.68,143.74,115.78,58.45Z"/><path class="cls-2" d="M106.46,65s6-38.27,71.64-27.33c0,0,16.4,5.91,23-2,0,0-18.58,22.34-23,34S138,115.25,108.83,97.24,106.46,65,106.46,65Z"/><path class="cls-2" d="M115.78,86.88s19-9.93,42.28,4.33,24.42,25.19,43,26.29c0,0-39.43,33.48-85.28,4.37C75.53,96.32,115.78,86.88,115.78,86.88Z"/><path class="cls-2" d="M82.74,86S58.68,82.21,39,98.87s-17.5,27.6-28.43,29.78c0,0,89.75,44.09,100.64-43Z"/><path class="cls-2" d="M87,104.49s-20.55,27.15-4.36,44.07,34.12,21.9,32.12,33.78c0,0,25.09-55.78,16.13-74.74S87,104.49,87,104.49Z"/><path class="cls-3" d="M95.15,76s-.39-15.22-12.76-9.9S62.25,79.6,66.84,84s3.8,23.88,13.49,21.23S107.9,85.85,95.15,76Z"/><path class="cls-3" d="M124.16,69.49s-.39-15.22-12.75-9.9S91.27,73.14,95.86,77.49s3.79,23.89,13.48,21.23S136.92,79.4,124.16,69.49Z"/><path class="cls-4" d="M133,90.72s-.39-15.22-12.76-9.9-20.14,13.55-15.55,17.9,3.8,23.89,13.49,21.23S145.74,100.62,133,90.72Z"/><path class="cls-5" d="M116.44,122.2a6.66,6.66,0,0,1-3.38-.9c-3.79-2.18-5.26-7.71-6.68-13-.85-3.23-1.82-6.88-3.08-8.08a6,6,0,0,1-1.85-5.63c.92-5.15,8-11.25,18-15.56,4-1.73,7.47-1.73,10.2,0,4.11,2.63,5.07,8.43,5.29,10.72a11.89,11.89,0,0,1,4.23,11.83c-1.89,9.5-13.38,18.38-20.46,20.33A8.66,8.66,0,0,1,116.44,122.2ZM125,81.69a10.13,10.13,0,0,0-4,1c-9.51,4.09-15.06,9.42-15.62,12.58a2,2,0,0,0,.66,2c2.08,2,3.11,5.85,4.2,10,1.15,4.34,2.46,9.26,4.81,10.61a3.12,3.12,0,0,0,2.57.19c6-1.66,16.08-9.63,17.6-17.25.66-3.37-.47-6.14-3.48-8.47l-.75-.58,0-.94c0-1.75-.78-6.67-3.51-8.41A4.56,4.56,0,0,0,125,81.69Z"/><path class="cls-3" d="M95.13,93.91s-12.61-8.53-15.48,4.62-.69,24.26,5.52,23.06,21.64,10.8,25.11,1.37S110.6,89.29,95.13,93.91Z"/><path class="cls-6" d="M92.83,39.64l-3.71-2.13c0-.32,5.18-32.93,50-37.29L141.44,0l-.09,2.29c-.28,7.88.93,30.56,10,31.43l-.38,4c-6.39-.61-10.6-7-12.52-18.89a96.26,96.26,0,0,1-1.08-14.36C97.77,9.27,93,38.45,92.83,39.64Z"/><path class="cls-6" d="M31.14,103.62C15.6,96.38,1.76,63.42,1.27,62.1L0,58.68l3.56.77c8,1.71,42.28-.06,42.63-.08l.21,4c-1.28.07-28.29,1.47-40.13.47,3.35,8,16.44,31.94,27.81,37.24Z"/><path class="cls-6" d="M188.49,115l-2.23-3.33c11.44-7.65,24.22-26.62,29.69-35.26a9.24,9.24,0,0,1-3-.39A10.67,10.67,0,0,1,207.08,71c-4.15-8.86-22-6.66-29.49-4.95l3.61-4.6c1.22-.27,23.15-5.71,29.48,7.81h0a5.78,5.78,0,0,0,8.73,2l6.43-3.61L222.12,74C221.4,75.28,204.21,104.51,188.49,115Z"/><path class="cls-7" d="M69.91,98.29C62.38,98.06,52.29,95.17,48.7,90c-9.18-13.17-1.13-37.73-.78-38.77,2.28-6.83-.06-24.07-.09-24.24l-.28-2,2-.23C70,22.48,103.32,46,110.91,51.63c4.32-4.79,19.2-19.24,40.32-17.91A201,201,0,0,1,174,36.46c8,1.34,13.81,2.31,23.65,1.19l4.6-.53-2.78,3.71c-4.22,5.65-15.57,21.14-17.33,24.93-2.43,5.21-13.65,31.39-42.77,32.53l-1.08-4.23c26.79-1,38-25.15,40.22-30,1.74-3.73,10.58-15.92,15.11-22.06-7.88.46-13.48-.47-20.28-1.61A196.51,196.51,0,0,0,151,37.71c-22.64-1.4-38,17.69-38.2,17.88l-1.22,1.54L110,55.94c-.38-.29-36.55-27.77-57.94-27.34.58,5,1.73,17.7-.35,23.93-2.72,8.14-6.16,26,.27,35.21,2.86,4.11,10.52,6.35,16.8,6.54Z"/><path class="cls-6" d="M176.53,168.31c-32.05,0-50.94-14.36-51.79-15l2.45-3.16L126,151.71l1.22-1.58c.19.15,18.28,13.83,48.4,14.16-.2-.19-.4-.39-.6-.61-3.19-3.49-4.6-8.62-4.19-15.24.35-5.59-.62-9.59-2.83-11.57a6.07,6.07,0,0,0-4.72-1.44l-.72-3.93a10.11,10.11,0,0,1,8.06,2.34c3.23,2.86,4.64,7.85,4.2,14.85-.34,5.49.72,9.63,3.16,12.29,2.63,2.89,9.56,4.87,9.59,4.87h0C184.92,166,179,168.31,176.53,168.31Z"/><path class="cls-6" d="M45.11,201l7.35-4.26c.29-.55,2.13-5.22-7.89-22.31-13.4-22.85-1.48-35.49-1-36l2.86,2.8L45,139.81l1.44,1.39c-.43.44-10.25,11.12,1.54,31.21,6.21,10.59,9.15,18.43,8.75,23.35,7.32-1.81,25.18-9,36.62-36.87l3.7,1.51C81.75,197.8,55,200.25,53.82,200.34Z"/><path class="cls-7" d="M115.68,184.49,114,180.92c-.07-.16-7.73-15.92-19.3-19.36-13.45-4-19.87-23.78-20.14-24.62l3.82-1.21c.06.19,6,18.61,17.46,22,9.7,2.88,16.67,12.63,19.85,18,6.44-14.68,13.9-44.89,14-45.22l3.89,1c-.37,1.48-9,36.49-16,49.57Z"/><path class="cls-7" d="M150.66,136.45c-26.32,0-33.15-13.57-33.51-14.29l4.06-1.19c.36.72,8,15.64,41.38,10.52,18-2.75,27.11-6.81,31.6-9.72a19.49,19.49,0,0,0,3.61-2.92c-4.4-1.08-12.78-3.67-18.71-8.85-7.62-6.65-17.11-14.66-23-17.64l1.8-3.57c6.24,3.16,15.54,11,23.82,18.19,7.36,6.43,19.55,8.52,19.67,8.54l2.15.36L203,118c-.31,1.21-4.05,12-39.8,17.45A83.28,83.28,0,0,1,150.66,136.45Z"/><path class="cls-7" d="M57.28,141.54a100.32,100.32,0,0,1-23.13-3.15,155.15,155.15,0,0,1-23-7.33l-7.75-5,7.32.56c4.83.36,9.3-7.12,12.9-13.13a70.26,70.26,0,0,1,4-6.26C32.54,100.94,49.21,90,49.92,89.52l2.19,3.34c-.17.11-16.81,11-21.28,16.85a68.24,68.24,0,0,0-3.78,5.88C24.17,120.4,20.8,126,16.59,128.85c11.91,4.36,41.2,13.59,57,5.43,5.2-2.7,7.76-4.69,9.07-10.81l4.14.08c-1.55,7.26-5.13,11-11.37,14.28C70.6,140.31,64.55,141.54,57.28,141.54Z"/></g></g></svg>