<svg xmlns="http://www.w3.org/2000/svg" viewBox="0 0 252.76 142.23"><defs><style>.cls-1{fill:#ea521e;}.cls-2{fill:#456c16;}.cls-3{fill:#b84118;}.cls-4{fill:#f0764d;}.cls-5{fill:#2e470f;}</style></defs><g id="レイヤー_2" data-name="レイヤー 2"><g id="レイヤー_10" data-name="レイヤー 10"><ellipse class="cls-1" cx="178.89" cy="104.13" rx="39.31" ry="35.76"/><ellipse class="cls-1" cx="34.55" cy="99.07" rx="32.14" ry="35.76" transform="matrix(0.99, -0.14, 0.14, 0.99, -13.83, 5.97)"/><ellipse class="cls-1" cx="111.5" cy="52.49" rx="39.31" ry="35.76" transform="translate(-6.37 16.5) rotate(-8.23)"/><ellipse class="cls-1" cx="221.8" cy="33.86" rx="25.95" ry="28.32" transform="translate(155.8 248.3) rotate(-81.57)"/><path class="cls-2" d="M183.51,74.57s2.67-11.87,10.56-14.38l3.52,1.92S187,66.29,187.75,78.19Z"/><path class="cls-2" d="M186.47,69.53s-1.65-2.75-11.41-2.28c0,0-8.12,1.5-9.43,1.73,0,0,7.65-.44,8.92.66a28.21,28.21,0,0,0-5.26,1.55,27.17,27.17,0,0,0-6.76,3.87s6.3-1.78,8.8-2.21c1.26-.21,5,.87,5,.87s-4.65,4-6.62,8c0,0,10-6.2,12.67-5.49,0,0,2,6.33.71,9.57,0,0,3.8-4.36,4.08-6.62,0,0,7.46,2.82,8.59,6.62,0,0-.28-7.32-2.4-9.29,0,0,6.62,1.41,8.31,2.81a6.54,6.54,0,0,0,3.8,1.41,37.7,37.7,0,0,1-3.52-3.7c-.84-1.27-2.41-1.68-3.5-2.18a16.93,16.93,0,0,1,5.61,2.36,4.36,4.36,0,0,0,3.43.14,9.85,9.85,0,0,1-5-2.2S190.13,68.14,186.47,69.53Z"/><path class="cls-2" d="M111.89,22.66s.88-12.14,8.3-15.79l4.47.25s-10.58,6.85-8,18.49Z"/><path class="cls-2" d="M114.07,17.24s-2-2.48-11.62-.56L93.38,19.8s7.81-2,9.23-1.07c0,0-1.68.76-5.28,2.71a29.64,29.64,0,0,1-5.48,2.39S98.13,22,99.4,22a34.65,34.65,0,0,1,5.27.91s-4,4.59-5.35,8.92c0,0,9-7.61,11.71-7.31,0,0,2.89,6,2.12,9.36,0,0,3.11-4.88,3-7.15,0,0,7.8,1.68,9.48,5.27,0,0-1.37-7.2-3.75-8.84,0,0,6.75.41,8.63,1.55a6.58,6.58,0,0,0,4,.83,36.46,36.46,0,0,1-4-3.14c-1-1.13-2.64-1.3-3.79-1.63a16.71,16.71,0,0,1,5.9,1.5,4.36,4.36,0,0,0,3.41-.37,9.87,9.87,0,0,1-5.29-1.44S117.48,15.32,114.07,17.24Z"/><path class="cls-2" d="M226.68,14.42s3.13-11,10.64-12.92l4.06,1.09s-11,4.26-10.91,15.44Z"/><path class="cls-2" d="M229.72,9.86s-1.4-2.67-10.57-2.74l-8.92,1.14s7.19,0,8.32,1.08a27.11,27.11,0,0,0-5,1.17,27.88,27.88,0,0,1-5.49,1.15,72.77,72.77,0,0,1,7.29-.25A32.84,32.84,0,0,1,220,13.25s-4.56,3.45-6.61,7.18c0,0,9.68-5.28,12.15-4.49,0,0,1.51,6,.16,9,0,0,3.79-3.89,4.17-6,0,0,6.84,3,7.7,6.65,0,0,.12-6.87-1.76-8.83,0,0,6.12,1.67,7.63,3.07a6.14,6.14,0,0,0,3.49,1.52,34.39,34.39,0,0,1-3.1-3.65c-.73-1.24-2.18-1.7-3.17-2.22a15.67,15.67,0,0,1,5.13,2.5c1.35.92,0,1,0,1s1.11-.85-1.39-3C244.41,16,233.22,8.75,229.72,9.86Z"/><path class="cls-2" d="M29,69.28s-2.36-11.86,2.95-16.73L35.74,52a18.62,18.62,0,0,0-2,19.28Z"/><path class="cls-2" d="M29.32,64.19s-2.35-2-9.91,1.58c0,0-5.87,4-6.83,4.65,0,0,5.9-2.88,7.32-2.27a22.32,22.32,0,0,0-3.58,3.13,22.38,22.38,0,0,1-4,3.3,57.34,57.34,0,0,1,5.87-3.15,26.67,26.67,0,0,1,4.66-.07,29.52,29.52,0,0,0-2.22,9.57s5.59-9,8-9.18c0,0,4,5.23,4.17,8.64,0,0,1.37-5.27.75-7.45,0,0,7,.2,9.3,3.35,0,0-3-6.69-5.4-7.83,0,0,5.78-.83,7.65-.08a5.08,5.08,0,0,0,3.54.08,34.9,34.9,0,0,1-4.18-2.29c-1.15-.91-2.55-.77-3.6-.89a13.32,13.32,0,0,1,5.34.38,3.26,3.26,0,0,0,2.77-1,7.8,7.8,0,0,1-4.82-.42S31.69,61.73,29.32,64.19Z"/><path class="cls-3" d="M217,95.33s-11.51,43.58-52.44,42.1c0,0,23.91,10,43.72-9.56C208.28,127.87,221.8,115.86,217,95.33Z"/><path class="cls-3" d="M150.8,53S120.55,87.32,93.75,85.36c0,0,19.77,9.21,39.09-2.76S150.8,53,150.8,53Z"/><path class="cls-3" d="M63.29,83.91S62.2,128.67,32.1,134.56a29.93,29.93,0,0,0,28.6-13.78C71.82,104,64.77,86.85,63.29,83.91Z"/><path class="cls-3" d="M250.06,33.86S227.3,59.61,213.29,58.45c0,0,14.15,5.24,26.54-4.15S250.06,33.86,250.06,33.86Z"/><path class="cls-4" d="M159.84,72.85S133.46,85.53,141,113.74C141,113.74,141.43,89.34,159.84,72.85Z"/><path class="cls-4" d="M90.05,23.58S72.39,33.44,72.39,52c0,0-.42,11.59,4.08,17.89C76.47,69.87,73,43.11,90.05,23.58Z"/><path class="cls-4" d="M12,72.85S1.76,82,2.35,99.07a39.92,39.92,0,0,0,11.56,26.69S3.64,111.82,12,72.85Z"/><path class="cls-4" d="M206.56,11.61s-10.17,4.76-12.44,16.32C192,38.86,196,44.79,199.78,49.66,199.78,49.66,191.39,34.11,206.56,11.61Z"/></g><g id="レイヤー_11" data-name="レイヤー 11"><path class="cls-3" d="M177.69,142.23a36.67,36.67,0,0,1-12.92-2.08c-16.7-6.53-26.5-18.44-27.6-33.55-1.19-16.43,8.93-35.75,30-39.2l.8,4.94c-13.9,2.27-27.25,14.64-25.85,33.9,1.21,16.76,14,25.16,24.43,29.25,6.93,2.71,19.67,2.69,30.6-2.59,5.85-2.82,13.49-8.37,16.7-18.8,6.83-22.12-9.86-34.29-10-34.41l2.9-4.07c.19.14,19.79,14.41,11.91,40-3,9.61-9.64,17.16-19.31,21.83A50.83,50.83,0,0,1,177.69,142.23Z"/><path class="cls-3" d="M111.07,90.65a63.05,63.05,0,0,1-16.84-2.41l-.31-.11a49.3,49.3,0,0,1-11.71-7.59c-7.82-6.8-12.08-15.07-12.33-23.92-.6-21.5,14.89-37.07,30.38-40.77l1,2.82c-13.52,3.23-26.93,19-26.4,37.81.49,17.3,19.07,26.18,20.86,27,14.88,4.1,28.57,2.38,38.57-4.84a33.62,33.62,0,0,0,14-25.74c1-20.18-15.87-27.89-16-28l2-4.57c.2.09,20.16,9.21,19,32.77a38.61,38.61,0,0,1-16.07,29.56C129.92,88,121,90.65,111.07,90.65Z"/><path class="cls-3" d="M32,137.06h-.13A36.42,36.42,0,0,1,8.2,123.11C-.7,111.43-6.86,86,14.48,67.3l3.29,3.77c-18.77,16.4-13.4,38.77-5.6,49a32,32,0,0,0,20.07,12c10.77-.09,19.25-4,25.21-11.7a32.58,32.58,0,0,0,5.77-11.51C67.85,80.16,46.35,69.06,45.43,68.6l2.22-4.48c.26.13,25.79,13.13,20.5,45.62l0,.13c-.06.27-6.27,27-36,27.19Z"/><path class="cls-3" d="M222.73,61.73a37.53,37.53,0,0,1-18.18-4.64l-.26-.18c-.55-.42-13.4-10.34-13.26-21.23.14-11.68,7-26.29,24.08-29.5L216.27,9C198,12.37,196.07,32.2,196,35.74c-.09,6.86,7.91,14.57,11.17,17.1C212.78,56,229.49,61.3,242,49.07a18.57,18.57,0,0,0,5.52-17.3,27.24,27.24,0,0,0-3.41-9.16l4.19-2.73c.12.19,11.75,18.48-2.8,32.76A31.74,31.74,0,0,1,222.73,61.73Z"/><path class="cls-5" d="M203.86,79.69c-1.07-1.21-7.05-6.47-12.57-8.22l-2.71-1.2,1.69-2.46c2.61-2.85,4.57-5.2,7.32-5.7L200,63.24h0c-.71.24-2.45,2.18-4.19,4.84,4.14,1.48,9.09,5.5,10.91,7.54Z"/><path class="cls-5" d="M185.5,69h0c-3.21-.17-14.83,2.87-17.49,3.34l-.8-4.94c3.77-1.21,7.29-1.91,16.38-2.77,1.47-2.08,4.13-5.12,5.84-7l.83-.93L200,63.24l-1.7,1.5-7-3.17A77.25,77.25,0,0,0,185.5,69Z"/><ellipse class="cls-1" cx="178.89" cy="104.13" rx="39.31" ry="35.76"/><path class="cls-2" d="M183.51,74.57s2.67-11.87,10.56-14.38l3.52,1.92S187,66.29,187.75,78.19Z"/><path class="cls-2" d="M186.47,69.53s-1.65-2.75-11.41-2.28c0,0-8.12,1.5-9.43,1.73,0,0,7.65-.44,8.92.66a28.21,28.21,0,0,0-5.26,1.55,27.17,27.17,0,0,0-6.76,3.87s6.3-1.78,8.8-2.21c1.26-.21,5,.87,5,.87s-4.65,4-6.62,8c0,0,10-6.2,12.67-5.49,0,0,2,6.33.71,9.57,0,0,3.8-4.36,4.08-6.62,0,0,7.46,2.82,8.59,6.62,0,0-.28-7.32-2.4-9.29,0,0,6.62,1.41,8.31,2.81a6.54,6.54,0,0,0,3.8,1.41,37.7,37.7,0,0,1-3.52-3.7c-.84-1.27-2.41-1.68-3.5-2.18a16.93,16.93,0,0,1,5.61,2.36,4.36,4.36,0,0,0,3.43.14,9.85,9.85,0,0,1-5-2.2S190.13,68.14,186.47,69.53Z"/><path class="cls-3" d="M217,95.33s-11.51,43.58-52.44,42.1c0,0,23.91,10,43.72-9.56C208.28,127.87,221.8,115.86,217,95.33Z"/><path class="cls-4" d="M159.84,72.85S133.46,85.53,141,113.74C141,113.74,141.43,89.34,159.84,72.85Z"/><path class="cls-5" d="M203.86,79.69c-1.07-1.21-7.05-6.47-12.57-8.22l-2.71-1.2,1.69-2.46c2.61-2.85,4.57-5.2,7.32-5.7L200,63.24h0c-.71.24-2.45,2.18-4.19,4.84,4.14,1.48,9.09,5.5,10.91,7.54Z"/><path class="cls-5" d="M185.5,69h0c-3.21-.17-14.83,2.87-17.49,3.34l-.8-4.94c3.77-1.21,7.29-1.91,16.38-2.77,1.47-2.08,4.13-5.12,5.84-7l.83-.93L200,63.24l-1.7,1.5-7-3.17A77.25,77.25,0,0,0,185.5,69Z"/><ellipse class="cls-1" cx="178.89" cy="104.13" rx="39.31" ry="35.76"/><path class="cls-2" d="M183.51,74.57s2.67-11.87,10.56-14.38l3.52,1.92S187,66.29,187.75,78.19Z"/><path class="cls-2" d="M186.47,69.53s-1.65-2.75-11.41-2.28c0,0-4.45,1.41-5.77,1.65,0,0,4-.36,5.26.74a28.21,28.21,0,0,0-5.26,1.55,27.17,27.17,0,0,0-6.76,3.87s6.3-1.78,8.8-2.21c1.26-.21,5,.87,5,.87s-4.65,4-6.62,8c0,0,10-6.2,12.67-5.49,0,0,2,6.33.71,9.57,0,0,3.8-4.36,4.08-6.62,0,0,7.46,2.82,8.59,6.62,0,0-.28-7.32-2.4-9.29,0,0,6.62,1.41,8.31,2.81a6.54,6.54,0,0,0,3.8,1.41,37.7,37.7,0,0,1-3.52-3.7c-.84-1.27-2.41-1.68-3.5-2.18a16.93,16.93,0,0,1,5.61,2.36h0s1.19.05-1.59-2.06C202.47,75.18,190.13,68.14,186.47,69.53Z"/><path class="cls-3" d="M217,95.33s-11.51,43.58-52.44,42.1c0,0,23.91,10,43.72-9.56C208.28,127.87,221.8,115.86,217,95.33Z"/><path class="cls-4" d="M159.84,72.85S133.46,85.53,141,113.74C141,113.74,141.43,89.34,159.84,72.85Z"/><path class="cls-3" d="M177.69,142.23a36.67,36.67,0,0,1-12.92-2.08c-16.7-6.53-26.5-18.44-27.6-33.55-1.19-16.43,8.93-35.75,30-39.2l.8,4.94c-13.9,2.27-27.25,14.64-25.85,33.9,1.21,16.76,14,25.16,24.43,29.25,6.93,2.71,19.67,2.69,30.6-2.59,5.85-2.82,13.49-8.37,16.7-18.8,6.83-22.12-9.86-34.29-10-34.41l2.9-4.07c.19.14,19.79,14.41,11.91,40-3,9.61-9.64,17.16-19.31,21.83A50.83,50.83,0,0,1,177.69,142.23Z"/><path class="cls-5" d="M203.86,79.69c-1.07-1.21-7.05-6.47-12.57-8.22l-2.71-1.2,1.69-2.46c2.61-2.85,4.57-5.2,7.32-5.7L200,63.24h0c-.71.24-2.45,2.18-4.19,4.84,4.14,1.48,9.09,5.5,10.91,7.54Z"/><path class="cls-5" d="M185.5,69h0c-3.21-.17-14.83,2.87-17.49,3.34l-.8-4.94c3.77-1.21,7.29-1.91,16.38-2.77,1.47-2.08,4.13-5.12,5.84-7l.83-.93L200,63.24l-1.7,1.5-7-3.17A77.25,77.25,0,0,0,185.5,69Z"/><path class="cls-5" d="M17.77,71.07,14.48,67.3c3.4-3.18,7.89-4,10.67-4.49.08-2.31,2.44-7.33,5.62-11.21l.36-.45,7-1-1,2.45A77.67,77.67,0,0,0,33.83,62c2.83.2,10.84.68,13.82,2.1L45.43,68.6c-2.84-1.35-9.92-3.63-12.3-3.72l-1.45-.06V63.37c0-2,.9-7,2.74-9.86l-2.82.5C28.47,58.24,29,63.78,29,63.84l.09,1.4-1.39.19C24.45,65.87,19.34,68.84,17.77,71.07Z"/><path class="cls-5" d="M132.26,24.93c-8.6-4.06-14.6-7.27-14.67-7.27h-1.84l.37-1.8c.51-2.42,2.92-5,5.17-7.42l-1.55-.5c-3.36,1.48-5.29,6.41-5.84,8.5l-.43,1.64-1.58-.63a26.3,26.3,0,0,0-11.31,1.41l-.32-3A20.2,20.2,0,0,1,112,15.3c.94-2.7,3.36-8.24,7.72-9.84l.29-.11,8.19.46-2.45,2.38a47.84,47.84,0,0,0-6.49,7.64,51,51,0,0,1,15.07,4.53Z"/><path class="cls-5" d="M244.06,22.61c-.52-1.85-5.26-8.07-10.83-11L232.08,11l.45-1.23a16.44,16.44,0,0,1,5.36-6.56l-1.8-.65c-1.89.11-4.54,4-6.43,6.73l-.68,1-1.09-.43C225.75,9,219.58,7.58,216.27,9l-1.16-2.77c4.09-1.7,10.35.05,12.86.88,1.75-2.29,5.89-7.2,9.41-7.06l.33.05L244.94,2l-2.72,1.85a60.58,60.58,0,0,0-7.39,5.76c10.7,5.89,13.23,9.62,13.42,10.29Z"/></g></g></svg>