<svg xmlns="http://www.w3.org/2000/svg" viewBox="0 0 160.01 243.79"><defs><style>.cls-1{fill:#582926;stroke:#3e1514;}.cls-1,.cls-2,.cls-4{stroke-width:4.3px;}.cls-2{fill:#832851;}.cls-2,.cls-3,.cls-4,.cls-5,.cls-6,.cls-7,.cls-8{stroke:#590e34;}.cls-3,.cls-4{fill:#732147;}.cls-3,.cls-5,.cls-6,.cls-7,.cls-8{stroke-width:3.49px;}.cls-5{fill:#842a52;}.cls-6{fill:#712045;}.cls-7{fill:#78244a;}.cls-8{fill:#832951;}.cls-9{fill:#b06a89;}</style></defs><g id="レイヤー_2" data-name="レイヤー 2"><g id="ぶどう"><path class="cls-1" d="M80.63,64.63s6.78-28.94,29.06-36.21c0,0-19.37-12.59-23.25-21.8L99.08,2.48s34.84,39,60.51,40.69l-17.44,3.5s-18.16-8.07-22-11c0,0-17.68,1.12-30.28,33.74"/><circle class="cls-2" cx="118.41" cy="113.52" r="31.97"/><circle class="cls-2" cx="34.12" cy="91.4" r="31.97"/><circle class="cls-3" cx="48.66" cy="216.1" r="25.95"/><circle class="cls-3" cx="28.1" cy="136.96" r="25.95"/><circle class="cls-4" cx="77.72" cy="94.79" r="31.97"/><circle class="cls-5" cx="66.1" cy="140.14" r="25.95"/><circle class="cls-6" cx="103.67" cy="149.32" r="25.95"/><circle class="cls-7" cx="77.72" cy="184.52" r="25.95"/><circle class="cls-8" cx="36.49" cy="181.06" r="25.95"/><circle class="cls-9" cx="18.62" cy="74.85" r="8.08"/><circle class="cls-9" cx="18.62" cy="128.54" r="8.08"/><circle class="cls-9" cx="26.7" cy="174.17" r="8.08"/><circle class="cls-9" cx="66.1" cy="78.63" r="8.08"/></g></g></svg>