<svg xmlns="http://www.w3.org/2000/svg" viewBox="0 0 292.69 253.84"><defs><style>.cls-1{fill:#769046;}.cls-2{fill:#4c753e;}.cls-3{fill:none;stroke:#3e6132;stroke-miterlimit:10;stroke-width:5px;}.cls-4{fill:#35386c;}.cls-5{fill:#0d1332;}.cls-6{fill:#000018;}.cls-7{fill:#141e3a;}.cls-8{fill:#756b9a;}</style></defs><g id="レイヤー_2" data-name="レイヤー 2"><g id="ブルー"><path class="cls-1" d="M139.77,187.31c-12.56,28-47.63,60.89-47.63,60.89s-9.68-30.48-19.4-57.34c-9.08-25.09,14.14-57.34,32.64-57.34S150.76,162.82,139.77,187.31Z"/><path class="cls-1" d="M4.41,4.48S53.91-3.29,77.61,13s29.45,40.75,20.53,53.71S52.51,87.8,42.13,61C29.43,28.07,4.41,4.48,4.41,4.48Z"/><path class="cls-2" d="M92.36,73.05S64.66,16.77,4.41,4.48c0,0,23.67,34.46,31.53,54.72C45.51,83.89,75.55,91.58,92.36,73.05Z"/><path class="cls-1" d="M289.16,97.57l-39.23,27.71c-24.61,17.37-77-7-77-27.37s23.19-37,51.79-37S289.16,97.57,289.16,97.57Z"/><path class="cls-2" d="M180.24,89.18s85.73-6,108.92,8.39c0,0-9,8.38-39.23,27.71-34.21,21.84-74.66-17.48-74.66-17.48Z"/><path class="cls-2" d="M113.63,149.81s-13.9,93.11-21.49,98.39c0,0,41-30.89,52.69-71.55S121,132.05,121,132.05Z"/><path class="cls-3" d="M97.14,34.28S79.68-6.88,4.41,4.48c0,0,26,36.44,29.44,49.81S52.71,79.62,58.69,81.52"/><path class="cls-3" d="M71.85,166.36S67,179.11,78.41,206.91s14.18,37.51,13.73,41.29c0,0,47.64-36.88,52.69-71.55"/><circle class="cls-4" cx="71.85" cy="120.12" r="50.56"/><path class="cls-3" d="M204,127.77s27.63,9.57,45.92-2.49,39.23-27.71,39.23-27.71S239.6,33.09,183.7,74.93"/><circle class="cls-4" cx="157.76" cy="127.77" r="50.56"/><path class="cls-5" d="M188.2,128.11l10-1.39a2.18,2.18,0,0,1,2.09,3.39l-5.74,8.34a2.15,2.15,0,0,0,.08,2.56l6.21,8a2.17,2.17,0,0,1-1.89,3.5l-10.09-.81a2.18,2.18,0,0,0-2.19,1.35l-3.81,9.38a2.18,2.18,0,0,1-4,.11l-4.35-9.14a2.17,2.17,0,0,0-2.26-1.22l-10,1.39a2.18,2.18,0,0,1-2.09-3.39l5.74-8.34a2.15,2.15,0,0,0-.08-2.56l-6.21-8a2.18,2.18,0,0,1,1.89-3.51l10.09.81a2.19,2.19,0,0,0,2.19-1.35l3.81-9.38a2.18,2.18,0,0,1,4-.11l4.35,9.14A2.17,2.17,0,0,0,188.2,128.11Z"/><circle class="cls-4" cx="141.06" cy="57.24" r="50.56"/><path class="cls-5" d="M79.81,105.35l10-1.39a2.18,2.18,0,0,1,2.09,3.39l-5.74,8.33a2.16,2.16,0,0,0,.08,2.57l6.21,8a2.17,2.17,0,0,1-1.89,3.5l-10.09-.8a2.18,2.18,0,0,0-2.19,1.35l-3.81,9.37a2.17,2.17,0,0,1-4,.12l-4.35-9.14a2.17,2.17,0,0,0-2.26-1.22l-10,1.39a2.17,2.17,0,0,1-2.08-3.39l5.74-8.34a2.19,2.19,0,0,0-.08-2.57l-6.21-8a2.17,2.17,0,0,1,1.89-3.5l10.09.81a2.2,2.2,0,0,0,2.19-1.35l3.81-9.38a2.18,2.18,0,0,1,4-.11l4.35,9.14A2.17,2.17,0,0,0,79.81,105.35Z"/><path class="cls-5" d="M159.78,22.24l10-1.38a2.17,2.17,0,0,1,2.08,3.38l-5.74,8.34a2.19,2.19,0,0,0,.08,2.57l6.21,8a2.17,2.17,0,0,1-1.89,3.5l-10.09-.8a2.16,2.16,0,0,0-2.18,1.34l-3.82,9.38a2.18,2.18,0,0,1-4,.11l-4.35-9.14a2.19,2.19,0,0,0-2.26-1.22l-10,1.39a2.18,2.18,0,0,1-2.09-3.39L137.5,36a2.18,2.18,0,0,0-.07-2.57l-6.22-8a2.17,2.17,0,0,1,1.89-3.5l10.09.8a2.18,2.18,0,0,0,2.19-1.35L149.19,12a2.18,2.18,0,0,1,4-.12L157.52,21A2.17,2.17,0,0,0,159.78,22.24Z"/><ellipse class="cls-6" cx="151.83" cy="32.38" rx="7.23" ry="4.61"/><path class="cls-6" d="M189.22,140.62c0,2.47-3.12,4.46-7,4.46s-7-2-7-4.46,3.12-4.45,7-4.45S189.22,138.16,189.22,140.62Z"/><path class="cls-6" d="M81.21,116.51c0,3-3.45,5.44-7.71,5.44s-7.71-2.44-7.71-5.44,3.45-5.44,7.71-5.44S81.21,113.5,81.21,116.51Z"/><path class="cls-7" d="M93,74.73c-.21-.56-.4-1.12-.59-1.68a51.25,51.25,0,1,1,92.35,10.84l-4.26-2.63a46.23,46.23,0,1,0-83.34-9.77A44.22,44.22,0,0,0,105,82.67C110.08,87.74,93,74.73,93,74.73Z"/><path class="cls-7" d="M71.85,171.36a51.25,51.25,0,1,1,46-74l-4.69,5.45c-8.09-20.18-23.54-29-41.26-29a46.25,46.25,0,0,0,0,92.49c14.94,0,30.91-7.48,39.67-21.28l2.11,4.73A51.38,51.38,0,0,1,71.85,171.36Z"/><path class="cls-7" d="M157.76,179a51.3,51.3,0,0,1-51.24-51.24c0-28.26,23-50.37,51.24-51.25,28.69-.89,51.42,22.63,51.25,51.25A51.41,51.41,0,0,1,157.76,179Zm0-97.49A46.25,46.25,0,1,0,204,127.77,46.3,46.3,0,0,0,157.76,81.52Z"/><path class="cls-2" d="M56,30.43c1.86,9.18-3,17.67-4.53,17.67s.39-6.72,0-16.08c-.42-10.09-5.42-19.26-2.74-19.26C50.24,12.76,54,20.38,56,30.43Z"/><path class="cls-2" d="M70.34,37.14c1,9.32-4.71,17.29-6.22,17.14s1-6.65,1.56-16c.56-10.09-3.53-19.69-.87-19.43C66.32,19,69.28,26.93,70.34,37.14Z"/><path class="cls-2" d="M83.62,48c.13,12.1-7.44,16.3-8.91,15.91s2.11-6.39,4.13-15.54c2.18-9.86-.29-20,2.29-19.31C82.6,29.42,83.51,37.71,83.62,48Z"/><path class="cls-2" d="M79,176.49c0,1.49,15.81-1.28,24-1.28s10,.08,10-1.41.16-5.55-8-5.55S79,175,79,176.49Z"/><path class="cls-2" d="M83.63,196.83c.22,1.47,15.45-3.6,23.54-4.81s9.92-1.4,9.7-2.86-.66-5.52-8.75-4.32S83.41,195.36,83.63,196.83Z"/><path class="cls-2" d="M89.15,212.88c.22,1.47,15.45-3.6,23.54-4.81s9.92-1.4,9.7-2.87-.66-5.51-8.75-4.31S88.93,211.41,89.15,212.88Z"/><path class="cls-2" d="M210.4,89.27c.11,10.56-6.8,12.38-8.58,11.63s.08-9.25,4.17-19,8.84-17,10.63-16.27S210.31,80.44,210.4,89.27Z"/><path class="cls-2" d="M225.74,93.64c-.64,10.54-7.66,11.87-9.39,11s.74-9.22,5.5-18.65,10-16.35,11.74-15.48S226.27,84.82,225.74,93.64Z"/><path class="cls-2" d="M241.77,97.58c-1.33,10.47-8.43,11.34-10.09,10.35S233,98.78,238.4,89.7,249.48,74,251.14,75,242.88,88.82,241.77,97.58Z"/><path class="cls-8" d="M42.71,136.11c3.89,7.95,10.63,12.63,7,14.39s-9.65-3.26-13.54-11.21-4.13-15.81-.54-17.57S38.82,128.16,42.71,136.11Z"/><path class="cls-8" d="M112,41.38c-3.94,7.92-3.55,16.12-7.13,14.34s-3.28-9.64.66-17.56,10-12.9,13.61-11.12S116,33.46,112,41.38Z"/><path class="cls-8" d="M142.6,105.1c-6.15,6.36-8.27,14.29-11.14,11.51s-.21-10.18,5.94-16.54,13.47-9.26,16.34-6.48S148.75,98.74,142.6,105.1Z"/></g></g></svg>