<svg xmlns="http://www.w3.org/2000/svg" viewBox="0 0 213.73 193.74"><defs><style>.cls-1{fill:#51982f;}.cls-2{fill:#56892f;}.cls-3{fill:#507a00;}.cls-4{fill:#dce673;}.cls-5{fill:#4a821d;}.cls-6{fill:#518718;}.cls-7{fill:#46630a;}.cls-8{fill:#347300;}.cls-9{fill:#8fa834;}.cls-10{fill:#43771a;}.cls-11{fill:#3d7d09;}</style></defs><g id="レイヤー_2" data-name="レイヤー 2"><g id="ブロ塗り"><path class="cls-1" d="M38.59,75.19s-19.33-6-27.33,4.66S13.92,97.7,13.92,97.7s-22.61,12.82-5.64,26.82,33.64,9.33,33.64,9.33-2.66,10.68,14.67,14.68,36.41-.2,38.73-9.33c2.36-9.35.6-37-14.06-41.5,0,0,10-23.85-10.67-29.18S45.26,70.52,38.59,75.19Z"/><path class="cls-2" d="M160.53,101.3s-19-12-34.85,1.34-7.15,24.66-7.15,24.66-17.33,8.27-6.67,22.81,27.32,7.19,27.32,7.19,2,10.67,16.68,14,34-14.66,30.67-26c0,0,24-2.66,20-20S179.86,87.3,160.53,101.3Z"/><path class="cls-2" d="M159.58,172.21h0a17.16,17.16,0,0,1-3.83-.42c-12.83-2.91-16.22-11.49-16.91-13.81a27.53,27.53,0,0,1-9.4,1.68,21.6,21.6,0,0,1-18-9.26c-3.12-4.25-4.2-8.41-3.21-12.36,1.56-6.21,7.72-9.94,9.56-10.93-1.45-2.37-6.59-12.93,7.55-24.85a26.44,26.44,0,0,1,17.49-6.41,36.94,36.94,0,0,1,17.66,4.86,23.39,23.39,0,0,1,13.69-4.53c15.4,0,29.65,15.29,32.82,29a13.67,13.67,0,0,1-1.93,11.45c-4.82,6.8-15.34,8.71-17.93,9.09.88,3.87-.55,8.57-4.09,13.3-5.81,7.76-15.47,13.18-23.49,13.18Zm-20-15.61.12.61c0,.1,2.16,10.39,16.3,13.61a16.37,16.37,0,0,0,3.61.39c7.73,0,17.06-5.26,22.69-12.78,3.47-4.64,4.84-9.37,3.78-13l-.17-.58.59-.06c.13,0,12.67-1.49,17.81-8.75A12.74,12.74,0,0,0,206,125.42C203,112.09,188.7,97.18,174.2,97.18a22.53,22.53,0,0,0-13.38,4.53l-.27.2-.29-.18a36.53,36.53,0,0,0-17.41-4.88A25.5,25.5,0,0,0,126,103c-15.24,12.85-7.41,23.53-7.07,24l.37.49-.56.27c-.07,0-7.84,3.82-9.52,10.53-.92,3.64.11,7.52,3,11.52a20.36,20.36,0,0,0,17.17,8.85,26.19,26.19,0,0,0,9.53-1.81l.58-.25Z"/><path class="cls-3" d="M110.42,13.83S120.66,2.52,139.24,2.52s36.15,22.87,23.35,35.67c0,0,18.16,3,18.16,27.49s-9.6,9.67-9.6,9.67l-59.48-30.6-1.25-30.92"/><path class="cls-1" d="M173.77,126.12s19.13,6.63,27.47-3.76-2.07-17.93-2.07-17.93,23-12.06,6.52-26.62-33.32-10.43-33.32-10.43,3-10.59-14.17-15.15-42.69,1-45.3,10c-2.67,9.26-2.79,42.59,19,39.95,0,0-10.78,23.51,9.7,29.52S167,130.56,173.77,126.12Z"/><path class="cls-4" d="M43.44,110s22.67,28,22,32.67-19.58,30.09-22.91,32.09c0,0,22.73,17.45,41.39,16.78,0,0,13.34-28.67,14-33.33,0,0,17.34-8,36-7.66l18.67.32-4.1-7.84s-34.57,1.18-40.57,3.18l25-21.71-57,6.48s-3.09-2.6-3.09,1.4-1.54,1.83-1.54,1.83-18.85-24-22.18-23.34Z"/><path class="cls-5" d="M83.92,17.52s-19-12-34.84,1.33-7.16,24.67-7.16,24.67-17.33,8.27-6.66,22.8a25,25,0,0,0,26.41,9.87s2.92,8,17.59,11.33,37-13.93,33.64-25.26c0,0,21-3.41,17-20.74S103.26,3.52,83.92,17.52Z"/><path class="cls-6" d="M98.59,63.68S67.92,61.52,63.26,83.52,81.08,108,81.08,108s.37,16.18,12.27,22.84,27.47,6.71,37-5.31c0,0,14.22,7.31,26.22,2.65s17.33-21.15,16.67-27.58-16.56-43.56-58-26.42C115.26,74.19,103.37,64.06,98.59,63.68Z"/><path class="cls-7" d="M183.24,65.77l-5-.17c.29-8.82-2.37-15.7-7.92-20.46a21.83,21.83,0,0,0-8.3-4.51l-5.18-1.19,4.22-3.24c3.42-2.62,4.3-7.74,2.36-13.71C160.78,14.29,152.7,5.33,141.24,5c-19.41-.53-28.82,10.32-28.91,10.43l-5-1.9C107.73,13,119.61-.57,141.38,0,155.26.39,165,11.13,168.19,20.94c2.05,6.33,1.56,12.11-1.23,16.22C173,40,183.85,47.53,183.24,65.77Z"/></g><g id="ブロ線"><path class="cls-8" d="M114.7,63.14l-1-4.9c5.82-1.21,13-4.15,14.41-11.19,1.56-8.07-5-19.31-15.29-26.16-15.4-10.26-27.24-1.47-27.36-1.38l-2,1.57L81.89,19c-2.42-3.38-17-8-31.4,1.94C37,30.2,43.83,43.28,44.12,43.83l-4.4,2.38C39.63,46,30.5,28.6,47.66,16.79c14.57-10,30.5-7.47,36.65-2.44,4.56-2.49,16.77-7.28,31.26,2.38,10.33,6.89,19.23,20,17,31.46-1,5.38-4.65,12.18-17.89,15Z"/><path class="cls-8" d="M35.76,137c-6.12,0-13.32-1.92-19-4.41-8.2-3.6-14-8.52-15.89-13.5C-2.72,109.65,5.63,101,10,97.24,4.65,92.42,2,88.65,9.2,78.1c6.87-10,22.51-7.45,28.1-6.16C34,69.09,29.4,64,29.35,57.62c-.06-5.9,3.72-11.35,11.21-16.2l3.56,2.41c-6,3.86-9.81,9.67-9.77,13.75.06,6.91,7.07,14.77,8,14.94L44.91,74,40.34,77l-2.17-.67c-.18,0-18.64-4.44-24.85,4.59C8,88.75,9.09,89.75,13.9,94c.55.49,1.12,1,1.71,1.53l2.32,2.12-2.58,1.78c-.13.09-13.1,9.22-9.8,17.9C7,121,11.89,125,18.77,128c8.34,3.66,17.69,5,22.23,3.18l1.85,4.64A19.32,19.32,0,0,1,35.76,137Z"/><path class="cls-8" d="M113.52,71.52l-3.93-2.83c.74-.64,2.38-7,2.11-10.3l5-.41c.19,2.28,1.07,11.07-2.59,13.54Z"/><path class="cls-9" d="M85,193.74,100,158.87c1.82-1.19,9.72-4.63,17-3.62l-1.4-4.75c-10,.2-18.59,5-19.15,4.73l-.54.41L82.13,188.38c-5.25-1.82-20.56-7.82-35.14-14.9,4.86-6.19,16.43-22.12,18-24.33l-4.26-.63C58.88,151.13,40.17,175,40,175.2,40,175.2,64.42,189.24,85,193.74Z"/><path class="cls-8" d="M110.7,137.18a52.92,52.92,0,0,1-8.24-.69c-21.18-3.36-23.23-21.86-23.38-27.18-3.82-1.78-15.13-7.8-17.94-17.65-1.57-5.49-.25-11.17,3.91-16.88,6.33-8.69,14.36-13.1,23.87-13.1,13,0,26.18,9.74,25.7,9.39A93.14,93.14,0,0,1,135,68.56c19.4,0,32.94,8.73,37.16,24,3.64,13.15-.81,29.28-9.53,34.51a27.12,27.12,0,0,1-14.12,4h0a32,32,0,0,1-16.27-4.79c-.35.92-4.49,10.92-21.54,10.92ZM88.92,65.68c-8.16,0-15.1,3.86-20.64,11.46-3.39,4.66-4.5,9.17-3.3,13.41,2.78,9.78,16.71,15.55,16.85,15.61l1.34.54-.09,1.44c0,.86-1,21.07,20,24.4a48.73,48.73,0,0,0,7.62.64c13.19,0,17-6.62,17.67-8v-6.91l3.29,2.78c.07,0,7.33,6,16.85,6h0a23.17,23.17,0,0,0,12.06-3.45c6.5-3.9,11.19-17.56,7.74-30-2.18-7.86-9.4-21-33.31-21a90.66,90.66,0,0,0-20.36,2.61l-.73.17-.66-.36a5.84,5.84,0,0,1-.57-.37c-4.59-3.34-13.77-8.93-23.76-8.93Z"/><path class="cls-8" d="M156.65,173.48c-7,0-13.44-3-18.57-12.72a23.67,23.67,0,0,1-14.32,2c-5.79-1.15-8.19-7.25-10.58-12.17l4.79-.36c1.73,3.56,4.16,6.9,7.1,7.7,5.9,1.61,12.66-2.71,12.73-2.75l2.44-1.62,1.21,2.67c7.4,16.31,17.34,13.08,31.09,8.61C184.26,161.08,184,146,184,145.37l-.05-2.06,2-.45c9.35-2.06,15.14-5.63,17.23-10.59,2.61-6.22-1.49-12.93-1.53-13l-.8-1.28.75-1.3c1.1-1.9-1.92-7.54-4.43-10.71l-2.8-3.52,4.48-.51a12.35,12.35,0,0,0,7.66-4.58c2.18-3.05,2.73-7.35,1.61-12.79-3.33-16.33-35.33-14.73-35.65-14.71l-2.38.14-.24-2.37a19,19,0,0,0-7.52-12c-6.32-4.54-20.32-4.11-32.53-1.5l2-6c13.7-2.93,26-2,33.54,3.5a23.91,23.91,0,0,1,9,13.22c8-.09,35,.93,38.66,18.76,1.41,6.9.57,12.54-2.5,16.77a16.37,16.37,0,0,1-7.31,5.54c2,3.17,4.42,8,3.32,11.88,1.36,2.68,4.15,9.51,1.28,16.39-2.58,6.18-8.92,10.6-18.88,13.13-.33,5.14-2.41,18.3-14.88,22.35-5.87,1.9-11.83,3.84-17.44,3.84Z"/><path class="cls-8" d="M65,149.11c1.66-3,2.62-6.83,1.71-10.21-.6-2.25-14.79-18.63-21.79-28l7,2.38L71.84,137l2.52-5.57C83.35,135.35,88,129,88,129l-1.18-2s-6.25,6.7-13.87.56l-1.42,4L52.7,110.36l-15.3-4.73,4.09,5.43c9.61,12.78,21.29,28.06,22,30,.5,1.82-.4,5.45-1.51,7.47l-2.51,3.1,3.62.13"/><path class="cls-8" d="M44.32,130.08c0,.07.21,8,5.16,12.68,3.07,2.87,8.45,4.13,14,3.79l-.68,5c-.7,0-1.39.06-2.06.06h0c-6.08,0-11-1.76-14.73-5.24a21.5,21.5,0,0,1-6.61-14.59Z"/><path class="cls-8" d="M155.77,153.49h0l-5.54-14.1-1.5.14c-4.58.44-22.24,2.15-33,3.47,14.44-10.62,18.17-14,19.89-15.56a12.17,12.17,0,0,1,1-.88l-2.35-3.24a15.72,15.72,0,0,0-1.36,1.16c-1.91,1.72-6.44,5.6-25,21.71h0c2.08-.68,25.09-1.12,39.69-2.53l1.9,4.81c-7.16-.32-21.63.84-33.94,2l.39,4S152.73,152.93,155.77,153.49Z"/><path class="cls-10" d="M202.87,121.75c-10.93,10.93-24.89,7.45-28.75,6.1a28.81,28.81,0,0,1-20,7.8c-11.25,0-20.85-6-21-6.09l2-2.3A40.47,40.47,0,0,0,148,132.11c9.67,1.84,18-.54,24.74-7.07l.7-.68.91.37c.16.07,15.59,4.22,26.55-6.74A18.67,18.67,0,0,1,202.87,121.75Z"/><path class="cls-11" d="M64.37,75.75l-.87-2.58-1.72,1.08C54.57,78.75,45,74,44.91,74L40.34,77c.4.19,13.16,4.57,21.35.69A5.13,5.13,0,0,0,62.5,79,15.74,15.74,0,0,1,64.37,75.75Z"/></g></g></svg>