<svg xmlns="http://www.w3.org/2000/svg" viewBox="0 0 225.13 292.44"><defs><style>.cls-1{fill:#1b9e4d;}.cls-2{fill:#0d4c25;}.cls-3{fill:#0f572a;}.cls-4{fill:#082e16;}</style></defs><g id="レイヤー_2" data-name="レイヤー 2"><g id="レイヤー_4" data-name="レイヤー 4"><path class="cls-1" d="M43.67,256.3C43.49,256,85.41,229.55,98,220.54,111.56,210.9,60.36,256,38.4,265.61"/><path class="cls-2" d="M81.64,231s38.73,21,58.63-3.77,2.15-20.23,14.52-25.71,23.13-10.87,21-31.31,15.06-23.9,15.06-41.26,25.28-26.06,25.28-26.06-16.14-2.06-23.67,4.39-46.79,27.56-53.79,23.39-30.12,19-17.75,42.43"/><path class="cls-2" d="M61.87,225.89s-28.59-25.34-3.81-41.11,31.53-16.89,30.41-25.9,5.25-29.47,31.53-40c0,0,14.64-40,64.76-50.69,0,0-38.67,38.53-30.78,55.75,0,0,19.74,43.92,9.94,53.19-12,11.38-30.59,7.25-27.59,26.2,1.74,11-4.5,37.24-28.15,35.52S65.91,229.9,61.87,225.89Z"/><path class="cls-2" d="M55.71,210.6s-37.12,3.06-38.2-16.22,12.91-18.9,12.91-23.93c0,0-19.9-26.25,3.77-44.15S59.47,105,55.71,100.24,52.13,89.94,53,82c.81-7.21-3.68-17.75-5.07-25.28s1.22-3.88-.17-8.72c0,0,2.55,8.72,6.85,14.64S65.39,79.35,65.39,84.19s39.8,17.67,28.51,44.61c0,0,30.12,23.55,15.59,41.65C99.27,194.38,98.2,200.38,55.71,210.6Z"/><path class="cls-2" d="M81.52,103.56s-7-24.74,8.61-37.65,29.58-15.06,37.12-18.29,5.91-18.29,21-22.06,8.61-22,8.61-22S166,22.34,158.2,32s-14.28,19.9-11.59,24.74,13.84,48.38-12.91,67.1-41.42,29.73-41.42,29.73Z"/><path class="cls-1" d="M43.67,250.81s37.92-73,62.5-128.83c8.77-19.92,15.83-37.67,18.88-49.17,0,0-26.45,98.38-75.32,176.58"/><path class="cls-1" d="M132.65,130S62,252,1.93,284.64c0,0,8.26,7.14,13.14,6.76C15.07,291.4,120.33,179.57,132.65,130Z"/><path class="cls-1" d="M100.93,180s1.12-18.19,2.74-30.88c0,0-8.68,30.31-7.06,36.47"/><path class="cls-1" d="M94.45,193.37s20.86-1.35,34.37-7.78c0,0-16.06,10.1-35.81,13.28"/><path class="cls-1" d="M64.54,102.6S53.83,238,35.81,261.65l11-9.67S71,141.14,64.54,102.6Z"/><path class="cls-1" d="M61.1,142.74s-10.08-8.5-11.37-16.1c0,0,4.28,21.59,11.37,21.59"/><path class="cls-1" d="M61.53,161.6s9.24-1.55,13.84-3.43c0,0-10.57,7-14.27,7.28"/><path class="cls-1" d="M60.71,171.39s12-1.82,17.92-4c0,0-13.69,8.25-18.48,8.58"/><path class="cls-1" d="M61.53,156.21s-10-2.59-14.73-7.09c0,0,9.23,9.81,14.3,10.93"/><path class="cls-1" d="M118.35,157s9.24-1.55,13.84-3.42c0,0-10.57,7-14.27,7.27"/><path class="cls-1" d="M105,177.75s15.61-1.55,23.38-3.42c0,0-17.86,7-24.11,7.27"/><path class="cls-1" d="M115.52,160.71s-3.67-9.66-2.72-16.12c0,0-2.68,13.21-.67,18"/><path class="cls-1" d="M107.32,120.28s9.25-1.55,13.85-3.43c0,0-10.58,7-14.28,7.28"/><path class="cls-1" d="M109.52,119.67s-8.66-5.64-11.7-11.42c0,0,5.62,12.24,10.06,14.93"/><path class="cls-1" d="M59.83,183.77s11.62-2.09,17.39-4.62c0,0-13.28,9.43-17.92,9.81"/><path class="cls-1" d="M60,173s-12.57-3.49-18.51-9.57c0,0,11.6,13.24,18,14.76"/><path class="cls-1" d="M63.27,146a57.54,57.54,0,0,0,14-10S65.56,150.31,61.2,151.43"/><path class="cls-1" d="M113.45,105S105,89.8,105.28,80.6c0,0,1,26.23,4.08,34"/><path class="cls-1" d="M113.45,109.22s16.08-7.22,19.2-15.38c0,0-10.83,22.23-21.73,23.5"/><path class="cls-1" d="M81.21,210.05s14.92,1.69,24.07,0c0,0-16.55,5.95-24.54,4.38"/><path class="cls-2" d="M63.64,227.26h0S36,203.78,54.3,187.41s32-16.24,35.47-20.06-15.85-30.31,19.59-43L87.2,190.13Z"/><path class="cls-1" d="M86.71,201.76s-7.57-6.59-9.72-12.24c0,0,2.9,12.57,5.8,15.31"/><path class="cls-1" d="M185.89,120.49s-17.74,18.19-22,31.1c0,0-.72-2.7-1.48-5.08S180.54,123.49,185.89,120.49Z"/></g><g id="レイヤー_6" data-name="レイヤー 6"><path class="cls-3" d="M44.88,256.81l22.41-25.14,1.17.64L54.7,248.22c7-4.41,18.29-12.87,19.27-13.51l2.31,1.12c-1.43.93-25,16.93-26,17.53Z"/><polygon class="cls-3" points="58.52 234.71 58.52 234.71 62.03 227.86 62.03 227.86 62.38 228.64 63.14 229.29 58.52 234.71"/><polygon class="cls-3" points="46.54 247.5 53.12 218.99 54.68 220.07 51.48 233.36 56.56 222.14 58.69 223.58 46.54 247.5"/><path class="cls-3" d="M15.48,292.44l-.5,0a22.15,22.15,0,0,1-13.81-7.11L0,283.9l1.8-.25c6.05-.84,31.9-24.27,37-29.23,2.14-2.09,7.84-28.93,10.8-43.26l1.77,3.74c-.8,3.85-7.89,37.74-11.18,41-.27.26-26.74,25.18-36.38,29.25a20.27,20.27,0,0,0,10.87,5.24l23.09-25.52.13-.08c12.47-7.47,39-25.34,41.59-27.74l1.41.47c-4,6.18-39.1,27.26-41.84,28.91Z"/><path class="cls-4" d="M105.64,241.64c-20.71,0-37.5-9.46-38.35-10L70,228.3c.26.16,26.39,15.38,54.41,6.47,27.18-8.63,22.67-34.43,22.46-35.53l-.37-2,2-.38c4.91-.95,8.67-4.54,11.18-10.68,6.68-16.33,2.27-45.89-5.89-57.73-5.41-7.84-2-20.71,10.25-38.26A201.28,201.28,0,0,1,177.67,73c-8.21,3.2-21.25,8.67-30.45,14.45-7.95,5-13,14.09-17,21.39-3.36,6.06-6,10.85-9.59,12-10.7,3.39-35.17,12.89-31.1,27.77,4,14.53,1.84,19.53-.78,22.51l-.23.27c-.57,1.12-1.66,1.36-4.76,2C76.48,175,59.52,178.78,53,193.06c-8.07,17.58,12.55,33,12.75,33.14l-2.58,3.09c-.22-.16-23.21-17.39-13.81-37.89,7.38-16.1,25.71-20.15,33.53-21.89.92-.2,1.93-.42,2.45-.57.13-.17.27-.33.4-.48,1.06-1.21,3.87-4.4-.06-18.81-3.51-12.84,8.79-24.74,33.75-32.64,2.06-.65,4.6-5.24,7.29-10.1,4.26-7.71,9.57-17.3,18.4-22.85,14.72-9.24,38-17.39,39-17.73l8-2.79-5.94,6.08c-11.11,11.37-38,43.71-29.11,56.61s13.54,43.81,6.3,61.51c-2.71,6.63-6.94,11-12.3,12.64.62,6.77.71,29.9-25.42,38.2A65.84,65.84,0,0,1,105.64,241.64ZM88.52,171.29v0Z"/><path class="cls-4" d="M150.42,205.26l-.57-4.62c.18-.06,18.86-5.47,22.57-15.73,2-5.5,1.68-10.37,1.38-15.07-.28-4.48-.54-8.72,1.44-12.58a75.51,75.51,0,0,1,4-6.46c4.81-7.27,11.4-17.24,10.17-26s9.07-15.9,17.1-19.94c-6.65.5-15.25,2.34-20.25,8.09-10.07,11.56-29.56,16.18-30.38,16.37l-.9-3.9c.18,0,19-4.52,28.26-15.1,10.33-11.87,32.17-9.5,33.09-9.39l8.79,1-8.37,2.86c-6.93,2.37-24.63,10.48-23.37,19.43,1.44,10.26-5.64,21-10.81,28.77-1.58,2.39-3,4.46-3.78,6.08-1.48,2.88-1.26,6.41-1,10.5.31,4.87.65,10.39-1.61,16.67C171.82,198.35,151.24,205,150.42,205.26Z"/><path class="cls-4" d="M48.79,212.71c-2.71,0-24.68-.33-30.75-10.64-3.92-6.66-2.67-15.95.3-22.21,2.13-4.5,5.14-7.75,8.53-9.3-4.39-6.54-14.51-25.47,1.72-42a141.1,141.1,0,0,1,20.88-17.93c3.81-2.72,5-3.67,5.48-5.53.29-1.21-.05-1.85-1.09-3.51C52,98.6,49.14,94,51,81.83a53.07,53.07,0,0,0-3.89-20.54l-.11-.4c-.61-3.73-2.4-13.88-1.36-19.14L47,37.47l1.65,5.22c2.11,8.76,6.95,17.51,7.63,18.89l.53.7c7.9,10.37,11.31,17,10.79,21.21,8,7.06,37.05,33.34,36.57,43l-4-.2C100.36,123,90.7,109,64.07,85.7l-1.1-1,.58-1.34c.37-.85.75-4.72-9.9-18.69L53,63.84A89.72,89.72,0,0,1,48,51c.16,1.46.87,8.16,1.1,9.57C53.8,72.85,55,81.8,55,82.2l0,.15c-1.68,10.81.6,14.48,2.27,17.16,1.12,1.79,2.27,3.65,1.58,6.55-.81,3.41-3.16,5.08-7.05,7.85A138.68,138.68,0,0,0,31.44,131.4c-17.32,17.61-.51,38.09.22,38.95l2.28,2.73-3.51.54c-3.18.49-6.35,3.46-8.48,7.95-3,6.38-3.21,13.8-.46,18.47,4.28,7.28,21.28,8.72,27.5,8.66l.9,3.67S48.9,212.71,48.79,212.71Z"/><path class="cls-4" d="M78,96.08C75.69,79.4,83.79,65.2,101.4,55a97.79,97.79,0,0,1,26-10.09c5.4-11.5,12.93-18.78,23-22.24,3.8-1.3,5.67-11,6-15.57L156.88,0l3.28,6.33c5.22,10,4.75,20-1.3,28.07-.31.41-.82,1-1.53,1.83-2.9,3.34-11.72,13.52-9.52,17.74,3.47,6.67,5.24,25.64,5.32,26.44l-4,.37c-.48-5.26-2.3-20-4.88-25-3.45-6.64,5.66-17.16,10-22.21.61-.71,1.14-1.31,1.36-1.61a19.78,19.78,0,0,0,3.53-17c-1.15,4.7-3.35,10.06-7.48,11.48-9.22,3.16-16.11,10-21.06,21l-.43.95-1,.19c-.52.1-52.25,10.58-47.26,46.91Z"/></g></g></svg>