<svg xmlns="http://www.w3.org/2000/svg" xmlns:xlink="http://www.w3.org/1999/xlink" viewBox="0 0 205.73 214.71"><defs><style>.cls-1{fill:none;}.cls-2{fill:#cdc29d;}.cls-3{clip-path:url(#clip-path);}.cls-4{fill:#b2a186;}.cls-5{fill:#5b402d;}.cls-6{fill:#442e1d;}.cls-7{fill:#a2927a;}.cls-8{fill:#311d0d;}.cls-9{fill:#321e0e;}</style><clipPath id="clip-path" transform="translate(11.39 12.8)"><path class="cls-1" d="M67.07,118.6s19.15,15.76,15.39,23.65S56.56,173,56.56,194.8c0,0,20.27-27,68-13.51,0,0,20.27-14.27,19.9-33.41s-5.26-24.78,4.5-39,29.28-14.65,31.91-14.65.38-7.13,0-9.38-1.5-12-9.76-14.27c0,0-.37-7.13,4.51-8.26s3.38-6,1.5-9.76-11.64-12.39-10.51-15.39S173.69,24,170.31,21,153,9,144.41,12.73c0,0-11.89-7.88-25.09-9s-17,4.13-17,4.13S98.23,0,89.6,8.22s-12.39-6.75-18-6.75-9.39-1.88-15,5.25c0,0-18.39-9.38-25.15,11.64S14.89,29.62,11.89,30.75s-9,9,0,19.9S9.13,63,7.13,69.79a23.41,23.41,0,0,0,0,12.77S.62,81.43,2.5,88.94s15.77,10.89,10.89,18.39-2.25,12.77,6,11.64S35.54,111.46,67.07,118.6Z"/></clipPath></defs><g id="レイヤー_2" data-name="レイヤー 2"><g id="舞茸塗りのコピー_3" data-name="舞茸塗りのコピー 3"><path class="cls-2" d="M67.07,118.6s19.15,15.76,15.39,23.65S56.56,173,56.56,194.8c0,0,20.27-27,68-13.51,0,0,20.27-14.27,19.9-33.41s-5.26-24.78,4.5-39,29.28-14.65,31.91-14.65.38-7.13,0-9.38-1.5-12-9.76-14.27c0,0-.37-7.13,4.51-8.26s3.38-6,1.5-9.76-11.64-12.39-10.51-15.39S173.69,24,170.31,21,153,9,144.41,12.73c0,0-11.89-7.88-25.09-9s-17,4.13-17,4.13S98.23,0,89.6,8.22s-12.39-6.75-18-6.75-9.39-1.88-15,5.25c0,0-18.39-9.38-25.15,11.64S14.89,29.62,11.89,30.75s-9,9,0,19.9S9.13,63,7.13,69.79a23.41,23.41,0,0,0,0,12.77S.62,81.43,2.5,88.94s15.77,10.89,10.89,18.39-2.25,12.77,6,11.64S35.54,111.46,67.07,118.6Z" transform="translate(11.39 12.8)"/><g class="cls-3"><path class="cls-4" d="M137.65,135.11c1.88,15.77-23.28,48.81-23.28,48.81l21.4,4.13L154.54,140,146,113.74s.33-8.88-8.3-15.72" transform="translate(11.39 12.8)"/></g><g class="cls-3"><path class="cls-5" d="M73.32,124.39,5.88,138.49-11.39,82.56,17.89-.79l151.67-12,24,104.37L146,113.74c1.16-10.87-8.3-15.72-8.3-15.72-6-14.94-20.65-5-20.65-5-10.88-7.14-21.4,5-21.4,5s-25-4.85-22.28,26.37" transform="translate(11.39 12.8)"/></g><g class="cls-3"><path class="cls-6" d="M83.22,80.68S57.69,24,56.19,22.49s-.28-11.26,11.68-6.38.6-20.2,4-20.43S2.16,10.1,2.16,10.1L-3.13,44.64,15.19,58.43s4.58-5.91,11.71-4.78,7.51-14,10.89-15.47S51.68,35.63,59.56,49.9,66,64.16,83.22,80.68Z" transform="translate(11.39 12.8)"/><path class="cls-6" d="M73.32,124.39s-11.88-12.18-19.39-18.18A106,106,0,0,1,34,84.06c-3.76-6-12.77-9-16.15-9s-7.57-12.86-2.7-16.62l-18.32.62v52L17.14,144.5Z" transform="translate(11.39 12.8)"/><path class="cls-6" d="M119.32,3.72s5.94,6.76,2.56,14.64-4.15,10-.76,19.82c0,0,9-23.95,23.29-25.45S119.32,3.72,119.32,3.72Z" transform="translate(11.39 12.8)"/><path class="cls-6" d="M137.65,98s10-7.2,9.87-11,10.78-21,23.54-16.52,23.28,15.39,23.28,15.39l-6.76,19.9L146,113.74S146.15,106.05,137.65,98Z" transform="translate(11.39 12.8)"/></g><path class="cls-7" d="M53.81,201.91l.25-7.19c.66-18.47,16.06-39.64,23.46-49.82,1.29-1.76,2.3-3.16,2.84-4,1.64-2.57-4.14-10.32-8.76-14.69L75,122.57c2.39,2.26,14.09,13.9,9.54,21-.62,1-1.67,2.42-3,4.25-5.71,7.86-18.1,24.89-21.59,40.35a61.24,61.24,0,0,1,13-8.05c10.71-4.89,28.17-9.08,51-1.65,3.75-3,17-14.86,17.88-30.75a72,72,0,0,0-1.09-18.27c-.83-4.79.27-12,3.09-17.18l4.08,2.89a22.14,22.14,0,0,0-2.24,13.44A76.18,76.18,0,0,1,146.9,148c-1.18,20.85-20.12,34.72-20.93,35.3l-1,.75-1.22-.41C82,169.41,59.41,195.31,58.47,196.42Z" transform="translate(11.39 12.8)"/></g><g id="舞茸線"><path class="cls-8" d="M18.2,122.26a9.36,9.36,0,0,1-5.58-1.62c-4.26-3-4.64-9.4-1.1-18.54a30.1,30.1,0,0,0-4-3.51c-3.76-3-7.64-6.06-7.53-9.73a9.57,9.57,0,0,1,4.45-7.69c-.42-4.59-.68-16.62,7.49-21,.58-.31,1.55-.92,1.69-1.59.28-1.39-1.94-4.15-3.56-6.17-1.85-2.31-3.6-4.48-4.14-6.79-1-4.37-.9-10.28,2.47-13.75,1.65-1.69,4.76-3.47,10.24-2.35,6.93,1.41,10-7,12.37-16.21l.19-.75c.88-3.48,4.2-6.73,8.88-8.69a20.4,20.4,0,0,1,16.25-.07c5.33-3.57,15.6-6.93,24,1.39,4.52,4.5,6.15,4,6.17,4,.32-.11.63-1,.67-1.29l.14-1.05.85-.64C88.69,5.78,93.92,2.05,99,2.9a8,8,0,0,1,3.77,1.7c4.93-2.78,18.84-7.75,42.32,5.63,3.76,0,20.84.6,27.25,9.27,5.33,7.21,1.48,14.19-2.38,18,5.88,8.08,13.76,20.43,10.83,25.25-.61,1-2.14,2.58-5.61,2-2.89-.48-3.59.06-3.59.07-.21.45.29,2,1.05,3.46a11.72,11.72,0,0,1,8.77,8.93c1.91,7.19,1.93,16.59,1.93,17v2.59l-2.58-.09c-.8,0-19.45-.34-32.75,18.49l-4.08-2.89c12-17,28.07-20,34.35-20.5a66.94,66.94,0,0,0-1.7-13.3c-1.32-5-5.23-5.42-5.67-5.45l-1.2-.1-.71-1c-.67-1-3.92-6.25-1.59-9.85,1.43-2.21,4.32-3,8.59-2.26a4.61,4.61,0,0,0,.52.06c.06-2.8-5.29-12.38-11.94-21.25l-1.51-2,2-1.5c.82-.61,8-6.26,3.23-12.65-4.59-6.21-18.77-7.34-23.85-7.24h-.69l-.61-.35C116.75-.4,104.48,9.34,104,9.76l-2.1,1.74L100.3,9.27a3.12,3.12,0,0,0-2.14-1.44c-2.11-.35-4.87,1-6.36,1.93a6.14,6.14,0,0,1-3.74,4.16c-3,1-6.75-.66-11.3-5.2C68.49.49,58.55,8.33,58.13,8.67L56.79,9.75,55.3,8.88A15,15,0,0,0,42,8.48c-3.09,1.29-5.49,3.43-6,5.3l-.18.74C34.17,21.24,30.21,37,17.65,34.41c-2.64-.54-4.54-.22-5.66.93-1.84,1.89-1.91,6.06-1.19,9.14.28,1.19,1.81,3.1,3.17,4.79,2.49,3.1,5.31,6.61,4.56,10.29-.41,2-1.83,3.72-4.22,5C8.63,67.62,9,78.3,9.6,82.16l.31,2L8,84.89c-.1,0-2.95,1.25-3,4.13,0,1.18,3.8,4.2,5.63,5.65,3.77,3,7,5.56,5.75,8.73-2.65,6.63-3,11.67-.88,13.15s6.51.28,11.52-1.16c3-.87,6.37-2.34,10.05-2.45,30.57-.91,37.15,9.43,38,9.63l-3.43,3.64c-.19,0-17.79-10.2-33.73-8.33a57.88,57.88,0,0,0-9.46,2.31C24.67,121.27,21.24,122.26,18.2,122.26Z" transform="translate(11.39 12.8)"/><path class="cls-9" d="M63.25,116.57C60.32,114,34.53,91.45,32.59,84.46c-1.32-4.77-11.23-7.34-14.93-7.93l-.72-.12-5.1-9.13L14,63.1l4.91,10.6a44.45,44.45,0,0,1,6.92,1.91c5.52,2,8.79,4.75,9.7,8,1.29,4.63,23.61,25.52,34.85,35.3Z" transform="translate(11.39 12.8)"/><path class="cls-9" d="M16.58,55.06c2.16-1.93,9.86-2.84,9.86-2.84,2.85-.93,8.35-9.87,9.93-14.52.28-.84,1.14-2.28,3.65-2.5,5.76-.48,16.33,5.64,20.86,14,5.74,10.56,17.68,26.14,23.24,30.3,6.33,4.75,10,17.75,10.11,18.17L91,97.54c0-.09-3.12-11.51-8.66-15.66C75.88,77.06,63.7,60.65,58.25,50.61c-4.14-7.61-13.77-12.77-18-12.42-.35,0-1,.13-1.07.47-1.39,4.09-7.06,15.77-11.84,16.41,0,0-6.29-.29-9.62,2.15Z" transform="translate(11.39 12.8)"/><path class="cls-9" d="M80.32,77.48c-.72-1.8-5.24-11.76-22.71-49-2.85-6.08-3.39-9.83-1.74-12.13,2.05-2.87,6.53-2.37,11.71-1.8l.46,0c1.76.19,3-.1,3.56-.86,1.12-1.41.12-8.35-.21-9.29l3,.75c.19.53,1.89,7.46-.44,10.4-1.29,1.63-3.39,2.29-6.24,2l-.46-.05c-3.89-.43-7.92-.87-8.94.56-.51.71-.92,2.84,2,9.12,14,29.93,22.72,49.58,23.79,52.25Z" transform="translate(11.39 12.8)"/><path class="cls-9" d="M119.76,91.57,117,93.07c1.25-.8,2.65-9.3,3.67-26,.78-12.87.37-25.07-.94-28.38-3.33-8.36-1.34-15.57.76-20.92,1.93-4.92-1.15-14-1.17-14.09h3.31c.11.22,3.08,9,.65,15.19-2,5.13-3.68,11.37-.77,18.72,1.76,4.41,1.83,18.47,1.15,29.66C122.38,88.37,121.39,90.52,119.76,91.57Z" transform="translate(11.39 12.8)"/><path class="cls-9" d="M122.51,38.74l-2.78-1.13c6.09-14.93,20.55-26.57,21.1-27l1.79,2.4C146,10.69,128.27,24.61,122.51,38.74Z" transform="translate(11.39 12.8)"/><path class="cls-9" d="M137.47,97.59c.68-.17,5-2,8.66-11.09a29.59,29.59,0,0,1,21.93-18.16l3.49,4.22c2.58.64-8.13-.74-11.75,1.53a27.65,27.65,0,0,0-10.89,13.53c-3.13,7.8-6.14,11.85-9.21,12.39-.23,0,.22,0,0,0h0l-2-2" transform="translate(11.39 12.8)"/></g></g></svg>