<svg xmlns="http://www.w3.org/2000/svg" viewBox="0 0 160.01 243.79"><defs><style>.cls-1{fill:#8fa834;stroke:#5f6332;}.cls-1,.cls-2,.cls-4{stroke-width:4.3px;}.cls-2{fill:#53961d;}.cls-2,.cls-3,.cls-4,.cls-5,.cls-6,.cls-7,.cls-8{stroke:#46630a;}.cls-3,.cls-4{fill:#72a118;}.cls-3,.cls-5,.cls-6,.cls-7,.cls-8{stroke-width:3.49px;}.cls-5{fill:#589429;}.cls-6{fill:#75a13b;}.cls-7{fill:#58a11b;}.cls-8{fill:#679634;}.cls-9{fill:#87c46a;}</style></defs><g id="レイヤー_2" data-name="レイヤー 2"><g id="マスカット"><path class="cls-1" d="M79.39,64.63S72.6,35.69,50.32,28.42c0,0,19.38-12.59,23.25-21.8L60.94,2.48S26.1,41.45.42,43.17l17.44,3.5s18.17-8.07,22-11c0,0,17.69,1.12,30.28,33.74"/><circle class="cls-2" cx="41.6" cy="113.52" r="31.97"/><circle class="cls-2" cx="125.89" cy="91.4" r="31.97"/><circle class="cls-3" cx="111.36" cy="216.1" r="25.95"/><circle class="cls-3" cx="131.92" cy="136.96" r="25.95"/><circle class="cls-4" cx="82.29" cy="94.79" r="31.97"/><circle class="cls-5" cx="93.92" cy="140.14" r="25.95"/><circle class="cls-6" cx="56.34" cy="149.32" r="25.95"/><circle class="cls-7" cx="82.29" cy="184.52" r="25.95"/><circle class="cls-8" cx="123.53" cy="181.06" r="25.95"/><circle class="cls-9" cx="141.4" cy="74.85" r="8.08"/><circle class="cls-9" cx="141.4" cy="128.54" r="8.08"/><circle class="cls-9" cx="133.32" cy="174.17" r="8.08"/><circle class="cls-9" cx="93.92" cy="78.63" r="8.08"/></g></g></svg>