<svg xmlns="http://www.w3.org/2000/svg" viewBox="0 0 201.95 128.76"><defs><style>.cls-1{fill:#f1e7e1;}.cls-2{fill:#ded4cb;}.cls-3{fill:#b6a69a;}.cls-4{fill:none;stroke:#b6a69a;stroke-miterlimit:10;stroke-width:5px;}.cls-5{fill:#f7f2ed;}</style></defs><g id="レイヤー_2" data-name="レイヤー 2"><g id="マッシュ"><path class="cls-1" d="M39.53,77.5s8.63,12.76,4.13,27,7.88,16.14,18.39,12S91,109.41,91.33,102.65s-11.64-27-9-31.54,38-19.89,35.67-23.27C103,26.44,68.81-2.09,48.91,2.79S-.27,29.82,2.74,69.61,36.9,101.9,46.66,83.13"/><path class="cls-2" d="M38.77,70.26S28.64,53.49,24.13,61.74,18.5,88.38,27.89,85,42.53,78.8,38.77,70.26Z"/><path class="cls-2" d="M101.84,50.84S91.33,37.33,82,40s-5.89,10.63-.88,17.32S98.84,62.1,101.84,50.84Z"/><path class="cls-3" d="M20.44,101.1a13.67,13.67,0,0,1-8.74-3.37C4.12,91.5-.35,77.68,0,61.68c.28-12,5.58-26.25,14.16-38.06C23.78,10.41,36,2.14,48.55.31,60-1.34,73.47,3.51,88.67,14.73c11.12,8.21,22.75,20.74,23.07,21.1L107,38.11c-.31-.34-33.41-36.37-57.68-32.85C25.41,8.72,5.55,39,5,61.8c-.33,14.28,3.54,26.87,9.86,32.07a8.24,8.24,0,0,0,7.2,2C31.84,93.76,40.43,88.43,43,84.48l3,4.4c-3.34,5.18-11.42,9.41-22.77,11.92A12.66,12.66,0,0,1,20.44,101.1Z"/><path class="cls-3" d="M50.67,121.09c-3.51,0-6.2-1.15-8-3.43-4.43-5.59-1.23-15.71-.49-17.82.54-4.45,1-12.61-1.14-20.33C38.28,82,29.87,89.15,24.88,88.36a4.52,4.52,0,0,1-3.28-2.24c-3.11-5.44-1.46-20.69.18-25.23.65-1.79,2.8-3.34,6.87-2.36,9.29,2.25,21.87,15.35,18.44,42.21l0,.28-.1.27c-.89,2.44-2.88,10.12-.38,13.26,1,1.3,3,1.77,5.78,1.43,13.13-1.64,33.22-8.11,36.11-14.94.37-.87.63-2.1-.7-3.87l4-3A8.53,8.53,0,0,1,93.08,103c-1.9,4.46-7.67,8.55-17.16,12.16a107,107,0,0,1-23,5.78A18.6,18.6,0,0,1,50.67,121.09ZM25.83,83.44h0c1.83,0,9.08-6.79,13.7-11l2.22,7a28.38,28.38,0,0,0-8.9-13.07c-3-2.48-5.56-3.1-6.6-3.1h0C25,67.77,24,79.75,25.83,83.44Z"/><path class="cls-3" d="M96.75,80.65c-.54-.56-13.13-13.76-17.86-22.14-3.45-6.1-5.78-10.75-4.3-15,.88-2.53,3-4.44,6.41-5.85,9.69-4,21.47,10,22.78,11.62l-3.87,3.16c-2.72-3.32-11.69-12.33-17-10.15-2,.83-3.2,1.76-3.58,2.86-.79,2.27,1.32,6.29,3.93,10.92,4.43,7.83,17,21,17.12,21.14Z"/><path class="cls-2" d="M93.81,96.8s-1.09,22.94,16.72,27.74,42.22,1.23,53.1-2.2S179,95.66,179,95.66Z"/><path class="cls-1" d="M188.94,98.83S101.66,126.3,75.75,92.51,125.31,26.63,148.4,31.7,221,72.8,188.94,98.83Z"/><path class="cls-4" d="M140.48,31.81s-30.73-2.72-59.41,25.47S91.8,104.19,91.8,104.19s32.23,7,71.4.94c0,0,36.33-2.76,36.25-24.72S167.26,33.67,140.48,31.81Z"/><path class="cls-4" d="M91.8,104.19s9.49,16.66,14.11,18.5,38.15,7.9,60.58-1.78c0,0,8.34-8.09,11.39-18.72"/><path class="cls-5" d="M114.89,44.08S83.64,54.22,89,73.65,130.09,58.16,114.89,44.08Z"/><path class="cls-5" d="M103.42,72.28s1.25,9.81,6.12,8.16,8.24-8.11,3.75-9.39S103.42,72.28,103.42,72.28Z"/></g></g></svg>