<svg xmlns="http://www.w3.org/2000/svg" viewBox="0 0 244.59 186.54"><defs><style>.cls-1{fill:#bbdb9c;}.cls-2{fill:#d5edbe;}.cls-3{fill:#9fbd82;}.cls-4{fill:#958663;}.cls-5{fill:#c2af81;}.cls-6{fill:none;stroke:#86ad5f;stroke-miterlimit:10;stroke-width:5px;}</style></defs><g id="レイヤー_2" data-name="レイヤー 2"><g id="ume"><path class="cls-1" d="M63.64,17.71s-31.26-.84-47.31,28.72-21.11,52.37,0,70.95S78,147.79,95.73,131.74s34.64-50.68,29.57-67.57S98.27,17.71,63.64,17.71Z"/><path class="cls-2" d="M23.09,64.17s-11,18.65-3.38,33,23.65,15.17,23.65,15.17S55.19,85.29,23.09,64.17Z"/><path class="cls-3" d="M39.14,49s17.47,14.26,36.32-4.23C75.46,44.74,55.19,33.76,39.14,49Z"/><path class="cls-4" d="M45.49,28.69S44.1,41.09,51,47.56c0,0,11,5.86,13.3,0V28.69S53.93,32.3,45.49,28.69Z"/><path class="cls-5" d="M45.49,28.69s7.59-16,18.78,0C64.27,28.69,59.45,37.14,45.49,28.69Z"/><path class="cls-3" d="M119.56,97.15S75,137.09,57.79,137.66C57.79,137.66,98.35,155.74,119.56,97.15Z"/><path class="cls-6" d="M42.12,22.52S13.11,38,4,75.73s24.28,56.86,53.77,61.93,43.93-5,61.77-40.51S100,3.12,42.12,22.52Z"/><path class="cls-1" d="M204.31,6S175.6-6.36,149.73,15.14s-39,40.8-26.32,65.89,46,51.12,68.41,42.79,51-34.22,52.52-51.79S236.47,18.86,204.31,6Z"/><path class="cls-3" d="M170,26s10.93,19.72,35.3,9.55C205.27,35.51,190.52,17.79,170,26Z"/><path class="cls-4" d="M183.39,9.49s-5.89,11-1.92,19.55c0,0,8,9.5,12.36,4.94l7-17.53S189.89,16,183.39,9.49Z"/><path class="cls-5" d="M183.39,9.49s13-12.09,17.44,7C200.83,16.45,193.22,22.51,183.39,9.49Z"/><path class="cls-3" d="M226.79,100.53s-56.17,20.58-72.4,14.71C154.39,115.24,185.35,147.08,226.79,100.53Z"/><path class="cls-6" d="M182.55,2.51s-32.7,3.63-55.12,35.28,1.45,61.8,27,77.45,42.66,11.65,72.4-14.71S243.5,6,182.55,2.51Z"/><path class="cls-1" d="M136.77,62.87S105.51,62,89.46,91.58s-21.11,52.37,0,71,61.66,30.41,79.4,14.36,34.64-50.68,29.57-67.58S171.4,62.87,136.77,62.87Z"/><path class="cls-2" d="M96.22,109.32s-11,18.65-3.38,33,23.65,15.17,23.65,15.17S128.32,130.44,96.22,109.32Z"/><path class="cls-3" d="M112.27,94.12s17.47,14.26,36.32-4.23C148.59,89.89,128.32,78.91,112.27,94.12Z"/><path class="cls-4" d="M118.62,73.85s-1.39,12.39,5.48,18.87c0,0,11,5.85,13.3,0V73.85S127.06,77.46,118.62,73.85Z"/><path class="cls-5" d="M118.62,73.85s7.59-16,18.78,0C137.4,73.85,132.58,82.29,118.62,73.85Z"/><path class="cls-3" d="M192.69,142.3s-44.53,39.95-61.77,40.51C130.92,182.81,171.47,200.9,192.69,142.3Z"/><path class="cls-6" d="M115.25,67.68s-29,15.49-38.1,53.21,24.28,56.85,53.77,61.92,43.93-5,61.77-40.51S173.14,48.28,115.25,67.68Z"/></g></g></svg>