<svg xmlns="http://www.w3.org/2000/svg" viewBox="0 0 191.88 190.51"><defs><style>.cls-1{fill:#674527;}.cls-2{fill:#e8d7ca;}.cls-3{fill:#b8aca3;}.cls-4{fill:#52361a;}.cls-5{fill:#d0c1b6;}.cls-6{fill:#4f3318;}.cls-7{fill:#af9384;}</style></defs><g id="レイヤー_2" data-name="レイヤー 2"><g id="松茸"><path class="cls-1" d="M52.66,71.69S17.37,66.06,15.87,49.54s4.13-27,14.27-35.66S62.42,1.66,70.31,3.08s29.28,8.17,33.41,30.7S101.2,67.66,92.46,71.69C81.21,76.88,62.43,73.92,52.66,71.69Z"/><path class="cls-2" d="M35.45,67s6.7,24.17-3.81,38.06S.1,144.9,2.73,152.41s12.77,32.28,36.79,13.14S78.94,111.11,79.32,101s2.62-29.19,0-33.93S37,55.63,35.45,67Z"/><path class="cls-2" d="M36.57,67s-4.93-9.61-8.69-10.74,17.65-9,29.29-8.26S85.32,48.42,94,63.43c0,0-13.52,3.38-15.77,10.51Z"/><path class="cls-3" d="M26.76,56.3A26.83,26.83,0,0,1,35.45,67s38.33-3.23,41.61,6.9,3.06,13.88,3.06,13.88,1.57-10.77,0-17.13c0,0,10.91-6,14.66-6.22,0,0-5.35-17.55-37.07-17.37S26.76,56.3,26.76,56.3Z"/><path class="cls-4" d="M94,23.64s3,4.88,0,8.26l-6-6.38V31.9l-5.26-6.38s2.26,7.92,0,13.16h3.76s2.63,7.76.37,9.31L94,42.41l4.88,11.26S105.59,32.27,94,23.64Z"/><polygon class="cls-4" points="75.19 30.77 73.68 38.66 70.31 34.71 67.3 38.67 63.92 36.4 60.7 38.67 60.7 30.77 63.92 33.02 67.94 29.27 71.81 31.52 75.19 30.77"/><path class="cls-5" d="M67.94,85s-.55,21.65-7.16,34.79C60.78,119.75,72,100.47,67.94,85Z"/><path class="cls-5" d="M41.54,76.2s3.24,23.27-7.65,35.29C33.89,111.49,53.78,99.92,41.54,76.2Z"/><path class="cls-5" d="M57.17,114.11S34.64,139.27,33.89,146s3,13.14,3,13.14-10.25-6.38-9.44-9.76c0,0-6.7,3.38-8.2,6.76,0,0,3.38-11.26,10.51-18S53.79,119,57.17,114.11Z"/><path class="cls-5" d="M33.89,119.75S20.75,133.64,19.25,143C19.25,143,18.12,128,33.89,119.75Z"/><path class="cls-5" d="M52.66,71.69s12.14,22.15-4.88,42.42C47.78,114.11,56.79,81.45,52.66,71.69Z"/><path class="cls-5" d="M68.68,112.11S56.2,142,43.52,148.15C43.52,148.15,60.41,145.71,68.68,112.11Z"/><path class="cls-6" d="M83,77.21a19.31,19.31,0,0,1-2.69-.16l.74-5c.74.11,18.33,2.38,21.42-18.79,3.06-20.92-5.09-36.83-23-44.8C64.48,1.78,46.19,4.86,30.63,16.76,17.06,27.14,16.13,46.59,18,53,19.17,56.79,28.54,64.47,35.45,67L34,72.28C30.85,71.11,15.49,62,13.23,54.38c-2.5-8.42-.85-30,14.36-41.59,17-13,37.23-16.34,54-8.85C101.38,12.78,110.81,31,107.45,54c-1.23,8.38-4.56,14.64-9.92,18.62A24.54,24.54,0,0,1,83,77.21Z"/><path class="cls-6" d="M81.31,72.9,79,68.48l11.65-6.13c-7.34-12.87-27-14.1-42.63-12.76-13.84,1.19-17.54,4-18.48,5.17a3.52,3.52,0,0,0-.27.4c1.3,1.14,5.42,10.48,6.2,11.88l-2-.63c-.75-1.3-6.84-6.9-8.37-8.21l-.45-.39-.23-.54A5.4,5.4,0,0,1,25,52.46c2.53-4.2,9.9-6.77,22.53-7.85,25.89-2.22,42.73,3.94,48.68,17.84l.92,2.12Z"/><path class="cls-7" d="M21.72,175.57c-12.63,0-18-13.88-20.55-20.31-.27-.71-.52-1.35-.75-1.89-3.56-8.53,16.18-35.69,27.32-47.25C39.17,94.26,34.07,72.5,34,72.28L35.45,67c.24,1,9.24,28.7-4.11,42.55A160.6,160.6,0,0,0,12.57,134c-7,11.23-8,16.33-7.53,17.46.24.58.5,1.25.79,2,3.86,9.9,9,20.13,20.84,16.26,15.23-5,48.93-46.21,50.22-70.37L79,68.48l2.1,3.62.8,27.49c-.89,16.76-14.8,37-20.74,45C49.63,160,36.71,171.69,28.22,174.46A20.87,20.87,0,0,1,21.72,175.57Z"/><path class="cls-1" d="M117.53,90.7S82.12,70,87.4,51.67s15.68-27.2,30.12-32.22,39.64.38,47.48,5.18,27.93,21,23,46.78-16.81,35.2-27.85,35.87C145.91,108.15,127.05,97.16,117.53,90.7Z"/><path class="cls-2" d="M101.05,78.55s-2.9,28.66-19.94,39.14-50.32,29.44-50.64,38.57.2,39.86,33.89,29.39,64.86-41.82,69.49-52.51S148.83,103,148,96.83,107.47,67,101.05,78.55Z"/><path class="cls-2" d="M102.25,79S101,66.68,97.43,63.91s22.64-2.29,34.78,3.36,30,12.14,32.95,31.8c0,0-15.87-2-21.25,4.68Z"/><path class="cls-3" d="M96.23,63.44a30.73,30.73,0,0,1,4.82,15.11s42.37,12.52,41.65,24.73-2.5,16.12-2.5,16.12,6.16-10.87,7.15-18.32c0,0,14.19-1.91,18.28-.55,0,0,1.59-21-32.43-34S96.23,63.44,96.23,63.44Z"/><path class="cls-4" d="M181.74,56.49s1.18,6.48-3.44,8.84L174.53,56l-2.66,6.83-3-9s-.89,9.41-5.48,14.08l4,1.56S167,78.86,164,79.58l10-3,.53,14.08S190.6,70.58,181.74,56.49Z"/><polygon class="cls-4" points="158.69 56.3 153.79 64.11 151.82 58.49 146.96 61.48 144.29 57.64 139.89 58.72 143.19 50.27 145.7 54.02 151.56 51.68 154.76 55.7 158.69 56.3"/><path class="cls-5" d="M128.36,111.26s-9.61,22.94-22.17,34.24C106.19,145.5,126.19,129.54,128.36,111.26Z"/><path class="cls-5" d="M103.75,90.89s-6.23,26.25-22.89,34.57C80.86,125.46,107,121.37,103.75,90.89Z"/><path class="cls-5" d="M104.67,138s-34.58,17.53-38.2,24.45-2.26,15.3-2.26,15.3-8.32-11.1-6-14.37c0,0-8.57.82-11.59,3.81,0,0,8.31-10.64,18.76-14.9S99,141.78,104.67,138Z"/><path class="cls-5" d="M77.42,134.3s-19.85,9.38-25.36,18.8C52.06,153.1,57.11,136.56,77.42,134.3Z"/><path class="cls-5" d="M117.53,90.7s3.76,28.76-22.9,43.36C94.63,134.06,117.88,102.87,117.53,90.7Z"/><path class="cls-5" d="M117.83,140.63S92,167.39,75.89,168.71C75.89,168.71,95,173.13,117.83,140.63Z"/><path class="cls-6" d="M147.73,109.26a23,23,0,0,1-2.82-1.29l2.86-5c.74.42,18.62,10.18,30.75-11.19,12-21.11,9.9-41.53-5.89-57.5-13.32-13.49-34.18-17.81-55.78-11.56C98,28.19,88.9,48.62,88.28,56.22c-.38,4.58,6.45,16.7,12.77,22.33l-3.71,5C94.44,81,81.81,64.79,82.56,55.75c.82-10.06,11.57-32.42,32.69-38.52,23.66-6.84,46.64-2,61.47,13,17.49,17.71,20,41.17,6.79,64.38-4.8,8.45-11,13.76-18.37,15.78A28.13,28.13,0,0,1,147.73,109.26Z"/><path class="cls-6" d="M147.68,103.93l-.65-5.7,15-1.7c-2.48-16.83-23-26.35-40.3-31.42-15.31-4.5-20.43-3-21.92-2.17a2,2,0,0,0-.45.32c.91,1.76,1.42,13.47,1.67,15.29l-1.82-1.48C99,75.36,94.78,66.83,93.7,64.79l-.32-.6,0-.68A6.15,6.15,0,0,1,96,58.62c4.47-3.44,13.43-3.12,27.39,1C152,68,167.45,81.63,168,99l.09,2.65Z"/><path class="cls-7" d="M41.13,189c-13.51-5.26-13.51-22.38-13.51-30.3,0-.87,0-1.66,0-2.33-.26-10.62,32.18-31.45,48.92-39.18,17.17-7.92,20.78-33.33,20.82-33.59l3.71-5c-.16,1.17-2.07,34.56-22.12,43.82a185.11,185.11,0,0,0-30.26,18.27c-12.2,9.09-15.36,14.15-15.33,15.55,0,.71,0,1.54,0,2.47,0,12.2,1.21,25.28,15.52,26.09,18.37,1,71.61-29.07,83.06-54.39L147,98.23l.74,4.76-10.6,29.74c-7.94,17.55-31.28,33.46-40.94,39.48-18.72,11.67-37.44,18.84-47.67,18.27A24.38,24.38,0,0,1,41.13,189Z"/></g></g></svg>