<svg xmlns="http://www.w3.org/2000/svg" viewBox="0 0 223.25 189.91"><defs><style>.cls-1{fill:#d64f16;}.cls-2{fill:#eba92a;}.cls-3{fill:#d67147;}.cls-4{fill:#823415;}.cls-5{fill:#a33d11;}.cls-6{fill:#b66f1f;}.cls-7{fill:#6b2b11;}.cls-8{fill:#f5a400;}.cls-9{fill:#d67214;}.cls-10{fill:none;stroke:#a84d16;stroke-miterlimit:10;stroke-width:5px;}</style></defs><g id="レイヤー_2" data-name="レイヤー 2"><g id="マンゴー"><path class="cls-1" d="M80.56,23.67S41.51,9.78,16.74,40.94,5.47,175.34,49.4,186.22s67.29-43.72,71.32-57.44C132,90.49,146.63,22.92,80.56,23.67Z"/><path class="cls-2" d="M8.65,127.7s12.22,10.47,17.1,13.1,9-6,11.26-8.26,10.13-2.77,15.39,8.75,16.14-11,19.9-11.38,9,8.26,12,16.52,15.77-15.77,20.65-15,4.62,15.69,7.5,16.75c1.41.52-20.75,38.66-48.42,39.49C36.54,188.47,19.34,175.43,8.65,127.7Z"/><path class="cls-3" d="M36.35,36.55S16.51,42.89,17.49,73.48c0,0,15.52-14,22.24-25.35S36.35,36.55,36.35,36.55Z"/><path class="cls-4" d="M76.8,30.8S72.67,8.28,88.06,1.52L96.7,3S85.81,4.9,76.8,30.8Z"/><path class="cls-5" d="M4.43,127.24C-5.26,81,1.2,52.37,21.4,32.32,29.89,23.89,42.2,19.1,57,18.46A80.12,80.12,0,0,1,76.87,20l-1.14,4.87c-.33-.08-32.38-7.34-50.81,11C6.06,54.6-.32,83.79,9,128.22Z"/><path class="cls-5" d="M114,151.59l-1.55-3.43c13.86-36.41,14-63.1,13.58-78.33-.42-16.45-4.15-24.43-4.19-24.51l0-.11c-8.89-21.07-40.74-19.07-41.07-19l-.35-5a69,69,0,0,1,18.88,1.71C112.7,26,122.08,33.06,126.39,43.21,127.39,45.33,141.06,80.58,114,151.59Z"/><path class="cls-6" d="M60.23,189.91A61.17,61.17,0,0,1,42.55,187c-25.68-7.73-37.7-57.83-38.12-59.77l4.56,1c.1.44,12.14,47.12,35,54,18.26,5.49,43.63,4.11,68.46-34.07l1.55,3.43C94.92,181,76,189.91,60.23,189.91Z"/><path class="cls-7" d="M76.09,36.43,75.32,31C71.31,2.83,87.17.14,87.84,0l.24,0,12.17,2.12-4.68,2.4C89.19,9.12,81,24.64,78.19,31.38ZM88.08,3c-1.62.37-11.33,3.34-10.34,22.06,3-6.27,8.59-16.59,14.58-21.32Z"/><path class="cls-8" d="M74.17,184.53s126.89,24.22,146.41-96.29c0,0-37.16-31.46-69.82-18.83v6.44l-9.58-4.06s-10.13,3.06-17.45,10.32v5.57h-7.89S97.75,97,92.11,110l1.77,6.45L87.66,119s-7.86,13.75-8.42,18.25l5.07,5.07-5.07.56S71.17,152.81,74.17,184.53Z"/><path class="cls-9" d="M150.76,69.41s31.85,20.17,41.29,45.11c0,0-28.83-35.67-41.29-38.67Z"/><path class="cls-9" d="M123.73,82.11s14.26-1.75,47.68,39.17c0,0-34.92-31.16-47.68-33.6Z"/><path class="cls-9" d="M109.14,91.76s19.69,9.25,49,43.6c0,0-45.59-36.51-55.77-38.41A81.9,81.9,0,0,1,109.14,91.76Z"/><path class="cls-9" d="M92.11,110s26.74,13.2,46.63,33.1c0,0-36-25.53-44.86-26.65Z"/><path class="cls-9" d="M79.45,137.44S104,137.65,122,152c0,0-27.88-9-37.73-9.71Z"/><path class="cls-9" d="M74.18,159.44s22-.25,35.47,5.67c0,0-34.22-1.69-36,0Z"/><path class="cls-9" d="M180.54,68s16,20.69,17.71,29.51c0,0-7.48-24.49-10.24-27.44A36.9,36.9,0,0,0,180.54,68Z"/><path class="cls-9" d="M194.31,77S92.11,72.1,86.94,172C86.94,172,73.67,73.22,194.31,77Z"/><path class="cls-9" d="M202.94,86s-91-.38-102.19,86C100.75,172,117.72,93.87,202.94,86Z"/><path class="cls-9" d="M220.58,88.24s-68.7,88.22-146.41,96.29C74.17,184.53,200.69,209.12,220.58,88.24Z"/><path class="cls-10" d="M220.58,88.24s-33.78-30.9-69.82-18.83v6.44l-9.58-4.06S128,76.54,123.73,82.11v5.57h-7.89S98.78,96.9,92.11,110l1.77,6.45L87.66,119l-8.21,18.46,4.86,4.86-6.19,2.43-4,14.77-.5,5.61s-.34,13.79.5,19.42C74.17,184.53,202.94,207.62,220.58,88.24Z"/></g></g></svg>