<svg xmlns="http://www.w3.org/2000/svg" viewBox="0 0 181.1 297.92"><defs><style>.cls-1{fill:#3da63d;}.cls-2{fill:#79cc79;}.cls-3{fill:#2f802f;}.cls-4{fill:#5b995b;}</style></defs><g id="レイヤー_2" data-name="レイヤー 2"><g id="mizuna"><path class="cls-1" d="M84.25,191.27s-18.36-41.1-37.19-51.19c0,0,18.22,5.67,23.57,11.74,0,0-13.62-38.13-22.22-43.5,0,0,14.28,3.94,16.1,8.19l-12-28.05L69.24,109.2,69.8,96S77.14,112,81,114.71s12.23,14.15,12.23,14.15l-8.5-26.43,9.29,7.83S82.66,76.55,83,67.72c0,0,4.48,8,8.34,11.55,0,0-6.29-21.92-5.17-29.41L95.7,71.8l3.9-17.07S105,69.3,113,71.24l8.73-27,6.46,18s.62-33.35,5-42.35l3.36,15.32s3.29-20.87,10.75-26.4c0,0,0,19.5-1.14,26.81l14.6-3.68L140.9,64.42l13-3.62-6.95,24.58,20,4.58-19,18.83,26.57-2.37-18.1,10.66,12,1.34s-20.25,4.7-31,12.31c0,0,11,4.89,16.69,3.62,0,0-20.38,7.68-24.35,6.65,0,0,21.34,7.4,26.18,6.85,0,0-12.85.37-15.43,4.44,0,0,13.51,3.07,20,2.51,0,0-17,4.63-18.8,8.14L154,172s-22.24-5.14-30.43-1.29c0,0,8.67,3.72,14.86,9,0,0-42.52,1.14-51,13.29Z"/><path class="cls-2" d="M129.3,71.08S110.89,124.69,95.11,165c-7.78,19.86-14.92,36.48-18.89,41.81C64.2,222.92,5.49,284.4,5.49,284.4S10,290.59,14,290.76l65.93-77.17S129.77,95.14,129.3,71.08Z"/><path class="cls-2" d="M93.83,168.2c1.48-3.71-24-47.67-24-47.67s23.17,36,25.46,44"/><path class="cls-2" d="M97.15,170.17c-.57-2.53,37.49-12.9,37.49-12.9s-33.59,7.41-38.06,10.37"/><path class="cls-2" d="M106,145.28c-.45-2,29.46-10.13,29.46-10.13s-26.39,5.82-29.91,8.14"/><path class="cls-2" d="M117,115.22c-.37-2.47,33.67-14.78,33.67-14.78s-29.94,9.14-34,12.31"/><path class="cls-2" d="M104,147.88c1.6-2.65-13-39.5-13-39.5s13.78,30.45,14.6,36.85"/><path class="cls-2" d="M113,116.93c1.81-2.6-10-41.24-10-41.24s11.51,32,11.86,38.64"/><path class="cls-3" d="M83.79,192.36c-.22-.45-24.42-47.46-37.83-52.73l.78.25c2.55.81,13.23,2.57,19.77,6.32-7-17.4-16.66-37-19.3-38.18h0c.81.22,8.42.43,12.77,2.44L45.77,77.35l21.89,27.09.64-14.9,3,5.57c4.49,8.18,9.78,17.25,10.85,18.26.91.77,3.82,4.12,6.6,7.4L81.66,98.55l9,6.87C87.36,95,80.85,73.47,81.27,67.6l.35-5,6.07,8.66L82.36,36.53l12.81,29.6L99,49.5,101.19,54c2.91,5.85,7,12.14,9.57,14l11.17-30.4,4.92,15c.68-11.5,2.13-29.41,4.82-33.66L134,15.28l2.63,12c2-7.19,5.37-17.17,9.71-20L149,5.59l.1,3.13c.15,4.62.47,17.82-.49,24.43l15.95-4L144.76,61.51l11.7-3.26-7.3,25.82,20.13,4.62-17,18,28.8-2.12-19.27,11.34,12.66,1.42L167.93,120c-7.15,2.86-19.76,8-26.16,10.71,3.4,1.27,7.88,2.59,10.57,2.12l12.27-2.12-11.19,5.46a91.39,91.39,0,0,1-14.35,5.48l25.26,6.94-8.87,1.1a71.92,71.92,0,0,0-9,1.67l20.85,2.8-7.25,2.42c-6,2-12.88,4.68-15.73,6.27l16.78,12.27-7.45-1.28a215.52,215.52,0,0,0-24.76-3L143.31,181l-4.69.48c-11.28,1.14-44.15,6.77-50,11.05l1.33-3.3c6.88-6,32.59-9.42,43.72-10.76L120.33,169l3-1.21c3.38-1.35,15.45.09,23.68,1.3l-7.35-5.37.12-1c.11-.91.32-2.67,12.19-7.1l-14.26-1.91,1.09-2.22c.9-1.82,4.42-3.12,8.28-4l-20.19-7,6-1.25a48.86,48.86,0,0,0,12.71-3.6,55.43,55.43,0,0,1-9.1-3.3l-3.22-1.51,3.15-1.66c2.47-1.3,15.49-6.6,23.6-9.88l-9.23-1,15.34-9-22.75,1.68,19-20.14-17.73-4.07,6.6-23.33-14.28,4L157,34.69,144,38l.62-3.31c.86-1.52,1.14-11.43,1-21.21-3.12,5.36-6,15.54-7.35,22.11l-1.68,8.19-3.65-16.66c-1.56,9-2.62,24.78-3,35.21l-.45,5.58-7.74-19.47L113,72.22l-1.35-.12c-3.89-.35-8.49-7.26-11.36-12.33l-4,17.7L90,63.19l3.45,22.55L85.73,74.67c2.19,10.21,7.57,27.57,10,35l1.77,5.42-9-6.89,9.28,28.85L91.9,130c-4-4.85-10.82-12.92-12-13.92s-5.37-8-8.59-13.75L70.81,114,59.17,99.57l9.67,22.54-6.27-6c-1.51-1.44-4.88-2.9-8-4,6,9.49,13,31,16.79,40.83h0c-1-1.9-8.52-4.9-14.38-7.33,13.37,14.28,27.44,42.1,28.2,43.62Z"/><path class="cls-4" d="M13.64,292.54c-3.7-.16-8.19-5.36-9.53-7l-1-1.19,1-1.13c.63-.68,63.07-68.3,66.8-72.71s11.34-20.6,11.41-20.72l1.39,2.59c-.28.54-6.21,15.85-10.09,20.43C70.14,217,16.45,275.15,7.86,284.45c1.86,2.07,4.1,4,5.39,4.45l65.94-75.59,9.39-20.75,2.58-1.6-9.7,23.57-.19.22L14.89,292.46l-.71.07A4.87,4.87,0,0,1,13.64,292.54Z"/><path class="cls-1" d="M57.54,184.36S32.73,149.75,13.37,144c0,0,18,1.81,24.07,6.42,0,0-19.85-32.77-28.83-36.12,0,0,14,1,16.47,4.55L8.6,95.09l19.47,16-2-12.38s9.85,13.51,14,15.25,14,10.79,14,10.79L41.19,101.92l10.09,5.49S34.33,78.33,33,70.08c0,0,5.67,6.61,9.92,9.12,0,0-10-19.13-10.37-26.28l13,18.54L45.9,54.9s7.79,12.47,15.52,12.76L64.4,41l9.39,15.43s-5.75-31-3.38-40.2l6,13.56s-.9-20,5-26.51c0,0,3.66,18.08,4,25.07l12.83-6.18L86,56.06l11.35-5.82L95.59,74.33,115,74.8,100.88,95.86l24.19-7.23-14.76,13.31,11.35-1s-17.88,8.19-26.41,17.28c0,0,11.15,2.45,16.16.19,0,0-17.44,11-21.31,10.79,0,0,21.19,2.81,25.57,1.39,0,0-11.84,2.77-13.46,7,0,0,13.1.29,19-1.45,0,0-14.92,7.52-15.88,11.1l13.26,6.08S97,152.77,90.1,157.89a64.66,64.66,0,0,1,15.48,5.52s-39.19,9.1-44.78,22Z"/><path class="cls-2" d="M76.53,64.42s-6.92,53.18-13.91,93.49C59.17,177.8,55.7,194.55,53,200.25,45,217.5,2.19,285.6,2.19,285.6s5.35,4.89,9.09,4.29l46.48-84S81.52,86.64,76.53,64.42Z"/><path class="cls-2" d="M62.05,161.16c.66-3.71-31.26-39.64-31.26-39.64s28.29,29,31.92,35.93"/><path class="cls-2" d="M65.5,162.36c-1-2.24,32.3-19.05,32.3-19.05s-29.73,13.23-33.31,16.81"/><path class="cls-2" d="M69,137.61c-.8-1.75,25.38-15,25.38-15S71,133,68.18,135.86"/><path class="cls-2" d="M73.52,107.66c-.81-2.22,28.41-20.08,28.41-20.08s-26,14.15-29.22,17.86"/><path class="cls-2" d="M67.63,140.4c1-2.76-19.53-34.15-19.53-34.15s18.54,25.61,20.52,31.39"/><path class="cls-2" d="M70.06,110c1.18-2.75-17.13-36.32-17.13-36.32s16.74,27.51,18.31,33.57"/><path class="cls-3" d="M57.32,185.46c-.29-.38-31.63-39.37-45.06-41.7l.77.07c2.53.27,12.76-.12,19.52,2.11-9.77-14.79-22.44-31.1-25.12-31.73h0s0,0,0,0c.8.05,7.89-1.19,12.3-.16L.29,86.06l25.42,21L23.48,93.09l3.89,4.58c5.71,6.74,12.32,14.14,13.51,14.88,1,.54,4.32,3.09,7.52,5.6L37.57,98.91l9.63,4.67c-5-9-15.13-27.76-15.86-33.28l-.61-4.69L38,72.49,26.47,41.3,44,66.3l.37-16.14,2.89,3.71c3.8,4.87,8.83,9.92,11.53,11.21l4.59-30.29,7.41,12.94c-1.56-10.79-3.6-27.66-1.91-32.11l1.45-3.8L75,22.44c.46-7,1.72-16.94,5.21-20.36L82.33,0,83,2.89c1,4.24,3.8,16.43,4.17,22.73l14-6.75L89,52.62l10.22-5.24L97.39,72.7l19.54.47-12.34,19.9,26.29-7.42L115.17,99.81l12-1.08-5.58,3.67c-6.09,4-16.81,11.13-22.22,14.89,3.39.53,7.8.9,10.2,0l11-4.29-9.34,7.18a86.27,86.27,0,0,1-12.26,7.79l24.73,1.65-8,2.7a68.32,68.32,0,0,0-8,3.25l19.86-1.36-6.26,3.62a113.24,113.24,0,0,0-13.39,8.79l17.87,8.19-7.14.23a206.11,206.11,0,0,0-23.51,1.93l15.24,6.75L106.08,165c-10.23,3.2-39.64,14.64-44.29,19.73l.62-3.31c5.23-6.9,28.42-14.91,38.48-18.26l-14.12-6.25,2.57-1.69c2.87-1.9,14.33-2.85,22.19-3.28l-7.83-3.59-.08-1c-.07-.87-.21-2.54,9.95-8.89l-13.58.93.59-2.26c.49-1.86,3.51-3.73,6.91-5.29l-20-2.67,5.36-2.3a45.48,45.48,0,0,0,11.1-5.75,51.81,51.81,0,0,1-9-1.33L91.59,119l2.6-2.13c2-1.68,13.11-9.06,20-13.63l-8.74.79L118,92.79,97.18,98.65,111,76.38,93.78,76l1.7-22.88L83,59.49l12.28-34L83.89,30.93l0-3.18c.5-1.58-1.11-10.82-3.11-19.85-1.88,5.56-2.63,15.54-2.63,21.88v7.91L71.56,23c.26,8.6,2.26,23.46,3.88,33.19l.64,5.27L65.22,44.82,61.61,68.58l-1.27.14c-3.67.41-9.24-5.12-12.87-9.28l-.4,17.18L38.63,64.55,46.11,84.8,36.82,76c4,9,12.24,24.11,15.92,30.57l2.68,4.7-9.67-4.68,14.07,25L53,126.11c-4.64-3.74-12.48-9.92-13.77-10.63s-6.5-6.43-10.56-11.11l1.74,10.89L16.92,104.12l13.24,19-6.95-4.35c-1.67-1-5.07-1.77-8.21-2.22,7.37,7.66,18,26.29,23.31,34.66h0c-1.26-1.58-8.83-2.93-14.72-4.07C38.69,157.89,57,181,58,182.28Z"/><path class="cls-4" d="M11.28,291.6c-3.46.56-8.61-3.42-10.16-4.7L0,286l.75-1.24c.45-.76,45.52-75.26,48.14-80.05s6.61-21.24,6.65-21.37l1.78,2.14c-.16.55-2.76,15.86-5.49,20.84-2.5,4.56-41.25,68.66-47.44,78.9,2.12,1.56,4.56,2.94,5.84,3.11L57,205.75l4.77-21,2.09-2-4.52,23.68-.13.23L12.42,291.29l-.65.2A2.68,2.68,0,0,1,11.28,291.6Z"/><path class="cls-1" d="M76.88,199.37s-19-38.11-37.21-46.89c0,0,17.44,4.63,22.75,10.15,0,0-14.41-35.5-22.75-40.23,0,0,13.65,3.16,15.55,7.1l-12.51-26L59.39,122.4V109.86S67,124.77,70.76,127.13,82.9,140,82.9,140l-9.1-24.64,9.1,7S70.76,91,70.76,82.64c0,0,4.55,7.42,8.34,10.58,0,0-6.82-20.47-6.06-27.59L82.9,86l3-16.29s5.72,13.54,13.3,15.06l7.17-25.86,6.83,16.72s-.76-31.55,3-40.23L120,49.73s2.27-19.86,9.1-25.38c0,0,.76,18.43,0,25.38l13.65-4.07L125.33,77.19l12.13-3.94-5.58,23.51,19.06,3.53L133.7,118.85l25-3.31L142,126.34l11.38.79s-19,5.25-28.82,12.88c0,0,10.62,4.18,15.93,2.75,0,0-19,8.08-22.75,7.27,0,0,20.47,6.13,25,5.42,0,0-12.13.87-14.41,4.81,0,0,12.89,2.37,19,1.58,0,0-15.92,5.06-17.44,8.45L142,178.38s-21.23-4-28.81,0a64.76,64.76,0,0,1,14.4,7.91s-40.14,2.78-47.69,14.61Z"/><path class="cls-2" d="M114.63,84s-15.25,51.41-28.55,90.11c-6.55,19.08-12.63,35.08-16.17,40.28C59.2,230.09,6.18,290.56,6.18,290.56s4.52,5.67,8.3,5.67l59.21-75.59S116,106.67,114.63,84Z"/><path class="cls-2" d="M85,177.17c1.24-3.56-24.59-44.09-24.59-44.09s23.35,33.07,25.83,40.53"/><path class="cls-2" d="M88.23,178.9c-.65-2.37,34.91-13.69,34.91-13.69s-31.45,8.35-35.56,11.32"/><path class="cls-2" d="M95.58,155c-.51-1.86,27.44-10.76,27.44-10.76s-24.72,6.56-27.95,8.9"/><path class="cls-2" d="M104.82,126.17c-.45-2.32,31.23-15.33,31.23-15.33s-27.94,9.85-31.68,13"/><path class="cls-2" d="M93.81,157.56c1.41-2.57-13.87-36.81-13.87-36.81S94.19,149,95.22,155"/><path class="cls-2" d="M101,128c1.6-2.53-11.16-38.58-11.16-38.58s12.17,29.82,12.76,36.05"/><path class="cls-3" d="M76.49,200.41c-.23-.41-25-43.88-37.88-48.31l.75.2c2.45.66,12.61,1.89,18.94,5.17C51,141.32,41.07,123.2,38.52,122.17h0c.78.17,8,.07,12.17,1.79L35.93,93.24,57.71,118V103.85L60.82,109c4.58,7.55,9.94,15.91,11,16.83.89.69,3.78,3.73,6.54,6.72L70.7,111.83,79.47,118C76,108.24,68.93,88.16,69.09,82.59l.13-4.72,6.08,7.94L68.88,53.19,82.17,80.65,85.1,64.77l2.27,4.12c3,5.41,7.14,11.19,9.61,12.89l9.33-29.17,5.26,13.94c.18-10.89.83-27.88,3.2-32l2-3.53,3,11.23c1.56-6.87,4.38-16.45,8.37-19.27l2.42-1.72.22,3c.33,4.35,1.16,16.83.52,23.11l14.91-4.45-17.37,31.4,10.93-3.55-5.86,24.7L153.13,99,137.8,116.68l27.13-3.16L147.18,125l12,.83-6.09,2.74c-6.65,3-18.36,8.32-24.3,11.18,3.26,1.06,7.55,2.12,10.08,1.58l11.51-2.5L140,144.46a87.59,87.59,0,0,1-13.34,5.75l24.16,5.55-8.35,1.39a67.56,67.56,0,0,0-8.39,1.95l19.82,1.8-6.76,2.58A114.58,114.58,0,0,0,132.57,170L148.92,181l-7.09-.91a206.5,206.5,0,0,0-23.52-1.81l14,9.07-4.41.64c-10.62,1.53-41.46,8.18-46.86,12.46l1.13-3.17c6.26-6,30.42-10.22,40.89-11.93l-13-8.41,2.8-1.26c3.14-1.42,14.6-.54,22.44.28l-7.17-4.79.08-1c.06-.87.19-2.54,11.23-7.21l-13.55-1.23.94-2.14c.77-1.75,4-3.12,7.66-4.13l-19.36-5.81,5.65-1.42a46.16,46.16,0,0,0,11.87-3.91,52.84,52.84,0,0,1-8.73-2.75l-3.1-1.31,2.91-1.69c2.28-1.33,14.38-6.86,21.91-10.28l-8.76-.61L151,118.52,129.6,121l17.16-19.8-16.92-3.13,5.3-22.32L121.8,80.1l17.51-31.66-12.1,3.61.45-3.15c.75-1.48.63-10.85.08-20.09C125,34,122.68,43.74,121.68,50l-1.26,7.81-4.12-15.6c-1.11,8.53-1.48,23.52-1.43,33.4l-.2,5.3-8.1-18.1L99.25,85.69,98,85.63c-3.68-.18-8.31-6.52-11.22-11.2l-3.12,16.9L77.2,78.07l4.17,21.18L73.6,89.1c2.47,9.56,8.26,25.75,10.87,32.71l1.89,5.06-8.8-6.15,9.93,26.89-5.84-6.47c-4-4.43-10.75-11.78-11.91-12.68s-5.4-7.38-8.67-12.65v11L49.49,113.7l10,20.91-6.17-5.4c-1.48-1.29-4.73-2.54-7.75-3.49,6.06,8.73,13.55,28.8,17.52,37.91h0c-1-1.75-8.25-4.29-13.89-6.34,13.21,13,27.62,38.68,28.41,40.09Z"/><path class="cls-4" d="M14.21,297.92c-3.5,0-8-4.74-9.29-6.25l-1-1.09.94-1.11c.57-.67,56.87-67.09,60.22-71.4s9.89-19.93,9.95-20l1.42,2.39c-.24.52-5.24,15.23-8.72,19.72-3.19,4.1-51.61,61.25-59.35,70.38,1.84,1.88,4,3.62,5.28,4L73,220.4l8-20,2.37-1.61-8.22,22.66-.16.21L15.38,297.79l-.66.1A4.36,4.36,0,0,1,14.21,297.92Z"/></g></g></svg>