<svg xmlns="http://www.w3.org/2000/svg" viewBox="0 0 168.17 136.04"><defs><style>.cls-1{fill:#3d6939;}.cls-2{fill:#f49d35;}.cls-3{fill:#d96116;}.cls-4{fill:#8da763;}.cls-5{fill:#2a4e27;}.cls-6{fill:#799056;}</style></defs><g id="レイヤー_2" data-name="レイヤー 2"><g id="レイヤー_7" data-name="レイヤー 7"><path class="cls-1" d="M48,121.57S16.45,126.92,5.19,95.72,15.7,35.64,22.83,34.31s16.14-3.17,21,0c0,0,5.64-11.17,25.53-13.76s37.92.19,47.3,10.44c0,0,26.27.91,36.79,7.45s16.52,54.22,4.51,76-39.42,7.48-39.42,7.48S90.78,147.43,48,121.57Z"/><path class="cls-2" d="M54.12,48.37S34.6,35.58,27.47,53.24s-11.64,52.19,6,52.94,18.4-3,18.4-3,13.14,31.91,59.31,9c0,0,22.53,9.38,30.79-.38s9-55.56-11.27-63.44S102.17,48,101.05,48,78.15,22.09,54.12,48.37Z"/><path class="cls-3" d="M72.76,76.11S66,52,57,59.74s-8.26,38.93,0,39.31,9.39-6,9.39-6A35.74,35.74,0,0,0,75,91.37C78.39,90,72.76,76.11,72.76,76.11Z"/><path class="cls-3" d="M98.52,76.65s6.76-24.14,15.77-16.37,8.26,38.93,0,39.31-9.39-6-9.39-6a35.74,35.74,0,0,1-8.63-1.71C92.89,90.58,98.52,76.65,98.52,76.65Z"/><path class="cls-4" d="M78.51,23S83.8,9.89,84.29,2.66c0,0,13.62,1.23,16.63,0,0,0-5.74,13.52-2.37,21.77C98.55,24.43,89.4,29.25,78.51,23Z"/><path class="cls-5" d="M85.43,136c-19.07,0-34.41-9.42-38.1-11.88A44.48,44.48,0,0,1,10.5,110.25l-.1-.13C-11,81.21,5.67,45.34,15.91,35.94c8.61-7.9,21.58-5.81,26.63-4.58,8-13.73,36.08-14,37.17-14L76,23.31c-.24,0-24.47-.67-29.86,12l-.89,2.11-2.18-.72c-.15,0-15.3-4.84-23.79,2.94-9,8.25-24.1,41.46-4.94,67.44.85.94,13.4,14.46,33.33,12l1-.12.8.59a68.47,68.47,0,0,0,21.71,9.76c16.87,4.25,32.29,1.1,45.85-9.38l1.18-.91,1.36.6a50.51,50.51,0,0,0,13.86,3.46c9.62.9,16.74-1.76,21.16-7.9C166,99.3,166,63.6,154.52,41.57c-1-1.2-11.05-12-37.47-8.11l-1.39.21-.9-1.08c-.07-.09-7.17-8.48-15.25-8.78l.19-5c8.42.32,15.46,6.89,18,9.52,30-4,40.55,9.79,41,10.39l.2.32c12.52,23.84,12.43,61.53-.19,79.07-5.48,7.61-14.4,11.06-25.82,9.94a56.16,56.16,0,0,1-13.89-3.28A55.37,55.37,0,0,1,85.43,136Z"/><path class="cls-6" d="M96.21,25.37c-.57-1-2.74-6.07,1.18-19.79-3.53.14-8.07-.08-11.07-.27-1.21,6.13-3.53,16.48-5.72,18.85L76,23.31l1.3-2.19c1.16-1.46,3-11.12,4.52-18.92L82.25,0l2.23.17c6.3.48,12.3.92,15.22.89l3.09.38-.93,2.06c-2.12,6.32-2.84,16.67-1,20Z"/></g></g></svg>