<svg xmlns="http://www.w3.org/2000/svg" viewBox="0 0 184.58 201.06"><defs><style>.cls-1{fill:#c75a6e;}.cls-2{fill:#e096a5;}.cls-3{fill:#c2da6e;}.cls-4{fill:#eed7a1;}.cls-5{fill:none;stroke:#97ab59;stroke-miterlimit:10;stroke-width:3px;}.cls-6{fill:#cbb88b;}.cls-7{fill:#984354;}</style></defs><g id="レイヤー_2" data-name="レイヤー 2"><g id="ミョウ塗り"><path class="cls-1" d="M15.24,166.58S-31.37,102.22,51.85,38.75c0,0,11.82,104.17,2.25,118.25S31,179.53,15.24,166.58Z"/><path class="cls-2" d="M124.49,68s-15.91,4.51-22.6,2.25c0,0-3.22,17.46-12,24.22s28.22,37.16,28.22,37.16l29.46-14.08S138,79.86,124.49,68Z"/><path class="cls-1" d="M124.49,68s16.85,34.78,5.38,52.56c-15.12,23.45-5.38,57.15,19.4,62.32,15.91,3.32,33.78-2.82,33.22-23.65S153.21,80.42,124.49,68Z"/><path class="cls-3" d="M110.88,19s23.18-17.46,36.7-17.46c0,0,2.25,4.51-2.25,8.73,0,0-6.56-1.41-12.57,12.67s2.43,18-8.27,27.59S83,71.41,83,71.41l4.1-28.72Z"/><path class="cls-4" d="M163.49,169.39l-8-9.57s-7.32,15.77-6.19,23.09l-.12,15.2s20.39,2.25,25.46-4.5c0,0-3.94-13,0-20.28s2.25-11.82,0-16.33C174.61,157,168.15,168.83,163.49,169.39Z"/><path class="cls-1" d="M37.77,105.87s47.3-63.74,86.72-55.3c0,0-9.28,18-8,36S53.27,182.14,30,173.23,37.77,105.87,37.77,105.87Z"/><path class="cls-1" d="M51.85,38.75s38.67-21.4,59-19.71c0,0-21.66,29.84-22.33,49s-42.31,43.84-42.31,43.84L40,65.41Z"/><path class="cls-4" d="M15.24,166.58S0,187,2.86,198.47l17.45-4.86s10.14-20.84,17.46-22c0,0,9-6.19,8.45-23.65L32.8,157s-6.86,0-12.49-9C20.31,148,14.12,151.93,15.24,166.58Z"/><path class="cls-3" d="M125.3,66.31S106.14,54.55,88.14,53.06c0,0-14.76-3.48-17.11-7.07,0,0-4.6.19-3.58,9.88s8.65,9.76,6.17,24.24S86.47,110,86.47,110l43.4-21.83Z"/><path class="cls-1" d="M156,126S110.9,103.9,89.9,94.5c0,0-10.06-3.38-15.28-11.83,0,0,1.84,27,0,34.35S112.5,177.84,143,167.7,156,126,156,126Z"/><path class="cls-5" d="M121.48,64.16S98.26,53,88.14,53.06,71,46,71,46s-5.39,3.91-3.58,9.88S78.26,71.24,74.51,81.4"/><path class="cls-5" d="M114.32,17.36s24-17.19,33.26-15.78c0,0,1.3,7.94-2.25,8.73a15.45,15.45,0,0,0-11.32,10c-2.71,6.86-3.67,12.62-3.67,16.22s-1.49,9.17-4.42,12.22"/><path class="cls-6" d="M154,200.23c-2.25,0-4-.07-4.93-.12l-1.91-.1.16-15.71,3.23,1.67.65,10.22c7.79.21,18.15-.62,21.31-3.24L171,179.76l3.9,2.83,1.87,11.54-.51.68C172.7,199.49,161,200.23,154,200.23Z"/></g><g id="ミョウ線"><path class="cls-7" d="M150.52,186l-3.23-1.67c-26.15-15.5-18.81-44.55-15.39-60.34a68.28,68.28,0,0,0,1.48-8.13c.72-10.72-12.37-50-12.48-50.42l.87-2.8,4.13,1.79c11.32,3.57,26.27,24.72,32.17,33.66,11.6,17.55,21,36.49,24.39,49.42,7.43,27.93-6.94,34.87-7.61,35.11l-3.9-2.83c3.52-2.63,4.43-11.93,3.37-17.2l-11,9.68-6.88-8.19ZM128.39,70c2.81,10.42,9.6,36.81,9,46.07a67.34,67.34,0,0,1-1.56,8.7c-3.32,15.32-8.81,40.63,12.23,55l6.48-24.17,9.19,10.95,12.83-11.24.87,3a46.68,46.68,0,0,1,1.76,11.22c1.55-4.43,2.07-11.09-.58-21C172.28,124.78,144.63,80.35,128.39,70Z"/><path class="cls-7" d="M135.15,167.19l-3.8-1.23c0-.07.68-2.5-1.28-5.83-2.47-4.21-9.27-10.11-27.61-14.33-15.18-3.49-25.14-15.67-28.82-35.2a100.5,100.5,0,0,1-1-28.18l.46-3.6,2.8,2.31c.16.14,16.76,13.78,29,18.06,12.7,4.47,30.74,14.61,31.5,15l-2,3.48c-.18-.1-18.49-10.4-30.86-14.74-9.8-3.45-21.76-12.18-27.23-16.41-.71,11.86-.65,49,27.06,55.35,16,3.68,26.21,9.21,30.29,16.43C136.36,163.11,135.28,166.79,135.15,167.19Z"/><path class="cls-7" d="M148.59,184.79a95.72,95.72,0,0,1-10.23-4.5c-6.66-3.46-10.48-6.71-11.61-9.91-2.57-1.27-10.7-5.36-19.16-10.7-14-8.8-22.16-19.78-24.42-26.54L87,135c1.92,5.77,9.78,13.14,22.72,21.31a214.88,214.88,0,0,0,19.61,10.89l.95.45.17,1c.65,3.92,11.81,9.6,19.52,12.37Z"/><path class="cls-7" d="M108.58,103.3l-4.36-3.45a76.43,76.43,0,0,0,25-14l2.16,3.65C131,89.87,124.07,98.72,108.58,103.3Z"/><path class="cls-7" d="M33.86,175.57a1.5,1.5,0,0,1-.83-.22h0L32,173.56a2.43,2.43,0,0,1,1.61-2.11h0c8.18-4.21,10.12-14.19,10.55-19.64L33.49,159,33,159c-5.37.52-10.44-4.84-12.88-7.91-3.15,4.29-3.18,12.24-2.87,15.29l-3.66,1.3h0c-.26-.4-26.28-40.85-5.57-80.43,20.46-39.13,52.27-55,53.62-55.71l6.2-3L64.2,34.37c-.07.13-7.64,12.51-9,20.74-.44,2.74,1,16.72,2.46,31.52,5.14,51,6.54,74.32,1.28,77.91-4.16,2.85-11,5.89-14.76,7.44C37.22,174.91,34.89,175.57,33.86,175.57ZM48,144.37l.19,3.51c0,.62.56,11.78-5.15,20.25a87.44,87.44,0,0,0,13.65-6.89c.56-.53,2.38-4.07,1.13-26.68C57,120,55.27,102.48,53.71,87c-1.89-18.71-2.93-29.45-2.43-32.55.81-5,3.56-11.16,5.9-15.71A135.69,135.69,0,0,0,11.54,89.09c-14.84,28.38-4.3,57.3,1.82,69.88.51-4.41,2-9.61,5.72-12.55l1.7-1.33,1.2,1.79c1.43,2.14,6.26,8,10.18,8.15Z"/><path class="cls-7" d="M60.34,161.07l-1.69-3.63.84,1.82-.84-1.82c.11-.05,15.1-7.33,26-20.94l2,2.41A91,91,0,0,1,60.34,161.07Z"/><path class="cls-7" d="M121.77,62.61,118.07,61l3.55-8.66c-5.85-.41-16-.49-19.74,2.24l-4.07-1.25c6.5-4.7,25.14-5.86,27-5.65l2.68,1.46Z"/><path class="cls-7" d="M55.93,83.93l-2.12-3.1c3.9-4.79,17-10.3,18.46-10.8,0,0,1.21,3.77.67,4.62C72.94,74.65,59.39,79.7,55.93,83.93Z"/><path class="cls-7" d="M72,45c-.16-3.24,3.79-11.47,6.64-16.68-7.7,3-15.15,6.76-15.24,6.81l-1.82-3.57a169.56,169.56,0,0,1,20.83-8.83l5-1.62-2.67,4.54C80.41,33,75,45.07,75.15,47.34Z"/><path class="cls-7" d="M68.84,75.36l-3.53-1.89c1.13-2.11,1.23-14.67,1-16l3.21,6.41C69.63,64.54,70.82,71.67,68.84,75.36Z"/><path class="cls-7" d="M94.5,52.61l-4.08-1c1-4.72,12.21-23.18,16.85-30.6-9.1.62-23.43,5.42-23.6,5.48L82.4,22.72c.79-.27,21.89-7.65,31-6.78l4.64.71-3.15,2.29C108.18,29.57,95.32,48.84,94.5,52.61Z"/><path class="cls-6" d="M1,201.06l-.14-2.48C0,183.15,13.11,168.25,13.57,167.67l3.66-1.3c-.09.12-12,16.59-12.4,29.48L19,191.9c1.79-3.22,10.37-16.62,13.31-19.41l1.58,3.08c-2.12,2-8.66,13.3-11.79,19l-.41.74Z"/></g></g></svg>