<svg xmlns="http://www.w3.org/2000/svg" viewBox="0 0 206.74 174.29"><defs><style>.cls-1{fill:#631645;}.cls-2{fill:#7a0f4d;}.cls-3{fill:#8c6b80;}.cls-4{fill:#866285;}</style></defs><g id="レイヤー_2" data-name="レイヤー 2"><g id="レイヤー_2-2" data-name="レイヤー 2"><path class="cls-1" d="M206.74,79.3,206.2,83h0q0-1.82,0-3.54Z"/><path class="cls-1" d="M206.2,83l0,.33c-.08.55-.68,4.57-2.2,10.59A55.25,55.25,0,0,0,204.38,83h1.82Z"/><path class="cls-1" d="M204.38,83h-.75c0-.82,0-1.69-.08-2.6l2.63-.92q0,1.73,0,3.54Z"/><path class="cls-1" d="M206.18,79.5l-2.63.92C203,66.82,200.66,43.65,190.91,31c-3.91-5.06-9.38-6.17-15.28-4.94q-.18-.21-.39-.42c6.19-1.86,10.07-1.5,10.44-1.46l.51.06.44.25C187.43,25,205.6,35.71,206.18,79.5Z"/><path class="cls-1" d="M204.38,83A55.25,55.25,0,0,1,204,94a145.62,145.62,0,0,1-10.62,28.92.16.16,0,0,0,0,.07,98.09,98.09,0,0,1-28.64,29.94l-.39-.52c.21-.35.43-.72.65-1.11A75.69,75.69,0,0,0,178,138c11.8-15.19,18-33.41,20.92-44.68l4.72-2.14s.1-2.55,0-6.68a14.74,14.74,0,0,0,.72-1.44Z"/><path class="cls-1" d="M203.63,83h.74a14.74,14.74,0,0,1-.72,1.44C203.65,84,203.64,83.52,203.63,83Z"/><path class="cls-1" d="M203.65,84.47c.07,4.13,0,6.68,0,6.68l-4.72,2.14c.33-1.24.61-2.39.85-3.45A28,28,0,0,0,203.65,84.47Z"/><path class="cls-1" d="M203.63,83c0,.5,0,1,0,1.45a28,28,0,0,1-3.9,5.37c.28-1.14.5-2.16.69-3.06-5,1.69-13.62,4.61-21.49,7l-.78-2.58.91-.09s.11-.37.29-1.07a14.78,14.78,0,0,0,6.87-3.84c6.37-2.07,12.19-4.06,14.95-5,0,.59,0,1.17,0,1.77Z"/><path class="cls-1" d="M203.63,83l-2.45,0c0-.6,0-1.18,0-1.77l1.67-.57.69-.24C203.58,81.33,203.61,82.2,203.63,83Z"/><path class="cls-1" d="M203.55,80.42l-.69.24-1.67.57c-.06-21.71-4.61-34.74-8.45-41.89C189.3,33,185.81,30,184.6,29.17h0a27,27,0,0,0-7.37,1.22c-.85-.66-2-1.51-3.28-2.48l1.89-1.64-.16-.18C181.53,24.86,187,26,190.91,31,200.66,43.65,203,66.82,203.55,80.42Z"/><path class="cls-2" d="M200.44,86.78c-.19.9-.41,1.92-.69,3.06a31.22,31.22,0,0,1-20,10,131.13,131.13,0,0,0-26.17,6.49c4.19-4.35,8.61-8,12-8.77,2-.43,4.68-1.14,7.67-2,1.78-.52,3.67-1.09,5.61-1.69C186.82,91.39,195.48,88.47,200.44,86.78Z"/><path class="cls-2" d="M179.79,99.8a31.22,31.22,0,0,0,20-10c-.24,1.06-.52,2.21-.85,3.45l-55.48,25.22a127.87,127.87,0,0,1,10.2-12.22A131.13,131.13,0,0,1,179.79,99.8Z"/><path class="cls-2" d="M193.33,122.88A145.62,145.62,0,0,0,204,94,76.28,76.28,0,0,1,193.33,122.88Z"/><path class="cls-2" d="M153.3,132.74c.62,1.82,3.81,10.39,9.29,12.89-2.38,4.14-4.45,7.73-5.89,10.26l-1.83,1-.09,0-.08,0h0l-1.14.48c-37.4,15.44-63.45,11.81-70.81,10.25,3-14.9,12.56-25.13,23-32.05l24.54-11.15a82.16,82.16,0,0,1,9.59-2.29l1.07-.17.62-.89c.51-.74,1.14-1.63,1.88-2.63L198.9,93.29C196,104.56,189.78,122.78,178,138l-.11-.08c1.15-1.5,1.91-2.68,2-2.88-2.16,2.37-7.71,5.62-10.29,7.06,1.08-2.24,2.2-4.64,3.33-7.09,11-4.53,16.54-22,17.52-25.39-1.67,4.91-13.57,16.61-13.57,16.61,4.4-10,8-18.58,8-18.58-2.76,4.43-7.25,12-12,20.11a14.26,14.26,0,0,1-9.35-8s2.69,12.39,5.83,14.07c-2,3.39-3.91,6.75-5.7,9.86l.54-.94S154.69,136.22,153.3,132.74Z"/><path class="cls-2" d="M193.33,76.69c-2.44,4-13.4,11-13.4,11,.31-1.44.68-3.3,1-5.46,3.55-4,10.63-20.73,9.68-19.15-1.47,2.41-8.83,11.44-8.83,11.44a67.64,67.64,0,0,0-1.87-21.93,180.17,180.17,0,0,1-1.4,23.12s-9.85-3.53-16.33-8.49c.33.43,9.59,12.4,15.13,15.28a40.73,40.73,0,0,1-1.54,5.36s-14.59-3.65-21.27-9c.65.64,10.61,10.27,19.08,11.29-3.56,1.06-6.73,1.93-9,2.42-7,1.52-15.61,10.74-21.26,17.75-6.47,2.93-11.74,6.14-14.31,9.2a107.54,107.54,0,0,0-11,3.88c-1.4-4.25-4.43-13.31-8.29-23.82l9.12,2.86,60.25-70.63s-.69-.56-1.9-1.49a27,27,0,0,1,7.37-1.22h0c1.21.87,4.7,3.78,8.14,10.17,3.84,7.15,8.39,20.18,8.45,41.89-2.76,1-8.58,2.94-14.95,5A36.36,36.36,0,0,0,193.33,76.69Z"/><path class="cls-3" d="M190.63,63.13c1-1.58-6.13,15.17-9.68,19.15.34-2.27.66-4.87.85-7.71C181.8,74.57,189.16,65.54,190.63,63.13Z"/><path class="cls-3" d="M193.33,76.69a36.36,36.36,0,0,1-7.09,9.55c-2.12.7-4.3,1.4-6.45,2.08.05-.18.09-.37.13-.57h0S190.89,80.72,193.33,76.69Z"/><path class="cls-3" d="M190.47,109.59c-1,3.36-6.54,20.86-17.52,25.39l.24-.53c.82-1.78,1.63-3.59,2.43-5.39l1.28-2.86S188.8,114.5,190.47,109.59Z"/><path class="cls-3" d="M179.93,52.64a67.64,67.64,0,0,1,1.87,21.93l-3.27,1.19A180.17,180.17,0,0,0,179.93,52.64Z"/><path class="cls-3" d="M178.53,75.76l3.27-1.19c-.19,2.84-.51,5.44-.85,7.71a2.56,2.56,0,0,1-1,.81,3.64,3.64,0,0,1-2.6-.54C177.82,80.4,178.21,78.1,178.53,75.76Z"/><path class="cls-3" d="M181,82.28c-.34,2.16-.71,4-1,5.46h0l-.74.76-3.39,1V87.91a40.73,40.73,0,0,0,1.54-5.36,3.64,3.64,0,0,0,2.6.54A2.56,2.56,0,0,0,181,82.28Z"/><path class="cls-1" d="M179.79,88.32c2.15-.68,4.33-1.38,6.45-2.08a14.78,14.78,0,0,1-6.87,3.84C179.49,89.63,179.63,89,179.79,88.32Z"/><path class="cls-3" d="M179.18,88.51l.74-.76c0,.2-.08.39-.13.57Z"/><path class="cls-1" d="M179.18,88.51l.61-.19c-.16.72-.3,1.31-.42,1.76a8.67,8.67,0,0,1-1.91.21Z"/><path class="cls-1" d="M179.18,88.51l-1.72,1.78a8.67,8.67,0,0,0,1.91-.21c-.18.7-.29,1.07-.29,1.07l-.91.09c-3.72.44-4.91,1.42-5.16,1.68a12.08,12.08,0,0,0,1.74-2.61,9,9,0,0,0,1,0v-.73Z"/><path class="cls-2" d="M179.08,31.88l-60.25,70.63-9.12-2.86c-1.27-3.45-2.63-7.06-4-10.71,6.8-12.48,21.29-22.53,29.7-27.6a11.82,11.82,0,0,0,3.43-2c1.8-1,2.91-1.56,3-1.59l.51-.25.35-.45c14.08-18,26.78-24.41,34.56-26.67C178.39,31.32,179.08,31.88,179.08,31.88Z"/><path class="cls-1" d="M178.17,91.24l.78,2.58c-1.94.6-3.83,1.17-5.61,1.69L173,93s0,0,0,0l0,0C173.26,92.66,174.45,91.68,178.17,91.24Z"/><path class="cls-3" d="M179.91,135c-.13.2-.89,1.38-2,2.88-2.42,3.15-6.53,7.74-10,7.74.56-1.13,1.15-2.32,1.74-3.56C172.2,140.63,177.75,137.38,179.91,135Z"/><path class="cls-2" d="M177.87,137.89l.11.08a75.69,75.69,0,0,1-13.07,13.29c.89-1.57,1.9-3.49,3-5.63C171.34,145.63,175.45,141,177.87,137.89Z"/><path class="cls-3" d="M178.53,75.76c-.32,2.34-.71,4.64-1.2,6.79-5.54-2.88-14.8-14.85-15.13-15.28C168.68,72.23,178.53,75.76,178.53,75.76Z"/><path class="cls-3" d="M184.9,107.62s-3.6,8.63-8,18.58l-1.28,2.86-2.43,5.39L173,135c-1.13,2.45-2.25,4.85-3.33,7.09l-1.35.74-.39,2.82c-1.07,2.14-2.08,4.06-3,5.63L164,152l-7.27,3.9c1.44-2.53,3.51-6.12,5.89-10.26l1.14-2c1.79-3.11,3.73-6.47,5.7-9.86a1.59,1.59,0,0,0,.27.12l3.25-6.18C177.65,119.67,182.14,112.05,184.9,107.62Z"/><path class="cls-1" d="M175.79,89.56v.73a9,9,0,0,1-1,0c.08-.16.17-.33.25-.51Z"/><path class="cls-3" d="M175.79,87.91v1.65l-.79.24C175.28,89.21,175.54,88.58,175.79,87.91Z"/><path class="cls-1" d="M175.63,26.09l.16.18-1.89,1.64-1.36-1A28.29,28.29,0,0,1,175.63,26.09Z"/><path class="cls-1" d="M175.24,25.67q.21.21.39.42a28.29,28.29,0,0,0-3.09.82l-.3-.21C173.29,26.3,174.29,26,175.24,25.67Z"/><path class="cls-3" d="M175.62,129.06c-.8,1.8-1.61,3.61-2.43,5.39Z"/><path class="cls-3" d="M175.79,87.91c-.25.67-.51,1.3-.79,1.89l-1.4.42c-8.47-1-18.43-10.65-19.08-11.29C161.2,84.26,175.79,87.91,175.79,87.91Z"/><path class="cls-1" d="M175,89.8c-.08.18-.17.35-.25.51a7.52,7.52,0,0,1-1.15-.09Z"/><path class="cls-1" d="M173.6,90.22a7.52,7.52,0,0,0,1.15.09A12.08,12.08,0,0,1,173,92.92l0,0s0,0,0,0l.39,2.53c-3,.87-5.66,1.58-7.67,2-3.44.74-7.86,4.42-12,8.77-3.59,1.26-7.08,2.65-10.27,4.1,5.65-7,14.23-16.23,21.26-17.75C166.87,92.15,170,91.28,173.6,90.22Z"/><path class="cls-1" d="M173.9,27.91c1.31,1,2.43,1.82,3.28,2.48-7.78,2.26-20.48,8.67-34.56,26.67l-.35.45-.51.25c-.06,0-1.17.58-3,1.59a5.25,5.25,0,0,0,1.86-3.83c.27-5.47,15.22-21.89,29.63-27.77.62.59,1.2,1.19,1.73,1.8Z"/><path class="cls-1" d="M173.9,27.91,172,29.55c-.53-.61-1.11-1.21-1.73-1.8.76-.31,1.51-.59,2.26-.84Z"/><path class="cls-3" d="M173,127.73l-3.25,6.18a1.59,1.59,0,0,1-.27-.12Z"/><path class="cls-1" d="M175.24,25.67c-1,.29-2,.63-3,1-7.52-5.46-19.75-13.6-28.92-16.11l.5-1.7C153.17,11.54,167.67,17.44,175.24,25.67Z"/><path class="cls-1" d="M172.24,26.7l.3.21c-.75.25-1.5.53-2.26.84l-.19-.17C170.82,27.26,171.54,27,172.24,26.7Z"/><path class="cls-1" d="M170.09,27.58l.19.17c-14.41,5.88-29.36,22.3-29.63,27.77a5.25,5.25,0,0,1-1.86,3.83c-1,.53-2.12,1.2-3.43,2-5.41,2.22-13.44,3.09-16.53,8.55C117.05,73,110.18,77,103.4,83.25a1.11,1.11,0,0,0-.07-.16q5.61-8.5,16.15-16.87A125.23,125.23,0,0,1,139,53.54C150.82,38.6,161.76,31.21,170.09,27.58Z"/><path class="cls-1" d="M172.24,26.7c-.7.27-1.42.56-2.15.88-9.33-8.68-27.51-14.41-33.43-15.19a27.57,27.57,0,0,1-7-2l.38-.93c1.47.61,3.58.86,6.93.42a16.57,16.57,0,0,1,6.33.67C152.49,13.1,164.72,21.24,172.24,26.7Z"/><path class="cls-3" d="M173,127.73l-3.52,6.06c-3.14-1.68-5.83-14.07-5.83-14.07A14.26,14.26,0,0,0,173,127.73Z"/><path class="cls-1" d="M193.29,123c-5.92,11.81-14.37,24-26.31,33l-2.33-3.09A98.09,98.09,0,0,0,193.29,123Z"/><path class="cls-3" d="M168.27,142.81l1.35-.74c-.59,1.24-1.18,2.43-1.74,3.56Z"/><path class="cls-4" d="M164.65,152.89,167,156a26.08,26.08,0,0,1-10,5.42l-.94-2a15.06,15.06,0,0,0,5.95-3.91,8.84,8.84,0,0,0,1.43-1.78C163.84,153.44,164.25,153.16,164.65,152.89Z"/><path class="cls-1" d="M164,152l.94-.73c-.22.39-.44.76-.65,1.11Z"/><path class="cls-4" d="M164.26,152.37l.39.52c-.4.27-.81.55-1.22.81C163.69,153.31,164,152.86,164.26,152.37Z"/><path class="cls-3" d="M164.27,142.71l-.54.94-1.14,2c-5.48-2.5-8.67-11.07-9.29-12.89C154.69,136.22,164.27,142.71,164.27,142.71Z"/><path class="cls-4" d="M164,152l.29.38c-.29.49-.57.94-.83,1.33q-3.78,2.51-7.86,4.67l-.13-.28,1.26-2.2Z"/><path class="cls-4" d="M163.43,153.7a8.84,8.84,0,0,1-1.43,1.78,15.06,15.06,0,0,1-5.95,3.91l-.48-1Q159.65,156.21,163.43,153.7Z"/><path class="cls-1" d="M156.05,159.39l.94,2a9,9,0,0,1-1,.43l-.58.23c-23.74,9.8-42.94,12.23-56.16,12.23-12.46,0-19.59-2.16-20.18-2.35l-1.28-.4c2.17-.33.4-.12,0,0l.5-2c1,0,1.53,0,1.53,0,.06-.16.12-.32.17-.48,7.64,1.88,19.88,2.68,39.5.48a99.58,99.58,0,0,0,35.62-11l-.66,1.15A9.84,9.84,0,0,0,156.05,159.39Z"/><path class="cls-4" d="M154.87,156.87l1.83-1-1.26,2.2Z"/><path class="cls-1" d="M155.57,158.37l.48,1a9.84,9.84,0,0,1-1.56.36l.66-1.15A4.36,4.36,0,0,0,155.57,158.37Z"/><path class="cls-1" d="M155.57,158.37a4.36,4.36,0,0,1-.42.23c.09-.15.18-.33.29-.51Z"/><path class="cls-1" d="M154.87,156.87l.57,1.22c-.11.18-.2.36-.29.51a99.58,99.58,0,0,1-35.62,11c-19.62,2.2-31.86,1.4-39.5-.48a28.06,28.06,0,0,0,1.51-9.1l2.51-2.38a19.78,19.78,0,0,0-.91-5.35,54.36,54.36,0,0,1,9.15-12.15l1.92-1c.23.49.45,1,.69,1.48l10.82-4.92c-10.43,6.92-20,17.15-23,32.05,7.36,1.56,33.41,5.19,70.81-10.25l1.14-.48h0l.08,0Z"/><path class="cls-2" d="M136.66,12.39c5.92.78,24.1,6.51,33.43,15.19-8.33,3.63-19.27,11-31.06,26a125.23,125.23,0,0,0-19.55,12.68Q109,74.58,103.33,83.09c-6.18-15.26-13.16-30-18.83-35.43-.2-.79-.35-1.58-.48-2.38-2.57-16.37,7.08-34,7.18-34.15l2-3.61c6.13-2.08,15.63-3.68,28.68-1.42a40.84,40.84,0,0,0,7.79,4.33A27.57,27.57,0,0,0,136.66,12.39Z"/><path class="cls-1" d="M154.7,157l.08,0Z"/><path class="cls-1" d="M154.7,157h0Z"/><path class="cls-1" d="M153.62,106.29a127.87,127.87,0,0,0-10.2,12.22l-13.16,6a92.94,92.94,0,0,0-24.54,11.15L94.9,140.56c-.24-.5-.46-1-.69-1.48l6.1-3.23.83.62c.42-.57.82-1.13,1.19-1.69l16.5-8.74-.74-2.28c5.61-.92,9.33-1.12,9.33-1.12a7,7,0,0,1,1.62-3,91.32,91.32,0,0,1,9-2.15c1-1.4,2.89-4,5.33-7C146.54,108.94,150,107.55,153.62,106.29Z"/><path class="cls-1" d="M143.82,8.89l-.5,1.7A16.57,16.57,0,0,0,137,9.92c-3.35.44-5.46.19-6.93-.42-4.18-1.73-3.32-6.34-11.23-6.34-9.44,0-23-2.61-34.48,5.75l-1.68.56L81.43,8C82,7.54,95.51-3.74,123.34,1.28l.6.11.48.37c.06.05,6.37,4.82,12.9,5.68A48.65,48.65,0,0,1,143.82,8.89Z"/><path class="cls-1" d="M130.26,124.49l13.16-6c-.74,1-1.37,1.89-1.88,2.63l-.62.89-1.07.17A82.16,82.16,0,0,0,130.26,124.49Z"/><path class="cls-2" d="M143.35,110.39c-2.44,3-4.34,5.65-5.33,7a91.32,91.32,0,0,0-9,2.15C131.61,116.53,136.88,113.32,143.35,110.39Z"/><path class="cls-2" d="M135.36,61.34c1.31-.79,2.47-1.46,3.43-2A11.82,11.82,0,0,1,135.36,61.34Z"/><path class="cls-1" d="M118.83,69.89c3.09-5.46,11.12-6.33,16.53-8.55-8.41,5.07-22.9,15.12-29.7,27.6q-1.11-2.84-2.26-5.69C110.18,77,117.05,73,118.83,69.89Z"/><path class="cls-2" d="M130.26,124.49l-24.54,11.15A92.94,92.94,0,0,1,130.26,124.49Z"/><path class="cls-1" d="M130.06,9.5l-.38.93a40.84,40.84,0,0,1-7.79-4.33c-13-2.26-22.55-.66-28.68,1.42l1.32-2.37-6.4,2.43s-1.51.57-3.78,1.33c11.49-8.36,25-5.75,34.48-5.75C126.74,3.16,125.88,7.77,130.06,9.5Z"/><path class="cls-1" d="M118,123.47a107.54,107.54,0,0,1,11-3.88,7,7,0,0,0-1.62,3s-3.72.2-9.33,1.12Z"/><path class="cls-1" d="M118.83,126l-16.5,8.74a31.72,31.72,0,0,0,2.67-4.7c1.89-1.18,3.88-2.3,6-3.36s4-1.93,5.87-2.75l1.27-.21Z"/><path class="cls-1" d="M118,123.47l.09.29-1.27.21C117.21,123.79,117.61,123.63,118,123.47Z"/><path class="cls-2" d="M118,123.47c-.39.16-.79.32-1.18.5-3.07.54-6.61,1.29-10.37,2.32,2.37-8.08-.12-14.75-2.38-20.83-.74-2-1.45-3.91-2-5.83a21.1,21.1,0,0,1,.37-2.25l7.25,2.27C113.57,110.16,116.6,119.22,118,123.47Z"/><path class="cls-2" d="M116.82,124c-1.92.82-3.88,1.73-5.87,2.75s-4.06,2.18-6,3.36a24.1,24.1,0,0,0,1.44-3.79h0C110.21,125.26,113.75,124.51,116.82,124Z"/><path class="cls-2" d="M109.71,99.65l-7.25-2.27a30.55,30.55,0,0,1,3.2-8.44C107.08,92.59,108.44,96.2,109.71,99.65Z"/><path class="cls-1" d="M104.07,105.46c2.26,6.08,4.75,12.75,2.38,20.83h0c-2,.54-4,1.17-6.07,1.88,3.81-8.08,1.47-14.37-1-21-1.39-3.75-2.82-7.59-3.1-11.76l1.38.43a29.53,29.53,0,0,0-.6,3.69l5,.49c0-.14,0-.28,0-.42C102.62,101.55,103.33,103.48,104.07,105.46Z"/><path class="cls-1" d="M103.4,83.25q1.16,2.85,2.26,5.69a30.55,30.55,0,0,0-3.2,8.44l-.95-.3a16.86,16.86,0,0,1-.11-5.54,20.09,20.09,0,0,0,.1-5.47c.45-.81.94-1.61,1.46-2.42Z"/><path class="cls-1" d="M106.44,126.29a24.1,24.1,0,0,1-1.44,3.79,71.82,71.82,0,0,0-6.44,4.47l-1.43-1.06a30.86,30.86,0,0,0,3.24-5.32C102.43,127.46,104.46,126.83,106.44,126.29Z"/><path class="cls-1" d="M103.4,83.25l-.44.4.37-.56A1.11,1.11,0,0,1,103.4,83.25Z"/><path class="cls-2" d="M103.33,83.09l-.37.56c-.53.49-1,1-1.57,1.52-1-6.35-4.53-12.47-8.27-18.86-3.48-5.94-7.06-12.07-8.62-18.65C90.17,53.09,97.15,67.83,103.33,83.09Z"/><path class="cls-1" d="M105,130.08a31.72,31.72,0,0,1-2.67,4.7l-2,1.07-1.75-1.3A71.82,71.82,0,0,1,105,130.08Z"/><path class="cls-1" d="M101.51,97.08l.95.3a21.1,21.1,0,0,0-.37,2.25A23.4,23.4,0,0,1,101.51,97.08Z"/><path class="cls-1" d="M100.31,135.85l2-1.07c-.37.56-.77,1.12-1.19,1.69Z"/><path class="cls-1" d="M102.09,99.63c0,.14,0,.28,0,.42l-5-.49a29.53,29.53,0,0,1,.6-3.69l3.85,1.21A23.4,23.4,0,0,0,102.09,99.63Z"/><path class="cls-2" d="M103,83.65c-.52.81-1,1.61-1.46,2.42,0-.3-.07-.6-.11-.9C101.91,84.65,102.43,84.14,103,83.65Z"/><path class="cls-1" d="M101.5,86.07a20.09,20.09,0,0,1-.1,5.47,16.86,16.86,0,0,0,.11,5.54l-3.85-1.21A36.09,36.09,0,0,1,101.5,86.07Z"/><path class="cls-1" d="M101.39,85.17c0,.3.08.6.11.9a36.09,36.09,0,0,0-3.84,9.8l-1.38-.43a20.6,20.6,0,0,1,.18-4.68A53.61,53.61,0,0,1,101.39,85.17Z"/><path class="cls-2" d="M99.38,107.2c2.46,6.6,4.8,12.89,1,21a76.81,76.81,0,0,0-9,3.72c-5.56-16.35-3-28.29,2.45-37.23l2.47.78C96.56,99.61,98,103.45,99.38,107.2Z"/><path class="cls-2" d="M91.36,131.89a76.81,76.81,0,0,1,9-3.72,30.86,30.86,0,0,1-3.24,5.32l1.43,1.06q-2.44,1.89-4.62,3.93Q92.44,135.08,91.36,131.89Z"/><path class="cls-1" d="M100.31,135.85l-6.1,3.23-.27-.6q2.18-2,4.62-3.93Z"/><path class="cls-1" d="M101.39,85.17a53.61,53.61,0,0,0-4.93,5.59c1.09-7-3.16-14.23-7.66-21.92-1.2-2-2.4-4.12-3.55-6.23C82.44,57.45,80,52,79.08,46.06c-.12-.73-.21-1.47-.28-2.2a6.12,6.12,0,0,0,2.75,1.81,8.47,8.47,0,0,1,3,2c1.56,6.58,5.14,12.71,8.62,18.65C96.86,72.7,100.43,78.82,101.39,85.17Z"/><path class="cls-2" d="M88.8,68.84c4.5,7.69,8.75,15,7.66,21.92a41.68,41.68,0,0,0-2.65,3.9l-14-4.37-7.59-2.38s-.46-6.12-.72-14.91c7-5,12.37-9.55,12.72-9.85l0,0,1-.52C86.4,64.72,87.6,66.79,88.8,68.84Z"/><path class="cls-2" d="M96.28,95.44l-2.47-.78a41.68,41.68,0,0,1,2.65-3.9A20.6,20.6,0,0,0,96.28,95.44Z"/><path class="cls-1" d="M94.53,5.15,93.21,7.52A32.39,32.39,0,0,0,85.75,11l-1.35.44L83.05,9.91c.43-.35.86-.68,1.3-1,2.27-.76,3.73-1.32,3.78-1.33Z"/><path class="cls-1" d="M94.21,139.08l-1.92,1q.79-.82,1.65-1.62Z"/><path class="cls-2" d="M79.86,90.29l14,4.37c-5.4,8.94-8,20.88-2.45,37.23A53.74,53.74,0,0,0,78.1,140.8c-1.43-2.59-3.08-5.3-4.9-8.08-6.61-12-16.18-23.7-25-32.86,8.58-.18,30.26-9,31.62-9.54Z"/><path class="cls-1" d="M93.21,7.52l-2,3.61c-.1.18-9.75,17.78-7.18,34.15.13.8.28,1.59.48,2.38a8.47,8.47,0,0,0-3-2,6.12,6.12,0,0,1-2.75-1.81,53.16,53.16,0,0,1,1.31-17.12A112.39,112.39,0,0,1,89,9.92s-1.26.46-3.26,1.12A32.39,32.39,0,0,1,93.21,7.52Z"/><path class="cls-2" d="M93.94,138.48q-.85.79-1.65,1.62l-11.47,6.07q-1.17-2.58-2.72-5.37a53.74,53.74,0,0,1,13.26-8.91Q92.44,135.07,93.94,138.48Z"/><path class="cls-2" d="M80.82,146.17l11.47-6.07a54.36,54.36,0,0,0-9.15,12.15A44,44,0,0,0,80.82,146.17Z"/><path class="cls-1" d="M85.75,11c2-.66,3.26-1.12,3.26-1.12a112.39,112.39,0,0,0-8.9,16.82A76.19,76.19,0,0,1,84.2,14.23c-1.91.62-4.18,1.3-6.59,1.94a14.53,14.53,0,0,1,2.25-3.28c1.66-.49,3.21-1,4.54-1.41l.28.33A11.41,11.41,0,0,1,85.75,11Z"/><path class="cls-2" d="M85.25,62.61l-1,.52,0,0A91.74,91.74,0,0,1,71.48,70c-.11-5.26-.13-11.24,0-17.35.43-14,2-28.68,6.08-36.47,2.41-.64,4.68-1.32,6.59-1.94a76.19,76.19,0,0,0-4.09,12.51c-2.73,6.68-4.31,13.61-1.31,17.12.07.73.16,1.47.28,2.2C80,52,82.44,57.45,85.25,62.61Z"/><path class="cls-1" d="M85.75,11a11.41,11.41,0,0,0-1.07.77l-.28-.33Z"/><path class="cls-1" d="M83.05,9.91l1.35,1.57c-1.33.44-2.88.92-4.54,1.41A33.89,33.89,0,0,1,83.05,9.91Z"/><path class="cls-1" d="M84.05,157.6,81.54,160a31.73,31.73,0,0,0-.21-4.1c.55-1.23,1.15-2.44,1.81-3.63A19.78,19.78,0,0,1,84.05,157.6Z"/><path class="cls-1" d="M84.35,8.91c-.44.32-.87.65-1.3,1l-.38-.44Z"/><path class="cls-1" d="M82.67,9.47l.38.44a33.89,33.89,0,0,0-3.19,3,81.64,81.64,0,0,1-13.2,2.94c-5.84.59-29,10.84-43,27.41L24,42.12l-6.08,4.34c-.06,0-.25.18-.54.42,6-11.05,38.35-32.3,49-33.53A93.18,93.18,0,0,0,82.67,9.47Z"/><path class="cls-1" d="M83.14,152.25c-.66,1.19-1.26,2.4-1.81,3.63a46.37,46.37,0,0,0-1.92-9l1.41-.75A44,44,0,0,1,83.14,152.25Z"/><path class="cls-1" d="M81.33,155.88a31.73,31.73,0,0,1,.21,4.1l-1,1a12.84,12.84,0,0,0-.3-2.46C80.58,157.6,80.94,156.73,81.33,155.88Z"/><path class="cls-1" d="M80.54,160.93l1-1a28.06,28.06,0,0,1-1.51,9.1c-.52-.12-1-.25-1.49-.39l.59-2.32-1.23,0a50.82,50.82,0,0,1,2.34-7.92A12.84,12.84,0,0,1,80.54,160.93Z"/><path class="cls-1" d="M80.82,146.17l-1.41.75c-.56-1.82-1.23-3.65-2-5.48l.68-.64Q79.65,143.59,80.82,146.17Z"/><path class="cls-1" d="M81.33,155.88c-.39.85-.75,1.72-1.09,2.59a41.92,41.92,0,0,0-3.89-9.93l3.06-1.62A46.37,46.37,0,0,1,81.33,155.88Z"/><path class="cls-1" d="M80,169.08c0,.16-.11.32-.17.48,0,0-.54,0-1.53,0l.21-.83C79,168.83,79.51,169,80,169.08Z"/><path class="cls-2" d="M79.86,90.29l-.07,0c-13.51,4.72-30.24,3-34,2.57a66.63,66.63,0,0,1,.45-7C53.41,85,63.55,78.7,71.55,73c.26,8.79.72,14.91.72,14.91Z"/><path class="cls-1" d="M79.41,146.92l-3.06,1.62c-.61-1.19-1.28-2.43-2-3.71a39.56,39.56,0,0,1,3.08-3.39C78.18,143.27,78.85,145.1,79.41,146.92Z"/><path class="cls-1" d="M79.13,166.37l-.59,2.32-1-.3c.1-.67.23-1.34.37-2Z"/><path class="cls-1" d="M77.83,171.5c.4-.08,2.17-.29,0,0h0Z"/><path class="cls-2" d="M80.11,26.74A53.16,53.16,0,0,0,78.8,43.86C75.8,40.35,77.38,33.42,80.11,26.74Z"/><path class="cls-1" d="M78.54,168.69l-.21.83-1-.06,0-.28c0-.27.08-.53.14-.79Z"/><path class="cls-1" d="M78.33,169.52l-.5,2-.07,0-.7-.22.29-1.84Z"/><path class="cls-1" d="M78.1,140.8l-.68.64a83.83,83.83,0,0,0-4.22-8.72C75,135.5,76.67,138.21,78.1,140.8Z"/><path class="cls-2" d="M80.24,158.47a50.82,50.82,0,0,0-2.34,7.92c-1.7,0-3.45,0-5.24-.08-5.4-3.07-5.29-6.56-5.29-6.56a33.51,33.51,0,0,1,3.69-10.09l1.21,1,4.08-2.16A41.92,41.92,0,0,1,80.24,158.47Z"/><path class="cls-1" d="M72.66,166.31c1.79.08,3.54.1,5.24.08-.14.66-.27,1.33-.37,2A25,25,0,0,1,72.66,166.31Z"/><path class="cls-1" d="M77.83,171.5v0l-.06,0Z"/><path class="cls-1" d="M77.82,171.54h0c-.06,0-.07,0,0,0Z"/><path class="cls-1" d="M77.76,171.52s0,0,0,0c-8.81,0-19.94-1.14-27.84-4.18l1.36-3.52a94.51,94.51,0,0,0,26,5.62l-.29,1.84Z"/><path class="cls-1" d="M79.86,12.89a14.53,14.53,0,0,0-2.25,3.28A75.64,75.64,0,0,1,67,18.31c-9.08,1-40.67,21.85-45.29,31.1l.05-.17,1.9-6c14-16.57,37.21-26.82,43.05-27.41A81.64,81.64,0,0,0,79.86,12.89Z"/><path class="cls-1" d="M77.53,168.39c-.06.26-.1.52-.14.79l0,.28a94.51,94.51,0,0,1-26-5.62l.44-1.15c6,2.31,13.68,3.35,20.9,3.62A25,25,0,0,0,77.53,168.39Z"/><path class="cls-2" d="M38.5,46.41c.07,3.2.61,16,4.78,23.48-.52,1.77-1,3.53-1.4,5.23-2.25-3.79-12-20.43-14.27-26.59C27.94,49.67,35.49,75.87,40,84c-.5,2.75-.85,5.12-1.09,6.9-6-5.43-10.82-8.88-12.68-9.36A22.13,22.13,0,0,1,21,72a.43.43,0,0,1,0,0,73.75,73.75,0,0,1-1.14-8.17,0,0,0,0,1,0-.05,50.57,50.57,0,0,1,1.79-14.33v0C26.28,40.16,57.87,19.35,67,18.31a75.64,75.64,0,0,0,10.66-2.14C73.5,24,72,38.61,71.53,52.64h0c-4.73,4.11-17.09,9.29-21,10.86,2.36-9.27,5-17.09,6.49-19l.59-.48c-.16,0-.36.18-.59.48-5,4.25-8.8,11.24-11.55,18.67C45.5,63.13,38.91,51.05,38.5,46.41Zm0,0c0-.45,0-.7,0-.7A3.31,3.31,0,0,0,38.5,46.37Z"/><path class="cls-2" d="M76.35,148.54l-4.08,2.16-1.21-1a35.33,35.33,0,0,1,3.28-4.83C75.07,146.11,75.74,147.35,76.35,148.54Z"/><path class="cls-1" d="M77.42,141.44a39.56,39.56,0,0,0-3.08,3.39,214.6,214.6,0,0,0-19.69-28C45,105,34.36,94,26.14,88.06c-7.37-5.31-11.29-14-11.32-25.21A53.43,53.43,0,0,1,15.14,57h0a44.42,44.42,0,0,1,4.18-8c0,1.78-.06,8.14.55,14.78a0,0,0,0,0,0,.05A33.72,33.72,0,0,0,21,72a.43.43,0,0,0,0,0c1,4.93,2.63,8.86,5.18,9.49h0A20,20,0,0,0,29.06,84a105.74,105.74,0,0,1,9.69,8.06c-.18,1.48-.26,2.33-.26,2.33a5.89,5.89,0,0,1,3.3.55A239,239,0,0,1,73.2,132.72,83.83,83.83,0,0,1,77.42,141.44Z"/><path class="cls-3" d="M84.27,63.15c-.35.3-5.72,4.86-12.72,9.85,0-1,0-2-.07-3A91.74,91.74,0,0,0,84.27,63.15Z"/><path class="cls-2" d="M71.52,52.65h0c-.18,6.11-.16,12.09,0,17.35a170.59,170.59,0,0,1-24.13,8.43c.38-2.18.81-4.41,1.28-6.63C52.62,70.22,70.92,53.21,71.52,52.65Z"/><path class="cls-3" d="M71.48,70c0,1,0,2,.07,3-8,5.7-18.14,12-25.28,12.94.26-2.39.63-4.92,1.08-7.52A170.59,170.59,0,0,0,71.48,70Z"/><path class="cls-2" d="M74.34,144.83a35.33,35.33,0,0,0-3.28,4.83c-2-1.75-6.32-5.6-11.75-10.81l.95-1v-3.93l-3.08,2.87c-3.29-3.21-6.91-6.86-10.61-10.8l.93-1.66,10.14-1.72-3-5.78h0A214.6,214.6,0,0,1,74.34,144.83Z"/><path class="cls-2" d="M71.06,149.66a33.51,33.51,0,0,0-3.69,10.09s-.11,3.49,5.29,6.56c-7.22-.27-14.91-1.31-20.9-3.62a17.19,17.19,0,0,1-5-.94c-1-1.4-2.11-3.24-3.41-5.52l10.9-12,5.05-5.37C64.74,144.06,69.06,147.91,71.06,149.66Z"/><path class="cls-2" d="M73.2,132.72A239,239,0,0,0,41.79,94.94a13,13,0,0,1,5,4.84v0a8,8,0,0,0,1.42.06C57,109,66.59,120.7,73.2,132.72Z"/><path class="cls-3" d="M60.26,133.91v3.93l-.95,1-2.13-2.07Z"/><path class="cls-3" d="M59.31,138.85l-5.05,5.37-10.9,12c-.61-1.08-1.25-2.27-1.91-3.55l11.68-12.12,4-3.78Z"/><path class="cls-3" d="M50.56,63.51c3.87-1.57,16.23-6.75,21-10.86-.6.56-18.9,17.57-22.89,19.14C49.23,69,49.88,66.19,50.56,63.51Z"/><path class="cls-3" d="M45.82,92.89c3.73.46,20.46,2.15,34-2.57-1.36.55-23,9.36-31.62,9.54-.62-.65-1.25-1.29-1.87-1.91L46,96.81A29.35,29.35,0,0,1,45.82,92.89Z"/><path class="cls-3" d="M54.63,116.82l3,5.78L47.5,124.32,46.57,126c-1-1.09-2-2.21-3.08-3.34Z"/><path class="cls-3" d="M57.64,44l-.59.48C57.28,44.16,57.48,44,57.64,44Z"/><path class="cls-2" d="M57.18,136.78l-4,3.78L41.45,152.68c-1.42-2.77-2.92-6-4.41-9.73l9.53-17C50.27,129.92,53.89,133.57,57.18,136.78Z"/><path class="cls-2" d="M54.65,116.81h0l-11.14,5.82A220.66,220.66,0,0,1,27,102.51C18.37,90.42,12.12,78,12.68,68a35.12,35.12,0,0,1,2.46-11,53.43,53.43,0,0,0-.32,5.87c0,11.19,3.95,19.9,11.32,25.21C34.36,94,45,105,54.65,116.81Z"/><path class="cls-4" d="M51.76,162.69l-.44,1.15q-2.13-.78-4.3-1.73l-.25-.36A17.19,17.19,0,0,0,51.76,162.69Z"/><path class="cls-4" d="M51.32,163.84,50,167.36c-12-1.18-23.14-13.34-23.58-13.91l2.8-2.17c.75.62,1.5,1.21,2.26,1.78A43.33,43.33,0,0,0,37.36,160s8.27,6,12,5.25A37.24,37.24,0,0,1,47,162.11Q49.19,163.06,51.32,163.84Z"/><path class="cls-3" d="M57.05,44.46c-1.47,2-4.13,9.78-6.49,19L49.38,64l-1.32,7.91a1.13,1.13,0,0,0,.57-.1c-.47,2.22-.9,4.45-1.28,6.63-1.18.32-1.85.48-1.85.48V86l.77-.09a66.63,66.63,0,0,0-.45,7l-.76-.1,1,4c0,.36.1.71.17,1-2.55-2.56-5-4.9-7.29-7,.24-1.78.59-4.15,1.09-6.9a8.24,8.24,0,0,0,1.45,2l.89-10.13-.46-.78c.41-1.7.88-3.46,1.4-5.23v0l2.19-6.69,0,0C48.25,55.7,52,48.71,57.05,44.46Z"/><path class="cls-3" d="M49.38,64l1.18-.47c-.68,2.68-1.33,5.47-1.93,8.28a1.13,1.13,0,0,1-.57.1Z"/><path class="cls-4" d="M49.38,165.24c-3.75.75-12-5.25-12-5.25a43.33,43.33,0,0,1-5.92-6.93,71.92,71.92,0,0,0,10,6.38q.47.26.93.48c1.55.8,3.1,1.52,4.63,2.19A37.24,37.24,0,0,0,49.38,165.24Z"/><path class="cls-3" d="M48.17,99.86a8,8,0,0,1-1.42-.06v0L46.3,98C46.92,98.57,47.55,99.21,48.17,99.86Z"/><path class="cls-4" d="M46.77,161.75l.25.36c-1.53-.67-3.08-1.39-4.63-2.19A31,31,0,0,0,46.77,161.75Z"/><path class="cls-2" d="M46.3,98l.44,1.83a9.53,9.53,0,0,1-.54-1.94Z"/><path class="cls-3" d="M46.57,126,37,143c-.77-1.91-1.53-3.94-2.27-6.11l8.72-14.2C44.52,123.77,45.55,124.89,46.57,126Z"/><path class="cls-3" d="M47.35,78.42c-.45,2.6-.82,5.13-1.08,7.52L45.5,86V78.9S46.17,78.74,47.35,78.42Z"/><path class="cls-3" d="M46.2,97.84a9.53,9.53,0,0,0,.54,1.94,13,13,0,0,0-5-4.84c-1-1-2-2-3-2.88,0-.35.1-.74.16-1.17C41.19,92.94,43.65,95.28,46.2,97.84Z"/><path class="cls-2" d="M46,96.81,46.3,98l-.1-.11C46.13,97.52,46.08,97.17,46,96.81Z"/><path class="cls-3" d="M46,96.81l-1-4,.76.1A29.35,29.35,0,0,0,46,96.81Z"/><path class="cls-3" d="M45.5,63.13l0,0c-.82,2.21-1.55,4.46-2.19,6.69v0c-4.17-7.51-4.71-20.28-4.78-23.48C38.91,51.05,45.5,63.13,45.5,63.13Z"/><path class="cls-3" d="M45.48,63.18l-2.19,6.69C43.93,67.64,44.66,65.39,45.48,63.18Z"/><path class="cls-3" d="M43.36,156.23c1.3,2.28,2.46,4.12,3.41,5.52a31,31,0,0,1-4.38-1.83l-.93-.48a65.8,65.8,0,0,1-10.65-7.31h0a44.51,44.51,0,0,1-5.56-12.36,5.11,5.11,0,0,0,2.36.8L24,133.91c-2.61-16.57,3-31.4,3-31.4a167.24,167.24,0,0,0,7.77,34.33l-2.29,3.72,3.85,3.66L37,143c1.49,3.73,3,7,4.41,9.73l.89,4.68Z"/><path class="cls-2" d="M43.49,122.64l-8.72,14.2A167.24,167.24,0,0,1,27,102.51,220.66,220.66,0,0,0,43.49,122.64Z"/><path class="cls-3" d="M43.36,156.23l-1,1.13-.89-4.68C42.11,154,42.75,155.15,43.36,156.23Z"/><path class="cls-4" d="M41.46,159.44l.93.48Q41.93,159.7,41.46,159.44Z"/><path class="cls-3" d="M42.34,75.9,41.45,86A8.24,8.24,0,0,1,40,84c.48-2.66,1.1-5.69,1.88-8.87Z"/><path class="cls-3" d="M41.88,75.12C41.1,78.3,40.48,81.33,40,84c-4.51-8.12-12.06-34.32-12.39-35.46C29.86,54.69,39.63,71.33,41.88,75.12Z"/><path class="cls-1" d="M41.79,94.94a5.89,5.89,0,0,0-3.3-.55s.08-.85.26-2.33C39.75,93,40.76,94,41.79,94.94Z"/><path class="cls-2" d="M38.91,90.89c-.06.43-.11.82-.16,1.17A105.74,105.74,0,0,0,29.06,84a20,20,0,0,1-2.83-2.47C28.09,82,32.88,85.46,38.91,90.89Z"/><path class="cls-3" d="M38.5,46.37a3.31,3.31,0,0,1,0-.7S38.49,45.92,38.5,46.37Z"/><path class="cls-4" d="M30.81,152.13a65.8,65.8,0,0,0,10.65,7.31,71.92,71.92,0,0,1-10-6.38C31.21,152.75,31,152.44,30.81,152.13Z"/><path class="cls-3" d="M37,143l-.71,1.27-3.85-3.66,2.29-3.72C35.51,139,36.27,141,37,143Z"/><path class="cls-4" d="M30.81,152.13c.2.31.4.62.63.93-.76-.57-1.51-1.16-2.26-1.78l.35-.27s.47.44,1.27,1.11Z"/><path class="cls-2" d="M30.8,152.12c-.8-.67-1.25-1.09-1.27-1.11a78.52,78.52,0,0,1-15-21c3.26,3.61,7.59,8,10.76,9.8A44.51,44.51,0,0,0,30.8,152.12Z"/><path class="cls-1" d="M29.53,151l-.35.27A65.44,65.44,0,0,1,9.89,124.6c.15.18,2,2.52,4.59,5.36A78.52,78.52,0,0,0,29.53,151Z"/><path class="cls-1" d="M29.18,151.28l-2.8,2.17C7.44,134.91-.83,107.39.06,90.19A84.67,84.67,0,0,1,3,71.56L4.57,72c-2.89,10-3.31,24.51,3,46q1,3.4,2.26,6.52v0h0A65.44,65.44,0,0,0,29.18,151.28Z"/><path class="cls-3" d="M24,133.91l3.63,6.65a5.11,5.11,0,0,1-2.36-.8A50.24,50.24,0,0,1,24,133.91Z"/><path class="cls-1" d="M26.23,81.53h0C23.65,80.89,22,77,21,72A22.13,22.13,0,0,0,26.23,81.53Z"/><path class="cls-3" d="M24,133.91a50.24,50.24,0,0,0,1.27,5.85c-3.17-1.77-7.5-6.19-10.76-9.8a92.74,92.74,0,0,1-3.93-9.07Z"/><path class="cls-2" d="M24,133.91l-13.42-13c-4.18-11.18-5.92-22.24-5.5-30.44.8-15.31,5-25.36,8.46-31.09.56-.94,1.11-1.79,1.65-2.56,0,.06,0,.11,0,.17h0a35.12,35.12,0,0,0-2.46,11C12.12,78,18.37,90.42,27,102.51,27,102.51,21.36,117.34,24,133.91Z"/><path class="cls-1" d="M24,42.12l-.35,1.12a55.69,55.69,0,0,0-4,5.36l-.24-.11-2.26-1.07.26-.53h0c.29-.24.48-.38.54-.42Z"/><path class="cls-1" d="M23.61,43.24l-1.9,6-.05.17v0a.83.83,0,0,0-.07.13l-2-1A55.69,55.69,0,0,1,23.61,43.24Z"/><path class="cls-1" d="M21.59,49.56a.83.83,0,0,1,.07-.13,50.57,50.57,0,0,0-1.79,14.33c-.61-6.64-.57-13-.55-14.78a4.13,4.13,0,0,1,.25-.38Z"/><path class="cls-2" d="M19.87,63.81A73.75,73.75,0,0,0,21,72,33.72,33.72,0,0,1,19.87,63.81Z"/><path class="cls-1" d="M19.57,48.6a4.13,4.13,0,0,0-.25.38c0-.32,0-.49,0-.49Z"/><path class="cls-1" d="M17.07,47.42l2.26,1.07C17.4,52.55,8.6,58,4.57,72L3,71.56c4.39-15.67,12.17-22.9,14.34-24.67Z"/><path class="cls-1" d="M19.33,48.49s0,.17,0,.49a44.42,44.42,0,0,0-4.18,8c0-.06,0-.11,0-.17-.54.77-1.09,1.62-1.65,2.56-3.42,5.73-7.66,15.78-8.46,31.09-.42,8.2,1.32,19.26,5.5,30.44L7.61,118c-6.35-21.53-5.93-36-3-46C8.6,58,17.4,52.55,19.33,48.49Z"/><path class="cls-1" d="M10.55,120.89A92.74,92.74,0,0,0,14.48,130c-2.55-2.84-4.44-5.18-4.59-5.36h0v0L7.61,118Z"/><path class="cls-1" d="M7.61,118l2.26,6.52Q8.61,121.44,7.61,118Z"/></g></g></svg>