<svg xmlns="http://www.w3.org/2000/svg" viewBox="0 0 167.56 198.16"><defs><style>.cls-1{fill:#a8d17f;}.cls-2{fill:#84b866;}.cls-3{fill:none;stroke:#d4e8c0;stroke-miterlimit:10;stroke-width:3px;}.cls-4{fill:#619146;}.cls-5{fill:#76a349;}</style></defs><g id="レイヤー_2" data-name="レイヤー 2"><g id="メロン"><path class="cls-1" d="M95.7,52.25S61.91,44,43.89,62.53,16.3,76,5,110.66,13.12,185.51,58.35,191c0,0,13.7,12.45,45.8,2.78s45.61-13.16,51.24-44.07S153.14,52.12,95.7,52.25Z"/><polygon class="cls-2" points="109.2 53.6 123.29 27.04 113.72 27.04 95.7 52.25 109.2 53.6"/><polygon class="cls-2" points="113.53 22.91 84.63 3.77 79.41 16.53 116.16 31.92 161.96 31.92 150.51 19.16 113.53 22.91"/><path class="cls-3" d="M20.2,100.63s27-12.61,35.89-8.84,37.07,12,50.58,6.76,33.79,7.71,40,6.3"/><path class="cls-3" d="M40.05,80.36s-12,44.88,16,62.7S83.42,179,83.42,179"/><path class="cls-3" d="M104.42,91.79l-9.57,50.09s22.52,25.77,17.17,32"/><path class="cls-3" d="M139.9,91.79s-17.51,46.84-27.06,50.09-39.94,41-39.94,41-16.91-24.78-12-37.41,1.88-31.29,2.44-40.48,37.17-38.68,37.17-38.68"/><path class="cls-3" d="M144.4,163.14s-37.11-2.88-44.46,5.6"/><path class="cls-3" d="M25.61,151.43s46.9-12.49,60.35-8.25"/><path class="cls-3" d="M112.84,84.3s.59,45.58,16.92,54.33"/><polygon class="cls-4" points="111.41 54.77 106.51 53.33 119.2 29.42 156.36 29.42 149.5 21.77 112.9 25.49 85.79 7.53 82.66 15.18 115.45 28.92 98.4 52.77 92.33 52.67 107.74 31.11 76.16 17.88 83.47 0 114.17 20.34 151.52 16.54 167.56 34.42 122.21 34.42 111.41 54.77"/><path class="cls-5" d="M87.1,198.16A91.84,91.84,0,0,1,58,193.55c-11.38.42-27-8.35-46.54-26C3,160-.77,147.57.13,130.7a116.14,116.14,0,0,1,5.84-30c4.46-12.4,31.91-36.42,37.37-41.11C58.92,46.19,94.48,47.85,95.7,48l-3.37,4.72c-.28,0-31.75-1.32-45.73,10.7-15.77,13.55-33,30.87-35.93,39-4.36,12.11-12.12,46.77,4.11,61.46,18.51,16.74,33.5,25.26,43.42,24.68l.54,0,.5.19c.3.11,30.37,11.19,60.42-2.29,33.59-15.07,35.93-37.69,34.76-53.4l-.19-2.67c-1.52-21.44-5-62.52-42.82-75.56l1.43-3.41c41,14.12,44.78,56,46.38,78.61l.19,2.66c2,27.35-9.95,45.88-37.7,58.33A84.12,84.12,0,0,1,87.1,198.16Z"/></g></g></svg>