<svg xmlns="http://www.w3.org/2000/svg" viewBox="0 0 196.72 167.13"><defs><style>.cls-1{fill:#ef8784;}.cls-2{fill:#b1d36c;}.cls-3{fill:#ebb682;}.cls-4{fill:none;stroke:#d3f09a;stroke-miterlimit:10;stroke-width:2px;}.cls-5{fill:#c96563;}.cls-6{fill:#8c553f;}.cls-7{fill:#bc5e5d;}.cls-8{fill:#774835;}.cls-9{fill:#87a154;}</style></defs><g id="レイヤー_2" data-name="レイヤー 2"><g id="桃"><path class="cls-1" d="M91.79,35.57S58.86,18.68,27.46,44-9,129.23,25.34,150.54,69.27,163.4,69.27,163.4s99.1,15.77,104.74-59.13S117.13,27.69,91.79,35.57Z"/><path class="cls-2" d="M102.18,14.68s53.43-27.28,75.58,0,12.76,56.56,15.77,61.44c0,0-37.17-39-41.3-52.9S102.18,14.68,102.18,14.68Z"/><path class="cls-3" d="M52.75,47.21S32.48,48,25,63s-1.13,33.11,1.12,34.58,7.14-36.46,18-40.21S56.13,48.71,52.75,47.21Z"/><path class="cls-3" d="M24.59,109.15s-6.76,7.51,0,12,9.76-5.63,8.64-7.89S30.22,108.78,24.59,109.15Z"/><path class="cls-4" d="M131.58,9.13s39-10.72,54.06,44.84"/><path class="cls-4" d="M181.89,25.81s-11.14-3.11-14.64-6.11,0,16.62,0,16.62"/><path class="cls-4" d="M185.64,42.33s-.78-5.87-11.28-11.19c-3.41-1.74,1.9,14.19,1.9,14.19"/><path class="cls-5" d="M82.78,54S26.47,109.91,69.27,163.4c0,0-27-25.9-27.6-37.16S36.6,65,82.78,54Z"/><path class="cls-5" d="M88.26,38.61s-27.91.45-15.77,5.85,30.15,1.44,33.53,0S97.53,40.32,88.26,38.61Z"/><path class="cls-6" d="M85,42.52s1.37-28,21.58-39.61h5.45S91.39,23.19,90.48,42.52A4.24,4.24,0,0,1,85,42.52Z"/><path class="cls-7" d="M60.09,167.13c-24.28,0-50.55-21.8-54.55-35.42l-.23-.79C1.39,117.61-9,82.25,17.66,50.12,44.77,17.46,84.72,30.25,85.12,30.39l-1.57,4.74c-1.51-.49-37.15-11.8-62,18.18S6,115.71,10.11,129.5l.23.81C13.84,142.23,43.78,168,68.59,161l11.52,2.4C76.9,164.31,63.43,167.13,60.09,167.13Z"/><path class="cls-7" d="M98.38,167c-14.47,0-23.67-.78-33.28-6.47L58.29,152c12.46,7.39,37.32,11.85,56.79,8.55,21-3.55,37.93-13.12,46.45-26.26,18.27-28.18,9.13-70.93-10.93-88.9-18.77-16.81-56.48-6.88-56.84-6.77l.16-4.69c1.59-.45,39.18-10.93,60,7.74C175.47,61,185.31,106.8,165.72,137c-9.28,14.31-27.44,24.69-49.81,28.47A104.59,104.59,0,0,1,98.38,167Z"/><path class="cls-8" d="M87.48,45.44a8.28,8.28,0,0,1-3.56-.68L82.39,44l.15-1.7C85.26,11.44,104.64,1.11,105.47.69L106,.41h16.18l-9,4.72c-5.29,2.78-10.47,10.14-15,21.27a124.44,124.44,0,0,0-5.35,16.68l-.34,1.47-1.46.39A14.36,14.36,0,0,1,87.48,45.44Zm12.91-34.23c-.59.65-3.48.66-4.09,1.42-4.1,5-8.66,14.48-10.28,27.82.2,0,3.77,0,4,0C91.23,35.71,93.58,21.65,100.39,11.21Z"/><path class="cls-9" d="M195.11,81.54l-3.42-3.73C190.06,76,151.93,34.38,148,20.86c-1.21-4.15-8.64-6.59-20.94-6.89-10.14-.24-17.51.33-17.61.35l-7.28.91,8.69-5.91C112.11,8.69,136.13-5,162.64,2c12.15,3.19,22.26,14.85,28.47,32.84C196,48.86,197.92,65.64,196,76.55ZM124.29,8.91c12.06,0,26,1.94,28.52,10.55,2.69,9.27,26.23,36.81,38.81,50.83.86-19.86-8-57.66-30.25-63.49-13.17-3.45-27.46-1-38,2.11Z"/></g></g></svg>