<svg xmlns="http://www.w3.org/2000/svg" viewBox="0 0 236.47 220.17"><defs><style>.cls-1{fill:#f4f9ef;}.cls-2{fill:#74b45c;}.cls-10,.cls-11,.cls-12,.cls-13,.cls-14,.cls-3,.cls-4,.cls-6,.cls-7,.cls-8{fill:none;}.cls-3,.cls-4{stroke:#ccc4ab;}.cls-10,.cls-11,.cls-12,.cls-13,.cls-14,.cls-3,.cls-4,.cls-5,.cls-6,.cls-7,.cls-8{stroke-miterlimit:10;}.cls-3{stroke-width:5px;}.cls-4{stroke-width:3px;}.cls-5{fill:#eee9b5;stroke-width:5.97px;}.cls-5,.cls-6{stroke:#74b45c;}.cls-6{stroke-width:2px;}.cls-11,.cls-13,.cls-7{stroke:#e8e2dc;}.cls-10,.cls-11,.cls-12,.cls-13,.cls-14,.cls-7,.cls-8{stroke-linecap:round;}.cls-10,.cls-7,.cls-8{stroke-width:4px;}.cls-8{stroke:#fff;}.cls-9{fill:#e8e0c2;}.cls-10,.cls-12,.cls-14{stroke:#fffef3;}.cls-11,.cls-12{stroke-width:2.88px;}.cls-13,.cls-14{stroke-width:3.71px;}</style></defs><g id="レイヤー_2" data-name="レイヤー 2"><g id="レイヤー_9" data-name="レイヤー 9"><path class="cls-1" d="M60,32.41V40S39.43,78.43,37.48,85.14s-18.36,89.48-18.36,89.48L82.29,185l107.86,10.54s13.15-21,16.21-26.08,13.83-23.54,15.83-35.93S228.7,60,228.7,60l-1.87-12.77L75.53,23.89Z"/></g><g id="レイヤー_8" data-name="レイヤー 8"><path class="cls-2" d="M223.35,53.27l9.38-21.77s-55.33-.38-66.71,0-37.59-10.41-43-10.93-39.82-6-45.94-10.85S68.5,12.4,68.5,12.4L62.3,31.68l36.86,7.7s49.11-.37,62.62,7.88S223.35,53.27,223.35,53.27Z"/><path class="cls-2" d="M191.7,197.05l-5.14,20.08S142.63,206.29,128,209s-72.45-20.91-72.45-20.91-37.63,2.22-45.28,4.84l8.86-21.39s50.31-4.21,60.45,4.27,58.06,12.41,58.06,12.41S186.71,189.17,191.7,197.05Z"/><path class="cls-3" d="M232.73,31.5s-43.92-1.88-62.69,0S141.51,20.23,113,19.86s-42-15-42-15L62.3,31.68s30,8.45,39.79,7.7,53.31,3,59.69,7.88,58.19,8.26,61.57,6Z"/><path class="cls-3" d="M62.3,36.75S49.53,67.16,42,75.8s-12,45.87-13.9,57.28-9,38.45-9,38.45,42.8-4.88,55.19,1.87,53.68,16.52,59.69,15,58.57,5.26,58.57,5.26,8.25-70.21,12-83.35c3.16-11,14.28-43.88,17.74-54l1-3"/><path class="cls-3" d="M19.12,171.53s-9,19.14-11.63,22.15c0,0,41.67-12,54.81-3s55.56,20.65,68,18,56.31,8.44,56.31,8.44l6-23.45c-.76-7.14,25.9-33,30.78-66.23S226.55,60,226.55,60"/><line class="cls-4" x1="82.19" y1="18.36" x2="79.57" y2="29.41"/><line class="cls-4" x1="94.21" y1="23.89" x2="90.45" y2="29.41"/><line class="cls-4" x1="105.85" y1="23.89" x2="105.85" y2="32.25"/><line class="cls-4" x1="121.24" y1="23.89" x2="119.36" y2="34.13"/><line class="cls-4" x1="137.63" y1="28.07" x2="135" y2="36.75"/><line class="cls-4" x1="152.02" y1="34.13" x2="152.02" y2="39.38"/><path class="cls-4" d="M218.47,36.75s-2.25,7.51-3,10.51"/><path class="cls-4" d="M202.21,37.62A79.23,79.23,0,0,0,200,45.39"/><path class="cls-4" d="M187.07,37.62s-3,5.52-3,7.77"/><line class="cls-4" x1="171.39" y1="36.87" x2="169.13" y2="43.14"/><line class="cls-4" x1="27.76" y1="176.03" x2="24.01" y2="183.54"/><line class="cls-4" x1="40.9" y1="176.03" x2="38.27" y2="179.79"/><line class="cls-4" x1="58.17" y1="176.03" x2="55.54" y2="179.79"/><path class="cls-4" d="M72.43,179.79s-3.38,5.25-3.38,7.5"/><line class="cls-4" x1="86.32" y1="183.54" x2="84.07" y2="191.05"/><line class="cls-4" x1="103.59" y1="189.17" x2="101.34" y2="196.68"/><path class="cls-5" d="M103.61,124.51s-38.55-3.58-39.89-16.58,0-33.61,43.47-21.87c38.51,10.41,46.16,0,57.37,6.18C171,95.76,190.2,125.37,153.35,129,135,130.8,135.87,129,103.61,124.51Z"/><path class="cls-6" d="M71.94,106.13S66.68,87.06,90.33,90.44,133.5,102,152.65,98.08,169.92,125,150,120.85,91.08,121.07,71.94,106.13Z"/><path class="cls-2" d="M84.85,98.17a9.8,9.8,0,0,0,2.24,1.4c.2-.5.59-1.42.81-1.93a20.79,20.79,0,0,1-1.85-1l-.43-.27.58-1.53a11.16,11.16,0,0,0,2.32,1.39,17.52,17.52,0,0,0,.94-2.29,1,1,0,0,0,0-.15l1.76.82a12.71,12.71,0,0,0-1.12,2.28,13.38,13.38,0,0,0,3.19.8l-.53,1.67-.56-.14c-1-.26-1.45-.39-1.94-.56l-.84-.32-.83,1.94.67.25a11.26,11.26,0,0,0,2.68.64l-.51,1.64a1.84,1.84,0,0,0-.42-.1,19.31,19.31,0,0,1-2.08-.6c-.22-.08-.34-.12-.86-.34-.15.37-.28.74-.36,1a2,2,0,0,0,.09,1.66,2.68,2.68,0,0,0,1.54,1.13c1.73.62,2.95.17,3.34-1.24a3.75,3.75,0,0,0-.54-2.87,5,5,0,0,0,1.79.24,7.34,7.34,0,0,1,.39,1.14,5,5,0,0,1,0,2.32,3.31,3.31,0,0,1-2.06,2.22,4.8,4.8,0,0,1-3.34-.14c-2.48-.89-3.47-2.62-2.82-4.94a10,10,0,0,1,.41-1.19c-.78-.41-1.29-.69-1.8-1a2.28,2.28,0,0,0-.49-.27Z"/><path class="cls-2" d="M114.89,102.47l1.34-.34c0-.29,0-.29-.08-.81a7.31,7.31,0,0,0-.25-1.77l2-.09a17.13,17.13,0,0,0,.12,2.37c.38,0,.6-.07.93-.09,2.27-.1,3.86,1,4,2.84a3.12,3.12,0,0,1-1.09,2.63,4.63,4.63,0,0,1-2.91,1,8.44,8.44,0,0,1-2.53-.3,5.75,5.75,0,0,0-.44-1.8,6.74,6.74,0,0,0,2.63.45,3.38,3.38,0,0,0,1.78-.56,1.45,1.45,0,0,0,.55-1.29c-.08-.93-.91-1.44-2.26-1.38a17.12,17.12,0,0,0-4.75,1.13c1.26,3.16,1.36,3.44,2.63,7.09a4.34,4.34,0,0,0,.3.7l-2.09.54A53.43,53.43,0,0,0,112.2,105a6.45,6.45,0,0,1-.78.3,18.72,18.72,0,0,0-2,.85l-.77-1.7a10.53,10.53,0,0,0,1.43-.45c.64-.24.77-.27,1.52-.53a15.5,15.5,0,0,0-1.32-2.7l2-.61a8.85,8.85,0,0,0,.7,1.72c.16.36.24.55.43,1Z"/><path class="cls-2" d="M143.26,103a15.39,15.39,0,0,0-.36,2c-.19,1.37-.57,4.38-.67,5.43a4.58,4.58,0,0,0,.13,2.46,2.37,2.37,0,0,0,1.8,1.09,3.32,3.32,0,0,0,3.61-2,9.48,9.48,0,0,0,.89-2.39,6.75,6.75,0,0,0,1.57,1.44,8.72,8.72,0,0,1-2,3.51,4.83,4.83,0,0,1-4.37,1.16,4.57,4.57,0,0,1-2.37-1.07c-.9-.85-1.19-2.06-1-4.06.07-.77.25-2.25.69-6,.06-.45.09-.76.11-1a7.07,7.07,0,0,0,0-1Z"/></g><g id="レイヤー_10" data-name="レイヤー 10"><path class="cls-7" d="M45.77,127s6.95,24.78,16.53,28.72"/><path class="cls-7" d="M185.57,136.05s-2.5,25.34-14.18,32.1"/><path class="cls-7" d="M114.48,141.4s-3.84,14.92,2.68,21.68"/><path class="cls-8" d="M58.17,129.68s-13.16,14-12.4,22.56"/><path class="cls-7" d="M71.44,54s.2,17.87,4.26,21.53"/><path class="cls-7" d="M132.12,57.78s-11.91,9-15,17.73"/><path class="cls-7" d="M162.1,60S177,73,178.48,82.57"/><path class="cls-7" d="M191.7,93.74s-6.94,13.16-7.64,22.1"/><path class="cls-7" d="M152,147.17s1.88,15.91-4.5,21"/><path class="cls-7" d="M79.57,64.53s-20.09,14.08-24,22"/><ellipse class="cls-9" cx="84.23" cy="61.72" rx="4.56" ry="2.87" transform="matrix(0.87, -0.5, 0.5, 0.87, -19.57, 50.38)"/><path class="cls-7" d="M111.93,58.1S123.62,79.67,131,84.48"/><ellipse class="cls-9" cx="109.66" cy="53.15" rx="2.87" ry="4.56" transform="translate(-12.09 47.98) rotate(-23.43)"/><ellipse class="cls-9" cx="136.31" cy="54.52" rx="4.56" ry="2.87" transform="translate(-9 75.46) rotate(-30)"/><ellipse class="cls-9" cx="179.73" cy="88.37" rx="2.87" ry="4.56" transform="translate(-10.72 26.41) rotate(-8.16)"/><ellipse class="cls-9" cx="194.69" cy="88.37" rx="4.56" ry="2.87" transform="translate(30.07 224.81) rotate(-64.07)"/><path class="cls-7" d="M155.39,63.21s-13.29,6.69-19,13.57"/><ellipse class="cls-9" cx="160.94" cy="60.57" rx="4.56" ry="2.87" transform="translate(-9.36 84.43) rotate(-28.6)"/><ellipse class="cls-9" cx="186.32" cy="129.68" rx="4.56" ry="2.87" transform="translate(28.71 293.06) rotate(-80.87)"/><ellipse class="cls-9" cx="144.11" cy="171.47" rx="4.56" ry="2.87" transform="translate(-79.84 167.54) rotate(-48.95)"/><path class="cls-7" d="M165.64,55.91s1.88,15.91-4.5,21"/><ellipse class="cls-9" cx="157.73" cy="80.21" rx="4.56" ry="2.87" transform="translate(-6.34 146.49) rotate(-48.95)"/><ellipse class="cls-9" cx="115.26" cy="135.54" rx="4.56" ry="2.87" transform="translate(-36.86 227.82) rotate(-80.87)"/><path class="cls-10" d="M105.85,147.17s19,8,26.27,8.59"/><ellipse class="cls-9" cx="136.31" cy="156.74" rx="2.87" ry="4.56" transform="translate(-61.09 221.39) rotate(-67.12)"/><path class="cls-10" d="M154.85,66.36s19,8,26.28,8.59"/><ellipse class="cls-9" cx="185.32" cy="75.94" rx="2.87" ry="4.56" transform="translate(43.31 217.15) rotate(-67.12)"/><path class="cls-7" d="M82.19,138.58s-7.5,11-6.38,17.18"/><ellipse class="cls-9" cx="85.57" cy="133.89" rx="4.56" ry="2.87" transform="matrix(0.5, -0.87, 0.87, 0.5, -73.17, 141.05)"/><path class="cls-7" d="M124.52,154.29s-7.51,11-6.39,17.18"/><ellipse class="cls-9" cx="127.89" cy="149.6" rx="4.56" ry="2.87" transform="matrix(0.5, -0.87, 0.87, 0.5, -65.61, 185.55)"/><path class="cls-7" d="M147.39,65.88s-7.51,11-6.38,17.18"/><ellipse class="cls-9" cx="150.76" cy="61.19" rx="4.56" ry="2.87" transform="matrix(0.5, -0.87, 0.87, 0.5, 22.39, 161.16)"/><path class="cls-11" d="M40.32,95.6s-2.77,10.75,1.93,15.62"/><ellipse class="cls-9" cx="40.88" cy="91.39" rx="3.29" ry="2.06" transform="translate(-55.84 117.24) rotate(-80.87)"/><path class="cls-12" d="M40.1,103.81s10.46,10.51,15.19,12.87"/><ellipse class="cls-9" cx="57.82" cy="118.47" rx="2.06" ry="3.29" transform="translate(-66.81 75.49) rotate(-44.96)"/><path class="cls-11" d="M47.55,104.89s-5.41,7.91-4.6,12.37"/><ellipse class="cls-9" cx="49.98" cy="101.51" rx="3.29" ry="2.06" transform="translate(-62.92 94.04) rotate(-60)"/><path class="cls-13" d="M104.18,70s1.3-14.25-5.68-19.47"/><ellipse class="cls-9" cx="104.34" cy="75.51" rx="2.66" ry="4.24" transform="translate(-0.12 0.17) rotate(-0.09)"/><path class="cls-14" d="M111.23,63.45s-18.57-4.53-25.36-4"/><ellipse class="cls-9" cx="81.88" cy="59.21" rx="2.66" ry="4.24" transform="translate(5.02 124.81) rotate(-76.35)"/><path class="cls-13" d="M93.06,62.71S98.31,51.52,96.35,46"/><ellipse class="cls-9" cx="90.67" cy="67.51" rx="4.24" ry="2.66" transform="translate(-4.61 128.34) rotate(-69.23)"/><ellipse class="cls-9" cx="45.27" cy="157.66" rx="2.87" ry="4.56"/><ellipse class="cls-9" cx="44.77" cy="121.47" rx="2.87" ry="4.56" transform="translate(-23.61 11.54) rotate(-11.65)"/><path class="cls-7" d="M77,137.9S94.24,157,104.57,156.32"/><path class="cls-8" d="M89.32,134.78s-5.61,18.35-1.13,25.71"/><ellipse class="cls-9" cx="90.15" cy="165.57" rx="2.87" ry="4.56" transform="translate(-64.01 57.06) rotate(-26.29)"/><ellipse class="cls-9" cx="73.67" cy="133.35" rx="2.87" ry="4.56" transform="translate(-66.42 73.48) rotate(-37.94)"/><ellipse class="cls-9" cx="71.44" cy="49.95" rx="2.87" ry="4.56"/><path class="cls-7" d="M172.08,143.79s-12.42,12.85-12.11,18.3"/><path class="cls-7" d="M170.45,157s-24.18-4.11-32.53-1.28"/><ellipse class="cls-9" cx="175.74" cy="158.28" rx="2.87" ry="4.56" transform="translate(-21.91 288.18) rotate(-75.32)"/><ellipse class="cls-9" cx="174.92" cy="140.92" rx="4.56" ry="2.87" transform="translate(-48.28 166.21) rotate(-45.32)"/></g></g></svg>