<svg xmlns="http://www.w3.org/2000/svg" viewBox="0 0 237.01 295.09"><defs><style>.cls-1{fill:#417728;}.cls-2{fill:#68a34d;}.cls-3{fill:#274718;}.cls-4{fill:#55853f;}</style></defs><g id="レイヤー_2" data-name="レイヤー 2"><g id="モロヘイヤ"><path class="cls-1" d="M120.94,196.69S105.3,209.22,84.79,209l8.06-8.33s-27.1,11.75-46.7-17.62c0,0,6.46-.27,6.74-3.74,0,0-24.86-11-30.42-30a13.27,13.27,0,0,0,8-1.52s-7.12-3.89-11-10l3.79-2.11S13,125.36,12.76,118.9c0,0,3.6,3.51,6.55,1.87,0,0-15.35-21.72-13-39.32l7.21,5s-4.45-3-6.64-14-4-9.9-4-9.9,9-2.4,21.24,5.7l-4-5.86s11.69.21,13.24,4c0,0,4.37-6,2.26-9.83,0,0,7.58,5.72,12,7.68S68.94,75.1,70.94,81.69a16.25,16.25,0,0,0-1.61-10.85S82.21,78.17,85.48,89l2.44-8.52s12.8,13.83,11.78,17.94,3.38-6.5,2-9c0,0,24.44,27.17,22.43,40.44,0,0,5.45-4.09,5.12-6.67s16.64,36,3.81,48.6l10.21-8.42S142.58,178.07,120.94,196.69Z"/><path class="cls-2" d="M26.66,93.18l47.63,44.57,8.41,7.88,38.24,51.06s59.22,68,38.49,97.7l16.28-22.81s-34.88-63.88-58.88-90.25L87.76,142.82Z"/><polyline class="cls-2" points="110.56 182.82 80.37 191.08 52.73 185 80.79 187.35 107.8 178.62"/><polyline class="cls-2" points="116.83 181.33 128.62 157.86 129.7 131.99 124.36 157.13 112.45 176.23"/><polyline class="cls-2" points="105.6 166.46 115.84 139.79 107.66 108.15 110.26 140.33 101.5 166.5 70.81 171.22 34.78 159.6 71.29 174.71 102.65 172.26"/><polyline class="cls-2" points="89.28 154.41 59.33 153.14 29.33 142.82 61.42 150.33 85.9 149.9"/><polyline class="cls-2" points="93.83 152.67 96.41 132.58 89.92 102 93.11 132.94 90.07 145.88"/><polygon class="cls-2" points="72.7 133.23 55.77 135.83 28.67 132.68 51.62 139.23 74.29 137.75 78.77 110.71 70.94 81.69 76.44 111.32 72.7 133.23"/><polygon class="cls-2" points="56.25 118.8 42.14 117.67 20.21 106.5 36.96 119.8 58.12 122.17 61.39 105.7 51.63 80.66 59.31 107.04 56.25 118.8"/><path class="cls-3" d="M115.23,203a65.36,65.36,0,0,1-30.4,8.14l-5.18.09L86,204.69c-10.15,1.63-28.27.82-41.67-20.48l-1.67-2.67,3.09-.58a21.33,21.33,0,0,0,3.69-1c-6.77-3.73-24.95-15-29-30l-.6-2.22,6-1.16-10.08-9.1L20,135.06c-3.3-4.33-9.09-12.39-9.35-16l-.21-3L15,117.31c-1.72-3.24-4.07-7.88-6.2-12.73-7.53-17.13-6-22.16-4.15-24.46l1.25-1.58,1.8,1.26L4.86,73.22C3.75,69.87,1,62.28,0,61.46H0a3.21,3.21,0,0,1,1.81-.16A63.36,63.36,0,0,1,17.44,63l-1.26-1.78,3.51-.46c1-.13,8.27-1,13,2.25a27.8,27.8,0,0,0,1.69-4.45l2.27-3.74h0c2.72,1.69,22.84,14.23,31.95,21.69A11.77,11.77,0,0,0,67.54,72l-.86-5.83,3.93,2.95c1.24.93,9.87,7.52,14.36,13.92l2.14-7.48,2.57,3.73a139.07,139.07,0,0,1,8.87,14.24l2.57-7,2.38,2.66c3.9,4.36,20.48,23.43,23,35.39l4.23-4.13,1.18,3c.47,1.19,9.78,25,6.77,41l6.84-5.64-1,5.74c-.14.82-3.75,20.09-17.43,29.51l-2.43-3.52c7.62-5.25,13.73-17.13,15.82-23.23l-10.14,7.55,3-7.27c4.54-12.18-.47-28.69-4.27-39.48l-6.54,4.83,1.18-4.4c1.24-5.37-10.6-21.59-21-33.74l-4.3,6.63h0c-.08-1.58-5.65-9.71-9.67-15.83L84.84,99l-1.47-9.67c-.49-3.22-5.57-8.56-10.43-12.82a43.39,43.39,0,0,1,.13,5.23l-.25,6.66-3.67-5.56C67,79.67,50.2,68.41,38,60.7a21.66,21.66,0,0,1-2.89,6.94l-1.7,2.65-1.84-2.55c-1.46-2-4.77-2.69-7.54-2.84l1.27,4h0c-3.1-1.79-12.38-2.87-19-3.26a38.56,38.56,0,0,1,2.58,6.09L17.61,92,7.39,84.81c-.34,6.15,6.31,21.83,13.78,34.9l2.61,4.57-7.42-2.12a113,113,0,0,0,8.51,12.24l1.56,2-3.38,1.88,12,10.85L25.27,151c5.89,15.21,28.32,26.31,28.56,26.42l.82.4.28.87a3.25,3.25,0,0,1-.33,2.68c-.87,1.47-3,2.45-5,3.06C67,209.14,91,199.18,92,198.73l6.3-1.79-8.13,9.6a59.06,59.06,0,0,0,29.39-11.49l2.77,3.27A47,47,0,0,1,115.23,203Z"/><path class="cls-4" d="M160.81,295.09l-2.59-2c13.86-28.86-37.62-92.42-38.13-93l2.24-1.68c.13.15,15.39,15.92,26.54,35.29,11.93,20.72,17.27,37.51,16,50.09l8.85-12.23C169,263.22,134.65,201,127,194l2.55-2c8.52,7.9,46,75.94,47.61,78.71l.55,1Z"/><path class="cls-1" d="M166.26,190s-20.86-3.09-35.38-19l12.19.25s-28.46-12.48-19.84-48.61c0,0,4.84,4.79,7.71,2.52,0,0-9.28-27.05,1.36-44.91a13.92,13.92,0,0,0,6.88,5.05S137.08,77,139,69.6L143.31,71s.72-15.25,5.5-20.08c0,0-.13,5.29,3.24,6.39,0,0,5.76-27.38,21-38.16l1.26,9.18s-.83-5.61,6-15.1,4.74-10.2,4.74-10.2,8.27,5.21,10.81,20.45l1.62-7.3s8.21,9.16,6.4,13.06c0,0,7.78-1,9.2-5.29,0,0,1,9.93,2.65,14.73s7,24.21,3.37,30.46a17.08,17.08,0,0,0,7.21-9s3.57,15.18-2.47,25.47l8.32-4.21s-1.5,19.76-5.41,21.91,7.44-2,8.39-4.94c0,0-3.46,38.3-15.13,46.24,0,0,7.06,1.26,8.81-.83S213,182.37,194.11,181.51l13.8,1.85S196.1,193.36,166.26,190Z"/><path class="cls-2" d="M178.58,43.25l-.28,68.62,0,12.11-12,66s-10.06,94.33-47.78,99.59l29.24-3.77s24.28-72.6,27.44-110l8.88-50Z"/><polyline class="cls-2" points="169.52 172.08 141.55 154.72 126.45 129.06 144.72 152.37 170.78 166.94"/><polyline class="cls-2" points="175.16 175.84 201.69 168.14 222.4 150.46 199.2 164.33 175.95 168.81"/><polyline class="cls-2" points="178.59 156.54 206.47 145.36 225.01 116.41 202.06 141.44 175.62 153.41 150.02 133.13 133.19 97.04 147.67 136 172 158.42"/><polyline class="cls-2" points="176.19 135.34 155.74 111.35 142.23 80.83 159.41 110.95 177.25 129.51"/><polyline class="cls-2" points="180.79 137.6 198.12 125.21 217.05 98.33 195.49 122.93 183.33 129.85"/><polygon class="cls-2" points="180.66 107.41 166.54 96.21 149.57 73.07 160.94 95.45 178.31 111.86 202.36 95.97 219.13 69.16 200.23 94.61 180.66 107.41"/><polygon class="cls-2" points="180 84.39 170.78 72.71 163.7 47.81 165.43 70.25 178.75 88.24 193.78 78.99 206.1 53.54 191.26 78.34 180 84.39"/><path class="cls-3" d="M157.29,190.13a68.69,68.69,0,0,1-28-17.61l-3.78-3.92,9.6.2c-8.52-6.66-20.86-21.22-14-46.79l.85-3.19,2.66,2a23.39,23.39,0,0,0,3.44,2.1C126,115,121.69,93,130.39,79L131.67,77l5.2,3.81-.19-14.29,4.83,1.59c1-5.65,3-15.88,5.66-18.67l2.19-2.35,2.27,4.47c1.27-3.64,3.16-8.77,5.38-13.89,7.81-18.05,12.81-20.46,15.88-20.7l2.12-.17.32,2.29,3-6.89C180.16,8.91,184,1.34,184,0c-.05-.06.06.05,0,0h0a3.38,3.38,0,0,1,1.42,1.28,66.54,66.54,0,0,1,9.85,13.25l.47-2.24,2.87,2.37c.78.65,6.67,5.69,7.59,11.66a29.35,29.35,0,0,0,4.64-1.88l4.51-.93h0c.64,3.3,5.37,27.79,6.14,40.15a12.53,12.53,0,0,0,2.7-4.07L228,54.78l.54,5.15c.17,1.62,1.26,13-.46,21l7.3-3.69-1,4.64a150.49,150.49,0,0,1-4.63,17L237,95.87l-.34,3.74c-.57,6.13-3.41,32.56-10.83,43.05l6.2.3L230.59,146c-.58,1.21-12.23,25.39-26.73,34.52l9.24,1.24-5.17,3.31c-.73.47-18.17,11.48-35.22,7.68l1-4.4c9.49,2.12,23-1.66,29.22-4.42l-13.08-2.42,7.79-2.86c12.64-5.21,21.78-20.89,27.38-31.54l-8.4-1.59,4.23-2.23c5-2.89,9-23.63,11-40.35l-8.18,1.43h0c1.16-1.2,3.44-11.31,5.28-18.78l-13.18,6.68,6.4-8.06c2.13-2.68,2.62-10.41,2.42-17.2a47.74,47.74,0,0,1-3.94,3.84l-5.31,4.57,1.66-6.81c1-3.92-2.41-25-5.21-39.89a22.62,22.62,0,0,1-7.42,2.74l-3.25.59.64-3.25c.51-2.56-1.34-5.59-3.21-7.84l-2.21,3.88h0c-.84-3.67-6.64-11.6-11.07-17a39.41,39.41,0,0,1-2.85,6.35L173,35.41l-1.8-13c-5,4.14-12.31,20.48-17,35.6l-1.65,5.28-3.67-7.24a115.42,115.42,0,0,0-3.35,15.32L145.12,74l-3.86-1.26.23,17L133,83.54c-7.52,15.43,0,40.66.07,40.92l.27.92-.47.84a3.4,3.4,0,0,1-2.29,1.67c-1.76.37-4.05-.58-5.94-1.66-6.6,31.13,18.21,42.44,19.3,42.92l5.89,3.58-13.21.6a62.17,62.17,0,0,0,29.88,14.44l-.54,4.47A48.75,48.75,0,0,1,157.29,190.13Z"/><path class="cls-4" d="M118.93,291.16l-.28-3.47c32.17-10,44.33-95.13,44.44-96l2.9.52c0,.21-1.26,23.26-8.21,45.72-7.44,24-16.56,40.15-27.19,48.14l15.76-1.93c3-9.53,26.37-80.49,26.36-91.4l3.33.56c0,12.22-25.6,89.83-26.61,93l-.34,1.11Z"/></g></g></svg>