<svg xmlns="http://www.w3.org/2000/svg" viewBox="0 0 172.05 128.9"><defs><style>.cls-1{fill:#a4a6a0;}.cls-2{fill:#b9c9bc;}.cls-3{fill:#77b82a;}.cls-4{fill:#5d941e;}.cls-5{fill:#9ade4b;}.cls-6{fill:#507d1d;}.cls-7{fill:#a1afa5;}</style></defs><g id="レイヤー_2" data-name="レイヤー 2"><g id="レイヤー_10" data-name="レイヤー 10"><path class="cls-1" d="M7,78.08c.1,1.19,31.82-56.42,157.89-41h0S122.71,119,7,82.69"/></g><g id="レイヤー_9" data-name="レイヤー 9"><path class="cls-2" d="M6.62,82.46l-3.48-2c.38-.68,9.6-16.79,34.33-30.53,41-22.79,92.11-20.65,127.72-14.85l-.64,4c-34.89-5.69-84.87-7.83-124.87,14.25C15.82,66.5,6.71,82.3,6.62,82.46Z"/></g><g id="レイヤー_7" data-name="レイヤー 7"><path class="cls-3" d="M65,9S53.46,23.77,53.45,37.48c0,0-25.17,7.08-17.33,26.61,0,0-12.39,8.43-8,19.92,0,0-4.51,4.31-2.13,17s39.26-18,38-60C63.93,41,57.68,25.24,65,9Z"/><path class="cls-4" d="M53.75,44.48S50.27,59.06,43.78,63C43.78,63,58.79,60.88,53.75,44.48Z"/><path class="cls-4" d="M43.53,67.23A19.05,19.05,0,0,1,35,82.9S48.85,81.48,43.53,67.23Z"/><path class="cls-4" d="M34.61,87.81s-.81,7.41-4.07,11.87C30.54,99.68,37.6,96.35,34.61,87.81Z"/><path class="cls-5" d="M43.14,44s-7,4.34-6,11.26S49.46,49.28,43.14,44Z"/><path class="cls-5" d="M29.76,86s-4.84,5.19-2.41,10.68S36.2,89,29.76,86Z"/><path class="cls-5" d="M36.89,65.64s-7,4.33-6,11.25S43.2,71,36.89,65.64Z"/><path class="cls-6" d="M31.64,105.49c-2.54.89-4.56.69-6.11-.59-4.6-3.78-1.45-15.31,1.71-21.15-1-3-3.3-12.93,6.82-21.66A17.33,17.33,0,0,1,34.54,50C37,44.2,42.69,39.7,51.42,36.61c1.4-4.93,6.12-19.33,13-27.17l5.44-6.21-2.5,7.86c0,.17-3.14,7.91-2.78,22.28.7,28.78-7.07,51.28-22.47,65.07C37.94,102.16,34.47,104.5,31.64,105.49ZM52.75,39.8c-7.86,2.74-12.91,6.61-15,11.51a14.09,14.09,0,0,0-.07,10.59l.57,1.23L37.17,64c-11.06,8.78-6.66,18.78-6.47,19.2l.38.82-.46.78c-3.55,6-5.16,15.61-2.9,17.46,1.25,1,5.08-.1,12.07-6.37,14.63-13.1,22-34.68,21.32-62.42a70.14,70.14,0,0,1,2-20.1,224.26,224.26,0,0,0-8.65,25l-.25.89-.87.29Z"/><path class="cls-3" d="M109.18,4.59S92.88,16.69,89,30.85c0,0-28.42.34-25.7,22.69,0,0-15.38,5.27-14,18.36,0,0-6,3.2-7,17S88.5,81.12,99,37.41C99,37.41,96.89,19.37,109.18,4.59Z"/><path class="cls-4" d="M87.33,38.17s-7.76,14.09-15.7,16.4C71.63,54.57,88,56.51,87.33,38.17Z"/><path class="cls-4" d="M70.19,58.84A20.47,20.47,0,0,1,56.77,72.65S71.75,75,70.19,58.84Z"/><path class="cls-4" d="M55,77.63s-2.94,7.43-7.63,11.14C47.39,88.77,55.74,87.28,55,77.63Z"/><path class="cls-5" d="M76.35,34.68s-8.61,2.53-9.47,10S81.47,41.94,76.35,34.68Z"/><path class="cls-5" d="M50.45,74.4s-6.55,4-5.55,10.36S56.36,79.26,50.45,74.4Z"/><path class="cls-5" d="M63.67,55.35s-8.61,2.53-9.47,10S68.79,62.61,63.67,55.35Z"/><path class="cls-6" d="M46.91,95.08c-2.91.21-5-.56-6.25-2.3-3.75-5.18,2.81-16.24,7.78-21.38-.22-3.35.18-14.29,13.26-20.5a18.39,18.39,0,0,1,3.92-12.35c4.23-5.31,11.46-8.39,21.49-9.16C90,24.68,99,11.11,108.4,4.91L115.86,0,111,7.44c-.1.15-5.52,7.29-9.21,22.24-7.39,29.93-21.89,51-41.94,61C54.46,93.38,50.16,94.84,46.91,95.08Zm40.7-62c-9,.66-15.42,3.26-19,7.73A14.87,14.87,0,0,0,65.54,51.7l.25,1.44-1.35.58c-14.09,6-12.3,17.55-12.21,18l.16,1-.7.68c-5.42,5.19-9.82,14.69-8,17.23,1,1.41,5.36,1.3,14.47-3.23,19.05-9.48,32.87-29.74,40-58.59,1.77-7.17,4.29-14.36,7.81-20.21A244.42,244.42,0,0,0,89.83,32.09l-.5.85-1,.06Z"/><path class="cls-3" d="M141,8.08s-15.83,10.81-20.1,24.13c0,0-26.67-.92-25.11,20.5,0,0-14.66,4.34-14,16.88,0,0-5.72,2.78-7.35,15.87S118.23,80.1,130,38.9C130,38.9,128.82,21.63,141,8.08Z"/><path class="cls-4" d="M119,39.12s-7.91,13.09-15.45,14.94C103.58,54.06,118.84,56.62,119,39.12Z"/><path class="cls-4" d="M102,58.06a19.43,19.43,0,0,1-13.2,12.58S102.78,73.56,102,58.06Z"/><path class="cls-4" d="M87,75.3s-3.08,7-7.65,10.28C79.32,85.58,87.22,84.53,87,75.3Z"/><path class="cls-5" d="M108.88,35.31s-8.19,2-9.33,9.08S113.36,42.45,108.88,35.31Z"/><path class="cls-5" d="M82.82,72s-6.31,3.54-5.65,9.63S88.16,76.91,82.82,72Z"/><path class="cls-5" d="M96.07,54.45s-8.19,2-9.33,9.08S100.55,61.6,96.07,54.45Z"/><path class="cls-6" d="M78.59,91.57c-2.74.07-4.65-.75-5.76-2.47-3.29-5.1,3.35-15.34,8.24-20,0-3.2.8-13.6,13.35-18.95a17.76,17.76,0,0,1,4.22-11.59c4.2-4.88,11.12-7.5,20.57-7.79,2.89-4.36,12-16.89,21.06-22.39L147.48,4l-4.87,6.87c-.1.15-5.51,6.72-9.62,20.8C124.74,59.86,110.2,79.33,91,88,85.75,90.28,81.65,91.49,78.59,91.57Zm40.92-57.32c-8.49.23-14.6,2.43-18.17,6.53A14.33,14.33,0,0,0,98,51.06l.17,1.37-1.29.5C83.37,58,84.55,69.12,84.61,69.59l.11.91-.69.62c-5.31,4.71-9.86,13.57-8.24,16.07.9,1.39,5,1.48,13.72-2.44,18.28-8.19,32.15-26.89,40.1-54.07a71.65,71.65,0,0,1,8.22-18.91,230.45,230.45,0,0,0-16.19,21.67l-.51.79h-1.62Z"/><path class="cls-3" d="M166,12.81s-14.86,9.57-19.13,21.75c0,0-24.56-1.52-23.65,18.27,0,0-13.62,3.64-13.32,15.21,0,0-5.34,2.43-7.17,14.45S143.21,78.64,155.08,41C155.08,41,154.42,25,166,12.81Z"/><path class="cls-4" d="M145,40.87s-7.61,11.87-14.62,13.4C130.34,54.27,144.35,57,145,40.87Z"/><path class="cls-4" d="M128.82,57.92a17.92,17.92,0,0,1-12.48,11.26S129.13,72.23,128.82,57.92Z"/><path class="cls-4" d="M114.51,73.44s-3,6.33-7.3,9.28C107.21,82.72,114.51,82,114.51,73.44Z"/><path class="cls-5" d="M135.7,37.11s-7.6,1.67-8.83,8.14S139.65,43.81,135.7,37.11Z"/><path class="cls-5" d="M110.77,70.31s-5.91,3.1-5.45,8.74S115.57,75,110.77,70.31Z"/><path class="cls-5" d="M123.41,54.44s-7.6,1.67-8.82,8.14S127.37,61.14,123.41,54.44Z"/><path class="cls-6" d="M106.38,88.23c-2.52,0-4.26-.81-5.24-2.42-2.91-4.78,3.46-14.06,8.08-18.26,0-3,1.08-12.52,12.78-17.14a16.37,16.37,0,0,1,4.17-10.58c4-4.4,10.44-6.64,19.16-6.67,2.77-3.95,11.44-15.28,20-20.12l6.76-3.84-4.66,6.22c-.1.13-5.24,6-9.38,18.93-8.3,25.79-22.18,43.37-40.15,50.85C113,87.22,109.21,88.23,106.38,88.23ZM145.53,36.4c-7.84,0-13.53,1.87-16.92,5.57a13.2,13.2,0,0,0-3.35,9.39l.13,1.27-1.21.43c-12.56,4.37-11.74,14.62-11.7,15l.08.85-.65.55c-5,4.21-9.43,12.27-8,14.61.79,1.3,4.55,1.49,12.71-1.91,17-7.1,30.3-24,38.3-48.86A66.08,66.08,0,0,1,163,16.12,212.35,212.35,0,0,0,147.51,35.7l-.49.72h-1.49Z"/></g><g id="レイヤー_8" data-name="レイヤー 8"><path class="cls-2" d="M164.87,37.1s-51.31,59-160,44.38c0,0,18.1,43.14,78.88,35.09S163.14,70,164.87,37.1Z"/><path class="cls-2" d="M69.82,111.86l7.48,14.26s34.51-4.87,50.87-15.74V94S78.44,111.81,69.82,111.86Z"/><path class="cls-7" d="M67.92,119.94a97.48,97.48,0,0,1-25.28-3.18C23.75,111.68,4.34,92.07.46,81.34L0,80.05.83,79C1.5,78.09,22,54.37,36,47.25l-2.33,5.3c-11.21,5.72-24.5,24-28,28.35,4.46,9.78,21.84,26.61,38.26,31,11.68,3.15,43.22,8.19,83.74-12.75C158.2,83.41,164.55,45.06,165,35.88l-7-1.53,1.06-3.09,8.28,1.91,0,2.11c0,2,.21,48.91-37.39,68.34C105.46,116.29,84.23,119.94,67.92,119.94Z"/><polygon class="cls-7" points="145.74 32.58 132.99 31.67 133.9 28.73 147.72 29.92 145.74 32.58"/><polygon class="cls-7" points="118.85 31.26 101.22 31.99 101.98 29.01 121.13 27.97 118.85 31.26"/><path class="cls-7" d="M75.93,128.9l-4.48-8.56L75.87,118l2.79,5.31c7.56-1.41,37-7.23,47-14.2v-5.21h5v7.66l-.93.75c-11.29,9.1-50.36,16-52,16.26Z"/></g></g></svg>