<svg xmlns="http://www.w3.org/2000/svg" viewBox="0 0 250.39 261.02"><defs><style>.cls-1{fill:#b89c70;}.cls-2{fill:#9d855f;}.cls-3,.cls-4{fill:none;stroke-miterlimit:10;}.cls-3{stroke:#e0d0b3;stroke-width:2.61px;}.cls-4{stroke:#9d855f;stroke-width:3.48px;}.cls-5{fill:#e0d0b3;}</style></defs><g id="レイヤー_2" data-name="レイヤー 2"><g id="山芋"><path class="cls-1" d="M10.53,23S24.26,34.31,22.79,42.64,18.38,77.08,25.73,92.2s-4.9,71,24,100.38,47,29.89,51.94,36.26,26.46,15.19,40.67,15.68,25.48,9.8,36.75,9.31,31.36-2,31.36-7.35-20.58-15.68-29.4-19.6-10.29-24.62-9.8-37.06S125.2,98,110.5,93.09,94.33,65.51,91.39,63.87s-24-45.74-36.75-46.23S3.18-10.78,10.53,23Z"/><circle class="cls-2" cx="40.02" cy="54.23" r="3.22"/><circle class="cls-2" cx="66.73" cy="60.23" r="2.78"/><path class="cls-2" d="M43.24,80.35h0Z"/><circle class="cls-2" cx="149.78" cy="228.85" r="3.38"/><path class="cls-3" d="M185.93,245h0Z"/><polyline class="cls-3" points="83.73 53.36 89.61 45.92 90.38 37.29"/><line class="cls-3" x1="20.95" y1="63.87" x2="5.63" y2="63.01"/><line class="cls-3" x1="43.24" y1="14.29" x2="43.24"/><line class="cls-3" x1="10.53" y1="23.03" x2="0.24" y2="21.07"/><polyline class="cls-3" points="25.73 92.2 20.95 93.32 17.39 100.73"/><line class="cls-3" x1="50.23" y1="71.54" x2="43.24" y2="80.35"/><line class="cls-3" x1="57.69" y1="46.79" x2="60.03" y2="38.16"/><polyline class="cls-3" points="72.08 212.35 69.51 222.96 66.73 228.85"/><line class="cls-3" x1="97.22" y1="225.47" x2="93.89" y2="236.68"/><line class="cls-3" x1="169.6" y1="225.47" x2="169.6" y2="231.08"/><line class="cls-3" x1="173.9" y1="216.53" x2="185.93" y2="216.53"/><line class="cls-3" x1="137.55" y1="244.09" x2="135.98" y2="253.85"/><polyline class="cls-3" points="166.66 251.37 169.6 259.71 173.9 259.71"/><line class="cls-3" x1="202.3" y1="238.15" x2="214.5" y2="236.68"/><path class="cls-4" d="M104.83,89.91a54.88,54.88,0,0,1,20.1,16.9c8.87,12.08,45.91,68.16,46.33,83s-.27,32.2,9.8,37.06,35.21,15.35,29.4,19.6S177.8,261.67,149.78,245c0,0-36.34-1.47-48.1-16.17,0,0-48.86-25.28-57.66-43.13s-16.37-51.28-16.11-84.2c0,0-6-21.1-6.33-25.08s-1.24-23.5,1.21-33.79S14.08,30.87,9.61,18.13,18.66,4.49,31,9.39s18.71,6.29,23.69,8.25S82.8,43.54,91.39,63.87,99.17,86.72,104.83,89.91Z"/><path class="cls-1" d="M89.15,83S181.77,92.52,195,100.72s31.85,43,35.28,46.91,10.78,9,15.68,10.85-1.47,10.21-5.39,11.2S227.83,181,222,187.82,203.82,203.5,190.1,205s-88.7,1-99,0-18.62-2.45-18.62-2.45S117.08,155,89.15,83Z"/><path class="cls-5" d="M89.15,83s-20.31-2-35,28.38c-13.35,27.7-14.95,62.45-2.77,77,7.62,9.09,10.24,12.62,21.07,14.21S123.45,129.49,89.15,83Z"/><polygon class="cls-5" points="174.04 95.27 171.92 93.74 177.03 86.61 177.03 76.17 179.64 76.17 179.64 87.45 174.04 95.27"/><rect class="cls-5" x="148.49" y="76.93" width="2.61" height="13.98" transform="translate(-13.35 30.39) rotate(-11.09)"/><rect class="cls-5" x="117.25" y="75.72" width="2.61" height="10.62" transform="translate(-24.01 63.84) rotate(-27.48)"/><rect class="cls-5" x="212.67" y="117.6" width="13" height="2.61" transform="translate(-25.22 69.41) rotate(-17.03)"/><polygon class="cls-5" points="161.37 223.19 159.04 222.03 161.67 216.76 156.12 206.52 158.41 205.28 164.62 216.71 161.37 223.19"/><rect class="cls-5" x="137.83" y="205.89" width="2.61" height="8.37"/><rect class="cls-5" x="111.76" y="208.77" width="11.13" height="2.61" transform="translate(-117.9 159.45) rotate(-48.67)"/><rect class="cls-5" x="192.22" y="203.84" width="2.61" height="11.54" transform="translate(-86.69 156.03) rotate(-36.46)"/><rect class="cls-5" x="158.96" y="130.69" width="12.29" height="2.61" transform="translate(-46.2 126.26) rotate(-37.09)"/><rect class="cls-5" x="119.34" y="182.35" width="15.57" height="2.61" transform="translate(-92.45 224.6) rotate(-65.87)"/><rect class="cls-5" x="170.06" y="170.66" width="2.61" height="9.02" transform="translate(-47.76 284.89) rotate(-72.23)"/><rect class="cls-5" x="133.42" y="123.78" width="2.61" height="8.22"/><rect class="cls-5" x="194.92" y="149.4" width="2.61" height="13.21" transform="translate(-21.91 279.55) rotate(-68.01)"/><ellipse class="cls-2" cx="139.38" cy="155.87" rx="4.66" ry="2.61"/><ellipse class="cls-2" cx="149.79" cy="114.69" rx="1.35" ry="4.22"/><ellipse class="cls-2" cx="193.53" cy="137.64" rx="3.43" ry="1.94"/><ellipse class="cls-2" cx="195" cy="181.57" rx="4.9" ry="2.08"/><ellipse class="cls-2" cx="110.71" cy="187.33" rx="5.39" ry="1.47"/><path class="cls-2" d="M172.41,207.29c-28.38,0-99.1-2.84-102.37-3l6.62-3.28c.9,0,86.7,2.59,104.51,1.75s29.28-4.76,34.41-11.68c5.92-8,18.29-19.41,23.74-23.22,4.67-3.26,6.65-6.16,6.72-7.07a2.18,2.18,0,0,0-.63-.24c-5.61-1.46-10.52-5.89-15.72-10.57l-.86-.77c-2-1.77-4.58-6.28-8.18-12.53C214,125.24,204,107.89,194,102.65,178.85,94.73,91.83,85.58,90.93,85.49l-6.19-4.71c3.7.39,95.4,9.71,111.27,18,11.14,5.82,21.12,23.12,28.41,35.75,3,5.22,5.86,10.15,7.31,11.46l.87.78c4.8,4.31,9.33,8.39,13.91,9.59,2.89.75,3.63,2.58,3.81,3.59.82,4.58-6.3,9.95-8.51,11.49-5.22,3.65-17.06,14.6-22.73,22.25-6,8.13-18.36,12.53-37.7,13.43C179.26,207.24,176.19,207.29,172.41,207.29Z"/><path class="cls-2" d="M70,204.33c-24.38-14.06-30.59-30.39-26.43-68.86C47.85,96.25,84.4,80.92,84.74,80.78h0l6.19,4.71c-.31.13-35.75,4.49-43,50.45-5.79,36.72,3.48,52.37,28.72,65.11Z"/></g></g></svg>