<svg xmlns="http://www.w3.org/2000/svg" viewBox="0 0 127.61 139.21"><defs><style>.cls-1{fill:#fef2de;}.cls-2{fill:#e5caae;}.cls-3,.cls-4,.cls-5,.cls-6{fill:none;stroke:#c4a489;stroke-miterlimit:10;}.cls-3{stroke-width:5px;}.cls-4{stroke-width:3px;}.cls-5{stroke-width:5.36px;}.cls-6{stroke-width:3.22px;}</style></defs><g id="レイヤー_2" data-name="レイヤー 2"><g id="ラッキョ"><path class="cls-1" d="M29,5.88s5.51,22.81-2.47,28.72-46.23,71.8-7.25,91.22S66.35,87,69.07,81.06s-4-38-10.34-43.93-8-27-4.67-31.25C54.06,5.88,44.55,0,29,5.88Z"/><path class="cls-2" d="M64.1,47.57s-7.75,71.5-44.79,78.25c0,0,22.12,18,39.42-14.63S69.46,58,64.1,47.57Z"/><path class="cls-3" d="M29,5.88s5.77,19,0,25.63S-14.39,93,11.48,120.42s44.94-4.64,47.25-9.23,17.9-32.47,5.37-63.62c0,0-7.26-16.91-10.06-19.87s0-21.82,0-21.82S44.36-1.72,29,5.88Z"/><path class="cls-4" d="M38.48,19.49s2.63,25.53,0,31.16"/><path class="cls-4" d="M46.36,27s-1.5,16.89,3,23.65"/><path class="cls-1" d="M95.32,13.23s1,25.11-9.91,27.1c-30.47,5.54-69.35,56.28-30.83,86.26s62-24.14,66.53-29.09,5-37.95-.55-45.5-2.21-28.48,2.6-31.6C123.16,20.4,114.06,12,95.32,13.23Z"/><path class="cls-2" d="M123.93,63.64s-26.46,67-69.35,63c0,0,20.12,23.81,47.51-2.87S127.3,75.28,123.93,63.64Z"/><path class="cls-5" d="M95.32,13.23S98,34.78,88.93,38.05c-39.5,14.21-63.64,47.06-41.71,81.07s51.15,8.38,54.87,4.6,28-26.31,21.84-60.08c0,0-3.86-18.45-6.23-22.11s5.46-21.13,5.46-21.13S114.27,10.26,95.32,13.23Z"/><path class="cls-6" d="M102.44,29.11S99,54.59,94.66,59.29"/><path class="cls-6" d="M109.33,38.64s-5.88,15.93-2.55,23.77"/></g></g></svg>