<svg xmlns="http://www.w3.org/2000/svg" viewBox="0 0 231.71 332.46"><defs><style>.cls-1{fill:#599b41;}.cls-2{fill:#60a847;}.cls-3{fill:#52903e;}.cls-4{fill:#b4ca50;}.cls-5{fill:#e83820;}.cls-6{fill:#f56d5b;}.cls-7{fill:#467a34;}.cls-8{fill:#9fb34b;}.cls-9{fill:#a42c1d;}</style></defs><g id="レイヤー_2" data-name="レイヤー 2"><g id="レイヤー_7" data-name="レイヤー 7"><path class="cls-1" d="M74.57,142.19S55.83,132.92,57,118.89,71,96.9,71,96.9,43.4,66.76,68,40.57c0,0-10.18-30.82,18.51-36.84s39.67,8.88,32,32c0,0,15.63,4.57,10.71,31S112.69,96.9,112.69,96.9s8.14,26.83-6.06,35.84S89.75,145.26,74.57,142.19Z"/><path class="cls-2" d="M101.94,136.52s-10.6-9.14-2.48-30.58S117,84,117,84s-6.37-44.13,32.86-43.76c0,0-3.9-20.27,11.66-25.9s33.17,4.13,29.43,13.14c0,0,19.53,1.5,19.91,15.77s-5.26,22.15-13.52,22.34c0,0,13.5,23.83-6.39,33.22s-29.43,4.13-29.43,4.13,5,27.78-14.86,31.16c0,0,.65,17.42-18.47,14.18s-25.84-4.38-26.21-11.72S148.47,90,148.47,90"/><path class="cls-3" d="M118.3,144.93s-5.09-14.56,9.17-19.91c0,0-1.12-17.36,12.39-21.12s17.65,2.63,17.65,2.63-2.06-19.21,19.89-22.45,24,8.19,24,8.19,16.52-4.51,24,6.38,4.5,26.65-3.76,28.15c0,0,1.13,24.41-17.64,22.15S186,138,186,138s-1.13,16.2-10.14,17.33-16.14-1.51-17.64-7.14c0,0-4.88,12-11.26,12s-14.65-1.88-15.77-6.76c0,0-7,2.87-9.95-2.83"/></g><g id="ラディ塗り"><path class="cls-4" d="M77.9,196.28s47.1-67,93.55-78.56c0,0-75.64,51.5-89.67,83.87"/><path class="cls-4" d="M67.93,205.2c32.45-92.35,33.38-166.68,33.38-166.68C95.07,99.33,64.2,191.68,64.2,191.68"/><path class="cls-4" d="M169.14,53.72S90,139.61,61.22,204.19l10.41,14.24S91.58,162.76,169.14,53.72Z"/><path class="cls-5" d="M75.67,196.19S52.07,177,27.26,193.94s-22,50.11-9,68.13,2.25,25.34.56,27-4.5,8.45-1.12,14.08,2.88,16.9-2.78,20.84c0,0,13.53-7.32,12.37-21.4S44,285.16,42.08,276.15c0,0,20.73,2.54,37-9C104.39,249.12,115.65,215.9,75.67,196.19Z"/><path class="cls-4" d="M95.76,74.29c-18-.25-10.52-51.54-10.52-51.54,0,19.71,12.34,41.79,12.34,41.79s17.69-8,17.6-18.7C115.18,45.84,117,74.58,95.76,74.29Z"/><path class="cls-4" d="M91.41,94.67c-10,1.27-8.65-29.12-8.65-29.12a183.07,183.07,0,0,0,10.89,19s13.62-2.09,17.25-10.27C110.9,74.29,101.53,93.38,91.41,94.67Z"/><path class="cls-4" d="M143,83.86c-15.21-1,8.08-30.14,8.08-30.14-2.91,12.39,0,20.57,0,20.57s15.3,3.64,18.11-3.11C169.14,71.18,164.61,85.27,143,83.86Z"/><path class="cls-4" d="M125.78,105c-8-2,2.82-24.83,2.82-24.83a20.58,20.58,0,0,0,5,15.07s9.63,7,16.39,1.88C150,97.08,143.8,109.45,125.78,105Z"/><path class="cls-4" d="M154.07,124.42s21.9,5.86,24.33,1.42c0,0-21.2,22-32,2.89-3.25-5.76,23.95-22.79,23.95-22.79-10.35,10.55-11,16-11,16"/><path class="cls-6" d="M24.24,205.2s-9.77,8.82-6.76,19.33C17.48,224.53,31,217.78,24.24,205.2Z"/><path class="cls-6" d="M31,217.59a6.63,6.63,0,0,0-4.86,6.94S29.87,224.91,31,217.59Z"/></g><g id="ラディ線"><path class="cls-7" d="M142.87,162.75a14.76,14.76,0,0,1-12.48-6.66c-3.37,1.09-7.27-1-7.44-1.09l3.3-2.81a3.25,3.25,0,0,0,3.82-.36l2-1.44,1,2.28c.14.32,3.67,8,13.44,5.61s9.76-9.7,9.75-10l-.19-7.51,3.9,6.41c.24.39,6.06,9.67,15.24,6.29,3.86-1.42,6.52-4.37,7.9-8.76a21.13,21.13,0,0,0,.93-6.58l-.46-9,4.22,7.93c.29.54,7.35,13.27,21.94,9.63,4-1,6.95-3,8.68-6,3.37-5.73,1.37-13.33,1.35-13.41l-.52-1.93,1.93-.53c.39-.11,10-3.12,5.18-20.12-1.34-4.75-3.85-8.11-7.45-10-7.24-3.8-16.73-.62-16.83-.59l-1.43.49-.86-1.25c-.37-.52-9.14-12.77-24-7.56-15,5.28-16.26,20.2-16.31,20.83l-.3,4.24L156.13,108a12.78,12.78,0,0,0-12.53-2.38c-7.75,2.67-14.82,6.85-14.13,19.31l.08,1.36-1.24.57c-.06,0-6.24,3-8.14,8.84-1.17,3.58-.74,7.21,1.7,11.59L118.81,150c-3-5.4-4-10.93-2.44-15.63,1.9-5.8,6.77-9.22,9.06-10.55-.26-14.25,8.83-19.27,16.86-22a16.5,16.5,0,0,1,13.76,1.25,28.24,28.24,0,0,1,18.44-21c14.79-5.2,24.7,4.45,27.66,7.9,3.24-.86,11.54-2.46,18.6,1.23,4.62,2.41,7.81,6.61,9.46,12.47,2.21,7.84,2,14.21-.71,18.94A13.64,13.64,0,0,1,224,128c.51,3,1.05,9.34-2.11,14.74-2.3,3.93-6.06,6.57-11.18,7.84-11.45,2.86-19.13-2.81-23.14-7.19-.91,4.69-3.55,11.09-11,13.82s-13.53-.71-17.23-4.43c-1.45,3.6-4.87,7.64-11.88,9.38A19.11,19.11,0,0,1,142.87,162.75Z"/><polygon class="cls-7" points="117.87 148.24 108.27 146.28 110.42 142.69 116.7 143.96 117.87 148.24"/><path class="cls-7" d="M100.53,138.49A36.89,36.89,0,0,1,95.23,127c-1.59-6.1-2.13-15.65,4.37-26.55C106,89.77,111.06,83.64,114.81,82.2c-.35-6.16-.31-25,12-36.77,9.67-9.3,16.79-9.58,20.76-8.5-.15-5.74,1-16.91,11.27-23.64,10-6.56,24.69-1.18,31,5.05,2.51,2.47,3.76,5,3.66,7.33,7.55,1,18.72,5.53,19.31,17.44.45,8.91-2.23,16.88-7.16,21.32a12.14,12.14,0,0,1-5.45,3c2.07,5.45,5.87,17.34,2.12,22.75L199,87.87c2.57-3.71-.83-15.17-3.58-21.53L194,63l3.58.56A6.87,6.87,0,0,0,203,61.46C207,57.82,209.2,51,208.82,43.31c-.65-13-17.28-13.84-18-13.87l-3.45-.15,1.84-2.92c1.09-1.73-1.4-4.4-2.19-5.17-5.52-5.42-18.1-9.78-26-4.57-11.72,7.7-9.31,22.6-9.2,23.23l1,5.57-4.24-3.72c-.25-.2-6.66-5.22-19,6.6C116.47,60.87,118.92,83.5,119,83.72l.49,4.24-3.14-2c-.89.32-4.87,2.47-13.27,16.56-11,18.43-.34,31.78.13,32.35Z"/><path class="cls-7" d="M85.6,145.41l1-4.31c3.15-.06,10.54-4.51,12.36-5.68l1.54,3.07C99.77,139,90.45,145.33,85.6,145.41Z"/><path class="cls-7" d="M78.31,145.41c-.7-.29-18.49-7.62-22.34-19.3-2.33-7.1,1.22-15.19,3.54-19.39C61.69,102.8,65,98.39,68,96.22c-3.84-5.34-13.9-20.56-12.2-31,2.14-13.17,5.22-21.1,9.89-25.36C64.52,35,61.33,17.7,73.2,7.57c8.15-7,29.07-11.32,41.26-3.09,6,4.06,11.91,12.58,6.51,30.22,3.15,1.77,9.81,6.26,9.17,12.38l-4-.42c.44-4.12-6-8-8.45-9.15l-1.63-.75.57-1.7c4.34-13,2.81-22.38-4.43-27.26C101.67.67,82.85,4.59,75.8,10.61c-11.67,10-6,29.18-5.89,29.38l.41,1.33-1.11.84c-4.4,3.34-7.3,10.65-9.43,23.71C58,76.72,72.47,95.49,72.61,95.67l1.89,2.44-3,.73c-1.45.36-5.3,4.06-8.5,9.82-3.42,6.17-4.6,12.07-3.24,16.2,3.27,9.92,19.56,16.32,19.72,16.38Z"/><polygon class="cls-8" points="66.1 190.5 62.29 189.29 75.3 144.03 78.31 145.41 66.1 190.5"/><polygon class="cls-8" points="74.38 181.62 85.6 145.41 87.28 145.18 83.86 159.86 95.16 141.81 100.53 138.49 74.38 181.62"/><path class="cls-8" d="M84.63,201.59l-3.55-2.47C81.63,198.06,97.92,173,123,155l2,1C100.66,173.4,84.76,201.34,84.63,201.59Z"/><polygon class="cls-8" points="85.8 185.58 108.27 146.28 110.84 146.81 96.61 170.94 117.87 148.24 118.81 150.03 85.8 185.58"/><path class="cls-9" d="M0,332.46l15.05-10.95s.34-.25.85-.68c1.3-2,2-9.4.94-14.65-.1-.46-.23-1-.38-1.63-1.27-5.38-3.63-15.39,3-18.79,1.67-.85,2.88-3,3.33-5.92.68-4.5-.61-9.37-3.14-11.84-7.19-7-22.29-34.49-7.36-60.82C27.89,179.73,62.64,186.9,63,187l-.67,2.32h0c-1.16-.25-32.4-5-46.49,19.86-14.91,26.3,2.61,52,6.68,56s5,10.49,4.29,15.3c-.65,4.26-2.59,7.41-5.46,8.88-3.87,2-1.9,10.3-.95,14.31.15.66.29,1.25.39,1.74a45.29,45.29,0,0,1,.47,9.86,19.15,19.15,0,0,0,4-9.41c.94-10.06,2-13.43,8.26-19.76,1.36-1.38,2.52-2.45,3.45-3.31,3.06-2.84,5.45-5.41,5.11-8.62h0c.21,0,20.54-.05,28-4.25,5.93-3.34,25.55-15.51,28.65-31.46,3.67-18.93-9-33.07-14.09-36.86l1.64-2.94c11.77,8.83,19.22,25.89,16.37,40.57C99.27,256.34,80.08,268.8,72,273.37c-6.9,3.89-22.24,4.6-27.86,4.73-.11,3.53-1.71,5-4.48,7.58-.95.88-2,1.87-3.32,3.19-5.29,5.35-6.22,7.62-7.13,17.32-.8,8.55-7.72,15.18-10.58,17.59A4.65,4.65,0,0,1,17,325Z"/></g></g></svg>