<svg xmlns="http://www.w3.org/2000/svg" viewBox="0 0 176.15 169.53"><defs><style>.cls-1{fill:#e8410b;}.cls-2{fill:#713a16;}.cls-3{fill:#7caf3a;}.cls-4{fill:#fa845f;}.cls-5{fill:#ba3409;}.cls-6{fill:#a83008;}.cls-7{fill:#628a2e;}.cls-8{fill:#572d11;}</style></defs><g id="レイヤー_2" data-name="レイヤー 2"><g id="りんご"><path class="cls-1" d="M111.86,39.08S88.14-4.09,42,32.32C4.12,62.27-6.4,101.4,13.12,133.69s62,20.27,62,20.27S113,172.73,134,162.22s39.34-48.43,38.67-69.5C172.68,92.72,173.43,22.94,111.86,39.08Z"/><path class="cls-2" d="M106.13,53.54s1.41-42.24,39.42-52.37l2.82,6.19S121.34,13.27,106.13,53.54Z"/><path class="cls-3" d="M135.11,17.88s15.79-8.09,22.27-.16,11.82,7.66,11.82,7.66S139.18,40.49,135.11,17.88Z"/><path class="cls-4" d="M138.08,79.44s-4.07,38-9.42,42h11.82s9.86-27.31,6.2-43.92Z"/><path class="cls-5" d="M89.8,45.37s10.7,18.87,34.63,11C124.43,56.35,91.49,50.72,89.8,45.37Z"/><path class="cls-4" d="M126.26,129.65l-4.5,7.6s8.73,1.69,11.54,0c0,0,2.26-6.19,2.26-7.6C135.56,129.65,129.64,130.78,126.26,129.65Z"/><path class="cls-6" d="M118.32,169.53c-17.72,0-37.86-9.07-43.41-11.75-8,2.93-43.77,13.56-64.8-22.32C-13.84,94.61,7.31,45.37,46.88,24.52c41.64-21.95,63.16,6.23,63.43,6.6h0l-3,8.66C106.31,38.49,83,6.17,51,30.18,22.14,51.82-5.58,94.86,16.14,131.92c20.44,34.87,56,19.52,57.5,18.84l1.53-.68,1.49.76a138.67,138.67,0,0,0,21.78,8.46c15.1,4.36,26.76,4.35,33.7,0,18.58-11.75,38.26-44.83,37-62.1C166,56.73,152.74,45,142.15,42.25c-20.3-5.23-31.64-.18-30-.07l5.14-8.69c1-.73,2.27-2.6,26.65,2,18.64,3.5,29.49,25.88,32.17,61.15.74,9.66-3.66,23.26-12,37.31-8.07,13.52-18.6,25.2-28.14,31.24C130.89,168.33,124.76,169.53,118.32,169.53Z"/><path class="cls-7" d="M150.64,32A25.23,25.23,0,0,1,140,29.88c-5.2-2.42-4.93-7.08-6.69-13.3h0c1.85-.58,16.13-8.27,24-2.41a43.82,43.82,0,0,1,5.85,5.35c2.33,2.44,3.2,3.36,6.14,3.36l7,.62-5.92,4.16C169.7,27.9,160.41,32,150.64,32ZM135.11,17.88a13.62,13.62,0,0,0,6.95,7.47c6.14,2.87,14.24,1.52,19.77,0A31,31,0,0,1,159.44,23a39.28,39.28,0,0,0-5.23-4.79C150.05,15.06,140.55,16.53,135.11,17.88Z"/><path class="cls-8" d="M104.52,58.48l.62-6.75c2-22.08,12.82-34.92,21.53-41.8A53.42,53.42,0,0,1,145.32.19l.8-.19,3.63,8-1.09.34c-26.9,8.2-41.45,43.52-41.6,43.88ZM145,2.36c-4.9,1.5-31,11-37,43.15a111.87,111.87,0,0,1,8-13.33C122.45,23.11,133,11.45,147,6.75Z"/></g></g></svg>