<svg xmlns="http://www.w3.org/2000/svg" viewBox="0 0 199.14 218.62"><defs><style>.cls-1{fill:#638225;}.cls-2{fill:#b6c582;}.cls-3{fill:#4d6726;}.cls-4{fill:#929d54;}</style></defs><g id="レイヤー_2" data-name="レイヤー 2"><g id="ルッコラ"><path class="cls-1" d="M180.35,8.27s-17-14.68-31.69,0-20.1.39-25.51,12.56-9.27,28.75-9.27,39-10,25.72-20.1,18.77-8.5-16.75-16.86-16c-7.07.66-4,.75-1.69-9.42s-5.42-6.49-10-8.33S61.31,28.37,52.81,33.78,48.94,44.9,48.94,44.9,35.6,55.69,47.68,64.06s1.26,27.42,16,31.42,37.1,7.87,20.87,17.15-22.42-5.41-24.73,0S57.45,121.9,66,128.09c0,0-25.51-10.82-28.6-4.64S59,134.27,59,134.27l-12.37,24s31.7,10,34.79,0S70.59,144.9,70.59,144.9s13.91,6,18.55,0-11.6-11.4-11.6-11.4,7.73-7,24.74,2.32,28.6.77,29.37-3.87-9.27-7.73-13.91-7.73-7.73-19.31,1.55-18.54,24.73,8,34-2.56-3.09-18.83-10.05-20.9c0,0,15.46-11,23.19-13.07s8.5,2.07,13.91-9.3,10.83-23,15.46-26.84S195.81,8.27,180.35,8.27Z"/><path class="cls-2" d="M151.47,40.86C150.41,46.62,11.75,189.52,4,211.69l9.78,3.9S120.55,71.44,151.47,51.9C151.47,51.9,162.29,41.63,151.47,40.86Z"/><path class="cls-3" d="M69.12,165.12a60.34,60.34,0,0,1-15.07-2.42l3-3.83c4.69,1.36,18.3,3.34,22.36-2.12,1.43-1.93,1.07-3,1-3.35-.78-2.33-5-4.25-6.86-4.82l1.16-4.85c4.75.84,9.93,1,11.79.5-1-1.82-5.52-5.65-10.24-8.61l-4.34-2.74,4.83-1.73c.51-.19,12.58-4.38,26.67,2.42,8.78,4.23,18.66,3.55,23.49.75,1.4-.81,2.24-1.74,2.3-2.55a2.41,2.41,0,0,0-.78-1.89c-2.5-2.73-9.38-4.18-12.53-4.22-1.07,0-4.63-.57-5.19-7-.49-5.67,1.72-14.2,8.16-15.42,3.14-.59,7.43.22,12.41,1.15,6.62,1.24,14.86,2.78,17.33-.27,3.35-4.12,4.63-7.57,3.91-10.54-.8-3.35-4.24-6.39-10.23-9L138,82.62l3.93-2.5c4.9-3.13,21.29-13.37,26-13.86a19.61,19.61,0,0,1,2.11-.07h.16c2.85,0,5.59-.26,11-13.89,5.69-14.3,10.29-19.21,12.45-20.86.45-2,1.27-7.21-1.33-12-2.22-4.11-6.46-7.05-12.62-8.74l-.49-.13-.4-.32c-.48-.37-12-9.24-25-3-5.33,2.56-6.73,4.06-7.85,5.27-2.43,2.6-3.95,3.62-16.68,5.44-2.35,2.32-12.64,13.86-12.67,37.32,0,16.76-6,23.21-11.07,25.67-5.4,2.63-11.12,1.36-13.28-.33l-.37-.29-.24-.41c-2.13-3.59-9-13.2-14.84-14.51-1.44-.33-1.61-2.11-2.78-1.32l-6.27,2.41,4.58-6.35c2.63-5.93,1.33-9.67.75-11.43l-.48-.07c-5.75-.77-9.26-1.67-14.51-11.15-.8-1.46-1.72-2.2-2.72-2.2h0c-1.4,0-3.14,1.38-4.13,3.26-.37.68-1.46,3.07-.19,5l1.13,1.69-1.42,1.45c-.86.88-8.23,8.88-1.31,15.62,7.93,7.71,7.85,14.06,7.8,17.85a15.93,15.93,0,0,0,.05,2.06c0,.25.08.53.11.82.45,3.58,1.29,10.23,17.32,12.79,10,1.61,16,5.78,16,11.16s-6.17,9.75-16.07,11.3l-.9.13-.78-.46c-3.16-1.9-8.84-4.24-11-3.21-.21.1-.69.34-.87,1.62-.87,6.38,4.75,9,5.62,9.38l.14.06-1.81,4.66-.42-.17c-9.88-3.95-20-6.7-23.43-6.45,2.79,2.85,14.3,7.9,17.82,8l4,.07-14.83,25-2.91-1.51,9.92-19.21c-6.42-1.76-17.17-6.61-19.14-11a4.06,4.06,0,0,1,.58-4.47c2.69-3.12,11.16-1.5,20.08,1.43a13.35,13.35,0,0,1-.59-6.39,6.6,6.6,0,0,1,3.66-5.45c4.74-2.26,12.14,1.4,14.92,3,8-1.43,11-4.47,11-6.22,0-2.08-3.69-4.91-11.82-6.21C54.18,97.57,53,87.8,52.42,83.63c0-.25-.06-.49-.09-.7a17,17,0,0,1-.11-2.88c0-3.56.1-8-6.28-14.2a13.52,13.52,0,0,1-4.44-9.74C41.44,51,44.29,46.66,46,44.53a10.21,10.21,0,0,1,.82-8.34c1.89-3.57,5.23-5.89,8.51-5.92,1.64,0,4.84.59,7.16,4.78,4.28,7.74,6.19,8,10.8,8.62l.75.1a4.44,4.44,0,0,1,3.35,2.29c1.76,3.17.08,9.51-1.6,14.18a10.32,10.32,0,0,1,2.12.26c1,.21,9.34,2.44,17.73,16.32a9.76,9.76,0,0,0,7.72-.4c5.39-2.63,8.25-10,8.26-21.18,0-28.84,14.33-41.09,14.94-41.6l.54-.46.71-.09c12.38-1.74,13.09-2.5,14.5-4s3.17-3.4,9.35-6.37C166.12-4.24,179,4.17,181.48,6c7.3,2.1,12.44,5.84,15.26,11.11C201,25,198.3,33.44,198.19,33.79l-.4,1.21-.92.28c-.56.38-5,3.72-11,18.87-6.27,15.77-10.5,17-15.77,17h-.28a11.92,11.92,0,0,0-1.36,0c-2.14.22-11.29,5.31-20.1,10.76,5,2.94,8.06,6.42,9,10.39,1.1,4.58-.5,9.45-4.9,14.86s-13.8,3.59-22.13,2c-4.1-.77-8.35-1.56-10.56-1.14s-3.14,3.25-3.5,4.47c-1.09,3.61-.64,7.11,0,8.06,3.74.12,12,1.65,15.83,5.83a7.39,7.39,0,0,1,2.08,5.63c-.18,2.52-1.88,4.84-4.78,6.52-6.1,3.52-17.74,4.46-28.18-.58a33.27,33.27,0,0,0-17.29-3.23c4.11,3.12,8.06,7,7.73,10.32A4,4,0,0,1,90,148c-1.36,1-3.62,1.44-6.07,1.53a8.18,8.18,0,0,1,1.19,2.29c.59,1.77.78,4.59-1.68,7.91C80.3,163.92,74.61,165.12,69.12,165.12Z"/><polygon class="cls-4" points="14.64 218.62 0 212.78 45.32 155.3 48.23 156.81 8.04 210.6 12.96 212.56 54.05 162.7 56.81 163.43 14.64 218.62"/><path class="cls-2" d="M123.47,75.14c-.08-.44-2.36-14.12-.44-23.4l3.92.81c-1.76,8.5,0,18.33,0,18.43Z"/><path class="cls-2" d="M123.16,89.32a23.06,23.06,0,0,1-11.49-2.94l2.69-3.07-1.62,1.38,1.62-1.38c.28.16,6.2,3.76,14.9,1.08l1.18,3.83A24.73,24.73,0,0,1,123.16,89.32Z"/><path class="cls-2" d="M98,100.82c-1.35-1.14-13.21-11.37-14.43-17.9l3.93-.73c.72,3.86,8.84,11.72,13.52,15.69Z"/><path class="cls-2" d="M103.16,126.53c-8.17,0-16.12-6.71-16.47-7l2.6-3c.07.07,7.91,6.66,14.84,6l.38,4A12.21,12.21,0,0,1,103.16,126.53Z"/></g></g></svg>