<svg xmlns="http://www.w3.org/2000/svg" viewBox="0 0 183.97 117.79"><defs><style>.cls-1{fill:#bca87e;}.cls-2{fill:#cfc0a2;}.cls-3{fill:#ab8b63;}.cls-4{fill:#a79570;}.cls-5{fill:#9f8e6b;}.cls-6{fill:#8d7e5e;}.cls-7{fill:#b2a68c;}</style></defs><g id="レイヤー_2" data-name="レイヤー 2"><g id="レンコン"><path class="cls-1" d="M37.25,2.53S84,.84,89.62,2.53s24.78,13,29.85,14.65S142,21.12,153.82,35.76,181.41,51,181.41,51s-2.81,59.13-10.13,59.69a89.42,89.42,0,0,1-13.52,0s-33.4,5-54.71.25c0,0-51.72,11.58-73.68-3.63,0,0,38.28-15,37.73-48.82C66.54,23.93,53,7.6,37.25,2.53Z"/><path class="cls-2" d="M37.25,2.53S3.28,19.05,2.53,45s7.69,55.57,26.84,62.31S73.11,69,72.36,60.35,68.23,1,37.25,2.53Z"/><path class="cls-3" d="M29.37,61.85s-8.07-3.38-4.51-11.64,10.33-4.13,10.33,0S35.56,60,29.37,61.85Z"/><path class="cls-3" d="M27.68,40.83s-3.75-9.39-2.82-16.15,8.84-7.5,10.33-6S37.44,31.82,27.68,40.83Z"/><path class="cls-3" d="M20.55,43.08S10,29.94,8.54,35.19s-.76,18.51,0,18.46S17.92,50.21,20.55,43.08Z"/><path class="cls-3" d="M54.34,36.21S42,43,39.32,47.47c0,0,10.89,6.12,15,3.06S58.84,37.34,54.34,36.21Z"/><path class="cls-3" d="M35.37,64.48S34.23,78.82,37.76,81c7.44,4.59,13.31-4,10.75-8.24C48.51,72.76,42.88,66,35.37,64.48Z"/><path class="cls-3" d="M22.55,62.94s-9,5.07-9.76,6.66,5.25,9.86,7.88,8.92S23.67,67.44,22.55,62.94Z"/><ellipse class="cls-4" cx="82.02" cy="19.43" rx="4.79" ry="1.4" transform="matrix(0.99, -0.14, 0.14, 0.99, -1.89, 11.46)"/><ellipse class="cls-4" cx="90.47" cy="93.62" rx="0.99" ry="3.66" transform="translate(-25.5 152.78) rotate(-73.01)"/><ellipse class="cls-4" cx="135.24" cy="75.13" rx="1.74" ry="3.66" transform="translate(32.57 190.85) rotate(-77.47)"/><ellipse class="cls-4" cx="89.91" cy="59.63" rx="1.18" ry="4.22" transform="translate(21.43 143) rotate(-84.16)"/><ellipse class="cls-4" cx="129.02" cy="49.63" rx="1.76" ry="3.92" transform="translate(61.55 170.28) rotate(-81.82)"/><ellipse class="cls-4" cx="152.13" cy="85.17" rx="2.39" ry="0.99"/><path class="cls-4" d="M164.52,58.45h0Z"/><path class="cls-5" d="M178,89.37s-2.77,21.07-6.73,21.28-13.52,0-13.52,0-31.43,8.11-54.71.25c0,0-46.65,11.58-73.68-3.63,0,0,7.39,2.26,19.75-7.18,0,0,43.88,7.47,56.27,4.65Z"/><path class="cls-6" d="M62.35,117.79c-13.76,0-28.44-1-35.7-7.7l2.72-2.82c8.06,4.7,22.39,6.49,43,5.18a240.92,240.92,0,0,0,30.17-4l.74-.16.7.28c14.11,5.58,53-.34,53.41-.4l.38,0h12.43c5.18-6.59,8-35.91,8.65-55-5.17-.79-17.43-3.52-23.57-12.12-6.72-9.43-28-21.37-35.8-21.37C110.84,19.67,95.15,8,91.3,5l-54,0V0L93,0l.68.54c5,3.93,19.32,14.13,25.76,14.13,9.95,0,32.68,13.38,39.87,23.46,6.38,8.94,22.12,10.33,22.27,10.34l2.36.19L183.91,51c-.15,5.41-1.7,53.12-11,61.48l-.71.64H158c-3.33.51-39.67,5.84-55.1.35C98.86,114.3,80.52,117.79,62.35,117.79Z"/><path class="cls-7" d="M26.65,110.09C8.54,104.38,1.6,70.76,0,45.11-1.26,23.92,35.9.89,37.25,0V5A142.16,142.16,0,0,0,19.1,19.22C12.36,25.74,4.45,35.47,5,44.8c2.81,46,17.39,60.28,24.35,62.47Z"/></g></g></svg>