<svg xmlns="http://www.w3.org/2000/svg" viewBox="0 0 147.4 260.75"><defs><style>.cls-1{fill:#596a3f;stroke:#3e4c2a;}.cls-1,.cls-2{stroke-width:4.26px;}.cls-2{fill:#879155;stroke:#697240;}.cls-3{fill:#78814b;}.cls-4{fill:#b4c272;}.cls-5{fill:#808a51;}.cls-6{fill:#728036;}.cls-7{fill:#616e2a;}.cls-8{fill:#646e33;}</style></defs><g id="レイヤー_2" data-name="レイヤー 2"><g id="山葵"><path class="cls-1" d="M48.72,94.13S22.86,69.67,4.49,68.71c0,0,14.71-16.81,22.18-17.77,0,0,28.61,26.08,35.82,39.69Z"/><path class="cls-1" d="M34.65,30.29S54.8,89.84,51.44,98h17S63.5,41.82,55.55,28.37C55.55,28.37,44.76,14.44,34.65,30.29Z"/><path class="cls-1" d="M68.44,8.68l17.1-5.76S89.38,73,79.29,98H60.56S74.87,21.65,68.44,8.68Z"/><path class="cls-1" d="M94.66,31.25l19.69-4.32s-11.48,63.43-22.79,73L79.29,98S94.18,38,94.66,31.25Z"/><path class="cls-1" d="M88.93,105.21s20.14-30.74,35.51-37l18.25,4.31s-40.82,33.15-45.87,40.35Z"/><path class="cls-2" d="M55.16,92.32s-27,5.08-20.51,21.32c0,0-11.31,8.13-8,15.23,0,0-7.44,6.09-5.1,15.23,0,0-16.07,6.09-8.39,12.19,0,0-5.65,13.2,0,16.24,0,0-8.47,12.18-2.42,18.28,0,0-10.17,13.2-4.6,18.27,0,0-.43,12.19,4.6,16.25,0,0-8.41,9.13-1.69,14.21,0,0-2.56,12.18,4.11,12.18,0,0,2.26,11.17,16.65,5.08,0,0,13.39-1,14.4-7.11,0,0,12.74,1,10.93-13.2,0,0,10.38-8.12,9.36-15.22,0,0,13-11.17,5-17.26,0,0,24.89-6.1,8.43-20.31,0,0,14.07-.21,11-8.23,0,0,15.8-14.29,5.17-16.32,0,0,9.74-1.26,7.68-6.93,0,0,5.66-14.21-3.11-15.22,0,0,7.87-6.1,3.11-15.23,0,0,10.85-8.13,0-15.23C101.78,106.54,72.52,84.47,55.16,92.32Z"/><path class="cls-3" d="M30.55,254.09s16.68-9,12.83-17.18,5.77-6.72,13.93-17.77-4.8-8.65-2.62-13.93,12.23-9.12,6.94-18.25,1.44-14.89,10.93-17.29,8.76-12.48,5.88-18.73,6.73-2.88,12.25-12.48-11.29-12-5.29-16.33A59.87,59.87,0,0,0,96,112l5-6.36c10.22,6.59,0,15.23,0,15.23,5,8.87-3.1,15.23-3.1,15.23,10.19,8,3.1,15.23,3.1,15.23,1.83,6.19-7.67,6.93-7.67,6.93,14.8,7.36-5.18,16.32-5.18,16.32.51,7.82-11,8.23-11,8.23,14.49,11.25-4.52,20.92-4.52,20.92-.12,9.61-8.89,16.64-8.89,16.64-.36,9.44-9.36,15.23-9.36,15.23s.49,14.61-11.51,12.09C42.8,247.73,43.16,254.21,30.55,254.09Z"/><ellipse class="cls-4" cx="42.56" cy="130.66" rx="5.04" ry="1.92"/><circle class="cls-5" cx="46.52" cy="149.75" r="1.8"/><ellipse class="cls-6" cx="30.07" cy="179.65" rx="4.08" ry="2.4"/><ellipse class="cls-7" cx="42.56" cy="200.06" rx="5.04" ry="0.72"/><circle class="cls-4" cx="23.1" cy="221.91" r="2.88"/><circle class="cls-8" cx="32.6" cy="240.78" r="2.05"/><ellipse class="cls-4" cx="66.57" cy="122.26" rx="4.08" ry="1.68"/><circle class="cls-4" cx="53.55" cy="165.8" r="2"/></g></g></svg>