<svg xmlns="http://www.w3.org/2000/svg" viewBox="0 0 137.04 197.43"><defs><style>.cls-1{fill:#5c7e33;}.cls-2{fill:#656433;}.cls-3{fill:#4d6a2a;}.cls-4{fill:#535227;}</style></defs><g id="レイヤー_2" data-name="レイヤー 2"><g id="レイヤー_12" data-name="レイヤー 12"><path class="cls-1" d="M42.83,195.43S24.53,140.24,66.48,90.12s29.85-86,3.38-87.48S21.44,8.79,13,21.44l9,3.9S37.2,6.78,69.86,13c34,6.43.29,58-11.82,73.2S16.37,157.42,35.79,195.43Z"/><path class="cls-1" d="M66.48,90.12s22.12-9.28,33.38-9.28,47.52-6.08,32.27-40.92l-6.8,4.66S139.88,65.44,110.69,71C78.09,77.21,58,86.18,58,86.18Z"/><path class="cls-1" d="M52.65,99.13a30.65,30.65,0,0,0,2.53-24.77c-4.5-14.08-20-3.61-20-3.61l3.1,6.42s9.57-8.45,11,.56,5,22.2,0,31.54"/><path class="cls-2" d="M13,21.44S.88,25.23,2,31.21s7.88,2.36,7.88,2.36,0,8.52,6.2,6.35,4.69-4.56,4.69-4.56-1.88,5.19,4.6,4.92S29,33.17,29,33.17s-7.89-8.33-7-11.73S13,21.44,13,21.44Z"/><path class="cls-2" d="M35.19,70.75s-11.57,2.48-9.58,9.8,4.68,2.62,4.68,2.62,1.81,7.71,4.9,7S39.46,84,39.46,84s-.61,6.37,3.34,6.24S41.67,73.89,35.19,70.75Z"/><path class="cls-2" d="M132.13,39.92s-1.17-13-9-9.53-11.26,6.23-9.57,9.9,5.63,0,5.63,0-4.51,2.66-2.26,7.38,5.73,3.19,5.73,3.19-2.73,5.48,0,5.48S133.57,45.68,132.13,39.92Z"/></g><g id="レイヤー_13" data-name="レイヤー 13"><path class="cls-3" d="M42.83,197.43H34.6L34,196.37c-.42-.8-10.34-19.7-6.05-40.75,4.13-20.25,15.74-51.29,21.77-60.82C49.06,87,47.67,78.08,46.52,76c-1.89.06-4.18,1.25-5.55,1.62L39,74.1c.49-.23,5.19-2.41,8.47-2.1,1.46.14,4.5.42,6.37,23.15l.06.7-.39.58c-5.59,8.29-17.5,40.06-21.56,60-3.46,17,3.18,32.85,5.14,37h3.35c-.69-3.63-2-11-2.7-19.74C36.28,157,37.38,143.82,41,134.43l.74-2C50.23,110.15,57,92.53,65.61,88.32c8.07-3.92,25.1-9,34.76-9.46,10.92-.56,28-8.61,30.09-13.44,3.07-7.1,3.56-17.75-.32-27.25l4-.26a37.79,37.79,0,0,1,0,29.1c-3.55,8.22-25.43,14.38-34.28,13.83-8.59-.55-25.34,7.6-32.5,11.08s-14.36,22.2-21.91,42l-.75,1.95c-8.08,21.15,0,58.77.09,59.15l.53,2.43Z"/><path class="cls-3" d="M54.45,94.28l.24-6.41c.2-5.33-.58-14.86-3.52-17.7a2.38,2.38,0,0,0-2-.74,39.8,39.8,0,0,0-13.15,3.11L34.31,69a43.25,43.25,0,0,1,14.62-3.51,6.37,6.37,0,0,1,5,1.86c3.2,3.09,4.28,9.68,4.62,14.63,6.9-9.73,21.69-31.66,22.56-41.81.1-1.22.22-2.41.33-3.55C82.63,24.81,83.27,18.33,66,14.36c-19.41-4.47-40.2,7.7-41.9,9.69h0l-3.79-1.28C21.4,19.56,45.37,5.51,66.89,10.46,87.6,15.22,86.65,24.82,85.44,37c-.11,1.13-.22,2.3-.33,3.5C83.89,54.79,59.34,87.75,58.29,89.15Z"/><path class="cls-3" d="M69.68,82.24,72,78.5C78.41,68,88.35,50.91,89.33,47.17,91,40.59,92.77,18,86.5,13c-1.3-1-32.39-25.18-72.19,10l-2.65-3C27.64,5.83,44.32-.86,61.21.09,77.16,1,87.16,8.38,89,9.86c9.26,7.42,5.09,34.88,4.2,38.32C92,52.61,82.31,69.1,77.66,76.81c8.12-1.47,26-4.92,38.77-8.88,5.11-1.58,8.52-4.09,10.13-7.45,2.21-4.58,1.14-6.67.77-8l2.13-3c-1.22-.27,1.73,7.14-1.22,13.27-2.12,4.41-4.42,7.11-10.63,9C100.37,77.09,74.26,81.48,74,81.52Z"/><path class="cls-4" d="M26,42.88c-2.4,0-4.79-1.49-6.23-2.59-3.18,1.94-5.89,2.35-8,1.23S8.54,38,8.16,36.07c-2,.37-4.64.5-6.42-.85A4.55,4.55,0,0,1,0,31.1c.35-6.42,11.28-11,11.65-11.16L13,21.43h0l1.33,1.51C12.6,23.53,4.17,28.25,4,31.32c0,.26,0,.6.16.71.7.54,3.27.26,5.09-.36l2.65-.89v2.8c0,1.15.41,3.76,1.63,4.39,1,.51,2.86-.15,5.19-1.8L20,35.23l1.19,1.11c1.26,1.16,3.71,2.77,5,2.51.16,0,.51-.1.87-.9,1.45-3.2-5.08-13.58-6.78-15.18l3.79,1.28c.88.84,9.52,9.19,6.64,15.55A5.16,5.16,0,0,1,27,42.77,5.37,5.37,0,0,1,26,42.88Z"/><path class="cls-4" d="M42.66,92.3a2.38,2.38,0,0,1-.78-.14c-.49-.18-1.4-.5-2.86-3.74-1.28,1.72-2.9,3.37-4.51,3.67-2.54.48-4.22-2.2-5.3-5.35a3.12,3.12,0,0,1-1.84.1c-2.2-.56-3.42-3.22-4-8.62-.38-3.69,8.39-8,10.92-9.27l1.76,3.59c-2.8,1.42-8.51,4.49-8.7,5.37a17.48,17.48,0,0,0,.95,4.56c.09-.11.2-.26.32-.43l2.58-3.76,1,4.45a19,19,0,0,0,1.92,5.19,20.75,20.75,0,0,0,3.56-4.86l2.18-4,1.46,4.26c.36,1,.77,2.09,1.15,3a6.48,6.48,0,0,0,.12-1.49c-.07-1.48-.47-6.22-1.65-7.28l2.49-1c3,2.68,3.32,7.27,3.12,9.45-.23,2.5-1.43,5.1-2.74,5.9A2.25,2.25,0,0,1,42.66,92.3Z"/><path class="cls-4" d="M122.2,58.45a2.38,2.38,0,0,1-1.54-.56c-.52-.44-1.54-1.29-.58-5.41a7.1,7.1,0,0,1-4.68-3.3,8.24,8.24,0,0,1-.6-5.88A4.07,4.07,0,0,1,111.36,40c-.77-4.23,4.91-10.07,11.25-11.59a8.62,8.62,0,0,1,7.46,1.2c3.67,2.71,4,8,4.06,8.27l-4,.26c-.08-1-.66-4-2.45-5.33a4.83,4.83,0,0,0-4.15-.5,12.87,12.87,0,0,0-7.75,5.47,2.64,2.64,0,0,0-.49,1.51,2.33,2.33,0,0,0,1,.14,7.73,7.73,0,0,0,1-.07l3.74-.47-1.7,3.36c-.4.79-1.34,3.42-.47,4.93.54.95,1.84,1.51,3.86,1.65l2.52.19-.76,2.41c-.15.49-.3,1-.42,1.52l3.24-.48,1.1,2.52a45.22,45.22,0,0,1-4.91,3.09A2.85,2.85,0,0,1,122.2,58.45Z"/></g></g></svg>