<svg xmlns="http://www.w3.org/2000/svg" viewBox="0 0 389 223"><defs><style>.cls-1{fill:#fff6bf;}.cls-2{fill:#f49c2d;}.cls-3,.cls-4,.cls-5{fill:none;stroke:#f49c2d;}.cls-3{stroke-width:2.44px;}.cls-4{stroke-width:5px;}.cls-5{stroke-width:11px;}</style></defs><g id="レイヤー_2" data-name="レイヤー 2"><g id="レイヤー_1-2" data-name="レイヤー 1"><rect class="cls-1" x="5.5" y="5.5" width="378" height="212"/><path class="cls-2" d="M97.16,70.74,76.81,82.64a72.18,72.18,0,0,1-4.06-8.11c4.4-2.44,12.41-4.45,18.67-7.31,5.46-2.44,9.17-4.3,13-5.68A17.66,17.66,0,0,1,106.92,66C105.7,66.76,102.46,68.35,97.16,70.74Zm-3.5,24.82a2.53,2.53,0,0,1-.9-.11A92.36,92.36,0,0,1,90.69,77a6,6,0,0,1,2.55-.31c.31,0,.63,0,.84,0Q95,79.6,96.31,95A7,7,0,0,1,93.66,95.56Z"/><path class="cls-2" d="M151.72,88.5A66.1,66.1,0,0,1,148,96.77c-1.27-.21-7.85-.56-8.7-1.14,1-2.65,8.17-6.92,10.4-12.59-3.72-.43-12.09-1-25.25-1.7a12.33,12.33,0,0,1-.16-1.59,8.17,8.17,0,0,1,.22-1.59c4.24,0,8.32.11,12.19.32,7.53.42,13.58.9,18,1.48A69,69,0,0,1,151.72,88.5Zm1.91-21.9H140c-3.18,0-7.27-.16-12.36-.48a3.78,3.78,0,0,1-.26-1.43,8.65,8.65,0,0,1,.16-1.54L139.68,63q9.15,0,13.84.48a4.37,4.37,0,0,1,.27,1.54A8.56,8.56,0,0,1,153.63,66.6Z"/><path class="cls-2" d="M197.75,86.59c5,3,10.3,2.51,11.36,3.36,0,.21-2.55,3.06-3,3.85s-.74,1.17-1,1.22c-3.87-2-6.94-3.76-9.22-5.14l-4,6.68a3.86,3.86,0,0,1-1.6-.74c-.74-.42-7.73-2.31-8-2.63l20.1-23.67c-6.68-1.17-18.84-1.35-29-2.3a17.34,17.34,0,0,1,0-2.43c0-.85-.27-1.31,0-1.63,4.56.16,14.54.73,22,1.64,7.64,1.06,11.72,1.8,12.3,2.12C203.64,75.14,200.3,81.71,197.75,86.59Z"/><path class="cls-2" d="M240.07,96.56a14.39,14.39,0,0,1-2.07-.1c-.26-2.66-1.31-9.06-2.92-18.69-.81-4.87-1-8.56-.81-17,.48-.11,4.79-.07,5.59-.07a9.81,9.81,0,0,1,1.7.26l.21,35.38A4.54,4.54,0,0,1,240.07,96.56Zm17.5-13.89c-3.07-.69-7.48-2.55-13.1-5.52a6.19,6.19,0,0,1,1.43-3.07,53.4,53.4,0,0,0,8.66.45c4.06,0,5,1.19,5.68,1.62A34.41,34.41,0,0,1,257.57,82.67Z"/><path class="cls-2" d="M312.19,96.44a26.63,26.63,0,0,1-6-2.69c3.5-6.26,5.31-11,5.31-14.32a11.71,11.71,0,0,0-3-7.69,15.4,15.4,0,0,0-11.62-4.88,17.59,17.59,0,0,0-6.79,1.54q-7.54,4.3-7.53,12.09a9.07,9.07,0,0,0,1.65,5.2c.95,1.27,1.75,2,2.28,2,.37,0,.95-.63,1.8-1.85,3.34-4.4,5.94-8,7.74-10.87a10,10,0,0,1,2.65,2c-.53,1-2.49,3.87-5.83,8.59q-4.84,6.84-5.73,6.84a14,14,0,0,1-7.38-4,16.21,16.21,0,0,1-3.25-8.92c0-6.47,5.65-10.31,11.27-13.65a18.36,18.36,0,0,1,9.12-2.33,18.83,18.83,0,0,1,14.64,6.36c2.23,2.76,4.63,6.71,4.74,10.43C316.25,84.93,316.22,90.66,312.19,96.44Z"/><path class="cls-2" d="M131.41,133c-1.22,3.71-2.49,7.37-3.87,11-.74,1.8-1.38,3.39-1.8,4.77-.43,1.06-.8,2-1.12,2.76a19.84,19.84,0,0,1-1.54,3.29c-1.22-.32-6.41-1.58-7.31-2.37,2.76-7.75,9.59-14.13,12.25-20.54A7.8,7.8,0,0,1,131.41,133Zm33.06,17a21,21,0,0,1-5.38,4.65q-8.75-13.68-16.44-27.95a17.41,17.41,0,0,1,3-2.12C151.56,133.82,159.32,140.84,164.47,150Z"/><path class="cls-2" d="M176.43,126a7.57,7.57,0,0,1-.21-1.81,7.45,7.45,0,0,1,.11-1.53c11.82,0,23.54.26,35.1.74v1.48a4.7,4.7,0,0,1-.31,1.75c-5.94,0-11.83,0-17.72-.21a52.79,52.79,0,0,1-4.82,8,6.34,6.34,0,0,1-3-1.49c1.11-2.28,2.33-4.45,3.6-6.52C184.92,126.23,180.68,126.13,176.43,126Zm32.14,10.23a189.24,189.24,0,0,1-1,22.65c-2.22.32-8.16.53-17.71.53a32.52,32.52,0,0,1-9.23-1.12c-.74-5.94-4.63-13.88-4.79-22,1.27-.1,5.91.68,7.18.68.21,2.71.37,5.41.58,8.17.64,0,1.33-.05,2.07-.05,4.35,0,7.8,0,10.29-.06a7.92,7.92,0,0,1,.21,1.65,13.26,13.26,0,0,1-.1,1.54,85.1,85.1,0,0,1-10.61.47,16,16,0,0,1-1.65-.05c.11,2.28.27,4.56.38,6.79,7.31.32,14.1.47,20.25.47,0-4.13.11-9.65.43-16.44-6.68-.15-12.68-.53-18.09-1.11a29.29,29.29,0,0,1,.11-3.13C194.94,135.35,202.15,135.73,208.57,136.2Z"/><path class="cls-2" d="M238.74,128.73c-1.37,3.55-2.81,7.05-4.29,10.5-.85,1.69-1.54,3.23-2.07,4.5-.42,1-.79,1.86-1.17,2.6a18.51,18.51,0,0,1-1.69,3.18c-1.17-.31-5.76-2-6.61-2.75,3.07-7.37,8.11-13,12.55-19.1A8.4,8.4,0,0,1,238.74,128.73Zm6.85-7.54c6.36.22,12,.48,16.75.85.43,1.28.64,4,.64,8.22,0,1.59-.21,2.5-.58,2.71q-3.34.94-20.21.95a2.37,2.37,0,0,1-.37-1.54,4.73,4.73,0,0,1,.21-1.64c2.65-.11,8.33-.32,17.13-.53,0-1-.05-2.55-.05-4.77-5.89-.06-14.53-.43-26-1.06a9.14,9.14,0,0,1-.1-1.65,4.92,4.92,0,0,1,.21-1.64C237.37,121.09,241.5,121.14,245.59,121.19Zm14.69,15.38a14.55,14.55,0,0,1-.32,3.08c-5.09,0-10.08-.16-15.06-.53-1.06,1.86-2.07,3.71-3,5.52,2.87.21,7.59.53,14.27,1a5.19,5.19,0,0,1,.21,1.38,8.37,8.37,0,0,1-.21,1.64,129.1,129.1,0,0,1-19.3-1.22,33.7,33.7,0,0,1,4.24-8.59c-.85-.05-1.65-.1-2.39-.21a16.3,16.3,0,0,1,.27-3.29Q249.7,135.54,260.28,136.57Zm-8.7,13.63c0,.64-.05,1.33-.05,2l6.73.47a18.4,18.4,0,0,1-.37,3.18c-2.23,0-4.4,0-6.47-.1,0,.95-.11,1.8-.16,2.7,2.23-.1,4.46-.1,6.79-.1a12,12,0,0,1,.1,1.48v1.59a170,170,0,0,1-17.87,1,17.07,17.07,0,0,1-.32-3.29c2.34-.21,4.72-.37,7.22-.48,0-1.11,0-2.07,0-3-3.5-.16-6.89-.42-10.08-.8a29.77,29.77,0,0,1,.11-3.18c3.34.11,6.74.21,10.13.37a19.35,19.35,0,0,1,.21-2c.53-.05,1.22-.1,2-.1A6.41,6.41,0,0,1,251.58,150.2Zm12.2-2.59a7.52,7.52,0,0,1-3,1,10.48,10.48,0,0,1-1.91-5.62,11.4,11.4,0,0,1,3-.9A14.2,14.2,0,0,1,263.78,147.61Z"/><path class="cls-2" d="M97.16,70.74,76.81,82.64a72.18,72.18,0,0,1-4.06-8.11c4.4-2.44,12.41-4.45,18.67-7.31,5.46-2.44,9.17-4.3,13-5.68A17.66,17.66,0,0,1,106.92,66C105.7,66.76,102.46,68.35,97.16,70.74Zm-3.5,24.82a2.53,2.53,0,0,1-.9-.11A92.36,92.36,0,0,1,90.69,77a6,6,0,0,1,2.55-.31c.31,0,.63,0,.84,0Q95,79.6,96.31,95A7,7,0,0,1,93.66,95.56Z"/><path class="cls-2" d="M151.72,88.5A66.1,66.1,0,0,1,148,96.77c-1.27-.21-7.85-.56-8.7-1.14,1-2.65,8.17-6.92,10.4-12.59-3.72-.43-12.09-1-25.25-1.7a12.33,12.33,0,0,1-.16-1.59,8.17,8.17,0,0,1,.22-1.59c4.24,0,8.32.11,12.19.32,7.53.42,13.58.9,18,1.48A69,69,0,0,1,151.72,88.5Zm1.91-21.9H140c-3.18,0-7.27-.16-12.36-.48a3.78,3.78,0,0,1-.26-1.43,8.65,8.65,0,0,1,.16-1.54L139.68,63q9.15,0,13.84.48a4.37,4.37,0,0,1,.27,1.54A8.56,8.56,0,0,1,153.63,66.6Z"/><path class="cls-2" d="M197.75,86.59c5,3,10.3,2.51,11.36,3.36,0,.21-2.55,3.06-3,3.85s-.74,1.17-1,1.22c-3.87-2-6.94-3.76-9.22-5.14l-4,6.68a3.86,3.86,0,0,1-1.6-.74c-.74-.42-7.73-2.31-8-2.63l20.1-23.67c-6.68-1.17-18.84-1.35-29-2.3a17.34,17.34,0,0,1,0-2.43c0-.85-.27-1.31,0-1.63,4.56.16,14.54.73,22,1.64,7.64,1.06,11.72,1.8,12.3,2.12C203.64,75.14,200.3,81.71,197.75,86.59Z"/><path class="cls-2" d="M240.07,96.56a14.39,14.39,0,0,1-2.07-.1c-.26-2.66-1.31-9.06-2.92-18.69-.81-4.87-1-8.56-.81-17,.48-.11,4.79-.07,5.59-.07a9.81,9.81,0,0,1,1.7.26l.21,35.38A4.54,4.54,0,0,1,240.07,96.56Zm17.5-13.89c-3.07-.69-7.48-2.55-13.1-5.52a6.19,6.19,0,0,1,1.43-3.07,53.4,53.4,0,0,0,8.66.45c4.06,0,5,1.19,5.68,1.62A34.41,34.41,0,0,1,257.57,82.67Z"/><path class="cls-2" d="M312.19,96.44a26.63,26.63,0,0,1-6-2.69c3.5-6.26,5.31-11,5.31-14.32a11.71,11.71,0,0,0-3-7.69,15.4,15.4,0,0,0-11.62-4.88,17.59,17.59,0,0,0-6.79,1.54q-7.54,4.3-7.53,12.09a9.07,9.07,0,0,0,1.65,5.2c.95,1.27,1.75,2,2.28,2,.37,0,.95-.63,1.8-1.85,3.34-4.4,5.94-8,7.74-10.87a10,10,0,0,1,2.65,2c-.53,1-2.49,3.87-5.83,8.59q-4.84,6.84-5.73,6.84a14,14,0,0,1-7.38-4,16.21,16.21,0,0,1-3.25-8.92c0-6.47,5.65-10.31,11.27-13.65a18.36,18.36,0,0,1,9.12-2.33,18.83,18.83,0,0,1,14.64,6.36c2.23,2.76,4.63,6.71,4.74,10.43C316.25,84.93,316.22,90.66,312.19,96.44Z"/><path class="cls-2" d="M131.41,133c-1.22,3.71-2.49,7.37-3.87,11-.74,1.8-1.38,3.39-1.8,4.77-.43,1.06-.8,2-1.12,2.76a19.84,19.84,0,0,1-1.54,3.29c-1.22-.32-6.41-1.58-7.31-2.37,2.76-7.75,9.59-14.13,12.25-20.54A7.8,7.8,0,0,1,131.41,133Zm33.06,17a21,21,0,0,1-5.38,4.65q-8.75-13.68-16.44-27.95a17.41,17.41,0,0,1,3-2.12C151.56,133.82,159.32,140.84,164.47,150Z"/><path class="cls-2" d="M176.43,126a7.57,7.57,0,0,1-.21-1.81,7.45,7.45,0,0,1,.11-1.53c11.82,0,23.54.26,35.1.74v1.48a4.7,4.7,0,0,1-.31,1.75c-5.94,0-11.83,0-17.72-.21a52.79,52.79,0,0,1-4.82,8,6.34,6.34,0,0,1-3-1.49c1.11-2.28,2.33-4.45,3.6-6.52C184.92,126.23,180.68,126.13,176.43,126Zm32.14,10.23a189.24,189.24,0,0,1-1,22.65c-2.22.32-8.16.53-17.71.53a32.52,32.52,0,0,1-9.23-1.12c-.74-5.94-4.63-13.88-4.79-22,1.27-.1,5.91.68,7.18.68.21,2.71.37,5.41.58,8.17.64,0,1.33-.05,2.07-.05,4.35,0,7.8,0,10.29-.06a7.92,7.92,0,0,1,.21,1.65,13.26,13.26,0,0,1-.1,1.54,85.1,85.1,0,0,1-10.61.47,16,16,0,0,1-1.65-.05c.11,2.28.27,4.56.38,6.79,7.31.32,14.1.47,20.25.47,0-4.13.11-9.65.43-16.44-6.68-.15-12.68-.53-18.09-1.11a29.29,29.29,0,0,1,.11-3.13C194.94,135.35,202.15,135.73,208.57,136.2Z"/><path class="cls-2" d="M238.74,128.73c-1.37,3.55-2.81,7.05-4.29,10.5-.85,1.69-1.54,3.23-2.07,4.5-.42,1-.79,1.86-1.17,2.6a18.51,18.51,0,0,1-1.69,3.18c-1.17-.31-5.76-2-6.61-2.75,3.07-7.37,8.11-13,12.55-19.1A8.4,8.4,0,0,1,238.74,128.73Zm6.85-7.54c6.36.22,12,.48,16.75.85.43,1.28.64,4,.64,8.22,0,1.59-.21,2.5-.58,2.71q-3.34.94-20.21.95a2.37,2.37,0,0,1-.37-1.54,4.73,4.73,0,0,1,.21-1.64c2.65-.11,8.33-.32,17.13-.53,0-1-.05-2.55-.05-4.77-5.89-.06-14.53-.43-26-1.06a9.14,9.14,0,0,1-.1-1.65,4.92,4.92,0,0,1,.21-1.64C237.37,121.09,241.5,121.14,245.59,121.19Zm14.69,15.38a14.55,14.55,0,0,1-.32,3.08c-5.09,0-10.08-.16-15.06-.53-1.06,1.86-2.07,3.71-3,5.52,2.87.21,7.59.53,14.27,1a5.19,5.19,0,0,1,.21,1.38,8.37,8.37,0,0,1-.21,1.64,129.1,129.1,0,0,1-19.3-1.22,33.7,33.7,0,0,1,4.24-8.59c-.85-.05-1.65-.1-2.39-.21a16.3,16.3,0,0,1,.27-3.29Q249.7,135.54,260.28,136.57Zm-8.7,13.63c0,.64-.05,1.33-.05,2l6.73.47a18.4,18.4,0,0,1-.37,3.18c-2.23,0-4.4,0-6.47-.1,0,.95-.11,1.8-.16,2.7,2.23-.1,4.46-.1,6.79-.1a12,12,0,0,1,.1,1.48v1.59a170,170,0,0,1-17.87,1,17.07,17.07,0,0,1-.32-3.29c2.34-.21,4.72-.37,7.22-.48,0-1.11,0-2.07,0-3-3.5-.16-6.89-.42-10.08-.8a29.77,29.77,0,0,1,.11-3.18c3.34.11,6.74.21,10.13.37a19.35,19.35,0,0,1,.21-2c.53-.05,1.22-.1,2-.1A6.41,6.41,0,0,1,251.58,150.2Zm12.2-2.59a7.52,7.52,0,0,1-3,1,10.48,10.48,0,0,1-1.91-5.62,11.4,11.4,0,0,1,3-.9A14.2,14.2,0,0,1,263.78,147.61Z"/><path class="cls-3" d="M97.16,70.74,76.81,82.64a72.18,72.18,0,0,1-4.06-8.11c4.4-2.44,12.41-4.45,18.67-7.31,5.46-2.44,9.17-4.3,13-5.68A17.66,17.66,0,0,1,106.92,66C105.7,66.76,102.46,68.35,97.16,70.74Zm-3.5,24.82a2.53,2.53,0,0,1-.9-.11A92.36,92.36,0,0,1,90.69,77a6,6,0,0,1,2.55-.31c.31,0,.63,0,.84,0Q95,79.6,96.31,95A7,7,0,0,1,93.66,95.56Z"/><path class="cls-3" d="M151.72,88.5A66.1,66.1,0,0,1,148,96.77c-1.27-.21-7.85-.56-8.7-1.14,1-2.65,8.17-6.92,10.4-12.59-3.72-.43-12.09-1-25.25-1.7a12.33,12.33,0,0,1-.16-1.59,8.17,8.17,0,0,1,.22-1.59c4.24,0,8.32.11,12.19.32,7.53.42,13.58.9,18,1.48A69,69,0,0,1,151.72,88.5Zm1.91-21.9H140c-3.18,0-7.27-.16-12.36-.48a3.78,3.78,0,0,1-.26-1.43,8.65,8.65,0,0,1,.16-1.54L139.68,63q9.15,0,13.84.48a4.37,4.37,0,0,1,.27,1.54A8.56,8.56,0,0,1,153.63,66.6Z"/><path class="cls-3" d="M197.75,86.59c5,3,10.3,2.51,11.36,3.36,0,.21-2.55,3.06-3,3.85s-.74,1.17-1,1.22c-3.87-2-6.94-3.76-9.22-5.14l-4,6.68a3.86,3.86,0,0,1-1.6-.74c-.74-.42-7.73-2.31-8-2.63l20.1-23.67c-6.68-1.17-18.84-1.35-29-2.3a17.34,17.34,0,0,1,0-2.43c0-.85-.27-1.31,0-1.63,4.56.16,14.54.73,22,1.64,7.64,1.06,11.72,1.8,12.3,2.12C203.64,75.14,200.3,81.71,197.75,86.59Z"/><path class="cls-3" d="M240.07,96.56a14.39,14.39,0,0,1-2.07-.1c-.26-2.66-1.31-9.06-2.92-18.69-.81-4.87-1-8.56-.81-17,.48-.11,4.79-.07,5.59-.07a9.81,9.81,0,0,1,1.7.26l.21,35.38A4.54,4.54,0,0,1,240.07,96.56Zm17.5-13.89c-3.07-.69-7.48-2.55-13.1-5.52a6.19,6.19,0,0,1,1.43-3.07,53.4,53.4,0,0,0,8.66.45c4.06,0,5,1.19,5.68,1.62A34.41,34.41,0,0,1,257.57,82.67Z"/><path class="cls-3" d="M312.19,96.44a26.63,26.63,0,0,1-6-2.69c3.5-6.26,5.31-11,5.31-14.32a11.71,11.71,0,0,0-3-7.69,15.4,15.4,0,0,0-11.62-4.88,17.59,17.59,0,0,0-6.79,1.54q-7.54,4.3-7.53,12.09a9.07,9.07,0,0,0,1.65,5.2c.95,1.27,1.75,2,2.28,2,.37,0,.95-.63,1.8-1.85,3.34-4.4,5.94-8,7.74-10.87a10,10,0,0,1,2.65,2c-.53,1-2.49,3.87-5.83,8.59q-4.84,6.84-5.73,6.84a14,14,0,0,1-7.38-4,16.21,16.21,0,0,1-3.25-8.92c0-6.47,5.65-10.31,11.27-13.65a18.36,18.36,0,0,1,9.12-2.33,18.83,18.83,0,0,1,14.64,6.36c2.23,2.76,4.63,6.71,4.74,10.43C316.25,84.93,316.22,90.66,312.19,96.44Z"/><path class="cls-3" d="M131.41,133c-1.22,3.71-2.49,7.37-3.87,11-.74,1.8-1.38,3.39-1.8,4.77-.43,1.06-.8,2-1.12,2.76a19.84,19.84,0,0,1-1.54,3.29c-1.22-.32-6.41-1.58-7.31-2.37,2.76-7.75,9.59-14.13,12.25-20.54A7.8,7.8,0,0,1,131.41,133Zm33.06,17a21,21,0,0,1-5.38,4.65q-8.75-13.68-16.44-27.95a17.41,17.41,0,0,1,3-2.12C151.56,133.82,159.32,140.84,164.47,150Z"/><path class="cls-3" d="M176.43,126a7.57,7.57,0,0,1-.21-1.81,7.45,7.45,0,0,1,.11-1.53c11.82,0,23.54.26,35.1.74v1.48a4.7,4.7,0,0,1-.31,1.75c-5.94,0-11.83,0-17.72-.21a52.79,52.79,0,0,1-4.82,8,6.34,6.34,0,0,1-3-1.49c1.11-2.28,2.33-4.45,3.6-6.52C184.92,126.23,180.68,126.13,176.43,126Zm32.14,10.23a189.24,189.24,0,0,1-1,22.65c-2.22.32-8.16.53-17.71.53a32.52,32.52,0,0,1-9.23-1.12c-.74-5.94-4.63-13.88-4.79-22,1.27-.1,5.91.68,7.18.68.21,2.71.37,5.41.58,8.17.64,0,1.33-.05,2.07-.05,4.35,0,7.8,0,10.29-.06a7.92,7.92,0,0,1,.21,1.65,13.26,13.26,0,0,1-.1,1.54,85.1,85.1,0,0,1-10.61.47,16,16,0,0,1-1.65-.05c.11,2.28.27,4.56.38,6.79,7.31.32,14.1.47,20.25.47,0-4.13.11-9.65.43-16.44-6.68-.15-12.68-.53-18.09-1.11a29.29,29.29,0,0,1,.11-3.13C194.94,135.35,202.15,135.73,208.57,136.2Z"/><path class="cls-3" d="M238.74,128.73c-1.37,3.55-2.81,7.05-4.29,10.5-.85,1.69-1.54,3.23-2.07,4.5-.42,1-.79,1.86-1.17,2.6a18.51,18.51,0,0,1-1.69,3.18c-1.17-.31-5.76-2-6.61-2.75,3.07-7.37,8.11-13,12.55-19.1A8.4,8.4,0,0,1,238.74,128.73Zm6.85-7.54c6.36.22,12,.48,16.75.85.43,1.28.64,4,.64,8.22,0,1.59-.21,2.5-.58,2.71q-3.34.94-20.21.95a2.37,2.37,0,0,1-.37-1.54,4.73,4.73,0,0,1,.21-1.64c2.65-.11,8.33-.32,17.13-.53,0-1-.05-2.55-.05-4.77-5.89-.06-14.53-.43-26-1.06a9.14,9.14,0,0,1-.1-1.65,4.92,4.92,0,0,1,.21-1.64C237.37,121.09,241.5,121.14,245.59,121.19Zm14.69,15.38a14.55,14.55,0,0,1-.32,3.08c-5.09,0-10.08-.16-15.06-.53-1.06,1.86-2.07,3.71-3,5.52,2.87.21,7.59.53,14.27,1a5.19,5.19,0,0,1,.21,1.38,8.37,8.37,0,0,1-.21,1.64,129.1,129.1,0,0,1-19.3-1.22,33.7,33.7,0,0,1,4.24-8.59c-.85-.05-1.65-.1-2.39-.21a16.3,16.3,0,0,1,.27-3.29Q249.7,135.54,260.28,136.57Zm-8.7,13.63c0,.64-.05,1.33-.05,2l6.73.47a18.4,18.4,0,0,1-.37,3.18c-2.23,0-4.4,0-6.47-.1,0,.95-.11,1.8-.16,2.7,2.23-.1,4.46-.1,6.79-.1a12,12,0,0,1,.1,1.48v1.59a170,170,0,0,1-17.87,1,17.07,17.07,0,0,1-.32-3.29c2.34-.21,4.72-.37,7.22-.48,0-1.11,0-2.07,0-3-3.5-.16-6.89-.42-10.08-.8a29.77,29.77,0,0,1,.11-3.18c3.34.11,6.74.21,10.13.37a19.35,19.35,0,0,1,.21-2c.53-.05,1.22-.1,2-.1A6.41,6.41,0,0,1,251.58,150.2Zm12.2-2.59a7.52,7.52,0,0,1-3,1,10.48,10.48,0,0,1-1.91-5.62,11.4,11.4,0,0,1,3-.9A14.2,14.2,0,0,1,263.78,147.61Z"/><path class="cls-3" d="M97.16,70.74,76.81,82.64a72.18,72.18,0,0,1-4.06-8.11c4.4-2.44,12.41-4.45,18.67-7.31,5.46-2.44,9.17-4.3,13-5.68A17.66,17.66,0,0,1,106.92,66C105.7,66.76,102.46,68.35,97.16,70.74Zm-3.5,24.82a2.53,2.53,0,0,1-.9-.11A92.36,92.36,0,0,1,90.69,77a6,6,0,0,1,2.55-.31c.31,0,.63,0,.84,0Q95,79.6,96.31,95A7,7,0,0,1,93.66,95.56Z"/><path class="cls-3" d="M151.72,88.5A66.1,66.1,0,0,1,148,96.77c-1.27-.21-7.85-.56-8.7-1.14,1-2.65,8.17-6.92,10.4-12.59-3.72-.43-12.09-1-25.25-1.7a12.33,12.33,0,0,1-.16-1.59,8.17,8.17,0,0,1,.22-1.59c4.24,0,8.32.11,12.19.32,7.53.42,13.58.9,18,1.48A69,69,0,0,1,151.72,88.5Zm1.91-21.9H140c-3.18,0-7.27-.16-12.36-.48a3.78,3.78,0,0,1-.26-1.43,8.65,8.65,0,0,1,.16-1.54L139.68,63q9.15,0,13.84.48a4.37,4.37,0,0,1,.27,1.54A8.56,8.56,0,0,1,153.63,66.6Z"/><path class="cls-3" d="M197.75,86.59c5,3,10.3,2.51,11.36,3.36,0,.21-2.55,3.06-3,3.85s-.74,1.17-1,1.22c-3.87-2-6.94-3.76-9.22-5.14l-4,6.68a3.86,3.86,0,0,1-1.6-.74c-.74-.42-7.73-2.31-8-2.63l20.1-23.67c-6.68-1.17-18.84-1.35-29-2.3a17.34,17.34,0,0,1,0-2.43c0-.85-.27-1.31,0-1.63,4.56.16,14.54.73,22,1.64,7.64,1.06,11.72,1.8,12.3,2.12C203.64,75.14,200.3,81.71,197.75,86.59Z"/><path class="cls-3" d="M240.07,96.56a14.39,14.39,0,0,1-2.07-.1c-.26-2.66-1.31-9.06-2.92-18.69-.81-4.87-1-8.56-.81-17,.48-.11,4.79-.07,5.59-.07a9.81,9.81,0,0,1,1.7.26l.21,35.38A4.54,4.54,0,0,1,240.07,96.56Zm17.5-13.89c-3.07-.69-7.48-2.55-13.1-5.52a6.19,6.19,0,0,1,1.43-3.07,53.4,53.4,0,0,0,8.66.45c4.06,0,5,1.19,5.68,1.62A34.41,34.41,0,0,1,257.57,82.67Z"/><path class="cls-3" d="M312.19,96.44a26.63,26.63,0,0,1-6-2.69c3.5-6.26,5.31-11,5.31-14.32a11.71,11.71,0,0,0-3-7.69,15.4,15.4,0,0,0-11.62-4.88,17.59,17.59,0,0,0-6.79,1.54q-7.54,4.3-7.53,12.09a9.07,9.07,0,0,0,1.65,5.2c.95,1.27,1.75,2,2.28,2,.37,0,.95-.63,1.8-1.85,3.34-4.4,5.94-8,7.74-10.87a10,10,0,0,1,2.65,2c-.53,1-2.49,3.87-5.83,8.59q-4.84,6.84-5.73,6.84a14,14,0,0,1-7.38-4,16.21,16.21,0,0,1-3.25-8.92c0-6.47,5.65-10.31,11.27-13.65a18.36,18.36,0,0,1,9.12-2.33,18.83,18.83,0,0,1,14.64,6.36c2.23,2.76,4.63,6.71,4.74,10.43C316.25,84.93,316.22,90.66,312.19,96.44Z"/><path class="cls-3" d="M131.41,133c-1.22,3.71-2.49,7.37-3.87,11-.74,1.8-1.38,3.39-1.8,4.77-.43,1.06-.8,2-1.12,2.76a19.84,19.84,0,0,1-1.54,3.29c-1.22-.32-6.41-1.58-7.31-2.37,2.76-7.75,9.59-14.13,12.25-20.54A7.8,7.8,0,0,1,131.41,133Zm33.06,17a21,21,0,0,1-5.38,4.65q-8.75-13.68-16.44-27.95a17.41,17.41,0,0,1,3-2.12C151.56,133.82,159.32,140.84,164.47,150Z"/><path class="cls-3" d="M176.43,126a7.57,7.57,0,0,1-.21-1.81,7.45,7.45,0,0,1,.11-1.53c11.82,0,23.54.26,35.1.74v1.48a4.7,4.7,0,0,1-.31,1.75c-5.94,0-11.83,0-17.72-.21a52.79,52.79,0,0,1-4.82,8,6.34,6.34,0,0,1-3-1.49c1.11-2.28,2.33-4.45,3.6-6.52C184.92,126.23,180.68,126.13,176.43,126Zm32.14,10.23a189.24,189.24,0,0,1-1,22.65c-2.22.32-8.16.53-17.71.53a32.52,32.52,0,0,1-9.23-1.12c-.74-5.94-4.63-13.88-4.79-22,1.27-.1,5.91.68,7.18.68.21,2.71.37,5.41.58,8.17.64,0,1.33-.05,2.07-.05,4.35,0,7.8,0,10.29-.06a7.92,7.92,0,0,1,.21,1.65,13.26,13.26,0,0,1-.1,1.54,85.1,85.1,0,0,1-10.61.47,16,16,0,0,1-1.65-.05c.11,2.28.27,4.56.38,6.79,7.31.32,14.1.47,20.25.47,0-4.13.11-9.65.43-16.44-6.68-.15-12.68-.53-18.09-1.11a29.29,29.29,0,0,1,.11-3.13C194.94,135.35,202.15,135.73,208.57,136.2Z"/><path class="cls-3" d="M238.74,128.73c-1.37,3.55-2.81,7.05-4.29,10.5-.85,1.69-1.54,3.23-2.07,4.5-.42,1-.79,1.86-1.17,2.6a18.51,18.51,0,0,1-1.69,3.18c-1.17-.31-5.76-2-6.61-2.75,3.07-7.37,8.11-13,12.55-19.1A8.4,8.4,0,0,1,238.74,128.73Zm6.85-7.54c6.36.22,12,.48,16.75.85.43,1.28.64,4,.64,8.22,0,1.59-.21,2.5-.58,2.71q-3.34.94-20.21.95a2.37,2.37,0,0,1-.37-1.54,4.73,4.73,0,0,1,.21-1.64c2.65-.11,8.33-.32,17.13-.53,0-1-.05-2.55-.05-4.77-5.89-.06-14.53-.43-26-1.06a9.14,9.14,0,0,1-.1-1.65,4.92,4.92,0,0,1,.21-1.64C237.37,121.09,241.5,121.14,245.59,121.19Zm14.69,15.38a14.55,14.55,0,0,1-.32,3.08c-5.09,0-10.08-.16-15.06-.53-1.06,1.86-2.07,3.71-3,5.52,2.87.21,7.59.53,14.27,1a5.19,5.19,0,0,1,.21,1.38,8.37,8.37,0,0,1-.21,1.64,129.1,129.1,0,0,1-19.3-1.22,33.7,33.7,0,0,1,4.24-8.59c-.85-.05-1.65-.1-2.39-.21a16.3,16.3,0,0,1,.27-3.29Q249.7,135.54,260.28,136.57Zm-8.7,13.63c0,.64-.05,1.33-.05,2l6.73.47a18.4,18.4,0,0,1-.37,3.18c-2.23,0-4.4,0-6.47-.1,0,.95-.11,1.8-.16,2.7,2.23-.1,4.46-.1,6.79-.1a12,12,0,0,1,.1,1.48v1.59a170,170,0,0,1-17.87,1,17.07,17.07,0,0,1-.32-3.29c2.34-.21,4.72-.37,7.22-.48,0-1.11,0-2.07,0-3-3.5-.16-6.89-.42-10.08-.8a29.77,29.77,0,0,1,.11-3.18c3.34.11,6.74.21,10.13.37a19.35,19.35,0,0,1,.21-2c.53-.05,1.22-.1,2-.1A6.41,6.41,0,0,1,251.58,150.2Zm12.2-2.59a7.52,7.52,0,0,1-3,1,10.48,10.48,0,0,1-1.91-5.62,11.4,11.4,0,0,1,3-.9A14.2,14.2,0,0,1,263.78,147.61Z"/><rect class="cls-4" x="26.5" y="28" width="336" height="167"/><rect class="cls-5" x="5.5" y="5.5" width="378" height="212"/></g></g></svg>